<?xml version="1.0" encoding="utf-8"?>
<!-- Generator: Adobe Illustrator 25.0.1, SVG Export Plug-In . SVG Version: 6.00 Build 0)  -->
<svg version="1.1" id="Layer_1" xmlns="http://www.w3.org/2000/svg" xmlns:xlink="http://www.w3.org/1999/xlink" x="0px" y="0px"
	 viewBox="0 0 344.6 136.9" style="enable-background:new 0 0 344.6 136.9;" xml:space="preserve">
<style type="text/css">
	.st0{fill:#070707;}
	.st1{fill:#EAD406;}
</style>
<g id="Layer_2_1_">
	<g id="Layer_2-2">
		<path class="st0" d="M329.4,24H15.1C6.8,24,0,30.8,0,39.1l0,0V88c0,8.4,6.8,15.1,15.1,15.1l0,0h314.3c8.4,0,15.1-6.8,15.1-15.1
			V39.2C344.6,30.8,337.8,24,329.4,24L329.4,24z M191.3,81.8h-7.8V71.5l0.8-17.8l-10.2,28.1h-5.3l-10.2-28.1l0.8,17.8v10.3h-7.8
			V44.1h10.2l9.7,27.4l9.6-27.4h10.2V81.8z M206.4,81.8h-7.8V44.1h7.8V81.8z M244.3,81.8h-7.8L221.4,57v24.8h-7.8V44.1h7.8L236.5,69
			V44.1h7.8V81.8z M278.7,50.4h-11.6v31.4h-7.8V50.4H248v-6.3h30.7V50.4z"/>
		<polygon class="st1" points="87.8,0 54.2,85.2 87.8,78.7 81.6,136.9 122.5,53.1 90.9,58.5 		"/>
	</g>
</g>
</svg>
