<svg width="36" height="27" viewBox="0 0 36 27" fill="none" xmlns="http://www.w3.org/2000/svg">
<g clip-path="url(#clip0_1:9)">
<path d="M0 20.3704V18.3665C0.0273383 18.2402 0.0457383 18.1123 0.0550711 17.9835C0.120458 16.5425 0.292231 15.1079 0.569068 13.6907C1.3676 9.62953 3.03809 5.91565 5.35108 2.46005C5.44404 2.32143 5.57413 2.20998 5.7274 2.13764C7.92778 1.15227 10.2465 0.437797 12.6296 0.0108438C12.8499 -0.024781 12.9784 0.0286562 13.0794 0.215686C13.263 0.589746 13.4649 0.963806 13.6485 1.33787C13.9146 1.87224 13.9055 1.84552 14.5021 1.80099C15.8238 1.70302 17.1455 1.58724 18.4764 1.58724C19.5135 1.58724 20.5599 1.72974 21.5971 1.8188C22.056 1.85442 22.0835 1.85442 22.2763 1.45365C22.469 1.05287 22.6801 0.660995 22.8637 0.260217C22.9738 0.01975 23.1299 -0.024781 23.3961 0.01975C25.7446 0.438119 28.0296 1.14128 30.1973 2.1127C30.384 2.20069 30.5426 2.33611 30.6563 2.50458C31.2437 3.43973 31.8495 4.36597 32.3818 5.33674C34.1992 8.66766 35.3648 12.2123 35.7779 15.9618C35.9064 17.1018 35.9706 18.2418 35.9982 19.3818C36.0165 20.2635 35.9064 21.1452 35.8788 22.0269C35.8795 22.1739 35.8421 22.3187 35.7699 22.4479C35.6977 22.5771 35.5931 22.6865 35.4658 22.7662C33.832 23.9061 32.1248 24.9215 30.2891 25.7141C29.2428 26.1594 28.1689 26.5335 27.095 26.9253C26.9206 26.9877 26.7095 27.0857 26.5718 26.8541C26.0028 25.9457 25.4337 25.0372 24.8646 24.1377C24.7637 23.9774 24.8095 23.8705 24.9931 23.7993C25.2318 23.7102 25.4704 23.6211 25.709 23.5054C26.3056 23.2204 26.8931 22.9265 27.4805 22.6237C27.765 22.4812 27.7375 22.4455 27.5172 22.2229C27.2235 21.929 26.9573 21.9379 26.5718 22.1071C24.2607 23.1295 21.774 23.7269 19.2382 23.8687C15.8455 24.0566 12.4566 23.4429 9.36209 22.0804C9.01331 21.929 8.77467 21.9557 8.50849 22.2051C8.24231 22.4544 8.22396 22.4901 8.55438 22.6504C9.30702 23.0244 10.0688 23.3807 10.8398 23.7369C11.2345 23.9151 11.262 23.924 11.0509 24.2713C10.5645 25.0729 10.0688 25.8655 9.56402 26.6582C9.30702 27.0589 9.28866 27.05 8.81138 26.8986C5.827 25.9445 3.01722 24.5377 0.486462 22.7305C0.374411 22.6588 0.282846 22.5608 0.220266 22.4456C0.157686 22.3304 0.126121 22.2017 0.128499 22.0715C0.100964 21.5104 0.0458926 20.9404 0 20.3704ZM27.1776 14.804C27.1851 14.1581 27.024 13.5208 26.7095 12.9515C25.654 11.0456 23.2033 10.7161 21.7347 12.2925C20.3947 13.7264 20.4589 16.1489 21.8632 17.5115C23.1023 18.7138 24.9656 18.696 26.168 17.4492C26.8655 16.7099 27.1684 15.8104 27.1776 14.804ZM12.3176 11.2861C11.2712 11.2861 10.5645 11.5622 9.99541 12.0787C8.42588 13.5037 8.42588 16.14 9.98623 17.5738C11.1244 18.6248 12.7765 18.6604 13.9697 17.6718C15.6769 16.2468 15.6586 13.3612 13.9238 11.9629C13.3823 11.5176 12.749 11.2861 12.3176 11.2861Z" fill="white"/>
</g>
<defs>
<clipPath id="clip0_1:9">
<rect width="36" height="27" fill="white"/>
</clipPath>
</defs>
</svg>
