<svg width="19" height="22" viewBox="0 0 19 22" fill="none" xmlns="http://www.w3.org/2000/svg">
<path d="M4.86799 7.48916C4.90214 6.2182 5.41747 5.01285 6.30161 4.13599C7.18575 3.25912 8.36696 2.78187 9.58765 2.80831C10.8079 2.78188 11.9886 3.25928 12.8721 4.13628C13.7555 5.01327 14.2698 6.21862 14.3028 7.48916H16.9503C16.9409 6.4934 16.7429 5.50937 16.3674 4.59353C15.992 3.67768 15.4466 2.84804 14.7625 2.15222C14.0785 1.45639 13.2692 0.908059 12.3812 0.538694C11.4931 0.169329 10.5438 -0.0138042 9.58765 -0.000199538C8.63373 -0.0144386 7.68647 0.167148 6.79994 0.534189C5.91342 0.90123 5.10502 1.44654 4.42089 2.13897C3.73677 2.83139 3.19033 3.65738 2.81278 4.56975C2.43523 5.48213 2.23397 6.46301 2.22049 7.4564L4.86799 7.48916Z" fill="#868686"/>
<path d="M17.8403 7.83545H1.15969C0.51921 7.83545 0 8.37614 0 9.04311V20.792C0 21.459 0.51921 21.9997 1.15969 21.9997H17.8403C18.4808 21.9997 19 21.459 19 20.792V9.04311C19 8.37614 18.4808 7.83545 17.8403 7.83545Z" fill="#868686"/>
</svg>
