<svg width="105" height="61" viewBox="0 0 105 61" fill="none" xmlns="http://www.w3.org/2000/svg">
<path d="M22.5653 46.5967V36.7661C22.5653 34.6445 21.4662 33.5771 19.2811 33.5771H12.9909V46.5967H6.66101V27.8711H19.44C22.552 27.8711 24.9092 28.6486 26.4851 30.1904C28.0742 31.7454 28.8555 33.9461 28.8555 36.7925V46.5836H22.5653V46.5967Z" fill="white"/>
<path d="M38.6285 27.8711H32.3383V46.5967H38.6285V27.8711Z" fill="white"/>
<path d="M42.3629 46.5968V27.1991C42.3629 24.9984 42.9455 23.2985 44.0976 22.1125C45.2497 20.9265 46.958 20.3335 49.2225 20.3335H56.3072V25.2883H50.8778C50.123 25.2883 49.5536 25.486 49.1828 25.8945C48.812 26.2899 48.6133 26.9619 48.6133 27.8844H56.4132V33.0632H48.6133V46.61H42.3629V46.5968Z" fill="white"/>
<path d="M65.4711 46.5968C63.1801 46.5968 61.4718 46.0038 60.3197 44.8178C59.1809 43.6318 58.5982 41.9319 58.5982 39.7312V22.5474H64.8619V27.8712H72.3969V33.0501H64.8619V39.2436C64.8619 40.7195 65.6035 41.4575 67.0867 41.4575H72.2115V46.5968H65.4711Z" fill="white"/>
<path d="M78.2104 53.1198V47.7169H80.21C81.0178 47.7169 81.6402 47.5587 82.0905 47.2293C82.5407 46.8998 82.9115 46.5045 83.1896 46.0301L74.1449 27.8711H80.5146L86.0897 39.8761L91.8237 27.8711H98.2331L87.7847 48.4285C87.3875 49.2323 86.9637 49.9175 86.5267 50.5105C86.0897 51.1035 85.5865 51.5911 85.0435 51.9733C84.4874 52.3554 83.865 52.6453 83.1763 52.8298C82.4877 53.0143 81.6932 53.1066 80.7794 53.1066H78.2104V53.1198Z" fill="white"/>
<path d="M36.0197 7.99902L31.5702 19.2265L36.0197 18.3699L35.1986 26.0394L40.6148 14.9964L36.4302 15.708L36.0197 7.99902Z" fill="#E0E00E"/>
</svg>
