<svg width="27" height="27" viewBox="0 0 27 27" fill="none" xmlns="http://www.w3.org/2000/svg">
<g clip-path="url(#clip0_1:14)">
<path d="M13.4999 0C10.8299 0 8.21981 0.791761 5.99975 2.27516C3.77968 3.75856 2.04935 5.86697 1.02757 8.33377C0.0057883 10.8006 -0.261557 13.515 0.259344 16.1337C0.780244 18.7525 2.06599 21.1579 3.954 23.0459C5.84201 24.9339 8.24748 26.2197 10.8662 26.7406C13.485 27.2615 16.1994 26.9942 18.6662 25.9724C21.133 24.9506 23.2414 23.2203 24.7248 21.0002C26.2082 18.7801 26.9999 16.17 26.9999 13.5C26.9999 9.91958 25.5776 6.4858 23.0459 3.95406C20.5141 1.42232 17.0804 0 13.4999 0V0ZM10.2758 8.3381L10.4284 8.3626C10.5509 8.65773 10.6823 8.94951 10.7926 9.25355C11.1022 10.0999 11.3673 10.9552 11.3494 11.874C11.3294 12.6737 10.9229 13.3218 10.5287 13.9722C10.493 14.0133 10.449 14.0464 10.3997 14.0694C10.3504 14.0924 10.2968 14.1048 10.2424 14.1058C9.14435 14.1147 8.04627 14.1114 6.94818 14.1058C6.84758 14.0862 6.74964 14.0548 6.6564 14.0123L10.2758 8.3381ZM21.7913 16.1717C21.1387 16.4401 20.6665 16.9301 20.2956 17.536C19.9114 18.163 19.5004 18.7766 19.0583 19.3635C18.5304 20.0662 17.8132 20.387 16.9156 20.3781C14.7061 20.3558 12.4965 20.3781 10.287 20.3669C7.9672 20.3525 6.1441 18.8134 5.75432 16.5726L5.74764 16.5359C5.61399 15.7129 5.65631 15.6628 6.486 15.6616C7.44711 15.6616 8.40932 15.6683 9.37043 15.6616C9.6611 15.6616 9.8159 15.7184 9.85154 16.0637C9.92727 16.8188 10.4819 17.3032 11.2381 17.321C11.7615 17.3344 12.286 17.321 12.8106 17.3277C13.0868 17.3344 13.1926 17.2163 13.1903 16.9513C13.1814 15.5458 13.3318 15.8376 12.1257 15.802C11.9386 15.7964 11.7504 15.812 11.5688 15.7964C11.4509 15.7777 11.335 15.7483 11.2225 15.7084C11.248 15.5935 11.2854 15.4816 11.3338 15.3743C11.6178 14.8765 11.9208 14.3876 12.2036 13.8887C12.903 12.6536 12.9097 11.3439 12.4954 10.042C12.1613 9.00074 11.7069 7.99732 11.3049 6.9783C11.2681 6.88587 11.218 6.799 11.1802 6.70657C11.1731 6.64775 11.1731 6.5883 11.1802 6.52949C11.7437 6.67872 12.2638 6.80457 12.7749 6.95937C13.0957 7.05626 13.2204 6.95937 13.2004 6.63418C13.1926 6.47197 13.1948 6.30943 13.207 6.1475C13.2382 5.72542 13.5256 5.43586 13.9176 5.41916C14.1076 5.41315 14.2926 5.48065 14.434 5.60761C14.5755 5.73457 14.6626 5.91119 14.6771 6.10073C14.702 6.42457 14.7068 6.74964 14.6916 7.07408C14.6835 7.18337 14.7051 7.29281 14.7541 7.39083C14.8031 7.48885 14.8777 7.57181 14.97 7.63092C16.0369 8.44947 16.9824 9.38607 17.6629 10.5632C18.311 11.6836 18.34 12.7984 17.5816 13.8709C17.2007 14.4088 16.7519 14.8988 16.3376 15.4133C16.0581 15.7597 15.6894 15.8231 15.2674 15.8064C14.6994 15.7853 14.6916 15.8064 14.6972 16.3532C14.7072 17.4847 14.5591 17.2709 15.6705 17.3355C16.4634 17.3812 17.0871 17.1362 17.5816 16.5292C17.8648 16.1953 18.2498 15.9637 18.6774 15.8699C19.7388 15.5893 20.7934 15.2652 21.8447 14.9623C22.2579 14.8442 22.2724 14.8765 22.3091 15.3075C22.3459 15.7385 22.2145 15.998 21.7913 16.1717Z" fill="white"/>
</g>
<defs>
<clipPath id="clip0_1:14">
<rect width="27" height="27" fill="white"/>
</clipPath>
</defs>
</svg>
