<svg width="39" height="28" viewBox="0 0 39 28" fill="none" xmlns="http://www.w3.org/2000/svg">
<g clip-path="url(#clip0_1:5)">
<path d="M27.2138 0.00951798C27.1304 0.561561 26.8247 0.932762 26.3799 1.23734C26.5004 1.19927 26.6115 1.17071 26.732 1.13264C27.2787 0.980352 27.8161 0.828064 28.3628 0.685295C28.4391 0.667232 28.5165 0.654512 28.5944 0.647223C28.7705 0.637705 28.9558 0.685295 29.0021 0.875654C29.0164 0.948858 29.0146 1.02439 28.997 1.09681C28.9794 1.16924 28.9463 1.23674 28.9002 1.29445C28.7463 1.47105 28.5565 1.61077 28.3443 1.70372C27.7512 1.94167 27.1397 2.14155 26.5374 2.35094C26.3924 2.38816 26.2567 2.45626 26.139 2.55082C26.2265 2.57891 26.3165 2.59804 26.4077 2.60793C28.2794 2.72214 29.8731 3.48358 31.2259 4.78754C32.1875 5.72044 32.9784 6.82295 33.5609 8.0427C33.8589 8.62605 34.0594 9.25666 34.154 9.90822C34.191 10.2413 34.3578 10.4032 34.6821 10.4698C35.9423 10.7363 37.1932 10.7648 38.4533 10.4412C38.5552 10.4127 38.6757 10.4032 38.861 10.3746C38.4162 11.0218 37.9715 11.5548 37.3043 11.8309C36.6552 12.1136 35.9731 12.3088 35.2751 12.4114C35.1581 12.4362 35.0434 12.4713 34.9323 12.5161C36.3036 13.0492 37.6564 12.9445 39 12.992C38.7113 13.3251 38.3774 13.6136 38.0086 13.8487C37.1356 14.4448 36.0998 14.7383 35.0527 14.6862H34.8582C34.3949 14.6862 34.4041 14.6862 34.2837 15.1336C33.8786 16.7668 33.2015 18.3157 32.2822 19.7117C31.5245 20.8353 30.6344 21.8583 29.6322 22.7575C28.1092 24.1496 26.3952 25.3041 24.5453 26.184C22.9523 26.9539 21.2513 27.4614 19.5046 27.6878C18.5317 27.8115 17.5403 27.8591 16.5581 27.9258C15.9743 27.9638 15.3813 28.0209 14.7976 27.9924C13.8061 27.9353 12.8054 27.8401 11.8232 27.7068C9.9052 27.4499 8.11689 26.7836 6.40271 25.8889C4.91444 25.1194 3.52865 24.1565 2.2794 23.024C1.48007 22.2885 0.74809 21.4793 0.0926586 20.6064C0.0582625 20.5514 0.0273137 20.4942 0 20.4351C2.19601 22.1483 4.59587 22.9574 7.28296 22.8432C9.99786 22.7289 12.268 21.5677 14.2416 19.6261C14.1653 19.608 14.0879 19.5953 14.01 19.588C13.2687 19.7117 12.6108 19.4833 12.0364 19.0264C11.4619 18.5696 11.258 17.7986 11.6009 17.2371C11.7769 16.942 12.0641 16.7231 12.3236 16.4851C12.4828 16.3539 12.6499 16.2331 12.8239 16.1235C12.7313 16.1139 12.6386 16.1044 12.5552 16.1044C11.8418 16.2567 11.1746 16.1044 10.5445 15.7903C9.94227 15.4953 9.33999 15.2002 8.88596 14.6767C8.73255 14.5025 8.59889 14.3109 8.48753 14.1056C8.24661 13.6393 8.26515 13.5917 8.66358 13.249C9.16393 12.8207 9.72915 12.5733 10.3963 12.6208C10.5263 12.6225 10.6562 12.6162 10.7855 12.6018C10.1924 12.3258 9.65502 12.0878 9.12687 11.8213C8.3095 11.4022 7.59876 10.7927 7.05132 10.0415C6.80888 9.69942 6.64423 9.30587 6.56949 8.8898C6.50463 8.59474 6.5417 8.50908 6.8382 8.43293C7.26023 8.33374 7.68705 8.25749 8.11689 8.2045C8.29294 8.17595 8.469 8.2045 8.67284 8.16643C7.81112 7.59535 6.99572 6.99572 6.47684 6.08199C5.96721 5.19682 5.54098 4.28309 5.63364 3.15045C5.87455 3.2266 6.05987 3.26467 6.23592 3.33129C8.8211 4.37827 11.4063 5.43477 13.8803 6.75777C15.3257 7.52872 16.7341 8.37582 17.9943 9.43232C18.2259 9.6322 18.4391 9.85111 18.7078 10.1081C18.7819 9.96533 18.8375 9.87015 18.8746 9.77497C19.4583 8.24257 20.0791 6.72921 20.8297 5.27296C21.6358 3.72153 22.5624 2.26528 23.8503 1.08505C24.082 0.866136 24.3507 0.685295 24.6101 0.475899C24.7954 0.770957 24.5638 0.961316 24.536 1.2183C24.851 1.17071 25.0363 0.932762 25.2773 0.789993C25.5367 0.637705 25.7684 0.447345 26.0278 0.314093C26.2958 0.191218 26.5713 0.086301 26.8525 0L27.2138 0.00951798Z" fill="white"/>
</g>
<defs>
<clipPath id="clip0_1:5">
<rect width="39" height="28" fill="white"/>
</clipPath>
</defs>
</svg>
