<svg width="239" height="31" viewBox="0 0 239 31" fill="none" xmlns="http://www.w3.org/2000/svg">
<g opacity="0.5">
<path opacity="0.5" d="M14.25 6.74999C13.23 7.58998 13.0875 5.33249 12.0975 5.24999C10.2 4.77749 6.915 5.76 4.59751 9.19499C3.64501 11.0925 4.99498 15.2475 6.16498 17.295C8.86497 17.805 11.31 17.0025 13.0275 17.9175C15.2175 20.07 9.37497 20.0325 7.62748 19.7025C8.17498 21.78 12.4425 31.8899 7.29748 29.6324C6.16498 28.9724 6.89248 26.415 6.54748 24.4875C6.14248 21.93 6.18002 21.75 4.61252 20.07C3.30002 19.845 0.997515 20.6175 0.705016 19.7025C0.232517 17.625 2.38499 18.2025 3.40499 17.5875C3.07499 14.2275 1.58249 13.0875 1.90499 10.0875C2.41499 5.49 9.53249 1.9875 13.035 3.195C14.4675 3.585 16.1475 6.74999 14.25 6.74999Z" fill="white"/>
<path opacity="0.5" d="M22.2375 23.0774C25.05 29.9324 36.69 24.2024 36.69 26.6849C36.435 29.3849 30.015 29.3849 27.69 28.9349C22.875 28.0574 19.59 26.3774 18.825 21.9674C18.42 16.8224 21.9225 10.2824 28.86 11.5274C36.9075 12.9674 35.085 24.0599 22.2375 23.0774ZM31.5 16.5749C31.395 11.3249 19.605 13.8074 21.9075 20.5574C26.5425 20.4824 31.5 19.7174 31.5 16.5749Z" fill="white"/>
<path opacity="0.5" d="M43.8075 23.0774C46.62 29.9324 58.26 24.2024 58.26 26.6849C58.005 29.3849 51.585 29.3849 49.26 28.9349C44.445 28.0574 41.16 26.3774 40.395 21.9674C39.99 16.8224 43.4925 10.2824 50.43 11.5274C58.5 12.9674 56.655 24.0599 43.8075 23.0774ZM53.04 16.5749C52.935 11.3249 41.145 13.8074 43.44 20.5574C48.1125 20.4824 53.0775 19.7174 53.04 16.5749Z" fill="white"/>
<path opacity="0.5" d="M61.9125 1.6499L62.5275 1.76238C65.415 1.28987 64.6875 8.94741 65.0475 13.2224C65.4579 17.2335 65.6057 21.2671 65.49 25.2974C65.415 26.6474 66.03 33.2925 63.405 29.3174C63.5925 19.5674 62.6025 10.7399 61.9125 1.6499Z" fill="white"/>
<path opacity="0.5" d="M100.665 4.49995C102.345 5.41495 101.505 11.175 101.25 12.8925C102.93 14.2425 105.592 11.7225 106.762 13.6425C107.055 16.6425 103.477 15.0675 101.4 16.305C100.89 20.7225 103.912 28.68 101.4 29.3025C98.295 29.34 100.23 21.6375 99.15 17.0775C97.47 14.2275 93.7875 17.9175 91.485 16.71C91.125 16.71 91.125 16.71 91.125 15.96C91.3425 12.855 95.4975 13.7099 98.385 13.2974C99.8325 10.9949 96.9075 4.38745 100.665 4.49995Z" fill="white"/>
<path opacity="0.5" d="M110.415 2.41492L111.435 0.62996C114.247 -0.937541 113.115 8.00246 113.88 12.855C118.44 11.655 123.112 12.8549 125.19 17.055C126.907 20.01 128.842 32.895 124.282 27.3825C124.755 21.8325 122.715 12.8175 114.06 15.705C113.22 20.4075 115.702 29.9025 112.455 29.205C110.34 26.205 111.322 19.4999 111.292 15.4499C111.322 10.2674 110.745 8.03993 110.415 2.41492Z" fill="white"/>
<path opacity="0.5" d="M134.205 23.0774C137.017 29.9324 148.657 24.2024 148.657 26.6849C148.402 29.3849 141.982 29.3849 139.657 28.9349C134.842 28.0574 131.558 26.3774 130.793 21.9674C130.388 16.8224 133.898 10.2824 140.828 11.5274C148.883 12.9674 147.052 24.0599 134.205 23.0774ZM143.438 16.5749C143.333 11.3249 131.542 13.8074 133.845 20.5574C138.517 20.4824 143.475 19.7174 143.438 16.5749Z" fill="white"/>
<path opacity="0.5" d="M174.21 1.6499L174.825 1.76238C177.712 1.28987 176.985 8.94741 177.345 13.2224C177.755 17.2335 177.903 21.2671 177.787 25.2974C177.712 26.6474 178.335 33.2925 175.703 29.3174C175.89 19.5674 174.9 10.7399 174.21 1.6499Z" fill="white"/>
<path opacity="0.5" d="M190.013 10.3724C194.513 9.62244 202.058 17.3474 199.898 23.7674C197.273 31.6874 182.348 31.3199 181.545 22.7099C181.103 17.8949 186.51 10.9574 190.013 10.3724ZM187.567 26.9399C200.775 30.5549 201.398 11.3924 188.625 13.8749C188.408 13.8749 188.183 13.9499 188.258 14.2424C183.915 16.3199 181.687 24.9749 187.567 26.9399Z" fill="white"/>
<path opacity="0.5" d="M216.472 13.2898C215.887 15.7048 211.432 9.8623 206.722 14.7898C205.05 19.7173 208.845 29.3849 206.362 29.3849C203.257 28.3274 203.662 18.7648 204.502 13.2898C205.815 10.7023 216 7.67229 216.472 13.2898Z" fill="white"/>
<path opacity="0.5" d="M223.59 23.0774C226.395 29.9324 238.042 24.2024 238.042 26.6849C237.78 29.3849 231.36 29.3849 229.042 28.9349C224.22 28.0574 220.935 26.3774 220.17 21.9674C219.772 16.8224 223.275 10.2824 230.205 11.5274C238.26 12.9674 236.43 24.0599 223.59 23.0774ZM232.822 16.5749C232.71 11.3249 220.92 13.8074 223.222 20.5574C227.895 20.4824 232.86 19.7174 232.822 16.5749Z" fill="white"/>
</g>
</svg>
