<svg width="518" height="197" viewBox="0 0 518 197" fill="none" xmlns="http://www.w3.org/2000/svg">
<path d="M17.0275 59.3499L17.8375 63.5349L18.9175 59.1249L30.6175 21.8574H35.2075L46.75 58.8099L48.01 63.9399L49.045 59.2149L59.035 21.8574H64.615L50.5 70.5624H45.91L33.3925 31.9374L32.8075 29.2824L32.2225 31.9824L19.9375 70.5624H15.3475L1.21002 21.8574H6.74498L17.0275 59.3499Z" stroke="white" stroke-linejoin="bevel"/>
<path d="M105.61 70.5625C104.955 68.3531 104.607 66.0642 104.575 63.76C102.675 66.2298 100.19 68.1885 97.345 69.46C94.4322 70.8061 91.2613 71.5022 88.0525 71.5C83.3725 71.5 79.585 70.195 76.69 67.585C75.2828 66.3536 74.1636 64.8278 73.4119 63.1156C72.6601 61.4035 72.2942 59.5469 72.34 57.6775C72.2835 55.4522 72.7985 53.2496 73.8358 51.2801C74.8731 49.3105 76.3981 47.6398 78.265 46.4275C82.21 43.6675 87.71 42.2875 94.765 42.2875H104.515V36.7525C104.515 33.2525 103.44 30.5025 101.29 28.5025C99.14 26.5025 96.0125 25.5025 91.9075 25.5025C88.1575 25.5025 85.0525 26.4625 82.5925 28.3825C80.1325 30.3025 78.9025 32.6125 78.9025 35.3125L73.5025 35.275C73.5025 31.395 75.3025 28.04 78.9025 25.21C82.5025 22.38 86.9275 20.9625 92.1775 20.9575C97.6075 20.9575 101.893 22.315 105.033 25.03C108.173 27.745 109.785 31.5325 109.87 36.3925V59.44C109.87 64.15 110.37 67.6775 111.37 70.0225V70.5625H105.61ZM88.6825 66.685C92.0819 66.7441 95.4286 65.8392 98.335 64.075C101.071 62.4454 103.235 60.0089 104.53 57.1V46.39H94.8925C89.5225 46.45 85.3225 47.4325 82.2925 49.3375C79.2625 51.2425 77.7475 53.86 77.7475 57.19C77.7156 58.4738 77.968 59.7487 78.4866 60.9235C79.0053 62.0982 79.7774 63.1437 80.7475 63.985C82.956 65.856 85.7912 66.8208 88.6825 66.685V66.685Z" stroke="white" stroke-linejoin="bevel"/>
<path d="M132.617 9.39258V21.8576H142.697V26.2676H132.617V58.7501C132.617 61.4576 133.097 63.4676 134.117 64.7876C135.137 66.1076 136.72 66.7676 139 66.7676C140.463 66.7166 141.921 66.5688 143.365 66.3251L143.59 70.6976C141.724 71.2635 139.778 71.5169 137.83 71.4476C134.14 71.4476 131.452 70.3751 129.767 68.2301C128.082 66.0851 127.23 62.9251 127.21 58.7501V26.2676H118.255V21.8576H127.21V9.39258H132.617Z" stroke="white" stroke-linejoin="bevel"/>
<path d="M171.865 66.9175C175.288 67.0307 178.637 65.9012 181.293 63.7375C182.522 62.7389 183.525 61.4902 184.235 60.0743C184.945 58.6583 185.345 57.1076 185.41 55.525H190.585C190.452 58.4439 189.484 61.2633 187.795 63.6475C186.059 66.1209 183.709 68.1006 180.977 69.3925C178.142 70.7863 175.024 71.5075 171.865 71.5C165.475 71.5 160.41 69.2775 156.67 64.8325C152.93 60.3875 151.063 54.4175 151.068 46.9225V45.25C150.982 40.8683 151.841 36.5195 153.587 32.5C155.104 29.0029 157.616 26.0293 160.81 23.95C164.11 21.9001 167.936 20.8575 171.82 20.95C177.16 20.95 181.562 22.54 185.027 25.72C188.492 28.9 190.345 33.0875 190.585 38.2825H185.41C185.375 36.5468 184.993 34.8357 184.287 33.2497C183.581 31.6637 182.565 30.2348 181.299 29.0469C180.033 27.8591 178.542 26.9363 176.914 26.3328C175.286 25.7293 173.554 25.4572 171.82 25.5325C166.96 25.5325 163.185 27.2825 160.495 30.7825C157.805 34.2825 156.462 39.205 156.467 45.55V47.125C156.467 53.335 157.81 58.18 160.495 61.66C163.18 65.14 166.97 66.8925 171.865 66.9175Z" stroke="white" stroke-linejoin="bevel"/>
<path d="M206.702 30.0924C208.354 27.2994 210.694 24.9757 213.498 23.3424C216.246 21.7555 219.369 20.9321 222.543 20.9574C227.773 20.9574 231.66 22.4274 234.205 25.3674C236.75 28.3074 238.04 32.7199 238.075 38.6049V70.5624H232.75V38.5599C232.72 34.2099 231.798 30.9599 229.983 28.8099C228.168 26.6599 225.263 25.5949 221.268 25.6149C218.031 25.5726 214.886 26.684 212.395 28.7499C209.737 30.9699 207.763 33.8982 206.702 37.1949V70.5474H201.347V1.41992H206.702V30.0924Z" stroke="white" stroke-linejoin="bevel"/>
<path d="M282.723 9.39258V21.8576H292.81V26.2676H282.723V58.7501C282.723 61.4601 283.223 63.4726 284.223 64.7876C285.223 66.1026 286.85 66.7626 289.105 66.7676C290.571 66.7171 292.031 66.5692 293.477 66.3251L293.703 70.6976C291.835 71.2639 289.886 71.5173 287.935 71.4476C284.245 71.4476 281.56 70.3751 279.88 68.2301C278.2 66.0851 277.347 62.9251 277.322 58.7501V26.2676H268.367V21.8576H277.322V9.39258H282.723Z" stroke="white" stroke-linejoin="bevel"/>
<path d="M309.325 30.0924C310.978 27.2975 313.32 24.9734 316.127 23.3424C318.876 21.7545 321.999 20.931 325.172 20.9574C330.392 20.9574 334.278 22.4274 336.828 25.3674C339.378 28.3074 340.668 32.7199 340.698 38.6049V70.5624H335.342V38.5599C335.312 34.2099 334.39 30.9599 332.575 28.8099C330.76 26.6599 327.858 25.5949 323.868 25.6149C320.641 25.5791 317.505 26.6871 315.018 28.7424C312.359 30.9624 310.386 33.8907 309.325 37.1874V70.5399H304V1.41992H309.355L309.325 30.0924Z" stroke="white" stroke-linejoin="bevel"/>
<path d="M373.42 71.4999C369.457 71.5548 365.559 70.4945 362.17 68.4399C358.815 66.3872 356.109 63.4286 354.363 59.9049C352.462 56.1006 351.505 51.8946 351.573 47.6424V45.7074C351.505 41.3376 352.436 37.0102 354.295 33.0549C355.968 29.4703 358.59 26.4122 361.878 24.2124C364.977 22.1135 368.634 20.9926 372.378 20.9949C378.288 20.9949 382.978 23.0124 386.448 27.0474C389.918 31.0824 391.65 36.5974 391.645 43.5924V46.5924H356.95V47.6274C356.95 53.1274 358.533 57.7249 361.698 61.4199C363.144 63.1813 364.97 64.5928 367.039 65.5487C369.108 66.5047 371.366 66.9802 373.645 66.9399C376.277 66.9934 378.886 66.4524 381.28 65.3574C383.647 64.17 385.702 62.4437 387.28 60.3174L390.655 62.8824C386.7 68.6274 380.955 71.4999 373.42 71.4999ZM372.43 25.5849C370.505 25.5543 368.595 25.9361 366.829 26.7045C365.063 27.4729 363.482 28.6101 362.193 30.0399C359.418 33.0099 357.73 37.0099 357.13 42.0399H386.38V41.4549C386.23 36.7749 384.895 32.9624 382.375 30.0174C381.166 28.5658 379.642 27.4088 377.919 26.6342C376.195 25.8597 374.318 25.488 372.43 25.5474V25.5849Z" stroke="white" stroke-linejoin="bevel"/>
<path d="M64 125.628V102.415H122.027V125.628H64ZM104.62 137.23V195.25H81.37V137.23H104.62Z" stroke="white" stroke-width="2" stroke-linejoin="bevel"/>
<path d="M133.592 125.628V102.415H197.417V160.443H156.797V195.25H133.592V137.23H174.205V125.628H133.592ZM185.815 172.045L197.417 195.295H174.205L162.602 172.045H185.815Z" stroke="white" stroke-width="2" stroke-linejoin="bevel"/>
<path d="M232.232 183.648V195.25H209.02V102.415H272.845V195.25H249.64V183.648H232.232ZM249.64 160.443V125.628H232.232V160.443H249.64Z" stroke="white" stroke-width="2" stroke-linejoin="bevel"/>
<path d="M307.66 102.415V195.25H284.41V102.415H307.66Z" stroke="white" stroke-width="2" stroke-linejoin="bevel"/>
<path d="M319.262 102.415H342.475V172.045H365.68L365.74 195.295H319.24L319.262 102.415Z" stroke="white" stroke-width="2" stroke-linejoin="bevel"/>
<path d="M441.167 102.415V125.628H377.342V102.415H441.167ZM441.167 137.23V160.48H377.342V137.23H441.167ZM441.167 172.045V195.295H377.342V172.045H441.167Z" stroke="white" stroke-width="2" stroke-linejoin="bevel"/>
<path d="M452.77 125.628V102.415H516.595V160.443H475.983V195.25H452.733V137.23H493.352V125.628H452.77ZM505 172.045L516.602 195.295H493.397L481.788 172.045H505Z" stroke="white" stroke-width="2" stroke-linejoin="bevel"/>
</svg>
