<svg xmlns="http://www.w3.org/2000/svg" viewBox="0 0 266.32 72.25"><defs><style>.cls-1{fill:#b2b2b2;}</style></defs><g id="Layer_2" data-name="Layer 2"><g id="Layer_1-2" data-name="Layer 1"><path class="cls-1" d="M64.92,15.19l-1.42.59-7.33,3-6.8-3-5.2-2.32-4.82,2.32-6.3,3-11.81,6,11-4.71L28.1,27.28l6.47-5.7,9.24,5.76-.07.33L40.27,44l3.9,2.12V27.67h.17l.26.16h0l.25-.16H45V46.14L49,44,45.47,27.67l-.07-.33,9.25-5.76,6.46,5.7L57,20.15l7-4.37ZM44.62,21.7h0l-9.46-2.88,5.12-3h8.21l5.61,3Z"/><polygon class="cls-1" points="62 33.86 57.99 27.67 55.66 24.09 57.1 27.67 59.23 32.98 56.03 34.47 56.17 40.47 51.43 43.27 48.11 49.7 47.5 50.89 50.23 49.7 60.21 45.34 62 33.86"/><polygon class="cls-1" points="33.85 24.09 31.52 27.67 27.51 33.86 29.38 45.11 39.41 49.7 42.01 50.89 41.4 49.7 38.08 43.27 33.34 40.47 33.48 34.47 30.29 32.98 32.41 27.67 33.85 24.09"/><polygon class="cls-1" points="43.83 57.36 43.83 54.75 33.34 50.3 37.92 58.8 43.83 57.36"/><polygon class="cls-1" points="45.38 57.36 51.29 58.8 55.88 50.3 45.38 54.75 45.38 57.36"/><path class="cls-1" d="M90.79,33.49a3.19,3.19,0,0,0,.54-1.84A3.41,3.41,0,0,0,90,28.74a6.55,6.55,0,0,0-3.93-1h-5V42h5.53a5.87,5.87,0,0,0,3.73-1.07,3.77,3.77,0,0,0,1.31-3.11,3.25,3.25,0,0,0-.63-2,3,3,0,0,0-1.72-1.1A3.12,3.12,0,0,0,90.79,33.49ZM84,30.13h2a3,3,0,0,1,1.78.42,1.64,1.64,0,0,1,.56,1.39c0,1.16-.74,1.74-2.22,1.77H84Zm4.13,9a2.49,2.49,0,0,1-1.62.49H84V35.78H86.7a1.78,1.78,0,0,1,2,2A1.7,1.7,0,0,1,88.14,39.13Z"/><rect class="cls-1" x="93.81" y="26.97" width="2.83" height="15"/><path class="cls-1" d="M107.52,35a3.44,3.44,0,0,0-1.15-2.76,4.63,4.63,0,0,0-3.1-1,5.92,5.92,0,0,0-2.32.44,3.74,3.74,0,0,0-1.6,1.23,2.83,2.83,0,0,0-.57,1.7h2.82a1.17,1.17,0,0,1,.41-.94,1.67,1.67,0,0,1,1.12-.34,1.47,1.47,0,0,1,1.18.44,1.73,1.73,0,0,1,.38,1.17v.61h-1.3a6.09,6.09,0,0,0-3.6.91A3,3,0,0,0,98.55,39a2.89,2.89,0,0,0,1,2.27,3.73,3.73,0,0,0,2.57.9A3.42,3.42,0,0,0,104.81,41a2.89,2.89,0,0,0,.28.95h2.85v-.16a5.2,5.2,0,0,1-.42-2.28Zm-2.83,4a1.77,1.77,0,0,1-.78.75,2.4,2.4,0,0,1-1.16.28,1.42,1.42,0,0,1-1-.34,1.13,1.13,0,0,1-.37-.87v-.17c.09-1,.84-1.46,2.25-1.46h1.06Z"/><polygon class="cls-1" points="119.15 31.41 115.76 31.41 113.06 34.58 112.51 35.28 112.51 26.97 109.69 26.97 109.69 41.97 112.51 41.97 112.51 38.75 113.53 37.73 116.24 41.97 119.48 41.97 115.33 35.81 119.15 31.41"/><path class="cls-1" d="M124.73,31.21a4.94,4.94,0,0,0-2.58.68,4.53,4.53,0,0,0-1.74,1.93,6.41,6.41,0,0,0-.61,2.85v.27a5,5,0,0,0,1.46,3.8A5.18,5.18,0,0,0,125,42.17a5.55,5.55,0,0,0,2.4-.51,4.18,4.18,0,0,0,1.72-1.4l-1.39-1.55a3,3,0,0,1-2.55,1.18,2.52,2.52,0,0,1-1.74-.62,2.61,2.61,0,0,1-.82-1.66h6.73V36.45a5.54,5.54,0,0,0-1.25-3.87A4.39,4.39,0,0,0,124.73,31.21Zm1.88,4.47h-3.92a3,3,0,0,1,.66-1.63,2,2,0,0,1,2.75,0,2.07,2.07,0,0,1,.51,1.46Z"/><polygon class="cls-1" points="143.63 38.07 139.98 27.75 136.15 27.75 136.15 41.97 139.08 41.97 139.08 38.09 138.79 31.39 142.62 41.97 144.63 41.97 148.47 31.38 148.17 38.09 148.17 41.97 151.11 41.97 151.11 27.75 147.27 27.75 143.63 38.07"/><path class="cls-1" d="M161.53,32.52A4.83,4.83,0,0,0,158,31.21a5.13,5.13,0,0,0-2.64.67,4.5,4.5,0,0,0-1.75,1.91,6.3,6.3,0,0,0-.6,2.8v.13a5.59,5.59,0,0,0,1.36,4,5.25,5.25,0,0,0,7.29,0,5.55,5.55,0,0,0,1.36-3.9l0-.73A5.29,5.29,0,0,0,161.53,32.52Zm-1.87,6.59a1.89,1.89,0,0,1-1.6.78,1.85,1.85,0,0,1-1.62-.79,4,4,0,0,1-.57-2.31,4.38,4.38,0,0,1,.57-2.5,1.82,1.82,0,0,1,1.6-.8,1.89,1.89,0,0,1,1.62.81,3.93,3.93,0,0,1,.57,2.29A4.38,4.38,0,0,1,159.66,39.11Z"/><path class="cls-1" d="M171,36.09a13.6,13.6,0,0,0-1.78-.47,4.68,4.68,0,0,1-1.5-.5.85.85,0,0,1-.44-.76,1,1,0,0,1,.39-.82,1.7,1.7,0,0,1,1.1-.32,1.63,1.63,0,0,1,1.22.4,1.35,1.35,0,0,1,.39,1h2.82a3,3,0,0,0-1.2-2.46,5.1,5.1,0,0,0-3.22-.95,4.67,4.67,0,0,0-3.05.94,2.9,2.9,0,0,0-1.17,2.35q0,2.41,3.77,3.2a5.94,5.94,0,0,1,1.65.54.91.91,0,0,1,.51.81,1,1,0,0,1-.42.81,2,2,0,0,1-1.22.31,2.27,2.27,0,0,1-1.39-.4,1.53,1.53,0,0,1-.56-1.16h-2.67a3.06,3.06,0,0,0,.58,1.79,3.88,3.88,0,0,0,1.62,1.29,5.53,5.53,0,0,0,2.36.48,5.3,5.3,0,0,0,3.2-.9,2.73,2.73,0,0,0,1.24-2.33A2.92,2.92,0,0,0,171,36.09Z"/><path class="cls-1" d="M179.63,31.21a4.91,4.91,0,0,0-2.57.68,4.49,4.49,0,0,0-1.75,1.93,6.41,6.41,0,0,0-.61,2.85v.27a5,5,0,0,0,1.46,3.8,5.18,5.18,0,0,0,3.78,1.43,5.55,5.55,0,0,0,2.4-.51,4.12,4.12,0,0,0,1.72-1.4l-1.38-1.55a3.06,3.06,0,0,1-2.55,1.18,2.53,2.53,0,0,1-1.75-.62,2.66,2.66,0,0,1-.82-1.66h6.73V36.45A5.54,5.54,0,0,0,183,32.58,4.39,4.39,0,0,0,179.63,31.21Zm1.88,4.47h-3.92a3,3,0,0,1,.67-1.63,1.79,1.79,0,0,1,1.36-.56A1.84,1.84,0,0,1,181,34a2.11,2.11,0,0,1,.5,1.46Z"/><path class="cls-1" d="M191,31.21a2.63,2.63,0,0,0-2.36,1.46l-.07-1.26h-2.67V42h2.82V35.06a2.07,2.07,0,0,1,2.1-1.09,8.26,8.26,0,0,1,1,.08l0-2.71A2.84,2.84,0,0,0,191,31.21Z"/><path class="cls-1" d="M256.82,0H9.5A9.51,9.51,0,0,0,0,9.5V62.75a9.51,9.51,0,0,0,9.5,9.5H256.82a9.51,9.51,0,0,0,9.5-9.5V9.5A9.51,9.51,0,0,0,256.82,0Zm8.5,26.31V62.75a8.51,8.51,0,0,1-8.5,8.5H9.5A8.51,8.51,0,0,1,1,62.75V9.5A8.51,8.51,0,0,1,9.5,1H256.82a8.51,8.51,0,0,1,8.5,8.5Z"/></g></g></svg>