<svg xmlns="http://www.w3.org/2000/svg" viewBox="0 0 266.32 72.25"><defs><style>.cls-1{fill:#b2b2b2;}</style></defs><g id="Layer_2" data-name="Layer 2"><g id="Layer_1-2" data-name="Layer 1"><polygon class="cls-1" points="61.12 32.92 56.09 25.89 59.36 25.89 60.31 26.64 59.82 25.89 55.94 19.85 58.19 18.58 55.12 18.58 51.73 13.32 52.93 18.58 43 13.32 42.98 13.32 33.05 18.58 34.24 13.32 30.86 18.58 27.79 18.58 30.04 19.85 26.16 25.89 25.67 26.64 26.62 25.89 30.07 25.89 25.04 32.92 30.15 44.77 40.27 49.15 36.14 41.89 35.94 35.45 31.31 33.5 27.96 32.08 30.69 25.89 40.7 25.89 42.13 26.69 38.43 41.36 42.53 39.29 42.53 26.92 42.98 27.17 42.99 27.16 43 27.17 43.44 26.92 43.44 39.29 47.54 41.36 43.85 26.69 45.27 25.89 55.47 25.89 58.2 32.08 50.22 35.45 50.02 41.89 45.89 49.15 56.01 44.77 61.12 32.92"/><polygon class="cls-1" points="31.16 48.59 31.5 49.15 35.97 56.69 42.17 58.94 42.17 52.83 32.63 49.15 31.16 48.59"/><polygon class="cls-1" points="43.8 58.94 50.01 56.69 54.48 49.15 54.81 48.59 53.35 49.15 43.8 52.83 43.8 58.94"/><path class="cls-1" d="M86.71,40.6a1.7,1.7,0,0,1-1.34.58,1.79,1.79,0,0,1-1.39-.5,2.3,2.3,0,0,1-.43-1.54h-3a4.16,4.16,0,0,0,1.26,3.24,5,5,0,0,0,3.51,1.15A5.26,5.26,0,0,0,87.84,43a4,4,0,0,0,1.7-1.6,4.75,4.75,0,0,0,.6-2.4V29.12H87.21V39A2.44,2.44,0,0,1,86.71,40.6Z"/><path class="cls-1" d="M96.89,36.88a6.16,6.16,0,0,0-3.6.91A3,3,0,0,0,92,40.37a2.88,2.88,0,0,0,1,2.26,3.76,3.76,0,0,0,2.58.9,3.41,3.41,0,0,0,2.66-1.14,3.17,3.17,0,0,0,.28.94h2.86v-.16a4.9,4.9,0,0,1-.42-2.28V36.31a3.47,3.47,0,0,0-1.15-2.76,4.64,4.64,0,0,0-3.1-1,5.8,5.8,0,0,0-2.33.45,3.7,3.7,0,0,0-1.6,1.22,2.82,2.82,0,0,0-.56,1.7H95.1a1.16,1.16,0,0,1,.4-.94,1.74,1.74,0,0,1,1.12-.34,1.5,1.5,0,0,1,1.19.44,1.75,1.75,0,0,1,.37,1.17v.61Zm1.29,3.47a1.81,1.81,0,0,1-.78.74,2.36,2.36,0,0,1-1.15.28,1.45,1.45,0,0,1-1-.34,1.16,1.16,0,0,1-.37-.87V40c.09-1,.85-1.46,2.26-1.46h1.05Z"/><path class="cls-1" d="M114.93,32.57a3.63,3.63,0,0,0-3.17,1.61,2.82,2.82,0,0,0-2.8-1.61,3.71,3.71,0,0,0-3,1.38l-.09-1.18h-2.65V43.33H106V35.86a1.81,1.81,0,0,1,1.73-1,1.55,1.55,0,0,1,1.23.41,1.92,1.92,0,0,1,.37,1.33v6.72h2.82V36.08a1.75,1.75,0,0,1,1.76-1.21,1.59,1.59,0,0,1,1.24.41,2.06,2.06,0,0,1,.35,1.32v6.73h2.83V36.59a4.61,4.61,0,0,0-.84-3A3.17,3.17,0,0,0,114.93,32.57Z"/><path class="cls-1" d="M125.05,32.57a4.91,4.91,0,0,0-2.57.68,4.49,4.49,0,0,0-1.75,1.93,6.41,6.41,0,0,0-.61,2.85v.27a5,5,0,0,0,1.46,3.8,5.18,5.18,0,0,0,3.78,1.43,5.69,5.69,0,0,0,2.4-.5,4.28,4.28,0,0,0,1.72-1.4l-1.38-1.56a3.06,3.06,0,0,1-2.55,1.18,2.48,2.48,0,0,1-1.75-.62A2.66,2.66,0,0,1,123,39h6.73V37.82a5.55,5.55,0,0,0-1.25-3.88A4.39,4.39,0,0,0,125.05,32.57Zm1.88,4.48H123a3,3,0,0,1,.67-1.63,1.76,1.76,0,0,1,1.36-.57,1.84,1.84,0,0,1,1.39.51,2.13,2.13,0,0,1,.5,1.46Z"/><path class="cls-1" d="M137.54,37.46a11.43,11.43,0,0,0-1.78-.48,4.45,4.45,0,0,1-1.5-.5.87.87,0,0,1-.44-.75,1,1,0,0,1,.39-.82,2,2,0,0,1,2.32.07,1.36,1.36,0,0,1,.39,1h2.83a3,3,0,0,0-1.21-2.46,5.08,5.08,0,0,0-3.22-1,4.77,4.77,0,0,0-3,.94,2.92,2.92,0,0,0-1.17,2.35q0,2.41,3.77,3.21a5.56,5.56,0,0,1,1.65.53.91.91,0,0,1,.51.81,1,1,0,0,1-.41.81,2,2,0,0,1-1.23.31,2.27,2.27,0,0,1-1.39-.4,1.47,1.47,0,0,1-.55-1.16h-2.68a3,3,0,0,0,.59,1.79,4,4,0,0,0,1.61,1.3,5.71,5.71,0,0,0,2.36.47,5.42,5.42,0,0,0,3.21-.89,2.78,2.78,0,0,0,1.24-2.34A2.92,2.92,0,0,0,137.54,37.46Z"/><path class="cls-1" d="M155.12,29.7a6.41,6.41,0,0,0-2.81-.58h-5.55V43.33h2.93v-5h2.57a6,6,0,0,0,4-1.2,4.1,4.1,0,0,0,1.43-3.3,4.59,4.59,0,0,0-.66-2.45A4.29,4.29,0,0,0,155.12,29.7Zm-1,5.7a2.55,2.55,0,0,1-1.77.55h-2.62V31.49h2.68a2.27,2.27,0,0,1,1.7.66,2.36,2.36,0,0,1,.62,1.69A2,2,0,0,1,154.08,35.4Z"/><path class="cls-1" d="M167.92,36.31a3.44,3.44,0,0,0-1.15-2.76,4.63,4.63,0,0,0-3.1-1,5.75,5.75,0,0,0-2.32.45,3.64,3.64,0,0,0-1.6,1.22,2.83,2.83,0,0,0-.57,1.7H162a1.17,1.17,0,0,1,.41-.94,1.72,1.72,0,0,1,1.12-.34,1.47,1.47,0,0,1,1.18.44,1.75,1.75,0,0,1,.38,1.17v.61h-1.3a6.16,6.16,0,0,0-3.6.91A3,3,0,0,0,159,40.37a2.88,2.88,0,0,0,1,2.26,3.73,3.73,0,0,0,2.57.9,3.44,3.44,0,0,0,2.67-1.14,2.9,2.9,0,0,0,.28.94h2.85v-.16a5.17,5.17,0,0,1-.42-2.28Zm-2.83,4a1.81,1.81,0,0,1-.78.74,2.4,2.4,0,0,1-1.16.28,1.42,1.42,0,0,1-1-.34,1.13,1.13,0,0,1-.37-.87V40c.09-1,.84-1.46,2.25-1.46h1.06Z"/><path class="cls-1" d="M173.69,41a1.26,1.26,0,0,1-.22-.84V34.84h1.8V32.77h-1.8v-2.6h-2.83v2.6H169.1v2.07h1.54v5.69q.06,3,3,3a5.75,5.75,0,0,0,1.71-.25V41.14a5,5,0,0,1-.83.07A1.13,1.13,0,0,1,173.69,41Z"/><path class="cls-1" d="M180.45,41a1.26,1.26,0,0,1-.23-.84V34.84H182V32.77h-1.81v-2.6H177.4v2.6h-1.54v2.07h1.54v5.69q.06,3,3,3a5.75,5.75,0,0,0,1.71-.25V41.14a5,5,0,0,1-.83.07A1.13,1.13,0,0,1,180.45,41Z"/><path class="cls-1" d="M188.15,32.57a4.91,4.91,0,0,0-2.57.68,4.53,4.53,0,0,0-1.74,1.93,6.42,6.42,0,0,0-.62,2.85v.27a5.07,5.07,0,0,0,1.46,3.8,5.22,5.22,0,0,0,3.79,1.43,5.69,5.69,0,0,0,2.4-.5,4.42,4.42,0,0,0,1.72-1.4l-1.39-1.56a3,3,0,0,1-2.55,1.18,2.48,2.48,0,0,1-1.74-.62,2.67,2.67,0,0,1-.83-1.66h6.73V37.82a5.55,5.55,0,0,0-1.24-3.88A4.4,4.4,0,0,0,188.15,32.57ZM190,37.05h-3.93a3,3,0,0,1,.67-1.63,1.76,1.76,0,0,1,1.36-.57,1.83,1.83,0,0,1,1.39.51,2.08,2.08,0,0,1,.51,1.46Z"/><path class="cls-1" d="M197.16,34l-.08-1.26h-2.67V43.33h2.83V36.42a2.07,2.07,0,0,1,2.1-1.08,7.8,7.8,0,0,1,1,.07l0-2.71a3.12,3.12,0,0,0-.88-.13A2.61,2.61,0,0,0,197.16,34Z"/><path class="cls-1" d="M207.94,37.46a11.43,11.43,0,0,0-1.78-.48,4.45,4.45,0,0,1-1.5-.5.87.87,0,0,1-.44-.75,1,1,0,0,1,.39-.82,2,2,0,0,1,2.32.07,1.36,1.36,0,0,1,.39,1h2.83a3,3,0,0,0-1.21-2.46,5.08,5.08,0,0,0-3.22-1,4.77,4.77,0,0,0-3.05.94,2.92,2.92,0,0,0-1.17,2.35q0,2.41,3.77,3.21a5.56,5.56,0,0,1,1.65.53.91.91,0,0,1,.51.81,1,1,0,0,1-.41.81,2,2,0,0,1-1.23.31,2.27,2.27,0,0,1-1.39-.4,1.47,1.47,0,0,1-.55-1.16h-2.68a3,3,0,0,0,.59,1.79,4,4,0,0,0,1.61,1.3,5.71,5.71,0,0,0,2.36.47,5.42,5.42,0,0,0,3.21-.89,2.78,2.78,0,0,0,1.24-2.34A2.92,2.92,0,0,0,207.94,37.46Z"/><path class="cls-1" d="M220,33.88a4.81,4.81,0,0,0-3.49-1.31,5.09,5.09,0,0,0-2.64.68,4.39,4.39,0,0,0-1.74,1.9,6.2,6.2,0,0,0-.61,2.8v.13a5.59,5.59,0,0,0,1.37,4,5.25,5.25,0,0,0,7.29,0,5.54,5.54,0,0,0,1.35-3.9l0-.72A5.2,5.2,0,0,0,220,33.88Zm-1.87,6.59a2,2,0,0,1-3.22,0,3.94,3.94,0,0,1-.56-2.31,4.41,4.41,0,0,1,.56-2.5,2,2,0,0,1,3.22,0,3.86,3.86,0,0,1,.58,2.29A4.3,4.3,0,0,1,218.16,40.47Z"/><path class="cls-1" d="M231.52,33.56a3.05,3.05,0,0,0-2.5-1A3.66,3.66,0,0,0,226,34l-.09-1.22h-2.66V43.33h2.82V35.88a2,2,0,0,1,1.79-1,1.74,1.74,0,0,1,1.3.4,1.85,1.85,0,0,1,.39,1.31v6.75h2.82V36.51A4.57,4.57,0,0,0,231.52,33.56Z"/><path class="cls-1" d="M256.82,0H9.5A9.51,9.51,0,0,0,0,9.5V62.75a9.51,9.51,0,0,0,9.5,9.5H256.82a9.51,9.51,0,0,0,9.5-9.5V9.5A9.51,9.51,0,0,0,256.82,0Zm8.5,26.31V62.75a8.51,8.51,0,0,1-8.5,8.5H9.5A8.51,8.51,0,0,1,1,62.75V9.5A8.51,8.51,0,0,1,9.5,1H256.82a8.51,8.51,0,0,1,8.5,8.5Z"/></g></g></svg>