<svg xmlns="http://www.w3.org/2000/svg" viewBox="0 0 147.46 72.25"><defs><style>.cls-1{fill:#b2b2b2;}</style></defs><g id="Layer_2" data-name="Layer 2"><g id="Layer_1-2" data-name="Layer 1"><polygon class="cls-1" points="43.64 34.66 40.76 43.38 43.64 45.02 46.52 43.38 43.64 34.66"/><polygon class="cls-1" points="37.11 48.97 39.87 51.6 38.29 48.97 37.13 47.04 34.79 43.15 34.54 35.65 28.85 33.38 29.27 32.11 29.31 26.16 29.31 26.02 29.33 21.86 28.46 26.02 28.44 26.16 25.73 39.14 28.03 46.82 28.67 40.95 35.07 47.04 37.11 48.97"/><polygon class="cls-1" points="31.42 47.04 29.64 45.56 30.48 47.04 31.57 48.97 37.04 58.63 42.21 58.63 42.21 55.96 33.76 48.97 31.42 47.04"/><polygon class="cls-1" points="58.42 26.16 58.39 26.02 57.49 21.86 57.51 26.02 57.51 26.16 57.55 32.11 57.97 33.38 52.28 35.65 52.03 43.15 49.69 47.04 48.53 48.97 46.95 51.6 49.71 48.97 51.75 47.04 58.15 40.95 58.79 46.82 61.32 39.48 58.42 26.16"/><polygon class="cls-1" points="53.06 48.97 44.61 55.96 44.61 58.63 49.78 58.63 55.25 48.97 56.34 47.04 57.18 45.56 55.4 47.04 53.06 48.97"/><polygon class="cls-1" points="51.46 26.02 57.05 19.85 54.48 17.05 48.15 19.22 48.04 14.21 43.21 13.63 38.7 14.21 38.48 19.03 31.86 17.51 29.64 19.85 35.47 26.02 35.6 26.16 43.64 34.66 51.34 26.16 51.46 26.02"/><path class="cls-1" d="M88.9,39.51a1.51,1.51,0,0,0-.58-1.28,8,8,0,0,0-2.11-.94,14.35,14.35,0,0,1-2.42-1,3.93,3.93,0,0,1-2.42-3.52A3.46,3.46,0,0,1,82,30.74a4.32,4.32,0,0,1,1.87-1.41,7,7,0,0,1,2.73-.51,6.49,6.49,0,0,1,2.71.55,4.31,4.31,0,0,1,1.85,1.56,4.07,4.07,0,0,1,.66,2.29H88.91a1.92,1.92,0,0,0-.61-1.52,2.54,2.54,0,0,0-1.73-.54,2.7,2.7,0,0,0-1.67.45,1.43,1.43,0,0,0-.6,1.2A1.38,1.38,0,0,0,85,34a8.24,8.24,0,0,0,2.06.88,8.91,8.91,0,0,1,3.64,1.86,3.74,3.74,0,0,1,1.14,2.78,3.39,3.39,0,0,1-1.4,2.89,6.09,6.09,0,0,1-3.75,1,7.26,7.26,0,0,1-3-.6,4.76,4.76,0,0,1-2.06-1.64,4.26,4.26,0,0,1-.71-2.43h2.94c0,1.57.94,2.36,2.82,2.36a2.7,2.7,0,0,0,1.63-.43A1.37,1.37,0,0,0,88.9,39.51Z"/><path class="cls-1" d="M98.5,43.43A5.17,5.17,0,0,1,94.72,42a5,5,0,0,1-1.46-3.8v-.28a6.34,6.34,0,0,1,.61-2.84,4.52,4.52,0,0,1,1.75-1.94,4.91,4.91,0,0,1,2.57-.68,4.39,4.39,0,0,1,3.41,1.37,5.57,5.57,0,0,1,1.25,3.88v1.15H96.12a2.59,2.59,0,0,0,.82,1.66,2.49,2.49,0,0,0,1.75.63A3.07,3.07,0,0,0,101.24,40l1.38,1.56a4.2,4.2,0,0,1-1.72,1.4A5.69,5.69,0,0,1,98.5,43.43Zm-.32-8.68a1.76,1.76,0,0,0-1.36.57A3,3,0,0,0,96.15,37h3.92v-.23a2.08,2.08,0,0,0-.5-1.45A1.81,1.81,0,0,0,98.18,34.75Z"/><path class="cls-1" d="M110.57,43.24a3.24,3.24,0,0,1-.28-1,3.43,3.43,0,0,1-2.67,1.14,3.75,3.75,0,0,1-2.57-.9,2.88,2.88,0,0,1-1-2.26,3,3,0,0,1,1.24-2.58,6.16,6.16,0,0,1,3.6-.91h1.3v-.6A1.77,1.77,0,0,0,109.8,35a1.51,1.51,0,0,0-1.19-.44,1.67,1.67,0,0,0-1.12.35,1.16,1.16,0,0,0-.4.93h-2.83a2.85,2.85,0,0,1,.57-1.7,3.78,3.78,0,0,1,1.6-1.22,5.8,5.8,0,0,1,2.33-.45,4.6,4.6,0,0,1,3.1,1A3.43,3.43,0,0,1,113,36.22V40.8a5.12,5.12,0,0,0,.42,2.27v.17Zm-2.33-2a2.5,2.5,0,0,0,1.15-.27,1.89,1.89,0,0,0,.78-.75V38.43h-1c-1.42,0-2.17.49-2.26,1.47v.16a1.13,1.13,0,0,0,.37.87A1.45,1.45,0,0,0,108.24,41.27Z"/><path class="cls-1" d="M117.77,32.67l.09,1.22a3.68,3.68,0,0,1,3-1.42,3.05,3.05,0,0,1,2.5,1,4.57,4.57,0,0,1,.84,2.95v6.83h-2.82V36.48a1.82,1.82,0,0,0-.39-1.3,1.74,1.74,0,0,0-1.3-.41,1.93,1.93,0,0,0-1.78,1v7.45h-2.83V32.67Z"/><path class="cls-1" d="M136.8,38h-2.33v5.21h-2.93V29h5.28a6,6,0,0,1,3.89,1.12,3.89,3.89,0,0,1,1.37,3.17,4.37,4.37,0,0,1-.63,2.43,4.28,4.28,0,0,1-1.91,1.55l3.07,5.81v.14h-3.14Zm-2.33-2.37h2.36a2.43,2.43,0,0,0,1.71-.56,2,2,0,0,0,.61-1.55,2.11,2.11,0,0,0-.58-1.58,2.34,2.34,0,0,0-1.75-.58h-2.35Z"/><path class="cls-1" d="M144.26,41.85a1.39,1.39,0,0,1,.46-1.09,1.76,1.76,0,0,1,2.28,0,1.39,1.39,0,0,1,.46,1.09,1.41,1.41,0,0,1-.45,1.08,1.63,1.63,0,0,1-1.16.41,1.6,1.6,0,0,1-1.14-.41A1.41,1.41,0,0,1,144.26,41.85Z"/><path class="cls-1" d="M100.89,49.65v13.1a8.51,8.51,0,0,1-8.5,8.5H9.5A8.51,8.51,0,0,1,1,62.75V9.5A8.51,8.51,0,0,1,9.5,1H92.39a8.51,8.51,0,0,1,8.5,8.5V27.78h1V9.5A9.52,9.52,0,0,0,92.39,0H9.5A9.51,9.51,0,0,0,0,9.5V62.75a9.51,9.51,0,0,0,9.5,9.5H92.39a9.52,9.52,0,0,0,9.5-9.5V49.65Z"/></g></g></svg>