<svg xmlns="http://www.w3.org/2000/svg" viewBox="0 0 266.32 72.25"><defs><style>.cls-1{fill:#b2b2b2;}</style></defs><g id="Layer_2" data-name="Layer 2"><g id="Layer_1-2" data-name="Layer 1"><polygon class="cls-1" points="46.07 43.85 43.2 35.13 40.32 43.85 43.2 45.49 46.07 43.85"/><polygon class="cls-1" points="28.86 26.63 28.86 26.49 28.89 22.33 28.02 26.49 27.99 26.63 25.28 39.6 27.59 47.28 28.23 41.42 34.63 47.51 36.66 49.44 39.42 52.07 37.84 49.44 36.68 47.51 34.34 43.62 34.1 36.12 28.41 33.85 28.83 32.58 28.86 26.63"/><polygon class="cls-1" points="31.13 49.44 36.6 59.09 41.77 59.09 41.77 56.43 33.32 49.44 30.98 47.51 29.19 46.03 30.03 47.51 31.13 49.44"/><polygon class="cls-1" points="58.34 47.28 60.88 39.95 57.98 26.63 57.95 26.49 57.04 22.33 57.07 26.49 57.07 26.63 57.1 32.58 57.52 33.85 51.83 36.12 51.59 43.62 49.25 47.51 48.09 49.44 46.51 52.07 49.27 49.44 51.3 47.51 57.7 41.42 58.34 47.28"/><polygon class="cls-1" points="54.8 49.44 55.9 47.51 56.74 46.03 54.95 47.51 52.61 49.44 44.16 56.43 44.16 59.09 49.33 59.09 54.8 49.44"/><polygon class="cls-1" points="51.02 26.49 56.6 20.32 54.04 17.52 47.7 19.69 47.59 14.68 42.77 14.1 38.25 14.68 38.03 19.5 31.41 17.98 29.19 20.32 35.03 26.49 35.16 26.63 43.2 35.13 50.89 26.63 51.02 26.49"/><path class="cls-1" d="M84.45,32.08a2.74,2.74,0,0,1,1.67-.45,2.53,2.53,0,0,1,1.73.54,1.92,1.92,0,0,1,.62,1.52H91.4a4.07,4.07,0,0,0-.66-2.29,4.37,4.37,0,0,0-1.85-1.56,6.54,6.54,0,0,0-2.72-.55,7,7,0,0,0-2.73.51,4.23,4.23,0,0,0-1.86,1.41,3.39,3.39,0,0,0-.65,2.06,4,4,0,0,0,2.42,3.52,15.08,15.08,0,0,0,2.41,1,7.53,7.53,0,0,1,2.11.94A1.51,1.51,0,0,1,88.46,40a1.39,1.39,0,0,1-.59,1.19,2.75,2.75,0,0,1-1.63.43c-1.87,0-2.81-.79-2.81-2.36H80.49a4.13,4.13,0,0,0,.71,2.42,4.67,4.67,0,0,0,2,1.65,7.29,7.29,0,0,0,3,.6,6.1,6.1,0,0,0,3.76-1A3.42,3.42,0,0,0,91.4,40a3.7,3.7,0,0,0-1.15-2.78,8.85,8.85,0,0,0-3.64-1.86,8.14,8.14,0,0,1-2-.88,1.36,1.36,0,0,1-.7-1.16A1.44,1.44,0,0,1,84.45,32.08Z"/><path class="cls-1" d="M97.74,32.94a4.91,4.91,0,0,0-2.57.68,4.56,4.56,0,0,0-1.74,1.94,6.34,6.34,0,0,0-.62,2.84v.28a5.06,5.06,0,0,0,1.46,3.79,5.18,5.18,0,0,0,3.79,1.43,5.69,5.69,0,0,0,2.4-.5,4.33,4.33,0,0,0,1.72-1.4l-1.39-1.56a3,3,0,0,1-2.55,1.19A2.48,2.48,0,0,1,96.5,41a2.67,2.67,0,0,1-.83-1.66h6.73V38.19a5.55,5.55,0,0,0-1.24-3.88A4.4,4.4,0,0,0,97.74,32.94Zm1.89,4.48H95.7a3,3,0,0,1,.67-1.63,1.76,1.76,0,0,1,1.36-.57,1.83,1.83,0,0,1,1.39.51,2.08,2.08,0,0,1,.51,1.46Z"/><path class="cls-1" d="M112.56,36.68a3.4,3.4,0,0,0-1.15-2.75,4.58,4.58,0,0,0-3.1-1,5.75,5.75,0,0,0-2.32.45,3.64,3.64,0,0,0-1.6,1.22,2.85,2.85,0,0,0-.57,1.7h2.82a1.15,1.15,0,0,1,.41-.93,1.66,1.66,0,0,1,1.11-.35,1.5,1.5,0,0,1,1.19.44,1.77,1.77,0,0,1,.38,1.17v.61h-1.3a6.16,6.16,0,0,0-3.6.91,3,3,0,0,0-1.25,2.58,2.88,2.88,0,0,0,1,2.26,3.76,3.76,0,0,0,2.58.9,3.41,3.41,0,0,0,2.66-1.14,3.23,3.23,0,0,0,.29,1H113v-.17a5.13,5.13,0,0,1-.42-2.28Zm-2.83,4a1.81,1.81,0,0,1-.78.74,2.43,2.43,0,0,1-1.16.28,1.42,1.42,0,0,1-1-.34,1.13,1.13,0,0,1-.37-.87v-.16q.14-1.47,2.25-1.47h1.06Z"/><path class="cls-1" d="M120.45,32.94a3.71,3.71,0,0,0-3,1.42l-.09-1.22h-2.65V43.71h2.82V36.25a2,2,0,0,1,1.79-1,1.76,1.76,0,0,1,1.3.4A1.85,1.85,0,0,1,121,37v6.76h2.82V36.88a4.57,4.57,0,0,0-.84-3A3.06,3.06,0,0,0,120.45,32.94Z"/><path class="cls-1" d="M141,36.21a4.39,4.39,0,0,0,.63-2.43,3.86,3.86,0,0,0-1.37-3.17,5.94,5.94,0,0,0-3.88-1.12h-5.29V43.71H134V38.5h2.34L139,43.71h3.15v-.14l-3.08-5.81A4.29,4.29,0,0,0,141,36.21Zm-2.9-.64a2.46,2.46,0,0,1-1.71.56H134V31.86h2.36a2.35,2.35,0,0,1,1.75.58A2.14,2.14,0,0,1,138.7,34,2,2,0,0,1,138.1,35.57Z"/><path class="cls-1" d="M146.56,41.22a1.77,1.77,0,0,0-2.29,0,1.45,1.45,0,0,0-.45,1.1,1.41,1.41,0,0,0,.45,1.08,1.8,1.8,0,0,0,2.29,0,1.41,1.41,0,0,0,.45-1.08A1.45,1.45,0,0,0,146.56,41.22Z"/><path class="cls-1" d="M256.82,0H9.5A9.51,9.51,0,0,0,0,9.5V62.75a9.51,9.51,0,0,0,9.5,9.5H256.82a9.51,9.51,0,0,0,9.5-9.5V9.5A9.51,9.51,0,0,0,256.82,0Zm8.5,26.31V62.75a8.51,8.51,0,0,1-8.5,8.5H9.5A8.51,8.51,0,0,1,1,62.75V9.5A8.51,8.51,0,0,1,9.5,1H256.82a8.51,8.51,0,0,1,8.5,8.5Z"/></g></g></svg>