<svg xmlns="http://www.w3.org/2000/svg" viewBox="0 0 192.31 72.25"><defs><style>.cls-1{fill:#b2b2b2;}</style></defs><g id="Layer_2" data-name="Layer 2"><g id="Layer_1-2" data-name="Layer 1"><path class="cls-1" d="M63.94,15.78l-7.33,3-6.8-3-5.19-2.32L39.8,15.78l-6.31,3-11.81,6,11-4.71-4.16,7.13L35,21.58l9.25,5.76-.07.33L40.71,44l3.91,2.12V27.67h.17l.25.16h0l.26-.16h.17V46.14L49.39,44,45.92,27.67l-.07-.33,9.24-5.76,6.47,5.7-4.17-7.13,7-4.37.94-.59ZM45.06,21.7h0l-9.46-2.88,5.12-3h8.21l5.61,3Z"/><polygon class="cls-1" points="56.11 24.09 57.54 27.67 59.67 32.98 56.48 34.47 56.62 40.47 51.88 43.27 48.56 49.7 47.94 50.89 50.67 49.7 60.65 45.34 62.45 33.86 58.43 27.67 56.11 24.09"/><polygon class="cls-1" points="42.46 50.89 41.84 49.7 38.52 43.27 33.78 40.47 33.92 34.47 30.73 32.98 32.86 27.67 34.3 24.09 31.97 27.67 27.95 33.86 29.82 45.1 39.85 49.7 42.46 50.89"/><polygon class="cls-1" points="38.37 58.8 44.28 57.36 44.28 54.75 33.78 50.3 38.37 58.8"/><polygon class="cls-1" points="45.83 57.36 51.74 58.8 56.32 50.3 45.83 54.75 45.83 57.36"/><path class="cls-1" d="M81.53,42V27.75h5a6.59,6.59,0,0,1,3.93,1,3.4,3.4,0,0,1,1.33,2.91,3.26,3.26,0,0,1-.53,1.84,3.14,3.14,0,0,1-1.5,1.17,3,3,0,0,1,1.73,1.1,3.25,3.25,0,0,1,.63,2,3.77,3.77,0,0,1-1.31,3.11A5.91,5.91,0,0,1,87.06,42Zm2.93-8.26h2.17c1.47,0,2.21-.61,2.21-1.77a1.62,1.62,0,0,0-.56-1.39,3,3,0,0,0-1.77-.42H84.46Zm0,2.07v3.84H87a2.44,2.44,0,0,0,1.61-.49,1.71,1.71,0,0,0,.59-1.37,1.79,1.79,0,0,0-2-2Z"/><path class="cls-1" d="M97.09,42H94.25V27h2.84Z"/><path class="cls-1" d="M105.53,42a3.15,3.15,0,0,1-.28-.95,3.39,3.39,0,0,1-2.67,1.15,3.75,3.75,0,0,1-2.57-.9A2.89,2.89,0,0,1,99,39a3,3,0,0,1,1.24-2.57,6.09,6.09,0,0,1,3.6-.91h1.3v-.61a1.73,1.73,0,0,0-.37-1.17,1.5,1.5,0,0,0-1.19-.44,1.67,1.67,0,0,0-1.12.34,1.16,1.16,0,0,0-.4.94H99.22a2.83,2.83,0,0,1,.57-1.7,3.8,3.8,0,0,1,1.6-1.23,6,6,0,0,1,2.33-.44,4.64,4.64,0,0,1,3.1,1A3.46,3.46,0,0,1,108,35v4.58a5.2,5.2,0,0,0,.42,2.28V42Zm-2.33-2a2.36,2.36,0,0,0,1.15-.28,1.77,1.77,0,0,0,.78-.75V37.17h-1c-1.41,0-2.17.49-2.26,1.46v.17a1.16,1.16,0,0,0,.37.87A1.45,1.45,0,0,0,103.2,40Z"/><path class="cls-1" d="M114,37.73l-1,1V42h-2.82V27H113v8.31l.55-.7,2.71-3.17h3.39l-3.82,4.4L119.93,42h-3.24Z"/><path class="cls-1" d="M125.48,42.17a5.18,5.18,0,0,1-3.78-1.43,5.09,5.09,0,0,1-1.46-3.8v-.27a6.41,6.41,0,0,1,.61-2.85,4.62,4.62,0,0,1,1.75-1.93,4.91,4.91,0,0,1,2.57-.68,4.38,4.38,0,0,1,3.41,1.37,5.54,5.54,0,0,1,1.25,3.87v1.16H123.1a2.62,2.62,0,0,0,.83,1.66,2.52,2.52,0,0,0,1.74.62,3,3,0,0,0,2.55-1.18l1.38,1.55a4.15,4.15,0,0,1-1.71,1.4A5.63,5.63,0,0,1,125.48,42.17Zm-.32-8.68a1.79,1.79,0,0,0-1.36.56,3,3,0,0,0-.67,1.63h3.93v-.22a2.16,2.16,0,0,0-.51-1.46A1.84,1.84,0,0,0,125.16,33.49Z"/><path class="cls-1" d="M140.43,27.75l3.65,10.32,3.63-10.32h3.85V42h-2.94V38.09l.29-6.71L145.07,42h-2l-3.83-10.58.3,6.7V42H136.6V27.75Z"/><path class="cls-1" d="M153.49,36.59a6.17,6.17,0,0,1,.61-2.8,4.41,4.41,0,0,1,1.74-1.91,5.18,5.18,0,0,1,2.64-.67A4.81,4.81,0,0,1,162,32.52a5.19,5.19,0,0,1,1.51,3.55l0,.73a5.5,5.5,0,0,1-1.36,3.9,5.25,5.25,0,0,1-7.29,0,5.63,5.63,0,0,1-1.36-4Zm2.82.2a4,4,0,0,0,.57,2.31,2,2,0,0,0,3.22,0,4.3,4.3,0,0,0,.58-2.52,3.86,3.86,0,0,0-.58-2.29,1.86,1.86,0,0,0-1.62-.81,1.83,1.83,0,0,0-1.6.8A4.38,4.38,0,0,0,156.31,36.79Z"/><path class="cls-1" d="M171,39.05a.91.91,0,0,0-.51-.81,5.82,5.82,0,0,0-1.65-.54Q165,36.92,165,34.5a2.9,2.9,0,0,1,1.17-2.35,4.71,4.71,0,0,1,3.05-.94,5.08,5.08,0,0,1,3.22.95,3,3,0,0,1,1.21,2.46h-2.83a1.35,1.35,0,0,0-.39-1,1.62,1.62,0,0,0-1.22-.4,1.72,1.72,0,0,0-1.1.32,1,1,0,0,0-.39.82.87.87,0,0,0,.44.76,4.68,4.68,0,0,0,1.5.5,12.8,12.8,0,0,1,1.78.47,2.93,2.93,0,0,1,2.24,2.85,2.75,2.75,0,0,1-1.24,2.33,5.35,5.35,0,0,1-3.21.9,5.56,5.56,0,0,1-2.36-.48,3.91,3.91,0,0,1-1.61-1.29,3.07,3.07,0,0,1-.59-1.79h2.68a1.47,1.47,0,0,0,.56,1.16,2.22,2.22,0,0,0,1.38.4,2.1,2.1,0,0,0,1.23-.31A1,1,0,0,0,171,39.05Z"/><path class="cls-1" d="M180.39,42.17a5.22,5.22,0,0,1-3.79-1.43,5.09,5.09,0,0,1-1.46-3.8v-.27a6.42,6.42,0,0,1,.62-2.85,4.53,4.53,0,0,1,1.74-1.93,4.91,4.91,0,0,1,2.57-.68,4.4,4.4,0,0,1,3.42,1.37,5.54,5.54,0,0,1,1.24,3.87v1.16H178a2.62,2.62,0,0,0,.83,1.66,2.52,2.52,0,0,0,1.74.62,3,3,0,0,0,2.55-1.18l1.39,1.55a4.25,4.25,0,0,1-1.72,1.4A5.55,5.55,0,0,1,180.39,42.17Zm-.33-8.68a1.79,1.79,0,0,0-1.36.56,3,3,0,0,0-.67,1.63H182v-.22a2.07,2.07,0,0,0-.51-1.46A1.84,1.84,0,0,0,180.06,33.49Z"/><path class="cls-1" d="M192.27,34.05a8,8,0,0,0-1-.08,2.07,2.07,0,0,0-2.1,1.09V42h-2.83V31.41H189l.08,1.26a2.61,2.61,0,0,1,2.35-1.46,2.8,2.8,0,0,1,.88.13Z"/><path class="cls-1" d="M100.89,46.79v16a8.51,8.51,0,0,1-8.5,8.5H9.5A8.51,8.51,0,0,1,1,62.75V9.5A8.51,8.51,0,0,1,9.5,1H92.39a8.51,8.51,0,0,1,8.5,8.5V23h1V9.5A9.52,9.52,0,0,0,92.39,0H9.5A9.51,9.51,0,0,0,0,9.5V62.75a9.51,9.51,0,0,0,9.5,9.5H92.39a9.52,9.52,0,0,0,9.5-9.5v-16Z"/></g></g></svg>