<svg xmlns="http://www.w3.org/2000/svg" viewBox="0 0 266.32 72.25"><defs><style>.cls-1{fill:#b2b2b2;}</style></defs><g id="Layer_2" data-name="Layer 2"><g id="Layer_1-2" data-name="Layer 1"><polygon class="cls-1" points="42.49 35.68 40.41 35.68 38.82 43.17 42.49 45.17 42.49 35.68"/><polygon class="cls-1" points="45.38 35.68 43.31 35.68 43.31 45.17 46.98 43.17 45.38 35.68"/><polygon class="cls-1" points="24.7 34.93 26.34 44.79 37.14 49.74 39.39 49.74 35.8 42.79 30.65 39.73 30.76 34.93 24.7 34.93"/><polygon class="cls-1" points="61.44 34.93 55.36 34.93 55.48 39.73 50.32 42.79 46.74 49.74 49.12 49.74 59.86 45.05 61.44 34.93"/><path class="cls-1" d="M60.36,26.05h-.45l-3.63-5.66,2.29-1.29H55.44L52,13.74l1.22,5.36L43.1,13.74h0L33,19.1l1.21-5.36L30.73,19.1H27.61l2.29,1.29-3.64,5.66h-.45l-1.09,5.21H61.46Zm-30.85,0H27l5.33-4.27,7.54,4.27Zm27.15,0H46.28l7.54-4.27,5.33,4.27Z"/><polygon class="cls-1" points="34.84 50.14 35.61 57.27 41.93 59.71 40.29 54.59 41.93 53.06 34.84 50.14"/><polygon class="cls-1" points="50.56 57.27 51.34 50.14 44.24 53.06 45.89 54.59 44.24 59.71 50.56 57.27"/><path class="cls-1" d="M84.76,32.27A2.5,2.5,0,0,1,87,31.22a2.86,2.86,0,0,1,2,.62,3,3,0,0,1,.77,2h2.93a5.43,5.43,0,0,0-1.74-3.7,6.44,6.44,0,0,0-7.09-.48,5.38,5.38,0,0,0-2.06,2.39,8.6,8.6,0,0,0-.72,3.62v.87a7.57,7.57,0,0,0,1.56,5.05,5.35,5.35,0,0,0,4.3,1.84,6,6,0,0,0,4-1.32,5,5,0,0,0,1.7-3.61H89.71a2.79,2.79,0,0,1-.77,1.92,2.92,2.92,0,0,1-2,.62A2.45,2.45,0,0,1,84.71,40a6.3,6.3,0,0,1-.7-3.36V35.53A6,6,0,0,1,84.76,32.27Z"/><path class="cls-1" d="M102.42,33.78a4.83,4.83,0,0,0-3.49-1.31,5.1,5.1,0,0,0-2.65.68,4.51,4.51,0,0,0-1.74,1.9,6.34,6.34,0,0,0-.6,2.81V38a5.63,5.63,0,0,0,1.36,4,5.27,5.27,0,0,0,7.29,0,5.55,5.55,0,0,0,1.36-3.9l0-.72A5.31,5.31,0,0,0,102.42,33.78Zm-1.87,6.59a2,2,0,0,1-3.23,0,4,4,0,0,1-.56-2.3,4.44,4.44,0,0,1,.56-2.5,1.86,1.86,0,0,1,1.61-.81,1.89,1.89,0,0,1,1.62.81,4,4,0,0,1,.57,2.29A4.38,4.38,0,0,1,100.55,40.37Z"/><path class="cls-1" d="M111.93,33.63a3.23,3.23,0,0,0-2.54-1.16,3.6,3.6,0,0,0-3,1.47,6.38,6.38,0,0,0-1.11,3.94A6.57,6.57,0,0,0,106.37,42a3.59,3.59,0,0,0,3,1.47,3.32,3.32,0,0,0,2.71-1.32l.14,1.13h2.55v-15h-2.84Zm0,6.42a1.87,1.87,0,0,1-1.84,1.11,1.7,1.7,0,0,1-1.51-.8,4.17,4.17,0,0,1-.51-2.27c0-2.22.68-3.32,2-3.32a1.86,1.86,0,0,1,1.82,1.1Z"/><path class="cls-1" d="M120.9,39.24l-2-6.57h-3l3.7,10.6-.33.87a1.69,1.69,0,0,1-.62.81,2.37,2.37,0,0,1-1.2.24H117v2.14a4.61,4.61,0,0,0,1.25.18,3.23,3.23,0,0,0,3.13-2.07l.23-.55,4.25-12.21h-3Z"/><path class="cls-1" d="M140.37,35.92a3.12,3.12,0,0,0,1.5-1.16,3.31,3.31,0,0,0,.53-1.85,3.37,3.37,0,0,0-1.34-2.9,6.53,6.53,0,0,0-3.92-1h-5V43.24h5.53a5.91,5.91,0,0,0,3.73-1.08,3.75,3.75,0,0,0,1.3-3.1,3.31,3.31,0,0,0-.62-2A3,3,0,0,0,140.37,35.92Zm-5.28-4.53h2a2.88,2.88,0,0,1,1.77.43,1.6,1.6,0,0,1,.56,1.39c0,1.15-.74,1.74-2.21,1.76h-2.17Zm4.12,9a2.38,2.38,0,0,1-1.61.49h-2.51V37.05h2.68a1.79,1.79,0,0,1,2,2A1.69,1.69,0,0,1,139.21,40.39Z"/><path class="cls-1" d="M152.78,33.78a4.83,4.83,0,0,0-3.49-1.31,5,5,0,0,0-2.64.68,4.47,4.47,0,0,0-1.75,1.9,6.34,6.34,0,0,0-.6,2.81V38a5.63,5.63,0,0,0,1.36,4A5.27,5.27,0,0,0,153,42a5.55,5.55,0,0,0,1.36-3.9l0-.72A5.31,5.31,0,0,0,152.78,33.78Zm-1.87,6.59a1.9,1.9,0,0,1-1.6.79,1.85,1.85,0,0,1-1.62-.8,3.92,3.92,0,0,1-.57-2.3,4.35,4.35,0,0,1,.57-2.5,1.83,1.83,0,0,1,1.6-.81,1.89,1.89,0,0,1,1.62.81,4,4,0,0,1,.57,2.29A4.38,4.38,0,0,1,150.91,40.37Z"/><path class="cls-1" d="M159.84,39.24l-2-6.57h-3l3.71,10.6-.34.87a1.63,1.63,0,0,1-.62.81,2.33,2.33,0,0,1-1.19.24H156v2.14a4.55,4.55,0,0,0,1.25.18,3.21,3.21,0,0,0,3.12-2.07l.24-.55,4.24-12.21h-3Z"/><path class="cls-1" d="M172.06,28.24v5.39a3.24,3.24,0,0,0-2.55-1.16,3.59,3.59,0,0,0-3,1.47,6.38,6.38,0,0,0-1.11,3.94A6.57,6.57,0,0,0,166.5,42a3.58,3.58,0,0,0,3,1.47,3.33,3.33,0,0,0,2.72-1.32l.13,1.13h2.55v-15Zm0,11.81a1.88,1.88,0,0,1-1.84,1.11,1.7,1.7,0,0,1-1.51-.8,4.16,4.16,0,0,1-.52-2.27c0-2.22.68-3.32,2-3.32a1.87,1.87,0,0,1,1.83,1.1Z"/><path class="cls-1" d="M256.82,0H9.5A9.51,9.51,0,0,0,0,9.5V62.75a9.51,9.51,0,0,0,9.5,9.5H256.82a9.51,9.51,0,0,0,9.5-9.5V9.5A9.51,9.51,0,0,0,256.82,0Zm8.5,26.31V62.75a8.51,8.51,0,0,1-8.5,8.5H9.5A8.51,8.51,0,0,1,1,62.75V9.5A8.51,8.51,0,0,1,9.5,1H256.82a8.51,8.51,0,0,1,8.5,8.5Z"/></g></g></svg>