<svg xmlns="http://www.w3.org/2000/svg" viewBox="0 0 266.32 72.25"><defs><style>.cls-1{fill:#b2b2b2;}</style></defs><g id="Layer_2" data-name="Layer 2"><g id="Layer_1-2" data-name="Layer 1"><polygon class="cls-1" points="27.69 26.38 28.54 26.38 28.57 22.18 27.69 26.38"/><polygon class="cls-1" points="61.19 32.4 57.28 26.38 57.84 26.38 56.93 22.18 56.95 25.87 54.6 22.25 56.49 20.16 53.91 17.34 47.52 19.52 47.41 14.47 42.55 13.89 38 14.47 37.78 19.33 31.11 17.8 28.87 20.16 31.27 22.7 29.19 25.9 24.97 32.4 26.93 44.2 37.47 49.02 40.2 50.27 39.55 49.02 36.07 42.28 31.09 39.33 31.24 33.04 27.89 31.48 30.12 25.9 31.37 22.8 34.75 26.38 41.92 26.38 38.37 43.06 42.47 45.29 42.47 26.38 43.38 26.38 43.38 45.29 47.48 43.06 43.93 26.38 50.86 26.38 54.58 22.27 56.04 25.9 58.27 31.48 54.92 33.04 55.07 39.33 50.09 42.28 46.6 49.02 45.96 50.27 48.82 49.02 59.3 44.45 61.19 32.4"/><polygon class="cls-1" points="35.9 58.58 42.11 57.07 42.11 54.33 31.09 49.65 35.9 58.58"/><polygon class="cls-1" points="43.74 57.07 49.94 58.58 54.76 49.65 43.74 54.33 43.74 57.07"/><path class="cls-1" d="M80.83,33v6.92a4.17,4.17,0,0,0,.91,2.86,3.36,3.36,0,0,0,2.6,1,3.53,3.53,0,0,0,2.89-1.27l.08,1.07H90V33H87.13v7.49a2,2,0,0,1-2,1c-1,0-1.51-.55-1.51-1.65V33Z"/><path class="cls-1" d="M101.15,43.51V36.69a4.57,4.57,0,0,0-.84-2.95,3.05,3.05,0,0,0-2.5-1,3.66,3.66,0,0,0-3,1.42L94.69,33H92V43.51h2.82V36.06a2,2,0,0,1,1.79-1,1.74,1.74,0,0,1,1.3.4,1.85,1.85,0,0,1,.39,1.31v6.75Z"/><path class="cls-1" d="M106.18,35.75a1.69,1.69,0,0,1,1.49-.72,1.72,1.72,0,0,1,1.29.51,2,2,0,0,1,.5,1.34h2.65a4,4,0,0,0-1.22-3,4.42,4.42,0,0,0-3.17-1.13,4.54,4.54,0,0,0-3.57,1.46,5.61,5.61,0,0,0-1.3,3.89v.19a5.72,5.72,0,0,0,1.31,4,4.58,4.58,0,0,0,3.57,1.44,5,5,0,0,0,2.22-.49,3.85,3.85,0,0,0,1.57-1.39,3.61,3.61,0,0,0,.59-2h-2.65A1.52,1.52,0,0,1,109,41a1.89,1.89,0,0,1-1.27.42,1.71,1.71,0,0,1-1.52-.71,4.25,4.25,0,0,1-.5-2.35v-.29A4.1,4.1,0,0,1,106.18,35.75Z"/><path class="cls-1" d="M115.28,28.76a1.6,1.6,0,0,0-1.15.41,1.36,1.36,0,0,0-.43,1,1.39,1.39,0,0,0,.44,1.06,1.8,1.8,0,0,0,2.29,0,1.48,1.48,0,0,0,0-2.1A1.63,1.63,0,0,0,115.28,28.76Z"/><rect class="cls-1" x="113.87" y="32.95" width="2.83" height="10.57"/><path class="cls-1" d="M122.63,41.13a1.26,1.26,0,0,1-.23-.84V35h1.81V33H122.4v-2.6h-2.82V33H118V35h1.54v5.69q.06,3,3,3a5.85,5.85,0,0,0,1.71-.25V41.32a5,5,0,0,1-.83.07A1.12,1.12,0,0,1,122.63,41.13Z"/><rect class="cls-1" x="125.93" y="32.95" width="2.83" height="10.57"/><path class="cls-1" d="M127.34,28.76a1.6,1.6,0,0,0-1.15.41,1.36,1.36,0,0,0-.43,1,1.39,1.39,0,0,0,.44,1.06,1.8,1.8,0,0,0,2.29,0,1.48,1.48,0,0,0,0-2.1A1.63,1.63,0,0,0,127.34,28.76Z"/><polygon class="cls-1" points="139.34 34.61 139.34 32.95 130.87 32.95 130.87 35.22 135.69 35.22 130.72 41.8 130.72 43.52 139.49 43.52 139.49 41.24 134.33 41.24 139.34 34.61"/><path class="cls-1" d="M145.65,32.75a4.91,4.91,0,0,0-2.57.68,4.5,4.5,0,0,0-1.74,1.94,6.34,6.34,0,0,0-.62,2.84v.28a5.06,5.06,0,0,0,1.46,3.79A5.22,5.22,0,0,0,146,43.71a5.69,5.69,0,0,0,2.4-.5,4.42,4.42,0,0,0,1.72-1.4l-1.39-1.56a3,3,0,0,1-2.55,1.18,2.48,2.48,0,0,1-1.74-.62,2.67,2.67,0,0,1-.83-1.66h6.73V38a5.55,5.55,0,0,0-1.24-3.88A4.4,4.4,0,0,0,145.65,32.75Zm1.89,4.48h-3.93a3,3,0,0,1,.67-1.63,1.76,1.76,0,0,1,1.36-.57,1.83,1.83,0,0,1,1.39.51,2.08,2.08,0,0,1,.51,1.46Z"/><path class="cls-1" d="M160.14,33.74a3.06,3.06,0,0,0-2.5-1,3.69,3.69,0,0,0-3,1.42L154.51,33h-2.65V43.51h2.82V36.06a2,2,0,0,1,1.79-1,1.73,1.73,0,0,1,1.29.4,1.85,1.85,0,0,1,.39,1.31v6.75H161V36.69A4.69,4.69,0,0,0,160.14,33.74Z"/><path class="cls-1" d="M256.82,0H9.5A9.51,9.51,0,0,0,0,9.5V62.75a9.51,9.51,0,0,0,9.5,9.5H256.82a9.51,9.51,0,0,0,9.5-9.5V9.5A9.51,9.51,0,0,0,256.82,0Zm8.5,26.31V62.75a8.51,8.51,0,0,1-8.5,8.5H9.5A8.51,8.51,0,0,1,1,62.75V9.5A8.51,8.51,0,0,1,9.5,1H256.82a8.51,8.51,0,0,1,8.5,8.5Z"/></g></g></svg>