<svg xmlns="http://www.w3.org/2000/svg" viewBox="0 0 158.92 72.25"><defs><style>.cls-1{fill:#b2b2b2;}</style></defs><g id="Layer_2" data-name="Layer 2"><g id="Layer_1-2" data-name="Layer 1"><polygon class="cls-1" points="56.53 25.89 59.8 25.89 60.75 26.64 60.26 25.89 56.38 19.85 58.63 18.58 55.56 18.58 52.18 13.32 53.37 18.58 43.44 13.32 43.42 13.32 33.49 18.58 34.69 13.32 31.3 18.58 28.23 18.58 30.48 19.85 26.6 25.89 26.11 26.64 27.06 25.89 30.52 25.89 25.49 32.92 30.6 44.77 40.71 49.15 36.58 41.89 36.38 35.45 31.75 33.5 28.4 32.08 31.14 25.89 41.15 25.89 42.57 26.69 38.88 41.36 42.98 39.29 42.98 26.92 43.42 27.17 43.43 27.16 43.44 27.17 43.89 26.92 43.89 39.29 47.99 41.36 44.29 26.69 45.72 25.89 55.91 25.89 58.65 32.08 50.67 35.45 50.47 41.89 46.34 49.15 56.45 44.77 61.56 32.92 56.53 25.89"/><polygon class="cls-1" points="31.61 48.59 31.94 49.15 36.41 56.69 42.62 58.94 42.62 52.83 33.07 49.15 31.61 48.59"/><polygon class="cls-1" points="44.25 52.83 44.25 58.94 50.45 56.69 54.92 49.15 55.26 48.59 53.79 49.15 44.25 52.83"/><path class="cls-1" d="M87.26,28.92h2.93v9.84a4.7,4.7,0,0,1-.6,2.4,4.16,4.16,0,0,1-1.69,1.61,5.28,5.28,0,0,1-2.47.56,5.05,5.05,0,0,1-3.52-1.14,4.18,4.18,0,0,1-1.26-3.25H83.6A2.28,2.28,0,0,0,84,40.48a1.76,1.76,0,0,0,1.39.5,1.64,1.64,0,0,0,1.33-.58,2.38,2.38,0,0,0,.5-1.64Z"/><path class="cls-1" d="M98.64,43.14a3.14,3.14,0,0,1-.29-1,3.41,3.41,0,0,1-2.66,1.14,3.77,3.77,0,0,1-2.57-.89,2.9,2.9,0,0,1-1-2.27,3,3,0,0,1,1.24-2.58,6.16,6.16,0,0,1,3.6-.91h1.3v-.6a1.73,1.73,0,0,0-.38-1.17,1.44,1.44,0,0,0-1.18-.44,1.67,1.67,0,0,0-1.12.34,1.17,1.17,0,0,0-.41.94H92.33a2.81,2.81,0,0,1,.57-1.7,3.74,3.74,0,0,1,1.6-1.23,5.92,5.92,0,0,1,2.32-.44,4.57,4.57,0,0,1,3.1,1,3.41,3.41,0,0,1,1.15,2.76V40.7a5.12,5.12,0,0,0,.42,2.27v.17Zm-2.34-2a2.55,2.55,0,0,0,1.16-.28,1.89,1.89,0,0,0,.78-.75V38.33H97.18q-2.12,0-2.25,1.47V40a1.09,1.09,0,0,0,.37.86A1.42,1.42,0,0,0,96.3,41.18Z"/><path class="cls-1" d="M105.88,32.57l.09,1.18a3.73,3.73,0,0,1,3-1.37,2.81,2.81,0,0,1,2.8,1.61A3.61,3.61,0,0,1,115,32.38a3.13,3.13,0,0,1,2.55,1,4.6,4.6,0,0,1,.84,3v6.75h-2.83V36.4a2,2,0,0,0-.35-1.31,1.54,1.54,0,0,0-1.24-.42,1.77,1.77,0,0,0-1.76,1.21v7.26h-2.82V36.41a2,2,0,0,0-.36-1.33,1.58,1.58,0,0,0-1.23-.41,1.83,1.83,0,0,0-1.74,1v7.47h-2.82V32.57Z"/><path class="cls-1" d="M125.42,43.33a5.19,5.19,0,0,1-3.79-1.42,5.09,5.09,0,0,1-1.46-3.8v-.27a6.42,6.42,0,0,1,.62-2.85,4.48,4.48,0,0,1,1.74-1.93,4.82,4.82,0,0,1,2.57-.68,4.39,4.39,0,0,1,3.42,1.36,5.58,5.58,0,0,1,1.24,3.88v1.15H123a2.6,2.6,0,0,0,.83,1.66,2.48,2.48,0,0,0,1.74.63,3.06,3.06,0,0,0,2.55-1.18l1.39,1.55a4.25,4.25,0,0,1-1.72,1.4A5.58,5.58,0,0,1,125.42,43.33Zm-.33-8.68a1.76,1.76,0,0,0-1.36.57,3,3,0,0,0-.67,1.63H127v-.23a2.1,2.1,0,0,0-.51-1.45A1.81,1.81,0,0,0,125.09,34.65Z"/><path class="cls-1" d="M137.09,40.22a.92.92,0,0,0-.52-.82,5.9,5.9,0,0,0-1.64-.53c-2.52-.53-3.77-1.59-3.77-3.2a2.92,2.92,0,0,1,1.16-2.35,4.72,4.72,0,0,1,3.06-.94,5,5,0,0,1,3.21.94,3,3,0,0,1,1.21,2.47H137a1.39,1.39,0,0,0-.39-1,1.67,1.67,0,0,0-1.22-.39,1.73,1.73,0,0,0-1.11.32,1,1,0,0,0-.39.82.87.87,0,0,0,.45.76,4.51,4.51,0,0,0,1.5.5,11.69,11.69,0,0,1,1.77.47,2.92,2.92,0,0,1,2.24,2.84,2.75,2.75,0,0,1-1.24,2.34,5.33,5.33,0,0,1-3.2.89,5.5,5.5,0,0,1-2.36-.47,4,4,0,0,1-1.62-1.3,3,3,0,0,1-.58-1.78h2.67a1.48,1.48,0,0,0,.56,1.15,2.18,2.18,0,0,0,1.38.4,2,2,0,0,0,1.23-.31A.94.94,0,0,0,137.09,40.22Z"/><path class="cls-1" d="M149.74,38.13v5h-2.93V28.92h5.55a6.43,6.43,0,0,1,2.82.59,4.32,4.32,0,0,1,1.87,1.66,4.71,4.71,0,0,1,.65,2.46,4.08,4.08,0,0,1-1.43,3.29,5.91,5.91,0,0,1-4,1.21Zm0-2.37h2.62a2.6,2.6,0,0,0,1.77-.55,2,2,0,0,0,.61-1.56,2.2,2.2,0,0,0-2.31-2.36h-2.69Z"/><path class="cls-1" d="M155.73,41.75a1.42,1.42,0,0,1,.45-1.09,1.61,1.61,0,0,1,1.14-.42,1.65,1.65,0,0,1,1.15.42,1.42,1.42,0,0,1,.45,1.09,1.4,1.4,0,0,1-.45,1.08,1.77,1.77,0,0,1-2.29,0A1.4,1.4,0,0,1,155.73,41.75Z"/><path class="cls-1" d="M100.89,50.19V62.75a8.51,8.51,0,0,1-8.5,8.5H9.5A8.51,8.51,0,0,1,1,62.75V9.5A8.51,8.51,0,0,1,9.5,1H92.39a8.51,8.51,0,0,1,8.5,8.5V26.31h1V9.5A9.52,9.52,0,0,0,92.39,0H9.5A9.51,9.51,0,0,0,0,9.5V62.75a9.51,9.51,0,0,0,9.5,9.5H92.39a9.52,9.52,0,0,0,9.5-9.5V50.19Z"/></g></g></svg>