<svg xmlns="http://www.w3.org/2000/svg" viewBox="0 0 167.46 72.25"><defs><style>.cls-1{fill:#b2b2b2;}</style></defs><g id="Layer_2" data-name="Layer 2"><g id="Layer_1-2" data-name="Layer 1"><polygon class="cls-1" points="42.89 15.28 42.13 18.89 42.89 18.89 42.89 15.28"/><polygon class="cls-1" points="43.81 15.28 43.81 18.89 44.57 18.89 43.81 15.28"/><polygon class="cls-1" points="32.02 13.63 28.61 18.89 29.92 18.89 32.02 13.63"/><polygon class="cls-1" points="58.4 18.89 54.99 13.63 57.1 18.89 58.4 18.89"/><polygon class="cls-1" points="39.4 42.61 42.96 44.55 42.96 35.35 40.94 35.35 39.4 42.61"/><polygon class="cls-1" points="45.76 35.35 43.74 35.35 43.74 44.55 47.3 42.61 45.76 35.35"/><polygon class="cls-1" points="55.53 39.28 50.54 42.24 47.07 48.97 46.39 50.28 49.38 48.97 59.77 44.42 61.31 34.62 55.42 34.62 55.53 39.28"/><polygon class="cls-1" points="60.26 26.02 59.66 23.18 27.4 23.18 26.8 26.02 25.74 31.07 61.32 31.07 60.26 26.02"/><polygon class="cls-1" points="40.62 50.28 39.95 48.97 36.48 42.24 31.48 39.28 31.59 34.62 25.73 34.62 27.31 44.18 37.77 48.97 40.62 50.28"/><polygon class="cls-1" points="36.31 58.63 42.53 57.11 42.53 54.35 31.48 49.65 36.31 58.63"/><polygon class="cls-1" points="44.17 57.11 50.39 58.63 55.22 49.65 44.17 54.35 44.17 57.11"/><path class="cls-1" d="M81.53,43.41V29.19H85.9a6.7,6.7,0,0,1,3.36.84,6,6,0,0,1,2.31,2.41A7.4,7.4,0,0,1,92.4,36v.65a7.39,7.39,0,0,1-.82,3.53,5.88,5.88,0,0,1-2.3,2.39,6.78,6.78,0,0,1-3.35.86Zm2.93-11.85v9.49h1.41a3.17,3.17,0,0,0,2.63-1.12,5,5,0,0,0,.93-3.21V36a5.16,5.16,0,0,0-.9-3.29,3.16,3.16,0,0,0-2.63-1.12Z"/><path class="cls-1" d="M97,32.84,97.08,34a3.68,3.68,0,0,1,3-1.37,2.82,2.82,0,0,1,2.81,1.61,3.61,3.61,0,0,1,3.17-1.61,3.14,3.14,0,0,1,2.56,1,4.58,4.58,0,0,1,.84,3v6.75h-2.83V36.67a2,2,0,0,0-.36-1.31,1.53,1.53,0,0,0-1.24-.42,1.75,1.75,0,0,0-1.75,1.21v7.26h-2.83V36.68a2,2,0,0,0-.36-1.33,1.58,1.58,0,0,0-1.23-.41,1.83,1.83,0,0,0-1.74,1v7.47H94.34V32.84Z"/><path class="cls-1" d="M111.64,30.11a1.41,1.41,0,0,1,.42-1.05,1.83,1.83,0,0,1,2.31,0,1.38,1.38,0,0,1,.43,1.05,1.37,1.37,0,0,1-.43,1.05,1.63,1.63,0,0,1-1.15.41,1.62,1.62,0,0,1-1.15-.41A1.37,1.37,0,0,1,111.64,30.11Zm3,13.3H111.8V32.84h2.83Z"/><path class="cls-1" d="M120.34,30.24v2.6h1.8v2.07h-1.8v5.27a1.24,1.24,0,0,0,.22.84,1.13,1.13,0,0,0,.86.26,4.15,4.15,0,0,0,.83-.07v2.14a5.75,5.75,0,0,1-1.71.25q-3,0-3-3V34.91H116V32.84h1.55v-2.6Z"/><path class="cls-1" d="M129.65,35.49a6.47,6.47,0,0,0-1-.08,2.07,2.07,0,0,0-2.1,1.08v6.92h-2.82V32.84h2.66l.08,1.26a2.61,2.61,0,0,1,2.35-1.45,3.07,3.07,0,0,1,.88.12Z"/><path class="cls-1" d="M131,30.11a1.38,1.38,0,0,1,.43-1.05,1.6,1.6,0,0,1,1.15-.41,1.63,1.63,0,0,1,1.16.41,1.42,1.42,0,0,1,.43,1.05,1.37,1.37,0,0,1-.44,1.05,1.8,1.8,0,0,1-2.29,0A1.37,1.37,0,0,1,131,30.11Zm3,13.3h-2.83V32.84H134Z"/><path class="cls-1" d="M136.29,30.11a1.42,1.42,0,0,1,.43-1.05,1.83,1.83,0,0,1,2.31,0,1.48,1.48,0,0,1,0,2.1,1.8,1.8,0,0,1-2.29,0A1.37,1.37,0,0,1,136.29,30.11Zm3,13.3h-2.83V32.84h2.83Z"/><path class="cls-1" d="M150.61,29.19l3.65,10.31,3.64-10.31h3.84V43.41H158.8V39.52l.3-6.71-3.84,10.6h-2l-3.83-10.59.29,6.7v3.89h-2.93V29.19Z"/><path class="cls-1" d="M164.26,42a1.39,1.39,0,0,1,.46-1.09,1.76,1.76,0,0,1,2.28,0,1.39,1.39,0,0,1,.46,1.09A1.41,1.41,0,0,1,167,43.1a1.63,1.63,0,0,1-1.16.41,1.6,1.6,0,0,1-1.14-.41A1.41,1.41,0,0,1,164.26,42Z"/><path class="cls-1" d="M100.89,49.65v13.1a8.51,8.51,0,0,1-8.5,8.5H9.5A8.51,8.51,0,0,1,1,62.75V9.5A8.51,8.51,0,0,1,9.5,1H92.39a8.51,8.51,0,0,1,8.5,8.5V27.78h1V9.5A9.52,9.52,0,0,0,92.39,0H9.5A9.51,9.51,0,0,0,0,9.5V62.75a9.51,9.51,0,0,0,9.5,9.5H92.39a9.52,9.52,0,0,0,9.5-9.5V49.65Z"/></g></g></svg>