<svg xmlns="http://www.w3.org/2000/svg" viewBox="0 0 161.42 72.25"><defs><style>.cls-1{fill:#b2b2b2;}</style></defs><g id="Layer_2" data-name="Layer 2"><g id="Layer_1-2" data-name="Layer 1"><polygon class="cls-1" points="29.01 22.08 28.14 26.27 28.98 26.27 29.01 22.08"/><polygon class="cls-1" points="57.72 26.27 58.29 26.27 57.37 22.08 57.4 25.77 55.04 22.14 56.93 20.05 54.35 17.23 47.97 19.41 47.85 14.36 42.99 13.78 38.44 14.36 38.22 19.22 31.56 17.69 29.32 20.05 31.71 22.59 29.63 25.8 25.42 32.29 27.38 44.1 37.91 48.92 40.65 50.17 40 48.92 36.52 42.17 31.54 39.22 31.69 32.93 28.33 31.37 30.57 25.8 31.81 22.69 35.2 26.27 42.36 26.27 38.81 42.95 42.91 45.19 42.91 26.27 43.82 26.27 43.82 45.19 47.93 42.95 44.38 26.27 51.3 26.27 55.02 22.16 56.48 25.8 58.72 31.37 55.36 32.93 55.51 39.22 50.53 42.17 47.05 48.92 46.4 50.17 49.27 48.92 59.74 44.34 61.63 32.29 57.72 26.27"/><polygon class="cls-1" points="36.35 58.47 42.55 56.97 42.55 54.22 31.54 49.54 36.35 58.47"/><polygon class="cls-1" points="44.18 56.97 50.39 58.47 55.2 49.54 44.18 54.22 44.18 56.97"/><path class="cls-1" d="M87.67,42.33a3.53,3.53,0,0,1-2.89,1.27,3.33,3.33,0,0,1-2.59-1,4.22,4.22,0,0,1-.92-2.87V32.84H84.1v6.84q0,1.65,1.5,1.65a2,2,0,0,0,2-1V32.84h2.84V43.41H87.75Z"/><path class="cls-1" d="M95.13,32.84l.09,1.22a3.71,3.71,0,0,1,3-1.41,3.06,3.06,0,0,1,2.5,1,4.69,4.69,0,0,1,.84,2.95v6.83H98.77V36.65a1.82,1.82,0,0,0-.39-1.3,1.73,1.73,0,0,0-1.29-.41,1.94,1.94,0,0,0-1.79,1v7.45H92.48V32.84Z"/><path class="cls-1" d="M108.13,41.33a1.89,1.89,0,0,0,1.27-.43,1.52,1.52,0,0,0,.51-1.14h2.64a3.57,3.57,0,0,1-.58,2,3.88,3.88,0,0,1-1.58,1.39,4.91,4.91,0,0,1-2.21.49,4.61,4.61,0,0,1-3.58-1.44,5.7,5.7,0,0,1-1.3-4V38a5.62,5.62,0,0,1,1.3-3.9,4.51,4.51,0,0,1,3.56-1.45,4.46,4.46,0,0,1,3.18,1.12,4,4,0,0,1,1.21,3h-2.64a2,2,0,0,0-.51-1.34,1.88,1.88,0,0,0-2.78.2,4.22,4.22,0,0,0-.5,2.33v.3a4.13,4.13,0,0,0,.5,2.34A1.7,1.7,0,0,0,108.13,41.33Z"/><path class="cls-1" d="M114.15,30.11a1.41,1.41,0,0,1,.42-1.05,1.83,1.83,0,0,1,2.31,0,1.38,1.38,0,0,1,.43,1.05,1.37,1.37,0,0,1-.43,1.05,1.63,1.63,0,0,1-1.15.41,1.62,1.62,0,0,1-1.15-.41A1.37,1.37,0,0,1,114.15,30.11Zm3,13.3h-2.83V32.84h2.83Z"/><path class="cls-1" d="M122.85,30.24v2.6h1.8v2.07h-1.8v5.27a1.24,1.24,0,0,0,.22.84,1.13,1.13,0,0,0,.86.26,4.15,4.15,0,0,0,.83-.07v2.14a5.75,5.75,0,0,1-1.71.25q-3,0-3-3V34.91h-1.54V32.84H120v-2.6Z"/><path class="cls-1" d="M126.21,30.11a1.41,1.41,0,0,1,.42-1.05,1.83,1.83,0,0,1,2.31,0,1.38,1.38,0,0,1,.43,1.05,1.37,1.37,0,0,1-.43,1.05,1.63,1.63,0,0,1-1.15.41,1.62,1.62,0,0,1-1.15-.41A1.37,1.37,0,0,1,126.21,30.11Zm3,13.3h-2.83V32.84h2.83Z"/><path class="cls-1" d="M134.77,41.13h5.17v2.28h-8.77V41.69l5-6.57h-4.83V32.84h8.47V34.5Z"/><path class="cls-1" d="M146.41,43.6a5.17,5.17,0,0,1-3.78-1.42,5,5,0,0,1-1.46-3.8V38.1a6.34,6.34,0,0,1,.61-2.84,4.52,4.52,0,0,1,1.75-1.94,4.9,4.9,0,0,1,2.57-.67A4.39,4.39,0,0,1,149.51,34a5.57,5.57,0,0,1,1.25,3.88V39H144a2.64,2.64,0,0,0,.82,1.66,2.49,2.49,0,0,0,1.75.63,3.09,3.09,0,0,0,2.55-1.18l1.38,1.55a4.2,4.2,0,0,1-1.72,1.4A5.69,5.69,0,0,1,146.41,43.6Zm-.32-8.68a1.76,1.76,0,0,0-1.36.57,3,3,0,0,0-.67,1.63H148v-.23a2.08,2.08,0,0,0-.5-1.45A1.81,1.81,0,0,0,146.09,34.92Z"/><path class="cls-1" d="M155,32.84l.08,1.22a3.71,3.71,0,0,1,3-1.41,3.06,3.06,0,0,1,2.5,1,4.57,4.57,0,0,1,.84,2.95v6.83H158.6V36.65a1.82,1.82,0,0,0-.39-1.3,1.74,1.74,0,0,0-1.3-.41,2,2,0,0,0-1.79,1v7.45H152.3V32.84Z"/><path class="cls-1" d="M100.89,49.65v13.1a8.51,8.51,0,0,1-8.5,8.5H9.5A8.51,8.51,0,0,1,1,62.75V9.5A8.51,8.51,0,0,1,9.5,1H92.39a8.51,8.51,0,0,1,8.5,8.5V27.78h1V9.5A9.52,9.52,0,0,0,92.39,0H9.5A9.51,9.51,0,0,0,0,9.5V62.75a9.51,9.51,0,0,0,9.5,9.5H92.39a9.52,9.52,0,0,0,9.5-9.5V49.65Z"/></g></g></svg>