<svg xmlns="http://www.w3.org/2000/svg" viewBox="0 0 148.13 72.25"><defs><style>.cls-1{fill:#b2b2b2;}</style></defs><g id="Layer_2" data-name="Layer 2"><g id="Layer_1-2" data-name="Layer 1"><polygon class="cls-1" points="39.27 42.58 42.94 44.58 42.94 35.08 40.86 35.08 39.27 42.58"/><polygon class="cls-1" points="45.83 35.08 43.75 35.08 43.75 44.58 47.42 42.58 45.83 35.08"/><polygon class="cls-1" points="39.83 49.15 36.25 42.2 31.09 39.14 31.2 34.33 25.15 34.33 26.79 44.19 37.59 49.15 39.83 49.15"/><polygon class="cls-1" points="55.92 39.14 50.77 42.2 47.18 49.15 49.57 49.15 60.3 44.45 61.88 34.33 55.81 34.33 55.92 39.14"/><path class="cls-1" d="M60.81,25.45h-.45L56.72,19.8,59,18.5H55.89l-3.45-5.36,1.21,5.36L43.54,13.14h0L33.41,18.5l1.21-5.36L31.18,18.5H28.05l2.29,1.3-3.63,5.65h-.45l-1.1,5.21H61.9Zm-28-4.26,7.54,4.26H27.47Zm13.92,4.26,7.54-4.26,5.33,4.26H46.72Z"/><polygon class="cls-1" points="35.28 49.54 36.06 56.67 42.37 59.11 40.73 53.99 42.37 52.46 35.28 49.54"/><polygon class="cls-1" points="46.33 53.99 44.69 59.11 51.01 56.67 51.78 49.54 44.69 52.46 46.33 53.99"/><path class="cls-1" d="M92.69,36.76A5,5,0,0,1,91,40.37a6,6,0,0,1-4,1.32,5.37,5.37,0,0,1-4.3-1.84,7.53,7.53,0,0,1-1.57-5.06v-.86a8.57,8.57,0,0,1,.72-3.62,5.42,5.42,0,0,1,2.07-2.4A6.46,6.46,0,0,1,91,28.4a5.43,5.43,0,0,1,1.74,3.7H89.78a3,3,0,0,0-.77-2,2.83,2.83,0,0,0-2-.62,2.5,2.5,0,0,0-2.2,1.05,5.92,5.92,0,0,0-.74,3.26v1.07a6.25,6.25,0,0,0,.7,3.37A2.44,2.44,0,0,0,87,39.3a2.89,2.89,0,0,0,2-.62,2.79,2.79,0,0,0,.77-1.92Z"/><path class="cls-1" d="M94,36.11a6.17,6.17,0,0,1,.61-2.8,4.33,4.33,0,0,1,1.74-1.9A5.09,5.09,0,0,1,99,30.73,4.81,4.81,0,0,1,102.47,32,5.24,5.24,0,0,1,104,35.59l0,.73a5.5,5.5,0,0,1-1.36,3.9,5.25,5.25,0,0,1-7.29,0,5.59,5.59,0,0,1-1.36-4Zm2.82.2a4,4,0,0,0,.57,2.31,2,2,0,0,0,3.22,0,4.3,4.3,0,0,0,.58-2.52,3.86,3.86,0,0,0-.58-2.29,2,2,0,0,0-3.22,0A4.38,4.38,0,0,0,96.81,36.31Z"/><path class="cls-1" d="M105.3,36.13a6.34,6.34,0,0,1,1.11-3.93,3.59,3.59,0,0,1,3-1.47A3.26,3.26,0,0,1,112,31.88V26.49h2.83v15h-2.55l-.14-1.12a3.3,3.3,0,0,1-2.71,1.32,3.58,3.58,0,0,1-3-1.47A6.52,6.52,0,0,1,105.3,36.13Zm2.82.21a4.14,4.14,0,0,0,.52,2.28,1.67,1.67,0,0,0,1.5.79,1.89,1.89,0,0,0,1.85-1.1V34.13a1.87,1.87,0,0,0-1.83-1.1C108.8,33,108.12,34.13,108.12,36.34Z"/><path class="cls-1" d="M121,37.5l2-6.57h3l-4.24,12.2-.24.56a3.21,3.21,0,0,1-3.12,2.07,4.55,4.55,0,0,1-1.25-.18V43.44h.43a2.32,2.32,0,0,0,1.19-.25,1.55,1.55,0,0,0,.62-.81l.33-.87L116,30.93h3Z"/><path class="cls-1" d="M132.21,41.49V27.27h5a6.54,6.54,0,0,1,3.93,1,3.39,3.39,0,0,1,1.34,2.9,3.13,3.13,0,0,1-2,3,3,3,0,0,1,1.72,1.1,3.27,3.27,0,0,1,.63,2,3.76,3.76,0,0,1-1.31,3.11,5.89,5.89,0,0,1-3.73,1.07Zm2.93-8.26h2.17q2.22,0,2.22-1.77a1.66,1.66,0,0,0-.56-1.39,3,3,0,0,0-1.78-.42h-2.05Zm0,2.07v3.84h2.51a2.43,2.43,0,0,0,1.62-.49,1.7,1.7,0,0,0,.58-1.37,1.78,1.78,0,0,0-2-2Z"/><path class="cls-1" d="M144.94,40.11a1.44,1.44,0,0,1,.45-1.1,1.61,1.61,0,0,1,1.14-.42,1.65,1.65,0,0,1,1.15.42,1.44,1.44,0,0,1,.45,1.1,1.41,1.41,0,0,1-.45,1.08,1.8,1.8,0,0,1-2.29,0A1.41,1.41,0,0,1,144.94,40.11Z"/><path class="cls-1" d="M100.89,47.88V62.75a8.51,8.51,0,0,1-8.5,8.5H9.5A8.51,8.51,0,0,1,1,62.75V9.5A8.51,8.51,0,0,1,9.5,1H92.39a8.51,8.51,0,0,1,8.5,8.5V23h1V9.5A9.52,9.52,0,0,0,92.39,0H9.5A9.51,9.51,0,0,0,0,9.5V62.75a9.51,9.51,0,0,0,9.5,9.5H92.39a9.52,9.52,0,0,0,9.5-9.5V47.88Z"/></g></g></svg>