<svg width="393" height="392" viewBox="0 0 393 392" fill="none" xmlns="http://www.w3.org/2000/svg">
<path d="M378.887 392.007H14.1194C10.378 391.996 6.79298 390.509 4.14742 387.87C1.50186 385.231 0.0108133 381.655 0 377.923V14.0835C0.0108133 10.3516 1.50186 6.77569 4.14742 4.13687C6.79298 1.49804 10.378 0.0107858 14.1194 0H378.887C382.629 0.0107858 386.214 1.49804 388.859 4.13687C391.505 6.77569 392.996 10.3516 393.007 14.0835V377.923C392.996 381.655 391.505 385.231 388.859 387.87C386.214 390.509 382.629 391.996 378.887 392.007V392.007ZM14.1194 6.13213C12.008 6.1411 9.98556 6.9817 8.49254 8.47093C6.99952 9.96015 6.15676 11.9774 6.14778 14.0835V377.923C6.15676 380.029 6.99952 382.047 8.49254 383.536C9.98556 385.025 12.008 385.866 14.1194 385.875H378.887C381.006 385.871 383.037 385.03 384.535 383.536C386.033 382.042 386.876 380.016 386.88 377.903V14.0835C386.871 11.9739 386.025 9.95355 384.528 8.46375C383.03 6.97394 381.002 6.13571 378.887 6.13213H14.1194Z" fill="white"/>
<path d="M166.857 58.6846H165.143V18.5327H166.857V58.6846Z" fill="#7E7F7F"/>
<path d="M51.5867 44.8874V22.7163H58.9981V52.28H25.6499V22.7163H33.0614V44.8874H51.5867ZM38.608 41.1945V22.7163H46.0263V41.1945H38.608Z" fill="white"/>
<path d="M70.1325 48.5803V52.28H62.7005V22.7163H83.1111V52.28H75.6655V48.5803H70.1325ZM75.686 41.1945V30.1021H70.1325V41.1945H75.686Z" fill="white"/>
<path d="M86.7861 30.1021V22.7163H105.311V30.1021H86.7861ZM99.7647 33.8018V52.28H92.3396V33.8018H99.7647Z" fill="white"/>
<path d="M129.39 22.7163V30.1021H109.014V22.7163H129.39ZM129.39 33.8018V41.1945H109.014V33.8018H129.39ZM129.39 44.8874V52.28H109.014V44.8874H129.39Z" fill="white"/>
<path d="M133.099 30.1021V22.7163H153.469V41.1945H140.49V52.28H133.099V33.8018H146.078V30.1021H133.099ZM149.773 44.8874L153.469 52.28H146.064L142.362 44.8874H149.773Z" fill="white"/>
<path d="M292.491 353.579H296.992V362.252C296.992 364.296 297.286 365.659 297.867 366.34C298.156 366.65 298.509 366.894 298.902 367.056C299.294 367.219 299.717 367.295 300.141 367.281C300.598 367.313 301.056 367.23 301.473 367.039C301.89 366.849 302.251 366.557 302.525 366.19C303.04 365.459 303.297 364.158 303.297 362.286V353.579H307.799V361.571C307.872 363.371 307.615 365.17 307.04 366.879C306.551 368.133 305.648 369.183 304.479 369.856C303.185 370.608 301.707 370.985 300.21 370.946C298.64 370.999 297.088 370.604 295.735 369.808C294.572 369.118 293.678 368.054 293.201 366.79C292.674 365.102 292.443 363.337 292.518 361.571L292.491 353.579ZM300.114 350.431L299.342 351.896C298.381 351.564 297.528 350.978 296.876 350.199C296.367 349.337 296.129 348.343 296.193 347.344V345.13H299.875V348.196H298.174C298.154 348.459 298.188 348.723 298.274 348.973C298.36 349.222 298.495 349.452 298.673 349.647C299.107 349.985 299.594 350.249 300.114 350.431V350.431ZM307.587 345.13L303.167 349.899H300.333L302.546 345.13H307.587Z" fill="white"/>
<path d="M312.519 347.126H326.864V350.847H318.858C320.307 352.09 321.843 353.228 323.455 354.253C324.524 354.93 325.511 355.725 326.399 356.624C327.025 357.345 327.503 358.18 327.806 359.084C328.36 360.646 328.497 362.326 328.202 363.956C327.907 365.587 327.192 367.113 326.126 368.385C324.66 370.092 322.51 370.949 319.678 370.953C318.141 371.085 316.601 370.754 315.255 370.004C313.91 369.253 312.821 368.117 312.129 366.742C311.317 365.31 310.904 363.687 310.934 362.041C310.9 360.099 311.521 358.201 312.696 356.652C313.781 355.159 315.414 354.157 317.239 353.865C316.046 353.025 315.24 352.439 314.821 352.107L312.519 350.322V347.126ZM315.251 362.518C315.206 363.184 315.294 363.852 315.51 364.483C315.726 365.115 316.065 365.698 316.508 366.197C316.901 366.614 317.376 366.944 317.905 367.166C318.433 367.388 319.002 367.496 319.575 367.485C320.16 367.488 320.739 367.369 321.275 367.134C321.81 366.899 322.29 366.554 322.683 366.122C323.512 365.035 323.961 363.707 323.961 362.341C323.961 360.975 323.512 359.647 322.683 358.56C322.306 358.13 321.84 357.786 321.318 357.551C320.796 357.316 320.23 357.195 319.657 357.197C319.039 357.173 318.424 357.294 317.861 357.551C317.299 357.807 316.805 358.193 316.419 358.675C315.596 359.782 315.19 361.143 315.272 362.518H315.251Z" fill="white"/>
<path d="M333.237 353.579H337.527C336.157 356.361 335.44 359.418 335.429 362.518C335.429 364.262 335.741 365.509 336.365 366.258C336.625 366.601 336.96 366.881 337.345 367.074C337.73 367.268 338.154 367.371 338.585 367.376C339.149 367.383 339.696 367.19 340.129 366.831C340.56 366.486 340.861 366.006 340.983 365.468C341.136 364.662 341.2 363.842 341.174 363.022V357.885H345.676V363.022C345.655 363.83 345.717 364.638 345.86 365.434C345.978 365.975 346.283 366.457 346.721 366.797C347.158 367.153 347.707 367.346 348.271 367.342C348.713 367.342 349.148 367.236 349.54 367.032C349.931 366.827 350.267 366.532 350.519 366.17C351.12 365.393 351.421 364.105 351.421 362.307C351.336 359.273 350.622 356.289 349.323 353.544H353.613C354.337 354.832 354.895 356.205 355.273 357.633C355.75 359.167 356.005 360.762 356.031 362.368C356.12 364.581 355.418 366.754 354.05 368.5C353.427 369.277 352.631 369.898 351.725 370.316C350.819 370.733 349.829 370.935 348.832 370.905C347.667 370.97 346.514 370.658 345.541 370.016C344.569 369.374 343.83 368.436 343.435 367.342C343.033 368.434 342.291 369.369 341.317 370.01C340.344 370.651 339.19 370.965 338.025 370.905C337.025 370.938 336.031 370.737 335.122 370.318C334.214 369.899 333.416 369.274 332.793 368.493C331.429 366.746 330.729 364.574 330.819 362.361C330.845 360.755 331.1 359.16 331.577 357.626C331.958 356.213 332.516 354.853 333.237 353.579Z" fill="white"/>
<path d="M363.655 369.495V376.99H359.153V363.615C359.09 361.68 359.341 359.747 359.898 357.892C360.397 356.491 361.345 355.294 362.596 354.485C364.005 353.588 365.652 353.135 367.323 353.184C368.541 353.128 369.756 353.336 370.886 353.794C372.016 354.251 373.033 354.947 373.867 355.834C375.476 357.565 376.348 359.851 376.299 362.212C376.346 364.482 375.506 366.681 373.956 368.344C373.237 369.155 372.351 369.802 371.358 370.24C370.365 370.677 369.289 370.895 368.204 370.878C366.587 370.856 365.009 370.376 363.655 369.495V369.495ZM363.655 362.566C363.593 363.793 363.973 365.001 364.727 365.973C365.08 366.399 365.527 366.738 366.033 366.962C366.539 367.187 367.09 367.291 367.644 367.267C368.212 367.279 368.774 367.154 369.283 366.903C369.792 366.651 370.233 366.281 370.567 365.823C371.36 364.72 371.755 363.382 371.688 362.028C371.762 360.689 371.4 359.363 370.656 358.246C370.313 357.793 369.863 357.431 369.345 357.194C368.828 356.956 368.26 356.849 367.692 356.883C367.152 356.876 366.618 356.984 366.124 357.2C365.63 357.416 365.189 357.736 364.829 358.137C364.042 358.955 363.65 360.431 363.655 362.566Z" fill="white"/>
<path d="M26.1485 91.1165V73.674H31.2512C32.1924 73.661 33.1257 73.8467 33.9898 74.2189C34.8539 74.5912 35.6293 75.1415 36.265 75.8339C36.9524 76.5709 37.4873 77.4359 37.8389 78.3794C38.1906 79.323 38.3521 80.3264 38.3143 81.3323V83.4581C38.3542 84.4653 38.1936 85.4704 37.8419 86.4153C37.4901 87.3602 36.9542 88.2262 36.265 88.9634C35.6289 89.6549 34.8533 90.2042 33.9892 90.5753C33.125 90.9464 32.1919 91.1308 31.2512 91.1165H26.1485ZM26.7838 74.3213V90.4692H31.2512C32.1087 90.4793 32.9586 90.3071 33.7442 89.9641C34.5298 89.621 35.2331 89.115 35.8074 88.4797C37.0723 87.1181 37.7474 85.3135 37.6859 83.4581V81.2915C37.7425 79.4491 37.0673 77.6591 35.8074 76.3108C35.232 75.6769 34.5285 75.1718 33.7431 74.8288C32.9578 74.4859 32.1085 74.3129 31.2512 74.3213H26.7838Z" fill="white"/>
<path d="M46.4157 91.3686C45.6894 91.3757 44.9708 91.2195 44.3133 90.9116C43.6558 90.6038 43.0763 90.1521 42.6177 89.5903C41.5628 88.3466 41.01 86.7556 41.0671 85.1274V84.3575C40.9996 82.6805 41.5459 81.0362 42.6041 79.7312C43.0667 79.1543 43.6558 78.691 44.3261 78.3768C44.9963 78.0626 45.7299 77.9059 46.4704 77.9188C47.1096 77.8859 47.7481 77.9961 48.3391 78.2413C48.9301 78.4865 49.4586 78.8606 49.8858 79.336C50.7749 80.4266 51.2232 81.8094 51.1427 83.2128V84.2008H41.7024V85.1274C41.6597 86.5671 42.1265 87.9757 43.0208 89.1065C43.4229 89.6243 43.9417 90.0403 44.5351 90.3209C45.1285 90.6014 45.7798 90.7386 46.4362 90.7213C47.189 90.7235 47.9345 90.5752 48.6289 90.2852C49.2714 90.0332 49.85 89.6423 50.323 89.1406L50.6645 89.6448C50.1862 90.1685 49.6049 90.5883 48.9568 90.878C48.1564 91.2266 47.2887 91.3941 46.4157 91.3686V91.3686ZM46.4704 78.5661C45.8628 78.5451 45.258 78.6561 44.6977 78.8914C44.1375 79.1267 43.6352 79.4806 43.2257 79.9287C42.3634 80.9103 41.8601 82.1545 41.798 83.4581V83.5331H50.4732V83.1379C50.5218 81.9441 50.1415 80.7723 49.4008 79.8334C49.0441 79.4102 48.5937 79.0755 48.0851 78.8556C47.5766 78.6357 47.0238 78.5366 46.4704 78.5661V78.5661Z" fill="white"/>
<path d="M57.1538 88.3506L57.7549 90.1017H57.8233L58.438 88.3506L62.3589 78.1304H63.042L58.0828 91.076H57.468L52.5088 78.1304H53.1919L57.1538 88.3506Z" fill="white"/>
<path d="M69.8524 91.369C69.1271 91.3755 68.4097 91.2191 67.7534 90.9112C67.0971 90.6033 66.5188 90.152 66.0613 89.5907C65.0034 88.3486 64.4502 86.7564 64.5106 85.1278V84.3579C64.4432 82.6808 64.9894 81.0365 66.0476 79.7316C66.5095 79.1539 67.0985 78.69 67.7689 78.3758C68.4393 78.0615 69.1732 77.9053 69.9139 77.9192C70.5474 77.8914 71.1793 78.0041 71.764 78.2492C72.3487 78.4942 72.8716 78.8655 73.2951 79.3364C74.1843 80.427 74.6326 81.8098 74.552 83.2132V84.2012H65.1459V85.1278C65.0973 86.5683 65.5647 87.979 66.4643 89.1069C66.866 89.6251 67.3848 90.0414 67.9782 90.322C68.5717 90.6026 69.2232 90.7395 69.8797 90.7217C70.6348 90.7246 71.3827 90.5763 72.0792 90.2856C72.7283 90.0346 73.3137 89.6438 73.7938 89.141L74.1353 89.6451C73.6491 90.1719 73.0582 90.5919 72.4003 90.8784C71.5978 91.2278 70.7276 91.3953 69.8524 91.369V91.369ZM69.9139 78.5664C69.3063 78.5455 68.7015 78.6565 68.1412 78.8918C67.581 79.1271 67.0787 79.481 66.6692 79.9291C65.8069 80.9107 65.3036 82.1549 65.2416 83.4585V83.5335H73.8826V83.1383C73.9312 81.9445 73.5509 80.7727 72.8101 79.8337C72.457 79.4153 72.0121 79.0834 71.5099 78.8637C71.0078 78.644 70.4617 78.5423 69.9139 78.5664V78.5664Z" fill="white"/>
<path d="M78.4115 91.1167H77.7762V72.4341H78.4115V91.1167Z" fill="white"/>
<path d="M81.5946 84.3851C81.5219 82.6958 82.071 81.0382 83.1384 79.7247C83.6435 79.1567 84.2635 78.7021 84.9576 78.3908C85.6517 78.0794 86.4041 77.9185 87.1652 77.9185C87.9263 77.9185 88.6787 78.0794 89.3728 78.3908C90.0669 78.7021 90.687 79.1567 91.192 79.7247C92.2647 81.0357 92.8166 82.6944 92.7426 84.3851V84.8893C92.8177 86.5821 92.2657 88.2434 91.192 89.5565C90.7066 90.142 90.0939 90.6096 89.4003 90.9236C88.7067 91.2376 87.9505 91.3899 87.1891 91.3689C86.4216 91.3911 85.659 91.2396 84.9586 90.9257C84.2582 90.6118 83.6383 90.1437 83.1453 89.5565C82.0744 88.2418 81.5228 86.5817 81.5946 84.8893V84.3851ZM82.2299 84.8893C82.1922 86.384 82.675 87.8455 83.5961 89.0251C84.0207 89.5748 84.5707 90.0155 85.2003 90.3106C85.83 90.6056 86.5212 90.7466 87.2164 90.7216C87.9061 90.7437 88.5911 90.6005 89.2138 90.3042C89.8366 90.0078 90.3791 89.5668 90.7958 89.0182C91.7159 87.8408 92.1987 86.3817 92.162 84.8893V84.3851C92.1903 82.9064 91.7079 81.463 90.7958 80.297C90.3637 79.7611 89.8166 79.3286 89.1948 79.0315C88.573 78.7344 87.8923 78.5802 87.2028 78.5802C86.5133 78.5802 85.8326 78.7344 85.2108 79.0315C84.589 79.3286 84.0419 79.7611 83.6097 80.297C82.6996 81.464 82.2175 82.9067 82.2436 84.3851L82.2299 84.8893Z" fill="white"/>
<path d="M105.53 84.8757C105.626 86.5598 105.181 88.2307 104.259 89.6451C103.868 90.2067 103.341 90.6613 102.728 90.9672C102.114 91.2731 101.434 91.4206 100.748 91.3962C99.8509 91.4159 98.9628 91.2097 98.1663 90.7966C97.4544 90.4155 96.8559 89.8538 96.4313 89.1682V96.1247H95.796V87.567C95.7914 87.5491 95.7914 87.5304 95.796 87.5125C95.7932 87.4967 95.7932 87.4806 95.796 87.4648V82.1775C95.7926 82.1504 95.7926 82.1229 95.796 82.0958V78.1303H96.2878L96.4176 80.4197C96.8216 79.6338 97.4414 78.9788 98.2046 78.5312C98.9678 78.0836 99.843 77.8618 100.728 77.8919C101.421 77.8718 102.108 78.0276 102.725 78.3445C103.341 78.6615 103.867 79.1293 104.253 79.7042C105.175 81.164 105.621 82.8731 105.53 84.5963V84.8757ZM104.881 84.6236C104.949 83.0921 104.579 81.5729 103.815 80.2425C103.502 79.7113 103.05 79.2748 102.507 78.9796C101.965 78.6844 101.352 78.5416 100.735 78.5664C99.7092 78.5042 98.6984 78.833 97.9068 79.4862C97.2238 80.103 96.7151 80.8877 96.4313 81.7619V87.9554C96.7274 88.7859 97.2798 89.5016 98.0092 89.9994C98.8231 90.5189 99.7758 90.7802 100.742 90.7489C101.347 90.7753 101.948 90.6433 102.486 90.366C103.024 90.0887 103.48 89.6757 103.809 89.1682C104.572 87.8803 104.937 86.3969 104.861 84.9029L104.881 84.6236Z" fill="white"/>
<path d="M109.437 78.1303L109.519 80.7398C109.868 79.8995 110.443 79.1711 111.179 78.6344C111.952 78.1212 112.867 77.8616 113.795 77.8918C114.75 77.8474 115.689 78.1419 116.446 78.723C117.199 79.3983 117.7 80.3088 117.867 81.3053C118.157 80.3178 118.738 79.4397 119.533 78.7843C120.343 78.1613 121.346 77.8407 122.368 77.8782C122.976 77.8399 123.584 77.9474 124.141 78.1916C124.698 78.4358 125.189 78.8096 125.572 79.2817C126.296 80.2152 126.665 81.6801 126.665 83.6832V91.0759H126.016V83.6901C126.016 81.8095 125.688 80.4877 125.025 79.711C124.703 79.3312 124.297 79.0296 123.841 78.8289C123.384 78.6282 122.887 78.5338 122.389 78.5527C121.834 78.5146 121.278 78.6 120.76 78.8027C120.243 79.0054 119.777 79.3203 119.397 79.7246C118.669 80.5905 118.208 81.6485 118.071 82.7702V83.254C118.071 83.4175 118.071 83.581 118.071 83.7514V91.1167H117.423V84.4804H117.388C117.388 84.3305 117.388 84.1738 117.388 84.0239C117.388 83.874 117.388 83.7241 117.388 83.581C117.388 81.7482 117.026 80.4468 116.377 79.6974C116.052 79.3238 115.647 79.0282 115.192 78.8324C114.737 78.6365 114.243 78.5456 113.748 78.5663C113.201 78.5286 112.653 78.6109 112.142 78.8075C111.631 79.0041 111.169 79.3102 110.79 79.7042C110.073 80.5455 109.613 81.5741 109.465 82.668V91.1167H108.781V84.4804C108.781 84.3646 108.781 84.2556 108.781 84.1466C108.781 84.0375 108.781 83.8945 108.781 83.7241V78.1303H109.437Z" fill="white"/>
<path d="M135.073 91.369C134.347 91.376 133.629 91.2199 132.971 90.912C132.314 90.6041 131.734 90.1525 131.275 89.5907C130.221 88.3469 129.668 86.756 129.725 85.1278V84.3579C129.657 82.6808 130.204 81.0365 131.262 79.7316C131.724 79.1547 132.314 78.6914 132.984 78.3772C133.654 78.063 134.388 77.9063 135.128 77.9192C135.762 77.8914 136.394 78.0041 136.978 78.2492C137.563 78.4942 138.086 78.8655 138.509 79.3364C139.399 80.427 139.847 81.8098 139.766 83.2132V84.2012H130.36V85.1278C130.312 86.5683 130.779 87.979 131.679 89.1069C132.081 89.6247 132.599 90.0407 133.193 90.3213C133.786 90.6018 134.438 90.739 135.094 90.7217C135.847 90.7239 136.592 90.5756 137.287 90.2856C137.936 90.0346 138.521 89.6438 139.001 89.141L139.343 89.6452C138.856 90.1719 138.266 90.5919 137.608 90.8784C136.809 91.226 135.944 91.3935 135.073 91.369ZM135.128 78.5664C134.521 78.5455 133.916 78.6565 133.355 78.8918C132.795 79.1271 132.293 79.481 131.883 79.9291C131.021 80.9107 130.518 82.1549 130.456 83.4585L130.49 83.5335H139.124V83.1383C139.173 81.9445 138.792 80.7727 138.052 79.8337C137.696 79.4116 137.246 79.0774 136.739 78.8575C136.232 78.6377 135.68 78.538 135.128 78.5664V78.5664Z" fill="white"/>
<path d="M143.38 78.13L143.462 80.7395C143.817 79.8909 144.407 79.1607 145.163 78.6342C145.976 78.1143 146.93 77.8551 147.895 77.8915C148.487 77.8521 149.079 77.9553 149.623 78.1925C150.166 78.4297 150.644 78.7938 151.017 79.2542C151.713 80.1399 152.062 81.5503 152.062 83.4854V91.1165H151.42V83.4581C151.42 81.6684 151.103 80.4034 150.47 79.663C150.153 79.2981 149.757 79.0098 149.313 78.8198C148.868 78.6298 148.385 78.543 147.902 78.566C147.335 78.5289 146.767 78.6157 146.237 78.8205C145.707 79.0253 145.229 79.3431 144.835 79.7516C144.092 80.6152 143.617 81.6758 143.469 82.804V91.1165H142.833V84.4801H142.799C142.799 84.3302 142.799 84.1735 142.799 84.0168C142.799 83.8601 142.799 83.7034 142.799 83.5467V78.13H143.38Z" fill="white"/>
<path d="M157.356 74.6553V78.1301H160.491V78.8115H157.356V87.7712C157.286 88.5649 157.472 89.3601 157.889 90.0401C158.049 90.258 158.261 90.4338 158.505 90.5525C158.749 90.6711 159.018 90.7291 159.289 90.7215C159.478 90.7328 159.667 90.7328 159.856 90.7215L160.539 90.6397L160.655 91.2257C160.455 91.2896 160.249 91.333 160.04 91.3551C159.802 91.3839 159.563 91.3976 159.323 91.396C158.954 91.4189 158.585 91.3535 158.246 91.2054C157.908 91.0572 157.609 90.8306 157.376 90.5443C156.863 89.7319 156.623 88.7768 156.693 87.8189V78.8115H154.357V78.1301H156.714V74.6553H157.356Z" fill="white"/>
<path d="M168.258 84.3851C168.187 82.6949 168.739 81.0372 169.808 79.7246C170.313 79.1567 170.933 78.7021 171.628 78.3908C172.322 78.0794 173.074 77.9185 173.835 77.9185C174.596 77.9185 175.349 78.0794 176.043 78.3908C176.737 78.7021 177.357 79.1567 177.862 79.7246C178.932 81.0372 179.483 82.6949 179.413 84.3851V84.8893C179.484 86.5817 178.933 88.2418 177.862 89.5565C177.359 90.1262 176.74 90.5825 176.046 90.895C175.352 91.2076 174.6 91.3693 173.839 91.3693C173.077 91.3693 172.325 91.2076 171.631 90.895C170.937 90.5825 170.318 90.1262 169.815 89.5565C168.74 88.244 168.185 86.5829 168.258 84.8893V84.3851ZM168.893 84.8893C168.855 86.3839 169.338 87.8455 170.259 89.0251C170.695 89.5567 171.244 89.9851 171.866 90.2793C172.488 90.5734 173.167 90.7261 173.856 90.7261C174.544 90.7261 175.224 90.5734 175.846 90.2793C176.468 89.9851 177.016 89.5567 177.452 89.0251C178.372 87.8476 178.855 86.3885 178.818 84.8961V84.3919C178.849 82.9128 178.367 81.4685 177.452 80.3038C177.021 79.768 176.474 79.3356 175.853 79.0385C175.232 78.7414 174.551 78.5871 173.863 78.5871C173.174 78.5871 172.493 78.7414 171.872 79.0385C171.251 79.3356 170.704 79.768 170.273 80.3038C169.363 81.4711 168.881 82.9136 168.907 84.3919L168.893 84.8893Z" fill="white"/>
<path d="M183.422 91.1168V78.8117H181.209V78.1303H183.422V75.9977C183.359 74.9751 183.672 73.9645 184.303 73.1565C184.611 72.8177 184.992 72.5519 185.416 72.3786C185.84 72.2053 186.298 72.1288 186.756 72.1549C187.014 72.1536 187.272 72.1695 187.528 72.2026C187.777 72.2315 188.024 72.2816 188.265 72.3525L188.17 72.9793C187.917 72.918 187.698 72.8703 187.487 72.843C187.242 72.8126 186.996 72.799 186.749 72.8022C186.375 72.7827 186.002 72.8487 185.657 72.9952C185.313 73.1416 185.006 73.3645 184.761 73.647C184.261 74.325 184.019 75.1581 184.078 75.9977V78.1303H187.439V78.8117H184.078V91.1168H183.422Z" fill="white"/>
<path d="M203.628 87.9415C203.622 87.5869 203.542 87.2373 203.394 86.9148C203.246 86.5923 203.033 86.304 202.767 86.0678C201.895 85.3651 200.85 84.9086 199.741 84.746C198.57 84.5562 197.45 84.1245 196.456 83.4787C196.114 83.2054 195.843 82.8541 195.666 82.4545C195.489 82.0549 195.411 81.6187 195.438 81.1826C195.435 80.733 195.537 80.289 195.737 79.8858C195.936 79.4825 196.226 79.131 196.585 78.8592C197.482 78.1921 198.584 77.8594 199.7 77.9189C200.89 77.853 202.066 78.2076 203.02 78.9205C203.409 79.234 203.716 79.6358 203.917 80.0921C204.118 80.5485 204.206 81.0463 204.174 81.5437V81.6186H203.635C203.634 81.2018 203.539 80.7906 203.357 80.4155C203.175 80.0404 202.91 79.711 202.583 79.4519C201.768 78.8247 200.755 78.5103 199.728 78.5662C198.752 78.4938 197.783 78.7717 196.995 79.3497C196.723 79.5543 196.5 79.8167 196.342 80.1177C196.184 80.4188 196.095 80.7512 196.081 81.0908C196.067 81.4304 196.129 81.7688 196.262 82.0816C196.396 82.3944 196.597 82.6738 196.852 82.8996C197.769 83.5513 198.826 83.9806 199.939 84.1533C201.101 84.3747 202.202 84.8391 203.17 85.5159C203.534 85.8034 203.824 86.1736 204.015 86.5956C204.207 87.0175 204.294 87.479 204.27 87.9415C204.28 88.4205 204.174 88.8947 203.962 89.3241C203.749 89.7535 203.435 90.1253 203.047 90.408C202.1 91.0779 200.955 91.4114 199.796 91.3551C198.55 91.424 197.319 91.0658 196.305 90.3399C195.917 90.0621 195.605 89.6911 195.398 89.2612C195.192 88.8312 195.097 88.3563 195.124 87.8802V87.8053H195.643C195.644 88.2568 195.764 88.7 195.992 89.09C196.22 89.4801 196.547 89.8031 196.941 90.0265C197.81 90.4953 198.787 90.7302 199.775 90.7078C200.78 90.7618 201.773 90.4655 202.583 89.8698C202.895 89.6512 203.152 89.3632 203.333 89.0286C203.515 88.6939 203.616 88.3218 203.628 87.9415V87.9415Z" fill="white"/>
<path d="M216.354 88.8412C215.981 89.6131 215.389 90.2596 214.653 90.7012C213.838 91.1696 212.909 91.4053 211.968 91.3826C211.378 91.4087 210.79 91.293 210.254 91.0452C209.718 90.7974 209.249 90.4247 208.888 89.9586C208.145 89.0092 207.774 87.5421 207.774 85.5571V78.1304H208.41V85.5434C208.41 87.3013 208.728 88.5981 209.366 89.4339C209.659 89.8379 210.047 90.1641 210.496 90.3838C210.945 90.6035 211.441 90.7102 211.941 90.6944C213.03 90.7649 214.105 90.4189 214.947 89.7269C215.667 89.0508 216.147 88.1584 216.313 87.1855V78.1304H216.996V85.7547C216.996 85.8637 216.996 85.9591 216.996 86.0545C216.988 86.1679 216.988 86.2817 216.996 86.3951V91.0896H216.463L216.354 88.8412Z" fill="white"/>
<path d="M225.343 90.7215C226.365 90.7373 227.365 90.4217 228.192 89.8221C228.609 89.5066 228.941 89.0921 229.157 88.6161C229.373 88.1401 229.466 87.6178 229.428 87.0968H229.975V87.1717C230.012 87.7508 229.907 88.3302 229.669 88.8597C229.43 89.3892 229.067 89.8529 228.608 90.2105C227.68 90.9549 226.521 91.3547 225.33 91.3415C224.595 91.3717 223.864 91.2253 223.199 90.9146C222.533 90.6039 221.952 90.1381 221.504 89.5564C220.536 88.1879 220.055 86.5351 220.138 84.8619V84.3577C220.058 82.6892 220.539 81.0417 221.504 79.6769C221.947 79.0951 222.524 78.6288 223.187 78.318C223.849 78.0071 224.578 77.8609 225.309 77.8917C226.533 77.8554 227.727 78.2757 228.656 79.0705C229.123 79.4882 229.485 80.0088 229.714 80.5908C229.942 81.1728 230.032 81.8001 229.975 82.4227V82.4908H229.435C229.469 81.9457 229.378 81.4001 229.17 80.895C228.962 80.3898 228.641 79.9384 228.233 79.5747C227.419 78.8958 226.384 78.5372 225.323 78.5663C224.661 78.5229 224 78.6498 223.402 78.935C222.804 79.2202 222.289 79.654 221.907 80.1947C221.091 81.4358 220.687 82.9019 220.753 84.385V84.8892C220.685 86.3788 221.089 87.8519 221.907 89.0999C222.295 89.6386 222.814 90.0701 223.415 90.3538C224.016 90.6375 224.68 90.764 225.343 90.7215Z" fill="white"/>
<path d="M233.889 80.8555C234.249 79.9835 234.854 79.2336 235.631 78.6957C236.456 78.1596 237.427 77.8907 238.411 77.9257C238.979 77.8881 239.549 77.9845 240.074 78.207C240.598 78.4295 241.063 78.772 241.43 79.2067C242.113 80.0584 242.461 81.4074 242.461 83.2403V91.1235H241.813V83.2198C241.813 81.5165 241.505 80.315 240.89 79.6155C240.582 79.2712 240.201 78.9993 239.774 78.8191C239.348 78.6389 238.887 78.5548 238.424 78.573C237.847 78.5368 237.268 78.6259 236.728 78.8341C236.188 79.0422 235.699 79.3646 235.296 79.779C234.53 80.6508 234.04 81.7297 233.889 82.8792V91.1235H233.253V84.4871V84.0647C233.247 83.9535 233.247 83.842 233.253 83.7308V72.4341H233.889V80.8555Z" fill="white"/>
<path d="M260.215 88.7183C259.75 89.5266 259.069 90.1896 258.248 90.6329C257.273 91.1491 256.181 91.4027 255.078 91.3687C254.571 91.3961 254.064 91.3228 253.585 91.1532C253.107 90.9836 252.667 90.7211 252.291 90.3808C251.947 90.0294 251.679 89.6106 251.505 89.151C251.331 88.6913 251.255 88.2006 251.28 87.7099C251.286 87.1665 251.427 86.6331 251.691 86.1574C251.954 85.6817 252.332 85.2787 252.79 84.9845C253.899 84.2194 255.226 83.8323 256.574 83.8807H260.215V81.9866C260.24 81.5177 260.162 81.0491 259.986 80.6136C259.81 80.178 259.541 79.7862 259.197 79.4656C258.385 78.8218 257.363 78.5013 256.328 78.5662C255.329 78.5161 254.343 78.8149 253.541 79.4111C253.212 79.6734 252.949 80.0078 252.771 80.3884C252.594 80.7689 252.506 81.1853 252.517 81.605H251.991V81.5505C251.964 81.0626 252.056 80.5756 252.256 80.13C252.457 79.6843 252.762 79.293 253.145 78.9886C254.062 78.2609 255.212 77.8904 256.383 77.9462C257.569 77.8863 258.737 78.2592 259.668 78.9955C260.091 79.3773 260.422 79.8496 260.636 80.377C260.85 80.9044 260.942 81.4733 260.905 82.0411V88.5343C260.904 88.9896 260.929 89.4445 260.98 89.897C261.034 90.3294 261.118 90.7574 261.233 91.178H260.55C260.447 90.6124 260.379 90.1832 260.345 89.9038C260.308 89.5986 260.29 89.2914 260.29 88.984L260.215 88.7183ZM255.078 90.7623C256.208 90.8 257.324 90.5063 258.289 89.9175C259.175 89.3335 259.851 88.4808 260.215 87.485V84.5757H256.615C255.433 84.535 254.266 84.8585 253.275 85.5023C252.869 85.736 252.53 86.07 252.29 86.4721C252.051 86.8742 251.92 87.331 251.909 87.7985C251.895 88.1941 251.965 88.5882 252.113 88.9555C252.261 89.3227 252.485 89.655 252.769 89.9311C253.082 90.2097 253.447 90.4237 253.844 90.5605C254.24 90.6973 254.66 90.7544 255.078 90.7283V90.7623Z" fill="white"/>
<path d="M272.756 87.9416C272.749 87.5865 272.668 87.2367 272.519 86.9143C272.37 86.5918 272.155 86.3036 271.889 86.0679C271.019 85.3665 269.976 84.9101 268.87 84.7461C267.695 84.5573 266.574 84.1256 265.577 83.4787C265.235 83.2054 264.964 82.8541 264.787 82.4545C264.61 82.0549 264.532 81.6187 264.559 81.1826C264.557 80.7324 264.66 80.2879 264.86 79.8845C265.061 79.4811 265.353 79.13 265.714 78.8592C266.608 78.1937 267.707 77.8611 268.822 77.9189C270.012 77.8506 271.189 78.2055 272.142 78.9205C272.531 79.2329 272.84 79.6345 273.041 80.0911C273.242 80.5478 273.329 81.0461 273.296 81.5437V81.6187H272.756C272.759 81.2013 272.666 80.7889 272.483 80.4132C272.301 80.0375 272.034 79.7087 271.704 79.452C270.891 78.8236 269.877 78.5091 268.849 78.5662C267.874 78.4939 266.905 78.7718 266.117 79.3498C265.837 79.5635 265.609 79.8375 265.451 80.1514C265.292 80.4652 265.207 80.8108 265.201 81.1622C265.197 81.4901 265.264 81.8152 265.397 82.1151C265.53 82.415 265.727 82.6826 265.973 82.8996C266.888 83.5515 267.943 83.9808 269.054 84.1533C270.217 84.3762 271.32 84.8404 272.292 85.516C272.655 85.8046 272.943 86.1749 273.135 86.5966C273.326 87.0183 273.414 87.4793 273.392 87.9416C273.4 88.421 273.293 88.8954 273.079 89.3248C272.865 89.7541 272.551 90.1257 272.162 90.4081C271.217 91.077 270.075 91.4104 268.917 91.3551C267.671 91.428 266.438 91.0693 265.427 90.3399C265.036 90.0638 264.722 89.6933 264.514 89.2631C264.306 88.8329 264.211 88.3571 264.238 87.8803V87.8053H264.812C264.812 88.2562 264.931 88.6993 265.158 89.0894C265.384 89.4795 265.711 89.8028 266.103 90.0265C266.975 90.4962 267.954 90.7311 268.945 90.7079C269.948 90.7619 270.938 90.4656 271.745 89.8698C272.051 89.6473 272.301 89.3576 272.476 89.0233C272.652 88.6889 272.747 88.3188 272.756 87.9416V87.9416Z" fill="white"/>
<path d="M283.679 83.6288V91.1236H283.044V73.6811H288.399C289.891 73.5839 291.362 74.073 292.498 75.0438C293.417 76.0255 293.928 77.3186 293.928 78.6617C293.928 80.0049 293.417 81.298 292.498 82.2797C291.362 83.2505 289.891 83.7396 288.399 83.6424L283.679 83.6288ZM283.679 82.9815H288.399C289.062 83.0321 289.729 82.949 290.359 82.7372C290.989 82.5253 291.57 82.189 292.067 81.7482C292.471 81.3453 292.789 80.8644 293 80.3348C293.212 79.8053 293.313 79.2383 293.297 78.6686C293.316 78.0928 293.218 77.5192 293.008 76.9826C292.797 76.4461 292.48 75.9579 292.074 75.548C291.575 75.1086 290.992 74.7737 290.361 74.563C289.73 74.3523 289.063 74.2702 288.399 74.3216H283.679V82.9815Z" fill="white"/>
<path d="M306.59 82.5387H298.16V91.1168H297.525V73.6743H307.771V74.3557H298.14V81.905H306.569L306.59 82.5387Z" fill="white"/>
<path d="M311.433 83.6286V91.1234H310.797V73.6809H316.153C317.645 73.5845 319.116 74.0735 320.251 75.0436C321.17 76.0253 321.682 77.3184 321.682 78.6616C321.682 80.0048 321.17 81.2978 320.251 82.2795C319.116 83.2503 317.645 83.7394 316.153 83.6422L311.433 83.6286ZM311.433 82.9813H316.153C316.816 83.032 317.482 82.9489 318.113 82.737C318.743 82.5251 319.324 82.1888 319.821 81.7481C320.225 81.3451 320.543 80.8642 320.754 80.3347C320.965 79.8051 321.066 79.2381 321.051 78.6684C321.068 78.0928 320.969 77.5196 320.759 76.9833C320.549 76.447 320.232 75.9587 319.828 75.5478C319.328 75.1091 318.746 74.7746 318.115 74.5639C317.483 74.3533 316.816 74.2708 316.153 74.3214H311.433V82.9813Z" fill="white"/>
<path d="M338.708 88.7181C338.245 89.5246 337.566 90.1873 336.748 90.6327C335.773 91.1471 334.681 91.4006 333.578 91.3685C333.07 91.3964 332.562 91.3234 332.082 91.1538C331.603 90.9842 331.162 90.7214 330.784 90.3806C330.442 90.0282 330.175 89.6093 330.001 89.1499C329.827 88.6904 329.75 88.2002 329.774 87.7097C329.78 87.1655 329.921 86.6315 330.186 86.1557C330.451 85.6799 330.83 85.2773 331.29 84.9843C332.398 84.217 333.726 83.8296 335.074 83.8805H338.708V81.9864C338.735 81.5174 338.657 81.0483 338.481 80.6126C338.306 80.1768 338.036 79.7852 337.691 79.4654C336.882 78.8215 335.861 78.5008 334.828 78.566C333.829 78.5159 332.844 78.8147 332.041 79.4109C331.708 79.6704 331.439 80.0036 331.256 80.3843C331.074 80.765 330.983 81.1829 330.989 81.6048H330.457V81.5503C330.429 81.0622 330.519 80.5746 330.72 80.1287C330.921 79.6828 331.227 79.2917 331.611 78.9884C332.526 78.2568 333.678 77.8858 334.849 77.946C336.034 77.8846 337.2 78.2578 338.128 78.9953C338.551 79.3771 338.881 79.8494 339.096 80.3768C339.31 80.9042 339.401 81.4731 339.364 82.0409V88.5341C339.362 88.9896 339.39 89.4448 339.446 89.8968C339.493 90.3302 339.578 90.7588 339.699 91.1778H339.016C338.913 90.6122 338.845 90.183 338.811 89.9036C338.774 89.5984 338.756 89.2912 338.756 88.9838L338.708 88.7181ZM333.578 90.7621C334.708 90.7986 335.824 90.505 336.789 89.9173C337.675 89.3347 338.349 88.4813 338.708 87.4848V84.5755H335.108C333.926 84.5357 332.76 84.8591 331.768 85.5021C331.362 85.7358 331.023 86.0698 330.784 86.4719C330.545 86.874 330.413 87.3308 330.402 87.7983C330.388 88.1946 330.458 88.5894 330.608 88.9568C330.757 89.3243 330.983 89.6562 331.27 89.9309C331.582 90.2102 331.947 90.4245 332.343 90.5614C332.74 90.6983 333.16 90.7549 333.578 90.7281V90.7621Z" fill="white"/>
<path d="M343.989 78.13L344.071 80.7396C344.412 79.8618 345.022 79.1139 345.814 78.6025C346.607 78.091 347.541 77.8422 348.483 77.8915C349.076 77.8533 349.669 77.957 350.213 78.1941C350.758 78.4312 351.237 78.7946 351.612 79.2542C352.299 80.14 352.646 81.5504 352.65 83.4854V91.1165H352.015V83.4581C352.015 81.6685 351.698 80.4034 351.065 79.663C350.748 79.2982 350.353 79.0099 349.908 78.8199C349.463 78.6298 348.98 78.5431 348.497 78.5661C347.931 78.5281 347.363 78.6146 346.835 78.8194C346.306 79.0243 345.829 79.3425 345.437 79.7516C344.691 80.6137 344.216 81.6751 344.071 82.804V91.1165H343.435V84.4802H343.401C343.401 84.3303 343.401 84.1736 343.401 84.0168C343.401 83.8601 343.401 83.7034 343.401 83.5467V78.13H343.989Z" fill="white"/>
<path d="M356.052 84.6234C355.962 82.9012 356.405 81.1931 357.322 79.7313C357.709 79.1554 358.236 78.687 358.853 78.3699C359.471 78.0529 360.16 77.8977 360.854 77.9189C361.76 77.8981 362.653 78.1344 363.429 78.6003C364.16 79.0567 364.758 79.6956 365.164 80.4536V72.4341H365.799V82.1774V87.4578C365.799 87.4578 365.799 87.4578 365.799 87.4987V91.103H365.226V89.0999C364.803 89.795 364.202 90.3644 363.484 90.7487C362.686 91.1664 361.795 91.3751 360.895 91.3551C360.21 91.3796 359.529 91.2321 358.916 90.9261C358.302 90.6202 357.775 90.1656 357.384 89.6041C356.462 88.1897 356.017 86.5188 356.113 84.8346L356.052 84.6234ZM356.735 84.8755C356.661 86.3674 357.021 87.8489 357.773 89.1407C358.101 89.6493 358.556 90.063 359.095 90.3404C359.633 90.6178 360.235 90.7492 360.84 90.7215C361.807 90.7487 362.76 90.4826 363.573 89.9584C364.299 89.4555 364.852 88.7418 365.157 87.9143V81.7822C364.868 80.8995 364.355 80.1063 363.668 79.4792C362.879 78.8211 361.867 78.4895 360.84 78.5526C360.223 78.5278 359.61 78.6706 359.068 78.9658C358.525 79.261 358.073 79.6975 357.76 80.2287C357.005 81.562 356.64 83.08 356.708 84.6098L356.735 84.8755Z" fill="white"/>
<path d="M30.1446 119.338C31.1667 119.354 32.1662 119.038 32.9931 118.439C33.4105 118.123 33.7423 117.709 33.9583 117.233C34.1742 116.757 34.2674 116.235 34.2294 115.713H34.7691V115.788C34.8061 116.368 34.701 116.947 34.463 117.476C34.2249 118.006 33.8611 118.47 33.4029 118.827C32.4743 119.572 31.3154 119.971 30.1241 119.958C29.3897 119.988 28.6588 119.842 27.993 119.531C27.3273 119.221 26.7462 118.755 26.2988 118.173C25.3302 116.805 24.8493 115.152 24.9326 113.479V112.974C24.8523 111.306 25.3332 109.658 26.2988 108.294C26.7415 107.712 27.3187 107.246 27.9813 106.935C28.6439 106.624 29.372 106.478 30.1036 106.508C31.3294 106.473 32.5248 106.893 33.4576 107.687C33.9192 108.103 34.2783 108.619 34.507 109.196C34.7357 109.772 34.8277 110.394 34.7759 111.012V111.08H34.2363C34.27 110.535 34.1793 109.99 33.9711 109.484C33.7629 108.979 33.4425 108.528 33.034 108.164C32.2198 107.485 31.1849 107.127 30.1241 107.156C29.4626 107.112 28.801 107.239 28.2029 107.524C27.6048 107.81 27.0902 108.243 26.7087 108.784C25.8921 110.025 25.4882 111.491 25.5543 112.974V113.479C25.4866 114.968 25.8905 116.441 26.7087 117.689C27.0934 118.233 27.6109 118.67 28.2122 118.958C28.8134 119.247 29.4785 119.378 30.1446 119.338V119.338Z" fill="white"/>
<path d="M38.7105 109.472C39.0709 108.6 39.6756 107.85 40.4524 107.312C41.2786 106.779 42.2487 106.51 43.2325 106.542C43.7962 106.508 44.3601 106.606 44.8794 106.827C45.3987 107.048 45.8593 107.387 46.2244 107.817C46.9075 108.668 47.2559 110.017 47.2559 111.85V119.733H46.5728V111.83C46.5728 110.126 46.2654 108.925 45.6506 108.225C45.342 107.881 44.9609 107.609 44.5346 107.429C44.1083 107.249 43.6473 107.165 43.1847 107.183C42.6102 107.15 42.0353 107.24 41.499 107.448C40.9627 107.656 40.4776 107.977 40.0767 108.389C39.3204 109.273 38.8448 110.362 38.7105 111.516V119.761H38.0274V113.124V112.702C38.0209 112.591 38.0209 112.479 38.0274 112.368V101.051H38.7105V109.472Z" fill="white"/>
<path d="M59.2441 117.335C58.7803 118.142 58.1018 118.804 57.2836 119.25C56.3086 119.764 55.2166 120.018 54.1141 119.986C53.607 120.015 53.099 119.944 52.6194 119.777C52.1399 119.61 51.6984 119.35 51.3203 119.011C50.978 118.656 50.7128 118.234 50.5412 117.773C50.3696 117.311 50.2953 116.818 50.323 116.327C50.329 115.783 50.4708 115.248 50.7356 114.773C51.0003 114.297 51.3797 113.894 51.8394 113.601C52.9476 112.834 54.2757 112.447 55.6237 112.498H59.2577V110.603C59.2843 110.134 59.2068 109.665 59.0309 109.23C58.855 108.794 58.5849 108.402 58.2399 108.082C57.431 107.438 56.4107 107.118 55.3778 107.183C54.3786 107.133 53.3931 107.432 52.5908 108.028C52.2571 108.287 51.9884 108.621 51.8059 109.001C51.6233 109.382 51.5319 109.8 51.5388 110.222H51.006V110.167C50.9782 109.679 51.0686 109.192 51.2695 108.746C51.4704 108.3 51.776 107.909 52.1605 107.605C53.0751 106.874 54.2274 106.503 55.3983 106.563C56.5849 106.503 57.7528 106.876 58.6839 107.612C59.1044 107.996 59.4332 108.468 59.646 108.996C59.8588 109.523 59.9502 110.091 59.9135 110.658V117.151C59.9117 117.607 59.9391 118.062 59.9955 118.514C60.046 118.947 60.1306 119.375 60.2482 119.795H59.5651C59.4626 119.229 59.3943 118.8 59.3602 118.521C59.3237 118.215 59.3055 117.908 59.3055 117.601L59.2441 117.335ZM54.1141 119.379C55.2439 119.416 56.3598 119.122 57.3246 118.534C58.2112 117.952 58.8846 117.098 59.2441 116.102V113.192H55.6442C54.4619 113.153 53.2958 113.476 52.3039 114.119C51.8978 114.353 51.5589 114.687 51.3196 115.089C51.0803 115.491 50.9488 115.948 50.9377 116.415C50.9239 116.812 50.994 117.206 51.1435 117.574C51.293 117.941 51.5185 118.273 51.8053 118.548C52.1177 118.827 52.4828 119.041 52.8792 119.178C53.2756 119.315 53.6954 119.372 54.1141 119.345V119.379Z" fill="white"/>
<path d="M69.5928 107.237L68.7731 107.169C68.258 107.15 67.7447 107.24 67.2668 107.432C66.7889 107.625 66.3572 107.916 65.9998 108.286C65.2596 109.112 64.7839 110.139 64.6336 111.237V119.733H63.9847V106.747H64.5038L64.62 108.995V109.472C64.9254 108.615 65.4735 107.865 66.1979 107.312C66.9507 106.78 67.8579 106.51 68.7799 106.542C68.947 106.541 69.1139 106.555 69.2786 106.583C69.4123 106.605 69.5446 106.635 69.6748 106.672L69.5928 107.237Z" fill="white"/>
<path d="M80.0372 117.335C79.5728 118.143 78.8915 118.806 78.0699 119.249C77.0977 119.765 76.0077 120.018 74.9072 119.985C74.4001 120.015 73.8921 119.944 73.4126 119.777C72.9331 119.61 72.4915 119.349 72.1134 119.011C71.7691 118.66 71.5015 118.241 71.3275 117.781C71.1535 117.321 71.0768 116.831 71.1024 116.34C71.1085 115.796 71.2503 115.262 71.515 114.786C71.7798 114.31 72.1592 113.908 72.6189 113.615C73.727 112.847 75.0552 112.46 76.4032 112.511H80.0372V110.617C80.0609 110.149 79.9813 109.683 79.8043 109.249C79.6272 108.816 79.357 108.427 79.0126 108.109C78.2015 107.464 77.1788 107.144 76.1436 107.21C75.1466 107.161 74.1637 107.46 73.3635 108.055C73.0298 108.314 72.7611 108.648 72.5785 109.028C72.396 109.409 72.3046 109.827 72.3115 110.249H71.7787V110.194C71.7509 109.706 71.8412 109.219 72.0422 108.773C72.2431 108.327 72.5487 107.936 72.9331 107.632C73.846 106.902 74.9955 106.531 76.1641 106.59C77.3509 106.529 78.5193 106.902 79.4498 107.639C79.8726 108.021 80.2035 108.493 80.4176 109.021C80.6317 109.548 80.7235 110.117 80.6861 110.685V117.178C80.6844 117.634 80.7117 118.089 80.7681 118.541C80.8154 118.974 80.8999 119.403 81.0209 119.822H80.3378C80.2353 119.256 80.167 118.827 80.1328 118.548C80.0964 118.242 80.0781 117.935 80.0782 117.628L80.0372 117.335ZM74.9072 119.379C76.0371 119.415 77.153 119.122 78.1177 118.534C79.0043 117.951 79.6778 117.098 80.0372 116.102V113.192H76.4373C75.255 113.152 74.089 113.476 73.0971 114.119C72.691 114.353 72.352 114.687 72.1128 115.089C71.8735 115.491 71.742 115.948 71.7309 116.415C71.7171 116.811 71.7872 117.206 71.9367 117.574C72.0861 117.941 72.3116 118.273 72.5984 118.548C72.9116 118.828 73.2778 119.043 73.6755 119.179C74.0732 119.316 74.4943 119.373 74.9141 119.345L74.9072 119.379Z" fill="white"/>
<path d="M89.0949 119.338C90.117 119.354 91.1166 119.038 91.9434 118.439C92.3623 118.125 92.6951 117.71 92.9112 117.234C93.1273 116.758 93.2197 116.235 93.1798 115.713H93.7194V115.788C93.7541 116.367 93.648 116.946 93.4101 117.475C93.1722 118.004 92.8097 118.468 92.3533 118.827C91.4246 119.572 90.2657 119.971 89.0744 119.958C88.34 119.988 87.6091 119.842 86.9434 119.531C86.2776 119.221 85.6966 118.755 85.2492 118.173C84.2806 116.805 83.7996 115.152 83.883 113.479V112.974C83.7973 111.305 84.2787 109.656 85.2492 108.294C85.6903 107.712 86.2664 107.246 86.9278 106.935C87.5893 106.624 88.3165 106.478 89.0471 106.508C90.273 106.473 91.4683 106.893 92.4011 107.687C92.8635 108.102 93.2237 108.618 93.4535 109.195C93.6834 109.772 93.7767 110.394 93.7263 111.012V111.08H93.1866C93.2204 110.535 93.1297 109.99 92.9215 109.484C92.7132 108.979 92.3928 108.528 91.9844 108.164C91.1701 107.485 90.1352 107.127 89.0744 107.156C88.4131 107.114 87.752 107.241 87.1541 107.526C86.5562 107.811 86.0415 108.244 85.659 108.784C84.8424 110.025 84.4385 111.491 84.5046 112.974V113.479C84.437 114.968 84.8408 116.441 85.659 117.689C86.0442 118.233 86.5618 118.669 87.1629 118.958C87.7641 119.246 88.429 119.377 89.0949 119.338V119.338Z" fill="white"/>
<path d="M98.3234 103.272V106.747H101.459V107.428H98.3234V116.388C98.2533 117.182 98.4401 117.977 98.8562 118.657C99.0134 118.87 99.2193 119.044 99.4568 119.162C99.6944 119.281 99.9568 119.341 100.222 119.338C100.411 119.349 100.601 119.349 100.789 119.338L101.472 119.256L101.595 119.842C101.395 119.906 101.189 119.95 100.981 119.972C100.754 119.999 100.526 120.013 100.298 120.013C99.9285 120.036 99.5593 119.97 99.2207 119.822C98.8821 119.674 98.5839 119.447 98.3508 119.161C97.8367 118.349 97.5972 117.394 97.6677 116.436V107.428H95.3178V106.747H97.6677V103.272H98.3234Z" fill="white"/>
<path d="M108.918 119.985C108.193 119.992 107.475 119.835 106.819 119.527C106.163 119.22 105.584 118.768 105.127 118.207C104.069 116.965 103.516 115.373 103.576 113.744V112.974C103.509 111.297 104.055 109.653 105.113 108.348C105.575 107.77 106.164 107.306 106.835 106.992C107.505 106.678 108.239 106.521 108.98 106.535C109.613 106.508 110.245 106.62 110.83 106.865C111.414 107.11 111.937 107.482 112.361 107.953C113.25 109.043 113.698 110.426 113.618 111.829V112.817H104.212V113.744C104.163 115.185 104.63 116.595 105.53 117.723C105.932 118.241 106.45 118.658 107.044 118.938C107.637 119.219 108.289 119.356 108.945 119.338C109.7 119.341 110.448 119.193 111.145 118.902C111.794 118.651 112.379 118.26 112.86 117.757L113.201 118.261C112.715 118.788 112.124 119.208 111.466 119.495C110.663 119.844 109.793 120.012 108.918 119.985V119.985ZM108.98 107.183C108.372 107.162 107.767 107.273 107.207 107.508C106.647 107.743 106.144 108.097 105.735 108.545C104.873 109.527 104.369 110.771 104.307 112.075L104.341 112.15H112.982V111.754C113.031 110.561 112.651 109.389 111.91 108.45C111.553 108.027 111.103 107.692 110.594 107.472C110.086 107.252 109.533 107.153 108.98 107.183Z" fill="white"/>
<path d="M122.307 107.237L121.48 107.169C120.972 107.155 120.466 107.248 119.996 107.44C119.525 107.633 119.1 107.921 118.748 108.286C118.008 109.112 117.532 110.139 117.382 111.237V119.733H116.746V106.747H117.265L117.382 108.995V109.472C117.687 108.615 118.235 107.865 118.959 107.312C119.71 106.78 120.615 106.51 121.535 106.542C121.704 106.541 121.873 106.555 122.04 106.583C122.172 106.605 122.302 106.634 122.43 106.672L122.307 107.237Z" fill="white"/>
<path d="M140.265 113.492C140.361 115.176 139.916 116.847 138.994 118.262C138.603 118.823 138.076 119.278 137.463 119.584C136.849 119.89 136.169 120.037 135.483 120.013C134.575 120.034 133.677 119.823 132.874 119.399C132.16 119.015 131.561 118.449 131.139 117.757L131.057 119.761H130.524V116.224C130.521 116.204 130.521 116.183 130.524 116.163C130.52 116.147 130.52 116.131 130.524 116.115V110.821C130.522 110.794 130.522 110.767 130.524 110.74V101.051H131.159V109.05C131.559 108.293 132.153 107.656 132.881 107.203C133.657 106.737 134.55 106.501 135.456 106.522C136.15 106.501 136.839 106.656 137.457 106.973C138.074 107.29 138.601 107.759 138.988 108.334C139.907 109.795 140.353 111.504 140.265 113.226V113.492ZM139.582 113.24C139.647 111.71 139.28 110.192 138.523 108.859C138.21 108.329 137.759 107.893 137.218 107.598C136.677 107.303 136.066 107.159 135.449 107.183C134.424 107.121 133.413 107.45 132.621 108.103C131.936 108.719 131.425 109.504 131.139 110.378V116.579C131.442 117.396 131.994 118.099 132.717 118.589C133.531 119.108 134.483 119.369 135.449 119.338C136.053 119.365 136.654 119.233 137.191 118.955C137.728 118.678 138.183 118.265 138.509 117.757C139.267 116.468 139.63 114.985 139.555 113.492L139.582 113.24Z" fill="white"/>
<path d="M151.72 117.335C151.252 118.14 150.572 118.803 149.753 119.25C148.778 119.765 147.686 120.019 146.583 119.986C146.077 120.013 145.569 119.94 145.091 119.77C144.612 119.601 144.172 119.338 143.796 118.998C143.452 118.646 143.185 118.228 143.011 117.768C142.837 117.308 142.76 116.817 142.786 116.327C142.79 115.783 142.931 115.249 143.194 114.773C143.458 114.298 143.836 113.895 144.295 113.601C145.404 112.835 146.732 112.448 148.079 112.498H151.72V110.603C151.746 110.142 151.671 109.68 151.501 109.25C151.332 108.819 151.071 108.43 150.737 108.11C149.924 107.467 148.902 107.147 147.868 107.21C146.868 107.16 145.883 107.459 145.081 108.055C144.747 108.315 144.478 108.648 144.296 109.029C144.113 109.409 144.022 109.827 144.029 110.249H143.496V110.195C143.468 109.707 143.558 109.219 143.759 108.773C143.96 108.327 144.266 107.936 144.65 107.633C145.565 106.901 146.717 106.53 147.888 106.59C149.075 106.53 150.243 106.903 151.174 107.64C151.597 108.021 151.928 108.494 152.142 109.021C152.356 109.549 152.448 110.117 152.41 110.685V117.178C152.41 117.634 152.435 118.089 152.485 118.541C152.539 118.974 152.624 119.402 152.738 119.822H152.055C151.953 119.257 151.884 118.827 151.85 118.548C151.81 118.243 151.792 117.936 151.795 117.628L151.72 117.335ZM146.583 119.379C147.713 119.417 148.83 119.123 149.794 118.534C150.681 117.95 151.356 117.098 151.72 116.102V113.193H148.114C146.933 113.152 145.769 113.476 144.78 114.119C144.374 114.353 144.035 114.687 143.796 115.089C143.557 115.491 143.425 115.948 143.414 116.415C143.401 116.811 143.47 117.205 143.618 117.572C143.767 117.94 143.99 118.272 144.275 118.548C144.587 118.827 144.953 119.041 145.349 119.177C145.745 119.314 146.165 119.371 146.583 119.345V119.379Z" fill="white"/>
<path d="M164.255 116.558C164.249 116.204 164.169 115.854 164.021 115.532C163.873 115.209 163.66 114.921 163.394 114.685C162.524 113.983 161.482 113.527 160.375 113.363C159.201 113.174 158.079 112.742 157.082 112.095C156.741 111.822 156.47 111.471 156.293 111.071C156.116 110.672 156.037 110.235 156.065 109.799C156.062 109.349 156.165 108.905 156.366 108.501C156.566 108.098 156.859 107.747 157.219 107.476C158.113 106.81 159.213 106.478 160.327 106.536C161.517 106.47 162.693 106.824 163.647 107.537C164.035 107.851 164.343 108.252 164.544 108.709C164.745 109.165 164.833 109.663 164.801 110.16V110.235H164.262C164.264 109.818 164.171 109.406 163.989 109.03C163.806 108.654 163.54 108.325 163.21 108.069C162.396 107.44 161.382 107.126 160.354 107.183C159.379 107.111 158.41 107.388 157.622 107.966C157.342 108.18 157.115 108.454 156.956 108.768C156.798 109.082 156.712 109.427 156.707 109.779C156.703 110.107 156.771 110.433 156.905 110.733C157.04 111.033 157.238 111.3 157.486 111.516C158.4 112.169 159.455 112.599 160.566 112.77C161.728 112.991 162.829 113.456 163.797 114.133C164.162 114.42 164.453 114.79 164.645 115.212C164.838 115.634 164.926 116.095 164.904 116.558C164.913 117.038 164.805 117.512 164.591 117.941C164.377 118.371 164.063 118.742 163.674 119.025C162.729 119.694 161.587 120.027 160.43 119.972C159.182 120.042 157.947 119.684 156.932 118.957C156.544 118.679 156.232 118.308 156.025 117.878C155.819 117.448 155.724 116.973 155.75 116.497V116.422H156.263C156.265 116.873 156.386 117.316 156.614 117.706C156.842 118.095 157.168 118.419 157.561 118.643C158.432 119.113 159.412 119.348 160.402 119.325C161.405 119.379 162.396 119.082 163.203 118.486C163.516 118.269 163.775 117.981 163.957 117.646C164.14 117.312 164.242 116.939 164.255 116.558V116.558Z" fill="white"/>
<path d="M172.91 119.985C172.183 119.992 171.465 119.835 170.808 119.528C170.15 119.22 169.571 118.768 169.112 118.207C168.059 116.962 167.508 115.371 167.568 113.744V112.974C167.5 111.297 168.047 109.653 169.105 108.348C169.567 107.77 170.156 107.306 170.826 106.992C171.497 106.678 172.23 106.521 172.971 106.535C173.605 106.508 174.237 106.62 174.821 106.865C175.406 107.11 175.929 107.482 176.352 107.953C177.242 109.043 177.69 110.426 177.609 111.829V112.817H168.203V113.744C168.155 115.185 168.622 116.595 169.522 117.723C169.923 118.241 170.442 118.658 171.035 118.938C171.629 119.219 172.28 119.356 172.937 119.338C173.692 119.341 174.44 119.193 175.136 118.902C175.786 118.651 176.371 118.26 176.851 117.757L177.186 118.261C176.703 118.789 176.114 119.21 175.458 119.495C174.655 119.844 173.785 120.012 172.91 119.985V119.985ZM172.971 107.183C172.364 107.162 171.759 107.273 171.198 107.508C170.638 107.743 170.136 108.097 169.726 108.545C168.861 109.525 168.358 110.77 168.299 112.075L168.333 112.15H176.974V111.754C177.023 110.561 176.642 109.389 175.902 108.45C175.544 108.028 175.093 107.694 174.585 107.474C174.077 107.255 173.524 107.155 172.971 107.183V107.183Z" fill="white"/>
<path d="M180.109 113.24C180.019 111.518 180.463 109.81 181.38 108.348C181.763 107.769 182.29 107.299 182.908 106.981C183.527 106.664 184.216 106.511 184.911 106.536C185.817 106.515 186.71 106.751 187.487 107.217C188.217 107.673 188.815 108.312 189.222 109.07V101.051H189.857V110.794V116.074C189.852 116.088 189.852 116.102 189.857 116.115V119.72H189.242V117.717C188.82 118.412 188.218 118.981 187.5 119.365C186.7 119.783 185.807 119.992 184.905 119.972C184.219 119.996 183.539 119.849 182.925 119.543C182.312 119.237 181.785 118.782 181.394 118.221C180.474 116.806 180.032 115.135 180.13 113.451L180.109 113.24ZM180.792 113.492C180.717 114.985 181.08 116.468 181.838 117.757C182.162 118.269 182.617 118.685 183.156 118.963C183.695 119.241 184.299 119.37 184.905 119.338C185.872 119.369 186.826 119.103 187.637 118.575C188.363 118.071 188.918 117.358 189.229 116.531V110.399C188.937 109.517 188.424 108.725 187.739 108.096C186.947 107.439 185.933 107.107 184.905 107.169C184.287 107.145 183.674 107.287 183.132 107.583C182.589 107.878 182.137 108.314 181.824 108.845C181.071 110.18 180.707 111.697 180.772 113.226L180.792 113.492Z" fill="white"/>
<path d="M209.386 113.492C209.483 115.177 209.038 116.847 208.116 118.262C207.724 118.823 207.198 119.278 206.584 119.584C205.971 119.89 205.29 120.037 204.605 120.013C203.707 120.032 202.82 119.826 202.023 119.413C201.311 119.032 200.712 118.471 200.288 117.785V124.741H199.652V116.184C199.651 116.166 199.651 116.147 199.652 116.129C199.65 116.113 199.65 116.097 199.652 116.081V110.794C199.649 110.767 199.649 110.74 199.652 110.712V106.747H200.144L200.274 109.036C200.678 108.25 201.298 107.595 202.061 107.148C202.824 106.7 203.699 106.479 204.584 106.509C205.278 106.489 205.965 106.644 206.581 106.961C207.198 107.278 207.723 107.746 208.109 108.321C209.032 109.781 209.478 111.49 209.386 113.213V113.492ZM208.737 113.24C208.805 111.709 208.435 110.19 207.672 108.859C207.359 108.329 206.908 107.893 206.367 107.598C205.826 107.303 205.214 107.16 204.598 107.183C203.57 107.126 202.558 107.457 201.763 108.11C201.082 108.728 200.574 109.512 200.288 110.385V116.579C200.584 117.409 201.136 118.125 201.866 118.623C202.68 119.142 203.632 119.404 204.598 119.372C205.203 119.399 205.805 119.267 206.343 118.989C206.881 118.712 207.337 118.299 207.665 117.792C208.428 116.504 208.794 115.02 208.717 113.526L208.737 113.24Z" fill="white"/>
<path d="M218.465 107.237L217.638 107.169C217.123 107.151 216.61 107.24 216.132 107.433C215.654 107.626 215.222 107.916 214.865 108.286C214.124 109.112 213.648 110.139 213.499 111.237V119.733H212.863V106.747H213.382L213.499 108.995V109.472C213.804 108.615 214.352 107.865 215.077 107.312C215.827 106.78 216.732 106.51 217.652 106.542C217.821 106.541 217.99 106.555 218.157 106.583C218.289 106.605 218.419 106.634 218.547 106.672L218.465 107.237Z" fill="white"/>
<path d="M219.681 113.002C219.608 111.312 220.157 109.655 221.224 108.341C221.729 107.773 222.349 107.319 223.043 107.007C223.738 106.696 224.49 106.535 225.251 106.535C226.012 106.535 226.765 106.696 227.459 107.007C228.153 107.319 228.773 107.773 229.278 108.341C230.348 109.654 230.899 111.312 230.829 113.002V113.506C230.9 115.198 230.349 116.859 229.278 118.173C228.775 118.743 228.156 119.199 227.462 119.512C226.768 119.824 226.016 119.986 225.255 119.986C224.493 119.986 223.741 119.824 223.047 119.512C222.353 119.199 221.734 118.743 221.231 118.173C220.157 116.86 219.605 115.199 219.681 113.506V113.002ZM220.316 113.506C220.278 115.001 220.761 116.462 221.682 117.642C222.105 118.191 222.654 118.632 223.282 118.927C223.911 119.222 224.601 119.363 225.295 119.338C225.985 119.361 226.67 119.218 227.293 118.922C227.916 118.625 228.459 118.184 228.875 117.635C229.795 116.457 230.278 114.998 230.241 113.506V113.002C230.272 111.523 229.789 110.078 228.875 108.914C228.443 108.378 227.897 107.945 227.276 107.648C226.654 107.351 225.974 107.197 225.285 107.197C224.596 107.197 223.916 107.351 223.295 107.648C222.674 107.945 222.127 108.378 221.696 108.914C220.786 110.081 220.303 111.523 220.329 113.002L220.316 113.506Z" fill="white"/>
<path d="M234.674 106.747V120.769C234.747 121.868 234.435 122.959 233.793 123.856C233.494 124.216 233.115 124.502 232.686 124.69C232.256 124.878 231.789 124.963 231.32 124.939C231.091 124.942 230.862 124.921 230.637 124.878C230.432 124.837 230.214 124.775 229.954 124.7L230.104 124.074C230.255 124.119 230.439 124.167 230.658 124.217C230.859 124.264 231.065 124.289 231.273 124.292C231.657 124.311 232.04 124.237 232.39 124.077C232.739 123.917 233.045 123.675 233.281 123.372C233.79 122.603 234.03 121.688 233.964 120.769V106.747H234.674ZM234.606 102.659H233.971V101.058H234.606V102.659Z" fill="white"/>
<path d="M243.582 119.985C242.855 119.992 242.137 119.836 241.479 119.528C240.822 119.22 240.242 118.769 239.784 118.207C238.729 116.963 238.176 115.372 238.233 113.744V112.974C238.166 111.297 238.712 109.653 239.77 108.348C240.233 107.771 240.822 107.308 241.492 106.993C242.162 106.679 242.896 106.523 243.636 106.535C244.27 106.508 244.902 106.62 245.487 106.865C246.071 107.11 246.594 107.482 247.018 107.953C247.907 109.043 248.355 110.426 248.275 111.829V112.817H238.855V113.744C238.806 115.185 239.274 116.595 240.173 117.723C240.575 118.241 241.094 118.657 241.687 118.937C242.281 119.218 242.932 119.355 243.589 119.338C244.341 119.34 245.087 119.192 245.781 118.902C246.43 118.651 247.016 118.26 247.496 117.757L247.837 118.261C247.351 118.788 246.76 119.208 246.102 119.495C245.308 119.84 244.448 120.008 243.582 119.985V119.985ZM243.636 107.183C243.029 107.162 242.424 107.273 241.864 107.508C241.304 107.743 240.801 108.097 240.392 108.545C239.529 109.527 239.026 110.771 238.964 112.075V112.15H247.605V111.755C247.654 110.561 247.273 109.389 246.533 108.45C246.179 108.032 245.735 107.7 245.232 107.48C244.73 107.26 244.184 107.158 243.636 107.183V107.183Z" fill="white"/>
<path d="M255.672 119.338C256.694 119.354 257.694 119.038 258.521 118.439C258.938 118.123 259.27 117.709 259.486 117.233C259.702 116.757 259.795 116.235 259.757 115.713H260.297V115.788C260.334 116.368 260.229 116.947 259.991 117.476C259.753 118.006 259.389 118.47 258.931 118.827C258.002 119.572 256.843 119.971 255.652 119.958C254.917 119.988 254.187 119.842 253.521 119.531C252.855 119.221 252.274 118.755 251.827 118.173C250.858 116.805 250.377 115.152 250.46 113.479V112.974C250.38 111.306 250.861 109.658 251.827 108.294C252.269 107.712 252.846 107.246 253.509 106.935C254.172 106.624 254.9 106.478 255.631 106.508C256.857 106.473 258.053 106.893 258.985 107.687C259.447 108.103 259.806 108.619 260.035 109.196C260.263 109.772 260.355 110.394 260.304 111.012V111.08H259.764C259.798 110.535 259.707 109.99 259.499 109.484C259.291 108.979 258.97 108.528 258.562 108.164C257.748 107.485 256.713 107.127 255.652 107.156C254.99 107.112 254.329 107.239 253.731 107.524C253.133 107.81 252.618 108.243 252.236 108.784C251.42 110.025 251.016 111.491 251.082 112.974V113.479C251.014 114.968 251.418 116.441 252.236 117.689C252.621 118.233 253.139 118.67 253.74 118.958C254.341 119.247 255.006 119.378 255.672 119.338V119.338Z" fill="white"/>
<path d="M264.901 103.272V106.747H268.029V107.428H264.901V116.388C264.831 117.182 265.017 117.977 265.434 118.657C265.591 118.87 265.797 119.044 266.034 119.162C266.272 119.281 266.534 119.341 266.8 119.338C266.986 119.35 267.173 119.35 267.36 119.338L268.043 119.256L268.166 119.842C267.966 119.906 267.76 119.95 267.551 119.972C267.313 120.001 267.074 120.014 266.834 120.013C266.465 120.037 266.095 119.972 265.756 119.824C265.418 119.675 265.12 119.448 264.887 119.161C264.373 118.349 264.134 117.394 264.204 116.436V107.428H261.847V106.747H264.204V103.272H264.901Z" fill="white"/>
<path d="M278.843 116.558C278.835 116.203 278.755 115.853 278.605 115.531C278.456 115.209 278.241 114.92 277.975 114.685C277.106 113.982 276.063 113.525 274.956 113.363C273.782 113.173 272.661 112.741 271.663 112.095C271.322 111.822 271.051 111.471 270.874 111.071C270.697 110.672 270.618 110.235 270.646 109.799C270.643 109.349 270.746 108.905 270.947 108.501C271.147 108.098 271.439 107.747 271.8 107.476C272.694 106.81 273.794 106.478 274.908 106.536C276.099 106.467 277.275 106.822 278.228 107.537C278.618 107.85 278.926 108.251 279.127 108.708C279.328 109.165 279.416 109.663 279.382 110.16V110.235H278.843C278.845 109.818 278.752 109.406 278.569 109.03C278.387 108.654 278.121 108.325 277.791 108.069C276.977 107.44 275.963 107.126 274.935 107.183C273.959 107.104 272.988 107.383 272.203 107.966C271.921 108.179 271.692 108.452 271.532 108.766C271.372 109.08 271.286 109.427 271.281 109.779C271.277 110.107 271.345 110.433 271.479 110.733C271.614 111.033 271.812 111.3 272.06 111.516C272.974 112.168 274.029 112.597 275.14 112.77C276.303 112.993 277.406 113.457 278.378 114.133C278.741 114.421 279.03 114.792 279.221 115.213C279.412 115.635 279.5 116.096 279.478 116.558C279.487 117.038 279.379 117.512 279.165 117.941C278.951 118.371 278.637 118.742 278.248 119.025C277.303 119.694 276.161 120.027 275.004 119.972C273.758 120.041 272.526 119.683 271.513 118.957C271.122 118.681 270.809 118.31 270.602 117.88C270.395 117.45 270.302 116.973 270.331 116.497V116.422H270.851C270.85 116.873 270.969 117.316 271.196 117.706C271.423 118.096 271.749 118.42 272.142 118.643C273.014 119.112 273.993 119.347 274.983 119.325C275.986 119.379 276.976 119.082 277.784 118.486C278.098 118.269 278.357 117.982 278.541 117.647C278.725 117.312 278.828 116.94 278.843 116.558V116.558Z" fill="white"/>
<path d="M283.788 119.828L282.962 122.82H282.361L283.153 119.876V117.832H283.788V119.828ZM283.822 108.327H282.811V106.747H283.822V108.327Z" fill="white"/>
<path d="M297.409 119.338C298.431 119.354 299.431 119.038 300.257 118.439C300.676 118.125 301.009 117.71 301.225 117.234C301.441 116.758 301.534 116.235 301.494 115.713H302.033V115.788C302.068 116.367 301.962 116.946 301.724 117.475C301.486 118.004 301.124 118.468 300.667 118.827C299.739 119.572 298.58 119.971 297.388 119.958C296.655 119.988 295.925 119.842 295.26 119.531C294.596 119.221 294.016 118.755 293.57 118.173C292.601 116.805 292.12 115.152 292.204 113.479V112.974C292.118 111.305 292.6 109.656 293.57 108.294C294.011 107.712 294.587 107.246 295.249 106.935C295.91 106.624 296.637 106.478 297.368 106.508C298.594 106.472 299.79 106.892 300.722 107.687C301.184 108.102 301.544 108.618 301.774 109.195C302.004 109.772 302.098 110.394 302.047 111.012V111.08H301.507C301.541 110.535 301.451 109.99 301.242 109.484C301.034 108.979 300.714 108.528 300.305 108.164C299.491 107.485 298.456 107.127 297.395 107.156C296.734 107.114 296.073 107.241 295.475 107.526C294.877 107.811 294.362 108.244 293.98 108.784C293.163 110.025 292.759 111.491 292.825 112.974V113.479C292.758 114.968 293.162 116.441 293.98 117.689C294.364 118.232 294.881 118.667 295.481 118.956C296.081 119.244 296.744 119.376 297.409 119.338Z" fill="white"/>
<path d="M304.322 113.002C304.249 111.312 304.798 109.655 305.865 108.341C306.371 107.773 306.991 107.319 307.685 107.007C308.379 106.696 309.131 106.535 309.892 106.535C310.653 106.535 311.406 106.696 312.1 107.007C312.794 107.319 313.414 107.773 313.919 108.341C314.989 109.654 315.541 111.312 315.47 113.002V113.506C315.542 115.198 314.99 116.859 313.919 118.173C313.416 118.743 312.797 119.199 312.103 119.512C311.409 119.824 310.657 119.986 309.896 119.986C309.135 119.986 308.382 119.824 307.688 119.512C306.995 119.199 306.376 118.743 305.872 118.173C304.799 116.86 304.247 115.199 304.322 113.506V113.002ZM304.957 113.506C304.919 115.001 305.402 116.462 306.323 117.642C306.747 118.191 307.296 118.631 307.924 118.926C308.553 119.221 309.243 119.362 309.937 119.338C310.626 119.361 311.312 119.218 311.934 118.922C312.557 118.625 313.1 118.184 313.516 117.635C314.436 116.457 314.919 114.998 314.882 113.506V113.002C314.911 111.523 314.428 110.08 313.516 108.914C313.084 108.378 312.537 107.945 311.915 107.648C311.293 107.351 310.613 107.197 309.923 107.197C309.234 107.197 308.553 107.351 307.931 107.648C307.309 107.945 306.762 108.378 306.33 108.914C305.42 110.081 304.938 111.523 304.964 113.002L304.957 113.506Z" fill="white"/>
<path d="M318.967 106.747L319.049 109.356C319.394 108.513 319.969 107.784 320.709 107.251C321.482 106.738 322.397 106.478 323.325 106.508C324.277 106.465 325.214 106.76 325.969 107.34C326.724 108.014 327.228 108.925 327.396 109.922C327.687 108.934 328.268 108.056 329.063 107.401C329.871 106.779 330.871 106.458 331.891 106.495C332.499 106.455 333.107 106.562 333.665 106.807C334.222 107.051 334.713 107.425 335.095 107.898C335.828 108.834 336.195 110.301 336.195 112.3V119.693H335.546V112.307C335.546 110.426 335.211 109.104 334.555 108.328C334.232 107.948 333.827 107.647 333.37 107.446C332.914 107.246 332.417 107.151 331.918 107.169C331.363 107.132 330.806 107.217 330.287 107.42C329.769 107.622 329.302 107.937 328.92 108.341C328.197 109.21 327.737 110.267 327.595 111.387C327.595 111.544 327.595 111.707 327.595 111.871C327.595 112.034 327.595 112.198 327.595 112.368V119.733H326.973V113.097C326.973 112.947 326.973 112.79 326.973 112.641C326.973 112.491 326.973 112.341 326.973 112.198C326.973 110.365 326.611 109.063 325.955 108.314C325.632 107.94 325.228 107.644 324.774 107.448C324.32 107.252 323.827 107.161 323.332 107.183C322.786 107.144 322.237 107.226 321.726 107.423C321.215 107.619 320.753 107.926 320.374 108.321C319.658 109.162 319.198 110.191 319.049 111.285V119.733H318.4V113.097C318.4 112.981 318.4 112.872 318.4 112.763C318.4 112.654 318.4 112.511 318.4 112.341V106.747H318.967Z" fill="white"/>
<path d="M340.922 102.7H340.286V101.051H340.922V102.7ZM340.922 119.733H340.286V106.747H340.922V119.733Z" fill="white"/>
<path d="M349.426 119.338C350.448 119.354 351.448 119.038 352.274 118.439C352.693 118.125 353.026 117.71 353.242 117.234C353.458 116.758 353.551 116.235 353.511 115.713H354.05V115.788C354.085 116.367 353.979 116.946 353.741 117.475C353.503 118.004 353.141 118.468 352.684 118.827C351.756 119.572 350.597 119.971 349.405 119.958C348.672 119.99 347.942 119.844 347.277 119.533C346.612 119.222 346.032 118.756 345.587 118.173C344.615 116.806 344.133 115.152 344.221 113.479V112.974C344.135 111.305 344.617 109.656 345.587 108.294C346.028 107.712 346.604 107.246 347.266 106.935C347.927 106.624 348.654 106.478 349.385 106.508C350.611 106.473 351.806 106.893 352.739 107.687C353.201 108.102 353.562 108.618 353.791 109.195C354.021 109.772 354.115 110.394 354.064 111.012V111.08H353.524C353.558 110.535 353.468 109.99 353.259 109.484C353.051 108.979 352.731 108.528 352.322 108.164C351.508 107.485 350.473 107.127 349.412 107.156C348.751 107.114 348.09 107.241 347.492 107.526C346.894 107.811 346.379 108.244 345.997 108.784C345.18 110.025 344.776 111.491 344.842 112.974V113.479C344.775 114.968 345.179 116.441 345.997 117.689C346.381 118.232 346.898 118.667 347.498 118.956C348.098 119.244 348.761 119.376 349.426 119.338V119.338Z" fill="white"/>
<path d="M365.144 116.558C365.138 116.203 365.057 115.853 364.908 115.53C364.759 115.208 364.543 114.92 364.276 114.685C363.407 113.982 362.364 113.525 361.257 113.363C360.083 113.173 358.962 112.741 357.964 112.095C357.623 111.822 357.352 111.471 357.175 111.071C356.998 110.672 356.919 110.235 356.947 109.799C356.945 109.349 357.049 108.905 357.249 108.502C357.45 108.099 357.741 107.747 358.101 107.476C358.995 106.81 360.095 106.478 361.209 106.536C362.4 106.467 363.576 106.822 364.529 107.537C364.92 107.848 365.229 108.25 365.431 108.707C365.632 109.164 365.718 109.663 365.683 110.16V110.235H365.137C365.14 109.818 365.046 109.406 364.864 109.03C364.681 108.654 364.415 108.325 364.085 108.069C363.271 107.44 362.257 107.126 361.23 107.183C360.254 107.106 359.283 107.384 358.497 107.966C358.216 108.179 357.986 108.452 357.826 108.766C357.667 109.08 357.581 109.427 357.575 109.779C357.577 110.111 357.651 110.438 357.792 110.738C357.934 111.038 358.14 111.304 358.395 111.516C359.312 112.169 360.369 112.599 361.482 112.77C362.643 112.993 363.744 113.457 364.713 114.133C365.076 114.421 365.365 114.792 365.556 115.213C365.747 115.635 365.835 116.096 365.813 116.558C365.814 117.039 365.7 117.513 365.479 117.94C365.257 118.367 364.936 118.734 364.543 119.011C363.595 119.68 362.451 120.013 361.291 119.958C360.046 120.027 358.814 119.669 357.801 118.943C357.411 118.666 357.098 118.295 356.892 117.865C356.685 117.435 356.591 116.96 356.619 116.483V116.408H357.138C357.137 116.86 357.257 117.304 357.485 117.694C357.714 118.084 358.042 118.407 358.436 118.63C359.305 119.099 360.282 119.334 361.271 119.311C362.274 119.365 363.264 119.069 364.071 118.473C364.386 118.258 364.647 117.974 364.833 117.641C365.019 117.309 365.126 116.938 365.144 116.558V116.558Z" fill="white"/>
<path d="M370.076 119.829L369.249 122.82H368.641L369.427 119.877V117.833H370.062L370.076 119.829Z" fill="white"/>
<path d="M30.1446 147.955C31.1667 147.971 32.1662 147.655 32.9931 147.056C33.4105 146.74 33.7423 146.325 33.9583 145.849C34.1742 145.373 34.2674 144.851 34.2294 144.33H34.7691V144.405C34.8061 144.984 34.701 145.564 34.463 146.093C34.2249 146.623 33.8611 147.086 33.4029 147.444C32.4743 148.188 31.3154 148.588 30.1241 148.575C29.3897 148.605 28.6588 148.459 27.993 148.148C27.3273 147.837 26.7462 147.372 26.2988 146.79C25.3302 145.421 24.8493 143.768 24.9326 142.095V141.591C24.8523 139.923 25.3332 138.275 26.2988 136.91C26.7415 136.328 27.3187 135.862 27.9813 135.551C28.6439 135.241 29.372 135.094 30.1036 135.125C31.3294 135.09 32.5248 135.51 33.4576 136.304C33.9192 136.719 34.2783 137.236 34.507 137.812C34.7357 138.389 34.8277 139.011 34.7759 139.629V139.697H34.2363C34.27 139.152 34.1793 138.606 33.9711 138.101C33.7629 137.596 33.4425 137.145 33.034 136.781C32.2198 136.102 31.1849 135.743 30.1241 135.772C29.4626 135.729 28.801 135.856 28.2029 136.141C27.6048 136.426 27.0902 136.86 26.7087 137.401C25.8921 138.642 25.4882 140.108 25.5543 141.591V142.095C25.4866 143.585 25.8905 145.058 26.7087 146.306C27.0934 146.85 27.6109 147.287 28.2122 147.575C28.8134 147.864 29.4785 147.994 30.1446 147.955V147.955Z" fill="white"/>
<path d="M46.0469 145.951C45.5824 146.76 44.9011 147.423 44.0796 147.866C43.1074 148.381 42.0173 148.635 40.9169 148.602C40.4098 148.632 39.9018 148.561 39.4222 148.394C38.9427 148.226 38.5011 147.966 38.1231 147.628C37.7787 147.276 37.5111 146.857 37.3371 146.398C37.1631 145.938 37.0865 145.447 37.1121 144.957C37.1181 144.413 37.2599 143.878 37.5247 143.403C37.7894 142.927 38.1688 142.524 38.6285 142.231C39.7367 141.464 41.0648 141.077 42.4128 141.128H46.0469V139.233C46.0734 138.764 45.996 138.295 45.82 137.86C45.6441 137.424 45.374 137.032 45.0291 136.712C44.218 136.067 43.1952 135.747 42.1601 135.813C41.1694 135.763 40.1919 136.057 39.3936 136.644C39.0599 136.904 38.7912 137.237 38.6087 137.618C38.4261 137.998 38.3347 138.416 38.3416 138.838H37.8088V138.784C37.7838 138.296 37.8755 137.809 38.0762 137.364C38.2769 136.918 38.581 136.527 38.9632 136.222C39.88 135.494 41.0308 135.124 42.2011 135.179C43.3879 135.118 44.5562 135.491 45.4867 136.229C45.9096 136.61 46.2405 137.083 46.4546 137.61C46.6687 138.138 46.7605 138.706 46.7231 139.274V145.767C46.7213 146.223 46.7487 146.678 46.8051 147.13C46.8524 147.564 46.9369 147.992 47.0578 148.411H46.3747C46.2723 147.846 46.204 147.416 46.1698 147.137C46.1334 146.832 46.1151 146.525 46.1152 146.217L46.0469 145.951ZM40.9169 147.995C42.0447 148.033 43.1587 147.739 44.1205 147.151C45.009 146.568 45.6848 145.715 46.0469 144.718V141.809H42.447C41.2647 141.769 40.0986 142.092 39.1067 142.735C38.7006 142.969 38.3617 143.303 38.1224 143.705C37.8831 144.107 37.7516 144.564 37.7405 145.032C37.7267 145.428 37.7968 145.823 37.9463 146.19C38.0958 146.558 38.3213 146.89 38.608 147.164C38.9204 147.444 39.2855 147.658 39.682 147.795C40.0784 147.932 40.4982 147.988 40.9169 147.961V147.995Z" fill="white"/>
<path d="M56.3956 135.854L55.5759 135.786C55.0608 135.767 54.5475 135.857 54.0696 136.049C53.5917 136.242 53.1599 136.533 52.8026 136.903C52.0624 137.729 51.5866 138.756 51.4364 139.854V148.35H50.8011V135.363H51.3203L51.4364 137.612V138.089C51.7418 137.232 52.2899 136.482 53.0143 135.929C53.7667 135.396 54.6742 135.125 55.5964 135.159C55.7635 135.158 55.9303 135.172 56.095 135.2C56.2287 135.222 56.361 135.251 56.4912 135.289L56.3956 135.854Z" fill="white"/>
<path d="M60.3643 131.889V135.364H63.4997V136.045H60.3643V145.005C60.2942 145.798 60.481 146.593 60.8971 147.273C61.0543 147.487 61.2602 147.66 61.4977 147.779C61.7353 147.897 61.9977 147.958 62.2633 147.955C62.4521 147.966 62.6414 147.966 62.8303 147.955L63.5133 147.873L63.6363 148.459C63.4363 148.523 63.2303 148.566 63.0215 148.589C62.7949 148.616 62.5668 148.63 62.3384 148.629C61.9694 148.652 61.6002 148.587 61.2616 148.439C60.923 148.291 60.6247 148.064 60.3916 147.778C59.8776 146.965 59.6381 146.01 59.7086 145.052V136.045H57.3656V135.364H59.7154V131.889H60.3643Z" fill="white"/>
<path d="M65.5011 141.618C65.4284 139.929 65.9775 138.272 67.0449 136.958C67.55 136.39 68.17 135.936 68.8641 135.624C69.5582 135.313 70.3106 135.152 71.0717 135.152C71.8328 135.152 72.5852 135.313 73.2793 135.624C73.9734 135.936 74.5935 136.39 75.0985 136.958C76.1684 138.271 76.7199 139.928 76.6491 141.618V142.123C76.7209 143.815 76.1694 145.475 75.0985 146.79C74.6121 147.376 73.9982 147.844 73.3034 148.158C72.6086 148.472 71.8513 148.624 71.0888 148.602C70.3223 148.624 69.5609 148.472 68.8617 148.158C68.1625 147.844 67.5437 147.377 67.0517 146.79C65.978 145.477 65.4261 143.816 65.5011 142.123V141.618ZM66.1364 142.123C66.0987 143.617 66.5815 145.079 67.5026 146.258C67.9265 146.807 68.4754 147.247 69.1038 147.542C69.7322 147.837 70.422 147.979 71.1161 147.955C71.8059 147.978 72.491 147.835 73.1139 147.538C73.7367 147.242 74.2791 146.801 74.6955 146.252C75.6156 145.074 76.0983 143.615 76.0617 142.123V141.618C76.09 140.14 75.6076 138.696 74.6955 137.53C74.2634 136.994 73.7163 136.562 73.0945 136.265C72.4726 135.968 71.7919 135.814 71.1024 135.814C70.413 135.814 69.7323 135.968 69.1104 136.265C68.4886 136.562 67.9415 136.994 67.5094 137.53C66.5993 138.697 66.1172 140.14 66.1432 141.618L66.1364 142.123Z" fill="white"/>
<path d="M78.6984 141.618C78.6256 139.929 79.1747 138.272 80.2421 136.958C80.7472 136.39 81.3672 135.936 82.0613 135.624C82.7554 135.313 83.5079 135.152 84.2689 135.152C85.03 135.152 85.7824 135.313 86.4765 135.624C87.1706 135.936 87.7907 136.39 88.2957 136.958C89.3656 138.271 89.9171 139.928 89.8463 141.618V142.123C89.9182 143.815 89.3666 145.475 88.2957 146.79C87.8104 147.375 87.1976 147.843 86.504 148.157C85.8104 148.471 85.0542 148.623 84.2928 148.602C83.5253 148.625 82.7627 148.473 82.0623 148.159C81.3619 147.845 80.742 147.377 80.249 146.79C79.1781 145.475 78.6265 143.815 78.6984 142.123V141.618ZM79.3336 142.123C79.2959 143.617 79.7787 145.079 80.6998 146.258C81.1244 146.808 81.6744 147.249 82.304 147.544C82.9337 147.839 83.6249 147.98 84.3202 147.955C85.0075 147.978 85.6903 147.836 86.3118 147.542C86.9332 147.248 87.4752 146.81 87.8927 146.265C88.8103 145.086 89.2927 143.628 89.2589 142.136V141.632C89.2872 140.153 88.8048 138.71 87.8927 137.544C87.4606 137.008 86.9135 136.576 86.2917 136.279C85.6699 135.981 84.9892 135.827 84.2997 135.827C83.6102 135.827 82.9295 135.981 82.3077 136.279C81.6858 136.576 81.1387 137.008 80.7066 137.544C79.7965 138.711 79.3144 140.154 79.3405 141.632L79.3336 142.123Z" fill="white"/>
<path d="M93.4394 135.363L93.5213 137.973C93.8625 137.095 94.4727 136.347 95.2651 135.836C96.0575 135.324 96.9916 135.076 97.9341 135.125C98.5268 135.086 99.1204 135.189 99.6648 135.426C100.209 135.663 100.689 136.027 101.063 136.488C101.746 137.373 102.101 138.784 102.101 140.719V148.35H101.466V140.691C101.466 138.902 101.151 137.637 100.523 136.896C100.205 136.531 99.8076 136.243 99.3616 136.053C98.9155 135.863 98.4322 135.776 97.9477 135.799C97.3818 135.762 96.8146 135.849 96.286 136.054C95.7573 136.259 95.28 136.577 94.8875 136.985C94.1391 137.845 93.6637 138.907 93.5213 140.037V148.35H92.8861V141.714H92.8451C92.8451 141.564 92.8451 141.407 92.8451 141.25C92.8451 141.093 92.8451 140.937 92.8792 140.78V135.363H93.4394Z" fill="white"/>
<path d="M113.898 145.175C113.892 144.82 113.812 144.471 113.664 144.148C113.516 143.826 113.302 143.537 113.037 143.301C112.167 142.6 111.124 142.143 110.018 141.979C108.844 141.791 107.722 141.359 106.725 140.712C106.384 140.439 106.113 140.088 105.936 139.688C105.759 139.288 105.68 138.852 105.708 138.416C105.705 137.966 105.808 137.521 106.009 137.118C106.209 136.714 106.501 136.363 106.862 136.093C107.756 135.427 108.856 135.094 109.97 135.152C111.16 135.086 112.336 135.441 113.29 136.154C113.678 136.467 113.986 136.869 114.187 137.326C114.388 137.782 114.476 138.28 114.444 138.777V138.852H113.85C113.853 138.435 113.759 138.022 113.577 137.647C113.394 137.271 113.128 136.942 112.798 136.685C111.984 136.057 110.97 135.742 109.943 135.8C108.967 135.727 107.998 136.005 107.21 136.583C106.931 136.797 106.703 137.071 106.545 137.385C106.386 137.699 106.301 138.044 106.295 138.396C106.291 138.724 106.359 139.049 106.494 139.349C106.628 139.649 106.826 139.917 107.074 140.133C107.988 140.786 109.043 141.216 110.154 141.387C111.316 141.608 112.417 142.073 113.385 142.749C113.75 143.036 114.041 143.406 114.234 143.828C114.426 144.25 114.515 144.712 114.492 145.175C114.501 145.654 114.394 146.129 114.18 146.558C113.966 146.987 113.651 147.359 113.263 147.641C112.318 148.31 111.175 148.644 110.018 148.589C108.77 148.659 107.536 148.301 106.52 147.573C106.132 147.296 105.82 146.925 105.613 146.495C105.407 146.065 105.312 145.59 105.339 145.114V145.039H105.858C105.857 145.49 105.977 145.933 106.203 146.323C106.43 146.713 106.756 147.036 107.149 147.26C108.021 147.73 109 147.964 109.991 147.941C110.993 147.995 111.984 147.699 112.791 147.103C113.115 146.891 113.384 146.606 113.576 146.271C113.768 145.936 113.878 145.561 113.898 145.175V145.175Z" fill="white"/>
<path d="M118.837 148.445L118.01 151.436H117.409L118.201 148.493V146.449H118.837V148.445Z" fill="white"/>
<path d="M128.816 135.364L128.898 137.973C129.248 137.133 129.822 136.404 130.558 135.868C131.332 135.355 132.246 135.096 133.174 135.125C134.129 135.081 135.068 135.375 135.825 135.956C136.578 136.632 137.079 137.542 137.246 138.539C137.536 137.551 138.117 136.673 138.912 136.018C139.722 135.395 140.725 135.074 141.747 135.111C142.355 135.072 142.963 135.179 143.521 135.423C144.078 135.668 144.569 136.042 144.951 136.515C145.68 137.451 146.044 138.918 146.044 140.917V148.309H145.395V140.923C145.395 139.043 145.067 137.721 144.404 136.944C144.082 136.565 143.677 136.263 143.22 136.062C142.763 135.862 142.266 135.767 141.768 135.786C141.213 135.748 140.657 135.833 140.139 136.036C139.622 136.239 139.156 136.554 138.776 136.958C138.048 137.824 137.588 138.882 137.451 140.004V140.487C137.451 140.651 137.451 140.814 137.451 140.985V148.35H136.802V141.714H136.768C136.768 141.564 136.768 141.407 136.768 141.257C136.768 141.107 136.768 140.957 136.768 140.814C136.768 138.982 136.405 137.68 135.757 136.931C135.433 136.558 135.029 136.262 134.574 136.067C134.12 135.871 133.628 135.779 133.134 135.8C132.586 135.761 132.037 135.843 131.524 136.04C131.012 136.237 130.549 136.543 130.169 136.937C129.455 137.781 128.995 138.808 128.844 139.901V148.35H128.161V141.714C128.161 141.598 128.161 141.489 128.161 141.38C128.161 141.271 128.161 141.128 128.161 140.957V135.364H128.816Z" fill="white"/>
<path d="M148.988 141.618C148.914 139.927 149.466 138.269 150.539 136.958C151.043 136.39 151.662 135.935 152.356 135.624C153.05 135.313 153.801 135.152 154.562 135.152C155.322 135.152 156.074 135.313 156.768 135.624C157.461 135.935 158.081 136.39 158.585 136.958C159.658 138.269 160.21 139.927 160.136 141.618V142.122C160.211 143.815 159.659 145.476 158.585 146.79C158.1 147.375 157.487 147.843 156.794 148.157C156.1 148.471 155.344 148.623 154.582 148.602C153.815 148.624 153.052 148.473 152.352 148.159C151.652 147.845 151.032 147.377 150.539 146.79C149.468 145.475 148.916 143.815 148.988 142.122V141.618ZM149.623 142.122C149.586 143.617 150.068 145.078 150.989 146.258C151.414 146.808 151.964 147.248 152.594 147.544C153.223 147.839 153.914 147.98 154.61 147.955C155.299 147.977 155.984 147.834 156.607 147.537C157.23 147.241 157.772 146.8 158.189 146.251C159.109 145.074 159.592 143.615 159.555 142.122V141.618C159.584 140.139 159.101 138.696 158.189 137.53C157.757 136.994 157.21 136.562 156.588 136.265C155.966 135.967 155.286 135.813 154.596 135.813C153.907 135.813 153.226 135.967 152.604 136.265C151.982 136.562 151.435 136.994 151.003 137.53C150.093 138.697 149.611 140.14 149.637 141.618L149.623 142.122Z" fill="white"/>
<path d="M166.106 145.583L166.707 147.335H166.775L167.39 145.583L171.311 135.363H171.994L167.035 148.309H166.448L161.502 135.363H162.185L166.106 145.583Z" fill="white"/>
<path d="M175.328 131.316H174.692V129.667H175.328V131.316ZM175.328 148.35H174.692V135.364H175.328V148.35Z" fill="white"/>
<path d="M183.955 148.602C183.229 148.609 182.51 148.452 181.853 148.144C181.196 147.837 180.616 147.385 180.157 146.824C179.104 145.579 178.554 143.988 178.613 142.361V141.591C178.547 139.915 179.091 138.272 180.143 136.965C180.607 136.387 181.197 135.923 181.869 135.609C182.54 135.294 183.275 135.138 184.017 135.152C184.649 135.124 185.28 135.237 185.864 135.482C186.448 135.727 186.969 136.098 187.391 136.569C188.283 137.659 188.733 139.042 188.655 140.446V141.434H179.249V142.361C179.2 143.801 179.667 145.212 180.567 146.34C180.968 146.859 181.487 147.275 182.081 147.556C182.674 147.836 183.326 147.973 183.982 147.955C184.738 147.958 185.485 147.809 186.182 147.519C186.829 147.268 187.412 146.877 187.89 146.374L188.231 146.878C187.748 147.405 187.159 147.825 186.503 148.111C185.7 148.46 184.83 148.627 183.955 148.602V148.602ZM184.017 135.799C183.409 135.778 182.804 135.888 182.243 136.124C181.683 136.359 181.181 136.713 180.772 137.162C179.905 138.141 179.399 139.386 179.337 140.692L179.378 140.766H188.019V140.371C188.064 139.178 187.685 138.007 186.947 137.067C186.589 136.645 186.139 136.311 185.63 136.091C185.122 135.871 184.57 135.772 184.017 135.799V135.799Z" fill="white"/>
<path d="M199.529 145.175C199.523 144.82 199.444 144.471 199.296 144.148C199.148 143.826 198.934 143.537 198.669 143.301C197.799 142.6 196.756 142.143 195.65 141.979C194.475 141.791 193.354 141.359 192.357 140.712C192.015 140.439 191.744 140.088 191.567 139.688C191.39 139.288 191.312 138.852 191.339 138.416C191.337 137.966 191.44 137.521 191.64 137.118C191.841 136.714 192.133 136.363 192.494 136.093C193.388 135.427 194.487 135.094 195.602 135.152C196.792 135.086 197.967 135.441 198.922 136.154C199.31 136.467 199.618 136.869 199.818 137.326C200.019 137.782 200.108 138.28 200.076 138.777V138.852H199.536C199.535 138.435 199.44 138.024 199.258 137.649C199.076 137.274 198.812 136.944 198.484 136.685C197.67 136.057 196.657 135.742 195.629 135.8C194.654 135.727 193.685 136.005 192.897 136.583C192.617 136.797 192.389 137.071 192.231 137.385C192.072 137.699 191.987 138.044 191.981 138.396C191.978 138.724 192.045 139.049 192.18 139.349C192.314 139.649 192.512 139.917 192.76 140.133C193.674 140.786 194.73 141.216 195.841 141.387C197.002 141.608 198.103 142.073 199.072 142.749C199.437 143.036 199.727 143.406 199.92 143.828C200.112 144.25 200.201 144.712 200.178 145.175C200.187 145.654 200.08 146.129 199.866 146.558C199.652 146.987 199.337 147.359 198.949 147.641C198.002 148.311 196.857 148.645 195.697 148.588C194.452 148.657 193.22 148.299 192.207 147.573C191.818 147.296 191.506 146.924 191.3 146.495C191.093 146.065 190.999 145.59 191.025 145.114V145.039H191.537C191.54 145.49 191.661 145.933 191.889 146.322C192.116 146.712 192.443 147.035 192.835 147.26C193.705 147.729 194.682 147.964 195.67 147.941C196.675 147.996 197.668 147.7 198.478 147.103C198.791 146.885 199.049 146.598 199.232 146.263C199.414 145.928 199.516 145.556 199.529 145.175Z" fill="white"/>
<path d="M204.468 148.445L203.642 151.436H203.041L203.833 148.493V146.449H204.468V148.445Z" fill="white"/>
<path d="M218.465 148.602C217.738 148.609 217.02 148.452 216.363 148.145C215.705 147.837 215.126 147.385 214.667 146.824C213.612 145.58 213.059 143.989 213.116 142.361V141.591C213.049 139.914 213.595 138.27 214.653 136.965C215.116 136.387 215.707 135.923 216.378 135.609C217.05 135.295 217.784 135.138 218.526 135.152C219.159 135.125 219.789 135.238 220.373 135.483C220.956 135.728 221.478 136.099 221.901 136.57C222.792 137.659 223.243 139.042 223.164 140.446V141.434H213.751V142.361C213.705 143.802 214.175 145.213 215.077 146.34C215.478 146.859 215.997 147.275 216.59 147.556C217.184 147.837 217.835 147.973 218.492 147.955C219.245 147.958 219.991 147.81 220.685 147.519C221.335 147.27 221.92 146.878 222.399 146.374L222.741 146.878C222.257 147.405 221.668 147.825 221.013 148.112C220.21 148.46 219.34 148.627 218.465 148.602V148.602ZM218.526 135.8C217.918 135.778 217.313 135.888 216.753 136.124C216.193 136.359 215.69 136.714 215.281 137.162C214.414 138.142 213.908 139.387 213.847 140.692L213.881 140.767H222.529V140.372C222.574 139.178 222.194 138.008 221.457 137.067C221.099 136.645 220.648 136.311 220.14 136.091C219.632 135.872 219.079 135.772 218.526 135.8V135.8Z" fill="white"/>
<path d="M227.557 131.889V135.364H230.658V136.045H227.529V145.005C227.458 145.797 227.642 146.592 228.055 147.273C228.213 147.487 228.419 147.66 228.656 147.778C228.894 147.896 229.156 147.957 229.421 147.955C229.61 147.966 229.799 147.966 229.988 147.955L230.671 147.873L230.788 148.459C230.59 148.523 230.386 148.566 230.18 148.589C229.939 148.617 229.697 148.631 229.455 148.629C229.086 148.652 228.717 148.587 228.379 148.439C228.04 148.291 227.742 148.064 227.509 147.778C226.995 146.965 226.756 146.01 226.826 145.052V136.045H224.469V135.364H226.826V131.889H227.557Z" fill="white"/>
<path d="M238.008 147.955C239.03 147.973 240.031 147.657 240.856 147.055C241.275 146.741 241.608 146.327 241.824 145.85C242.04 145.374 242.132 144.851 242.093 144.33H242.639V144.405C242.677 144.984 242.573 145.564 242.335 146.094C242.096 146.623 241.732 147.087 241.273 147.444C240.345 148.19 239.186 148.59 237.994 148.575C237.261 148.605 236.531 148.459 235.866 148.148C235.201 147.837 234.622 147.371 234.176 146.79C233.207 145.421 232.726 143.768 232.809 142.095V141.591C232.729 139.922 233.21 138.275 234.176 136.91C234.617 136.327 235.195 135.861 235.857 135.55C236.52 135.239 237.249 135.093 237.98 135.125C239.204 135.089 240.397 135.509 241.328 136.304C241.791 136.718 242.152 137.234 242.382 137.811C242.612 138.388 242.705 139.01 242.653 139.629V139.697H242.106C242.141 139.152 242.051 138.607 241.844 138.102C241.637 137.597 241.318 137.145 240.911 136.781C240.095 136.104 239.061 135.746 238.001 135.772C237.34 135.73 236.678 135.858 236.081 136.143C235.483 136.428 234.968 136.861 234.585 137.401C233.772 138.643 233.368 140.108 233.431 141.591V142.095C233.367 143.584 233.77 145.057 234.585 146.306C234.97 146.847 235.485 147.281 236.084 147.57C236.682 147.858 237.344 147.991 238.008 147.955V147.955Z" fill="white"/>
<path d="M246.942 148.35H245.932V146.79H246.942V148.35Z" fill="white"/>
<path d="M188.033 42.1139H191.886V43.8241H188.033V50.0585H185.984V43.8241H174.371V42.6999L185.82 25.4277H188.04L188.033 42.1139ZM176.865 42.1139H185.998V28.0305L185.096 29.584L176.865 42.1139Z" fill="white"/>
<path d="M194.721 54.6648L193.518 53.7858C194.502 52.5708 195.069 51.0737 195.137 49.5138V46.877H197.125V48.9891C197.164 50.0529 196.969 51.1123 196.553 52.0928C196.138 53.0733 195.512 53.9512 194.721 54.6648V54.6648Z" fill="white"/>
<path d="M213.956 42.1143H217.809V43.8245H213.956V50.0589H211.907V43.8245H200.295V42.7003L211.736 25.4009H213.956V42.1143ZM202.788 42.1143H211.921V28.0309L211.019 29.5844L202.788 42.1143Z" fill="white"/>
<path d="M233.226 42.1143H237.079V43.8245H233.226V50.0589H231.177V43.8245H219.564V42.7003L230.999 25.4009H233.226V42.1143ZM222.058 42.1143H231.191V28.0309L230.289 29.5844L222.058 42.1143Z" fill="white"/>
<path d="M252.516 42.1139H256.369V43.8241H252.516V50.0585H250.467V43.8241H238.855V42.6999L250.296 25.4277H252.516V42.1139ZM241.348 42.1139H250.467V28.0305L249.566 29.584L241.348 42.1139Z" fill="white"/>
<path d="M284.622 27.1656H276.158V50.0589H274.075V27.1656H265.618V25.4009H284.622V27.1656Z" fill="white"/>
<path d="M285.346 40.6559C285.318 39.009 285.669 37.3776 286.37 35.8864C286.995 34.5293 288.002 33.3823 289.268 32.5852C290.534 31.7881 292.005 31.375 293.502 31.3964C294.621 31.3588 295.735 31.5697 296.763 32.0139C297.791 32.4582 298.706 33.1246 299.445 33.965C300.961 35.673 301.719 37.9441 301.719 40.7785V41.2078C301.744 42.8552 301.392 44.4866 300.688 45.9772C300.064 47.3263 299.06 48.465 297.798 49.2545C296.514 50.0293 295.037 50.4283 293.536 50.406C292.418 50.4416 291.305 50.2297 290.279 49.7856C289.253 49.3415 288.338 48.6761 287.6 47.8373C286.079 46.1248 285.318 43.8537 285.318 41.0238L285.346 40.6559ZM287.395 41.2146C287.317 43.1547 287.921 45.0611 289.103 46.6041C289.643 47.2639 290.324 47.7957 291.096 48.1609C291.868 48.526 292.712 48.7155 293.567 48.7155C294.421 48.7155 295.265 48.526 296.037 48.1609C296.809 47.7957 297.49 47.2639 298.031 46.6041C299.233 45.0064 299.837 43.0395 299.738 41.0443V40.6559C299.76 39.3235 299.497 38.0018 298.966 36.779C298.51 35.6814 297.749 34.7361 296.774 34.0536C295.803 33.4238 294.659 33.1118 293.502 33.1611C292.648 33.1451 291.802 33.3291 291.032 33.6983C290.262 34.0675 289.589 34.6116 289.068 35.2869C287.874 36.876 287.269 38.8285 287.354 40.8126L287.395 41.2146Z" fill="white"/>
<path d="M310.299 40.8265L307.976 43.0682V50.0588H305.927V24.0449H307.976V40.6971L309.896 38.6121L316.925 31.7237H319.459L311.692 39.457L320.142 50.0588H317.717L310.299 40.8265Z" fill="white"/>
<path d="M329.739 50.3992C328.248 50.4161 326.781 50.0173 325.504 49.2477C324.239 48.4769 323.218 47.3642 322.56 46.0386C321.844 44.605 321.483 43.0207 321.508 41.4191V40.6968C321.481 39.0499 321.831 37.4185 322.533 35.9274C323.163 34.5782 324.153 33.4279 325.395 32.6024C326.565 31.8089 327.949 31.3862 329.364 31.3896C330.363 31.3461 331.359 31.5281 332.278 31.9222C333.197 32.3162 334.015 32.9121 334.671 33.6653C335.978 35.1824 336.632 37.2583 336.632 39.8928V41.0239H323.557V41.4122C323.493 43.3047 324.133 45.1539 325.354 46.6041C325.898 47.2674 326.586 47.7989 327.365 48.1589C328.145 48.5188 328.997 48.6977 329.856 48.6822C330.849 48.7027 331.834 48.5001 332.738 48.0895C333.633 47.6416 334.41 46.9905 335.006 46.1885L336.277 47.156C335.559 48.2125 334.581 49.0662 333.435 49.6344C332.29 50.2026 331.017 50.4661 329.739 50.3992V50.3992ZM329.364 33.1611C328.638 33.1488 327.917 33.2921 327.252 33.5813C326.586 33.8704 325.99 34.2987 325.504 34.8372C324.396 36.0931 323.725 37.6731 323.592 39.3409H334.61V39.1161C334.637 37.5424 334.11 36.0091 333.121 34.7827C332.659 34.2461 332.08 33.8213 331.429 33.5404C330.779 33.2594 330.072 33.1298 329.364 33.1611V33.1611Z" fill="white"/>
<path d="M342.52 31.737L342.588 34.8712C343.216 33.8065 344.105 32.918 345.17 32.2889C346.208 31.6925 347.388 31.3843 348.586 31.3963C350.553 31.3963 352.001 31.9482 352.978 33.0588C353.955 34.1694 354.433 35.8251 354.44 38.0327V50.0585H352.391V38.019C352.483 36.7159 352.116 35.4215 351.352 34.3602C350.669 33.5562 349.569 33.161 348.067 33.161C346.852 33.1478 345.671 33.5629 344.733 34.3329C343.735 35.1711 342.992 36.2709 342.588 37.508V50.0585H340.539V31.737H342.52Z" fill="white"/>
<path d="M370.69 45.4255C370.7 44.9542 370.594 44.4876 370.382 44.0662C370.17 43.6447 369.859 43.2811 369.474 43.0068C368.368 42.2787 367.121 41.7912 365.813 41.5759C364.505 41.3374 363.232 40.9392 362.022 40.3904C361.221 40.0321 360.53 39.4677 360.021 38.7551C359.56 38.0634 359.322 37.2482 359.337 36.4181C359.331 35.7203 359.492 35.031 359.809 34.4085C360.125 33.786 360.586 33.2484 361.154 32.841C362.497 31.8523 364.139 31.3521 365.806 31.4238C367.579 31.3335 369.326 31.8718 370.738 32.9432C371.335 33.4117 371.815 34.0131 372.137 34.6993C372.46 35.3855 372.617 36.1374 372.596 36.8951H370.547C370.549 36.3725 370.426 35.857 370.189 35.3912C369.951 34.9255 369.606 34.5231 369.181 34.2174C368.211 33.5561 367.071 33.1877 365.897 33.1563C364.723 33.1249 363.565 33.4318 362.562 34.0402C362.182 34.2931 361.871 34.637 361.659 35.0406C361.446 35.4441 361.339 35.8943 361.346 36.35C361.325 36.7601 361.406 37.169 361.582 37.5401C361.759 37.9111 362.025 38.2326 362.357 38.4758C363.488 39.1548 364.737 39.6169 366.039 39.8385C367.426 40.1286 368.772 40.5862 370.048 41.2012C370.85 41.5795 371.542 42.1566 372.057 42.8773C372.643 43.8716 372.841 45.0463 372.614 46.1773C372.388 47.3083 371.751 48.3165 370.827 49.0094C369.386 49.9825 367.667 50.4608 365.929 50.3721C364.078 50.4573 362.253 49.9145 360.751 48.8323C360.127 48.3873 359.619 47.7991 359.271 47.1172C358.923 46.4353 358.744 45.6798 358.75 44.9145H360.799C360.817 45.4605 360.962 45.9948 361.222 46.4751C361.483 46.9553 361.853 47.3682 362.302 47.6808C363.385 48.3878 364.664 48.7359 365.957 48.6756C367.165 48.7291 368.36 48.4025 369.372 47.7421C369.768 47.496 370.096 47.1552 370.326 46.7507C370.556 46.3461 370.681 45.8906 370.69 45.4255V45.4255Z" fill="white"/>
<path d="M149.282 262.237C149.086 263.92 148.995 265.613 149.008 267.307C149.288 271.429 151.017 274.801 154.835 276.743C156.755 277.731 157.889 277.425 159.091 275.898C159.958 277.261 160.607 278.821 161.693 279.952C164.917 283.311 169.098 284.661 173.654 284.933C176.096 285.161 178.541 284.537 180.574 283.168C182.2 282.031 182.295 281.022 180.95 279.598C179.332 277.95 178.302 275.818 178.018 273.53C177.734 271.241 178.212 268.923 179.378 266.932C181.202 263.689 185.13 261.965 188.293 263.109C190.114 263.793 191.674 265.03 192.753 266.646C196.018 271.333 196.114 276.328 193.996 281.451C191.947 286.371 188.327 290.002 184.153 293.143C178.463 297.422 172.022 300.243 165.355 302.621C164.986 302.75 164.624 302.907 164.255 303.05C164.319 303.142 164.405 303.217 164.505 303.268C164.605 303.319 164.716 303.345 164.829 303.343C175.608 303.139 186.079 301.408 195.991 297.007C208.041 291.651 217.624 283.495 223.417 271.538C230.931 256.003 229.865 240.972 219.134 227.25C207.522 212.41 188.081 208.493 171.516 214.25C163.198 217.137 155.894 222.362 150.484 229.294C146.017 234.895 142.656 241.075 141.249 248.174C140.55 251.108 140.613 254.171 141.433 257.073C142.478 260.391 144.848 262.101 148.264 262.169C148.687 262.156 149.015 262.217 149.282 262.237Z" fill="white"/>
<path d="M252.715 291.924C248.452 288.095 243.254 286.773 237.687 286.745C229.373 286.711 221.873 289.389 214.974 293.845C209.598 297.313 204.161 300.659 198.156 302.962C182.919 308.927 166.259 310.289 150.252 306.879L147.697 306.382C147.506 306.545 146.98 306.9 147.014 306.988C147.168 307.418 147.458 307.786 147.84 308.038C161.543 314.102 175.847 316.37 190.718 314.34C203.232 312.63 215.022 308.528 226.238 302.709C229.578 300.972 232.994 299.303 236.484 297.94C242.325 295.596 248.322 294.533 254.532 296.577C254.703 296.623 254.882 296.626 255.055 296.587C255.227 296.547 255.387 296.467 255.522 296.352C255.601 296.188 255.639 296.006 255.633 295.824C255.627 295.641 255.577 295.463 255.488 295.303C254.68 294.086 253.751 292.954 252.715 291.924Z" fill="white"/>
<path d="M225.815 281.635C226.539 281.506 226.908 281.472 227.263 281.376C233.289 279.812 238.608 276.264 242.359 271.306C247.906 264.057 249.572 255.717 248.903 246.818C248.814 245.671 248.381 244.578 247.661 243.679C246.942 242.78 245.968 242.117 244.866 241.776C243.784 241.342 242.601 241.224 241.455 241.435C240.308 241.646 239.245 242.178 238.39 242.969C236.553 244.543 236.129 246.648 236.184 248.917C236.384 253.025 236.093 257.142 235.316 261.181C234.821 263.78 234.033 266.315 232.967 268.737C231.15 272.539 228.909 276.137 226.819 279.823C226.559 280.341 226.265 280.845 225.815 281.635Z" fill="white"/>
<path d="M195.369 182.097C150.58 182.533 114.929 217.193 113.242 261.195C112.749 272.262 114.517 283.314 118.437 293.68C122.357 304.045 128.349 313.508 136.047 321.493C143.746 329.478 152.991 335.82 163.221 340.133C173.452 344.445 184.454 346.639 195.561 346.581C240.153 346.581 276.165 312.071 278.037 267.198C279.908 221.69 242.953 182.329 195.369 182.097ZM195.137 340.061C155.061 340.102 120.551 306.968 120.373 264.384C120.203 224.089 152.526 190.117 194.058 189.108C235.46 188.134 270.222 220.668 271.199 262.285C272.196 305.701 238.308 339.918 195.137 340.061Z" fill="white"/>
</svg>
