<svg width="393" height="392" viewBox="0 0 393 392" fill="none" xmlns="http://www.w3.org/2000/svg">
<path d="M378.887 392.007H14.1194C10.378 391.996 6.79298 390.509 4.14742 387.87C1.50186 385.231 0.0108133 381.655 0 377.923V14.0835C0.0108133 10.3516 1.50186 6.77569 4.14742 4.13687C6.79298 1.49804 10.378 0.0107858 14.1194 0H378.887C382.629 0.0107858 386.214 1.49804 388.859 4.13687C391.505 6.77569 392.996 10.3516 393.007 14.0835V377.923C392.996 381.655 391.505 385.231 388.859 387.87C386.214 390.509 382.629 391.996 378.887 392.007V392.007ZM14.1194 6.13213C12.008 6.1411 9.98556 6.9817 8.49254 8.47093C6.99952 9.96015 6.15676 11.9774 6.14778 14.0835V377.923C6.15676 380.029 6.99952 382.047 8.49254 383.536C9.98556 385.025 12.008 385.866 14.1194 385.875H378.887C381.006 385.871 383.037 385.03 384.535 383.536C386.033 382.042 386.876 380.016 386.88 377.903V14.0835C386.871 11.9739 386.025 9.95355 384.528 8.46375C383.03 6.97394 381.002 6.13571 378.887 6.13213H14.1194Z" fill="white"/>
<path d="M188.491 58.6846H186.776V18.5327H188.491V58.6846Z" fill="#7E7F7F"/>
<path d="M33.0887 50.0587H25.3425V25.3394H42.3855V50.0587H39.2843L40.8349 53.1452H34.612L33.0887 50.0587ZM31.5381 31.5192V43.8788H36.1899V31.5192H31.5381Z" fill="white"/>
<path d="M62.5229 25.3394V50.0587H45.4457V25.3394H51.6891V43.8788H56.3409V25.3394H62.5229Z" fill="white"/>
<path d="M71.8128 46.9653V50.0587H65.6172V25.3394H82.6534V50.0587H76.4578V46.9653H71.8128ZM76.4578 40.7855V31.5192H71.8128V40.7855H76.4578Z" fill="white"/>
<path d="M96.5952 50.0587V31.5192H91.9502V50.0587H85.7546V25.3394H102.791V50.0587H96.5952Z" fill="white"/>
<path d="M110.537 31.5192H105.892V25.3394H121.364V31.5192H116.719V50.0587H110.523L110.537 31.5192Z" fill="white"/>
<path d="M141.515 25.3394V50.0587H124.479V25.3394H130.674V43.8788H135.319V25.3394H141.515Z" fill="white"/>
<path d="M150.812 31.5192V50.0587H144.589V25.3394H172.466V50.0587H166.27V31.5192H150.812ZM161.666 34.6057V50.0587H155.47V34.6057H161.666Z" fill="white"/>
<path d="M345.935 347.126H350.676V352.577C350.676 355.303 351.018 357.176 351.714 358.164C352.411 359.152 353.654 359.656 355.458 359.684V347.126H360.185V359.711C361.176 359.742 362.159 359.52 363.04 359.064C363.773 358.576 364.301 357.836 364.522 356.986C364.885 355.555 365.041 354.079 364.987 352.605V347.154H369.707V353.395C369.784 355.308 369.513 357.22 368.908 359.036C368.346 360.413 367.351 361.571 366.073 362.334C364.707 363.193 362.753 363.656 360.185 363.697V370.51H355.458V363.697C353.457 363.726 351.48 363.258 349.706 362.334C348.396 361.606 347.366 360.462 346.782 359.084C346.137 357.238 345.85 355.287 345.935 353.334V347.126Z" fill="white"/>
<path d="M35.2131 82.5387H26.7838V91.1168H26.1485V73.6743H36.3948V74.3557H26.7838V81.905H35.2131V82.5387Z" fill="white"/>
<path d="M37.843 84.3847C37.769 82.6941 38.3209 81.0353 39.3936 79.7243C39.898 79.1565 40.5174 78.702 41.211 78.3907C41.9045 78.0794 42.6564 77.9185 43.417 77.9185C44.1775 77.9185 44.9294 78.0794 45.6229 78.3907C46.3165 78.702 46.9359 79.1565 47.4403 79.7243C48.513 81.0353 49.0649 82.6941 48.9909 84.3847V84.8889C49.066 86.5817 48.5141 88.243 47.4403 89.5561C46.955 90.1417 46.3422 90.6092 45.6486 90.9232C44.9551 91.2373 44.1989 91.3895 43.4374 91.3685C42.6699 91.3907 41.9073 91.2392 41.2069 90.9253C40.5066 90.6114 39.8866 90.1433 39.3936 89.5561C38.3227 88.2414 37.7711 86.5813 37.843 84.8889V84.3847ZM38.4782 84.8889C38.4406 86.3836 38.9233 87.8451 39.8444 89.0247C40.269 89.5744 40.819 90.0151 41.4487 90.3102C42.0783 90.6053 42.7695 90.7462 43.4648 90.7212C44.1544 90.7433 44.8394 90.6001 45.4622 90.3038C46.0849 90.0074 46.6274 89.5664 47.0441 89.0179C47.9642 87.8404 48.447 86.3813 48.4103 84.8889V84.3847C48.4386 82.906 47.9563 81.4626 47.0441 80.2966C46.612 79.7607 46.0649 79.3282 45.4431 79.0311C44.8213 78.734 44.1406 78.5798 43.4511 78.5798C42.7616 78.5798 42.0809 78.734 41.4591 79.0311C40.8373 79.3282 40.2902 79.7607 39.8581 80.2966C38.9479 81.4637 38.4658 82.9063 38.4919 84.3847L38.4782 84.8889Z" fill="white"/>
<path d="M56.3614 90.7213C57.3815 90.7381 58.3793 90.4223 59.2031 89.822C59.622 89.5077 59.9548 89.0934 60.1709 88.6171C60.3869 88.1407 60.4793 87.6178 60.4394 87.0966H60.9791V87.1715C61.0173 87.7508 60.9128 88.3306 60.6746 88.8603C60.4365 89.39 60.072 89.8535 59.6129 90.2103C58.6854 90.9567 57.5257 91.3567 56.3341 91.3414C55.6007 91.3716 54.8708 91.2251 54.2061 90.9144C53.5414 90.6037 52.9616 90.1378 52.5156 89.5562C51.5471 88.1877 51.0661 86.5349 51.1495 84.8617V84.3575C51.0692 82.689 51.55 81.0415 52.5156 79.6767C52.9575 79.094 53.5346 78.6271 54.1974 78.3162C54.8601 78.0052 55.5887 77.8595 56.3204 77.8915C57.5442 77.8558 58.7375 78.2761 59.6676 79.0703C60.1313 79.4845 60.4923 80.0003 60.7222 80.5773C60.9522 81.1543 61.0448 81.7766 60.9928 82.3953V82.4634H60.4531C60.4884 81.9181 60.3984 81.372 60.1901 80.8666C59.9817 80.3613 59.6605 79.91 59.2509 79.5472C58.4387 78.8694 57.4063 78.5108 56.3478 78.5388C55.6864 78.4967 55.0253 78.6243 54.4274 78.9094C53.8295 79.1944 53.3148 79.6275 52.9323 80.1673C52.1187 81.4097 51.7151 82.8749 51.7779 84.3575V84.8617C51.7135 86.351 52.1171 87.8231 52.9323 89.0725C53.3169 89.6147 53.8334 90.0505 54.4332 90.339C55.0331 90.6274 55.6966 90.759 56.3614 90.7213V90.7213Z" fill="white"/>
<path d="M72.8102 88.8412C72.4324 89.6123 71.8394 90.2582 71.1024 90.7012C70.2874 91.1703 69.3585 91.406 68.4179 91.3826C67.8277 91.4081 67.2399 91.2922 66.7039 91.0444C66.1678 90.7966 65.6992 90.4243 65.3372 89.9586C64.5995 89.0115 64.2238 87.5466 64.2238 85.5571V78.1304H64.8659V85.5434C64.8659 87.3013 65.1824 88.5982 65.8153 89.4339C66.1097 89.8385 66.499 90.1649 66.9492 90.3846C67.3993 90.6044 67.8965 90.7107 68.3974 90.6944C69.4861 90.7642 70.5606 90.4183 71.403 89.7269C72.1237 89.0508 72.6034 88.1584 72.7692 87.1855V78.1304H73.4113V85.7547C73.4113 85.8637 73.4113 85.9591 73.4113 86.0545C73.4113 86.1498 73.4113 86.2657 73.4113 86.3951V91.0896H72.8853L72.8102 88.8412Z" fill="white"/>
<path d="M85.2765 87.9415C85.2705 87.5869 85.1909 87.2373 85.0428 86.9148C84.8947 86.5923 84.6812 86.3039 84.4158 86.0678C83.5456 85.3665 82.5032 84.9101 81.3966 84.746C80.2225 84.5573 79.1009 84.1256 78.1041 83.4787C77.7623 83.2054 77.4915 82.8541 77.3143 82.4545C77.1372 82.0549 77.059 81.6186 77.0863 81.1826C77.0839 80.7324 77.187 80.2878 77.3875 79.8844C77.5879 79.481 77.8801 79.1299 78.2407 78.8592C79.135 78.1937 80.2345 77.861 81.3487 77.9189C82.539 77.853 83.7144 78.2076 84.6685 78.9205C85.0598 79.2312 85.3706 79.6309 85.575 80.0861C85.7795 80.5414 85.8715 81.0388 85.8434 81.5369V81.6118H85.3038C85.303 81.195 85.208 80.7838 85.0258 80.4087C84.8437 80.0336 84.5792 79.7042 84.2518 79.4451C83.4374 78.8179 82.424 78.5035 81.3966 78.5594C80.4212 78.487 79.4521 78.7649 78.6642 79.3429C78.3845 79.5566 78.1569 79.8307 77.9983 80.1445C77.8398 80.4584 77.7545 80.8039 77.7489 81.1553C77.7452 81.4838 77.813 81.8092 77.9474 82.1091C78.0818 82.409 78.2797 82.6764 78.5276 82.8928C79.4417 83.546 80.497 83.9754 81.6083 84.1464C82.7697 84.3679 83.8709 84.8323 84.8393 85.5091C85.2033 85.7966 85.4931 86.1668 85.6844 86.5888C85.8757 87.0107 85.9631 87.4722 85.9391 87.9347C85.9492 88.4136 85.8433 88.8879 85.6305 89.3173C85.4176 89.7467 85.104 90.1185 84.7164 90.4012C83.7694 91.0711 82.6244 91.4046 81.4649 91.3483C80.2193 91.4172 78.9875 91.059 77.9743 90.3331C77.5858 90.0553 77.2739 89.6843 77.0673 89.2543C76.8607 88.8244 76.7662 88.3494 76.7925 87.8734V87.7985H77.3049C77.3072 88.2497 77.4283 88.6923 77.6561 89.0821C77.8838 89.472 78.2103 89.7953 78.6027 90.0197C79.4723 90.4885 80.4493 90.7233 81.4375 90.701C82.4426 90.7561 83.4355 90.4597 84.245 89.8629C84.5538 89.6436 84.8075 89.3561 84.9865 89.0228C85.1654 88.6895 85.2646 88.3194 85.2765 87.9415V87.9415Z" fill="white"/>
<path d="M94.2386 84.3851C94.1678 82.6949 94.7193 81.0372 95.7892 79.7246C96.2942 79.1567 96.9143 78.7021 97.6084 78.3908C98.3025 78.0794 99.0549 77.9185 99.816 77.9185C100.577 77.9185 101.329 78.0794 102.024 78.3908C102.718 78.7021 103.338 79.1567 103.843 79.7246C104.91 81.0382 105.459 82.6957 105.387 84.3851V84.8893C105.46 86.5808 104.911 88.2408 103.843 89.5565C103.34 90.1262 102.721 90.5825 102.027 90.895C101.333 91.2076 100.581 91.3693 99.8194 91.3693C99.0582 91.3693 98.3057 91.2076 97.612 90.895C96.9183 90.5825 96.2992 90.1262 95.796 89.5565C94.7204 88.244 94.1661 86.5829 94.2386 84.8893V84.3851ZM94.8739 84.8893C94.8362 86.3839 95.3189 87.8455 96.24 89.0251C96.6757 89.5567 97.2243 89.9851 97.8463 90.2793C98.4683 90.5734 99.1481 90.7261 99.8365 90.7261C100.525 90.7261 101.205 90.5734 101.827 90.2793C102.449 89.9851 102.997 89.5567 103.433 89.0251C104.353 87.8476 104.836 86.3885 104.799 84.8961V84.3919C104.827 82.9132 104.345 81.4698 103.433 80.3038C103.001 79.768 102.455 79.3356 101.834 79.0385C101.212 78.7414 100.532 78.5871 99.8433 78.5871C99.1543 78.5871 98.4741 78.7414 97.8529 79.0385C97.2316 79.3356 96.6851 79.768 96.2537 80.3038C95.344 81.4711 94.862 82.9136 94.8875 84.3919L94.8739 84.8893Z" fill="white"/>
<path d="M108.98 78.1299L109.062 80.7395C109.414 79.8914 110.002 79.1611 110.756 78.6341C111.57 78.1171 112.523 77.8582 113.488 77.8915C114.081 77.8521 114.674 77.9553 115.219 78.1925C115.763 78.4296 116.243 78.7937 116.616 79.2542C117.313 80.1399 117.662 81.5503 117.662 83.4853V91.1164H117.026V83.4581C117.026 81.6661 116.705 80.3988 116.077 79.663C115.759 79.298 115.361 79.0097 114.915 78.8197C114.469 78.6297 113.986 78.543 113.502 78.566C112.936 78.529 112.369 78.6159 111.84 78.8207C111.311 79.0255 110.834 79.3432 110.441 79.7516C109.699 80.6151 109.224 81.6758 109.075 82.804V91.1164H108.44V84.4801H108.385V84.0168C108.385 83.8601 108.385 83.7034 108.419 83.5467V78.1299H108.98Z" fill="white"/>
<path d="M127.853 78.1303L127.935 80.7398C128.285 79.8995 128.859 79.1711 129.595 78.6345C130.368 78.1212 131.283 77.8616 132.211 77.8918C133.165 77.8486 134.104 78.143 134.862 78.723C135.615 79.3983 136.116 80.3088 136.283 81.3053C136.573 80.3178 137.154 79.4397 137.949 78.7844C138.759 78.1613 139.762 77.8407 140.784 77.8782C141.391 77.8399 141.998 77.9474 142.554 78.1916C143.11 78.4359 143.6 78.8097 143.981 79.2817C144.71 80.2175 145.076 81.6846 145.081 83.6832V91.0759H144.432V83.6901C144.432 81.8095 144.104 80.4877 143.441 79.711C143.119 79.3312 142.713 79.0296 142.257 78.8289C141.8 78.6282 141.303 78.5338 140.805 78.5527C140.249 78.515 139.692 78.6006 139.173 78.8032C138.655 79.0059 138.188 79.3205 137.806 79.7246C137.083 80.5938 136.624 81.6501 136.481 82.7702C136.481 82.9269 136.481 83.0905 136.481 83.254C136.481 83.4175 136.481 83.581 136.481 83.7514V91.1168H135.832V84.4804H135.798V84.0239C135.798 83.874 135.798 83.7241 135.832 83.581C135.832 81.7482 135.47 80.4468 134.821 79.6974C134.496 79.3238 134.091 79.0282 133.635 78.8324C133.18 78.6366 132.686 78.5456 132.191 78.5663C131.644 78.5286 131.096 78.6109 130.585 78.8075C130.074 79.0041 129.613 79.3102 129.233 79.7042C128.517 80.5456 128.057 81.5741 127.908 82.668V91.1168H127.259V84.4804V84.1466C127.259 84.0307 127.259 83.8945 127.259 83.7241V78.1303H127.853Z" fill="white"/>
<path d="M157.014 88.7184C156.55 89.5249 155.872 90.1876 155.054 90.633C154.079 91.1483 152.987 91.4019 151.884 91.3688C151.376 91.3967 150.868 91.3237 150.388 91.1541C149.908 90.9845 149.467 90.7217 149.09 90.3809C148.747 90.0285 148.481 89.6096 148.307 89.1502C148.133 88.6907 148.055 88.2005 148.079 87.71C148.085 87.1658 148.227 86.6318 148.492 86.156C148.757 85.6801 149.136 85.2776 149.596 84.9846C150.704 84.2173 152.032 83.8299 153.38 83.8808H157.014V81.9867C157.041 81.5177 156.963 81.0486 156.787 80.6129C156.611 80.1771 156.341 79.7854 155.996 79.4657C155.187 78.8217 154.167 78.5011 153.134 78.5663C152.135 78.5162 151.15 78.815 150.347 79.4112C150.014 79.6707 149.745 80.0039 149.562 80.3846C149.38 80.7653 149.288 81.1831 149.295 81.6051H148.763V81.5506C148.735 81.0625 148.825 80.5749 149.026 80.129C149.227 79.6831 149.532 79.292 149.917 78.9887C150.832 78.257 151.984 77.8861 153.155 77.9463C154.341 77.8863 155.509 78.2593 156.44 78.9955C156.861 79.379 157.19 79.8517 157.402 80.3789C157.615 80.906 157.707 81.4741 157.67 82.0412V88.5344C157.668 88.9899 157.696 89.4451 157.752 89.8971C157.803 90.33 157.887 90.7583 158.005 91.178H157.322C157.219 90.6125 157.151 90.1833 157.117 89.9039C157.08 89.5987 157.062 89.2915 157.062 88.9841L157.014 88.7184ZM151.884 90.7624C153.014 90.7989 154.13 90.5053 155.095 89.9176C155.981 89.335 156.655 88.4816 157.014 87.4851V84.5758H153.414C152.232 84.5359 151.066 84.8594 150.074 85.5024C149.668 85.7361 149.329 86.0701 149.09 86.4722C148.85 86.8743 148.719 87.3311 148.708 87.7986C148.695 88.1947 148.766 88.5891 148.915 88.9564C149.065 89.3237 149.29 89.6557 149.575 89.9312C149.888 90.2105 150.253 90.4248 150.649 90.5617C151.046 90.6986 151.466 90.7552 151.884 90.7284V90.7624Z" fill="white"/>
<path d="M166.072 90.7215C167.094 90.7373 168.094 90.4217 168.92 89.8222C169.339 89.5079 169.672 89.0936 169.888 88.6173C170.104 88.141 170.197 87.618 170.157 87.0968H170.696V87.1717C170.731 87.7506 170.625 88.3292 170.387 88.8583C170.149 89.3874 169.787 89.8513 169.33 90.2105C168.402 90.9549 167.243 91.3547 166.051 91.3416C165.318 91.3718 164.588 91.2253 163.923 90.9146C163.259 90.6039 162.679 90.138 162.233 89.5564C161.264 88.1879 160.783 86.5351 160.867 84.8619V84.3577C160.781 82.6886 161.262 81.0394 162.233 79.6769C162.674 79.0952 163.25 78.6289 163.912 78.318C164.573 78.0071 165.3 77.8608 166.031 77.8917C167.257 77.855 168.453 78.2752 169.385 79.0705C169.847 79.4857 170.207 80.0017 170.437 80.5784C170.667 81.1551 170.76 81.7769 170.71 82.3955V82.4636H170.17C170.204 81.9185 170.113 81.3728 169.905 80.8677C169.697 80.3626 169.377 79.9112 168.968 79.5474C168.154 78.8686 167.119 78.51 166.058 78.539C165.397 78.4969 164.736 78.6245 164.138 78.9096C163.54 79.1946 163.025 79.6277 162.643 80.1675C161.826 81.4086 161.422 82.8747 161.488 84.3577V84.8619C161.421 86.3516 161.825 87.8247 162.643 89.0727C163.027 89.6149 163.544 90.0507 164.144 90.3392C164.744 90.6276 165.407 90.7592 166.072 90.7215V90.7215Z" fill="white"/>
<path d="M174.645 80.8555C175.005 79.9835 175.61 79.2336 176.386 78.6957C177.213 78.162 178.183 77.8934 179.167 77.9257C179.735 77.8876 180.305 77.9837 180.83 78.2062C181.354 78.4288 181.819 78.7715 182.186 79.2067C182.869 80.0584 183.217 81.4074 183.217 83.2403V91.1235H182.568V83.2198C182.568 81.5165 182.261 80.315 181.646 79.6155C181.338 79.2705 180.957 78.998 180.531 78.8178C180.104 78.6375 179.643 78.5539 179.18 78.573C178.603 78.5377 178.024 78.6272 177.484 78.8353C176.944 79.0435 176.456 79.3654 176.052 79.779C175.284 80.658 174.795 81.7437 174.645 82.8996V91.1439H173.962V84.5076V84.0851C173.955 83.974 173.955 83.8625 173.962 83.7513V72.4341H174.645V80.8555Z" fill="white"/>
<path d="M187.972 74.0829H187.336V72.4341H187.972V74.0829ZM187.972 91.1167H187.336V78.1302H187.972V91.1167Z" fill="white"/>
<path d="M192.692 78.1299L192.774 80.7395C193.126 79.8914 193.714 79.1611 194.468 78.6341C195.282 78.1171 196.235 77.8582 197.2 77.8915C197.793 77.8521 198.386 77.9553 198.931 78.1925C199.475 78.4296 199.955 78.7937 200.329 79.2542C201.025 80.1399 201.374 81.5503 201.374 83.4853V91.1164H200.739V83.4581C200.739 81.6661 200.417 80.3988 199.789 79.663C199.471 79.298 199.074 79.0097 198.628 78.8197C198.182 78.6297 197.698 78.543 197.214 78.566C196.648 78.529 196.081 78.6159 195.552 78.8207C195.023 79.0255 194.546 79.3432 194.154 79.7516C193.411 80.6151 192.936 81.6758 192.787 82.804V91.1164H192.152V84.4801H192.118V84.0168C192.118 83.8601 192.118 83.7034 192.152 83.5467V78.1299H192.692Z" fill="white"/>
<path d="M209.81 91.3687C209.084 91.3753 208.365 91.2189 207.708 90.9111C207.05 90.6033 206.471 90.1519 206.012 89.5904C204.959 88.3461 204.409 86.7549 204.468 85.1276V84.3577C204.401 82.6806 204.947 81.0363 206.005 79.7313C206.467 79.1537 207.056 78.6898 207.726 78.3755C208.397 78.0613 209.131 77.905 209.871 77.9189C210.504 77.8903 211.135 78.0026 211.719 78.2477C212.303 78.4929 212.824 78.8647 213.246 79.3361C214.137 80.4258 214.588 81.8087 214.51 83.213V84.201H205.103V85.1276C205.055 86.5681 205.522 87.9787 206.422 89.1067C206.823 89.6253 207.342 90.0419 207.935 90.3226C208.529 90.6032 209.181 90.7399 209.837 90.7215C210.592 90.7244 211.34 90.5761 212.037 90.2854C212.684 90.0343 213.267 89.6434 213.744 89.1407L214.086 89.6449C213.602 90.1715 213.014 90.5916 212.358 90.8782C211.555 91.2276 210.685 91.3951 209.81 91.3687V91.3687ZM209.871 78.5662C209.264 78.5443 208.659 78.6549 208.098 78.8903C207.538 79.1256 207.036 79.4801 206.627 79.9289C205.762 80.9099 205.257 82.1539 205.192 83.4583L205.233 83.5332H213.874V83.1381C213.923 81.9443 213.543 80.7724 212.802 79.8335C212.444 79.4116 211.994 79.0778 211.485 78.8579C210.977 78.6381 210.425 78.5383 209.871 78.5662V78.5662Z" fill="white"/>
<path d="M224.141 91.1167H223.506V72.4341H224.141V91.1167Z" fill="white"/>
<path d="M232.782 91.369C232.056 91.376 231.337 91.2199 230.68 90.912C230.022 90.6041 229.443 90.1525 228.984 89.5906C227.929 88.3469 227.376 86.7559 227.434 85.1278V84.3579C227.366 82.6808 227.912 81.0365 228.971 79.7316C229.433 79.1547 230.022 78.6914 230.692 78.3772C231.363 78.063 232.096 77.9063 232.837 77.9192C233.47 77.8914 234.102 78.0041 234.687 78.2492C235.272 78.4942 235.795 78.8655 236.218 79.3364C237.11 80.426 237.56 81.8089 237.482 83.2132V84.2012H228.069V85.1278C228.026 86.5674 228.493 87.9761 229.387 89.1069C229.79 89.6243 230.309 90.04 230.902 90.3205C231.495 90.601 232.146 90.7385 232.803 90.7217C233.555 90.7239 234.301 90.5756 234.995 90.2856C235.645 90.0363 236.231 89.6452 236.71 89.141L237.051 89.6451C236.568 90.1717 235.979 90.5918 235.323 90.8784C234.522 91.2253 233.655 91.3927 232.782 91.369V91.369ZM232.837 78.5664C232.23 78.5446 231.626 78.6553 231.067 78.8907C230.508 79.126 230.007 79.4805 229.599 79.9291C228.732 80.9084 228.226 82.1535 228.164 83.4585V83.5335H236.805V83.1383C236.853 81.9458 236.475 80.775 235.74 79.8337C235.385 79.4156 234.939 79.084 234.436 78.8643C233.932 78.6447 233.386 78.5428 232.837 78.5664V78.5664Z" fill="white"/>
<path d="M248.548 88.7183C248.079 89.5235 247.399 90.1856 246.58 90.6329C245.606 91.1482 244.514 91.4018 243.411 91.3687C242.904 91.3961 242.397 91.3228 241.918 91.1532C241.44 90.9836 241 90.7211 240.624 90.3808C240.28 90.0294 240.012 89.6106 239.838 89.151C239.664 88.6913 239.587 88.2006 239.613 87.7099C239.618 87.1663 239.758 86.6324 240.022 86.1565C240.285 85.6806 240.664 85.2778 241.123 84.9845C242.231 84.2181 243.559 83.8308 244.907 83.8807H248.548V81.9866C248.573 81.5177 248.495 81.0491 248.319 80.6136C248.143 80.178 247.874 79.7862 247.53 79.4656C246.718 78.823 245.696 78.5026 244.661 78.5662C243.662 78.5161 242.676 78.8149 241.874 79.4111C241.54 79.6706 241.272 80.0038 241.089 80.3845C240.907 80.7652 240.815 81.1831 240.822 81.605H240.289V81.5505C240.261 81.0624 240.352 80.5748 240.553 80.1289C240.754 79.683 241.059 79.2919 241.444 78.9886C242.36 78.2609 243.511 77.8904 244.681 77.9462C245.868 77.8863 247.036 78.2592 247.967 78.9955C248.389 79.3783 248.719 79.8507 248.933 80.3779C249.147 80.9051 249.239 81.4735 249.203 82.0411V88.5343C249.203 88.9896 249.228 89.4445 249.279 89.897C249.329 90.3299 249.414 90.7582 249.531 91.178H248.848C248.746 90.6124 248.678 90.1832 248.643 89.9038C248.604 89.5989 248.585 89.2915 248.589 88.984L248.548 88.7183ZM243.411 90.7623C244.541 90.8 245.657 90.5063 246.621 89.9175C247.508 89.3335 248.183 88.4808 248.548 87.485V84.5757H244.941C243.761 84.535 242.597 84.8586 241.608 85.5023C241.202 85.736 240.863 86.07 240.623 86.4721C240.384 86.8742 240.253 87.331 240.241 87.7985C240.228 88.1941 240.298 88.5882 240.446 88.9555C240.594 89.3227 240.818 89.655 241.102 89.9311C241.415 90.2097 241.78 90.4237 242.176 90.5605C242.573 90.6973 242.992 90.7544 243.411 90.7283V90.7623Z" fill="white"/>
<path d="M258.897 78.621L258.07 78.5528C257.555 78.5343 257.042 78.6242 256.564 78.8168C256.086 79.0093 255.654 79.3001 255.297 79.6702C254.556 80.4955 254.08 81.5231 253.93 82.6205V91.1169H253.295V78.1304H253.814L253.93 80.3788V80.8558C254.231 79.9963 254.78 79.2448 255.508 78.6959C256.259 78.1639 257.164 77.8933 258.084 77.926C258.251 77.9246 258.418 77.9383 258.582 77.9669C258.716 77.988 258.848 78.0176 258.978 78.0554L258.897 78.621Z" fill="white"/>
<path d="M261.888 78.13L261.97 80.7396C262.312 79.8618 262.922 79.1139 263.714 78.6025C264.507 78.091 265.441 77.8422 266.383 77.8915C266.976 77.8533 267.569 77.957 268.113 78.1941C268.657 78.4312 269.137 78.7946 269.512 79.2542C270.199 80.14 270.545 81.5504 270.55 83.4854V91.1165H269.915V83.4581C269.915 81.6685 269.598 80.4034 268.965 79.663C268.648 79.2982 268.252 79.0099 267.807 78.8199C267.363 78.6298 266.88 78.5431 266.397 78.5661C265.831 78.5281 265.263 78.6146 264.735 78.8194C264.206 79.0243 263.728 79.3425 263.337 79.7516C262.591 80.6137 262.116 81.6751 261.97 82.804V91.1165H261.335V84.4802H261.301C261.301 84.3303 261.301 84.1736 261.301 84.0168C261.301 83.8601 261.301 83.7034 261.301 83.5467V78.13H261.888Z" fill="white"/>
<path d="M275.332 74.0829H274.696V72.4341H275.332V74.0829ZM275.332 91.1167H274.696V78.1302H275.332V91.1167Z" fill="white"/>
<path d="M280.052 78.13L280.134 80.7395C280.485 79.8888 281.076 79.1576 281.835 78.6342C282.648 78.1143 283.601 77.8551 284.567 77.8915C285.159 77.8521 285.751 77.9553 286.295 78.1925C286.838 78.4297 287.316 78.7938 287.689 79.2542C288.385 80.1399 288.734 81.5503 288.734 83.4854V91.1165H288.098V83.4581C288.098 81.6662 287.777 80.3988 287.149 79.663C286.831 79.298 286.434 79.0097 285.988 78.8197C285.542 78.6297 285.058 78.543 284.574 78.566C284.008 78.5294 283.441 78.6166 282.912 78.8213C282.384 79.0261 281.906 79.3436 281.514 79.7516C280.771 80.6152 280.296 81.6758 280.147 82.804V91.1165H279.512V84.4801C279.512 84.3302 279.512 84.1735 279.512 84.0168C279.512 83.8601 279.512 83.7034 279.512 83.5467V78.13H280.052Z" fill="white"/>
<path d="M292.135 84.6234C292.045 82.9012 292.489 81.1931 293.406 79.7313C293.792 79.1554 294.319 78.6869 294.937 78.3699C295.555 78.0529 296.243 77.8977 296.938 77.9189C297.844 77.8958 298.737 78.1323 299.513 78.6003C300.244 79.0619 300.842 79.7053 301.248 80.4671L301.344 78.1574H301.883V82.1773V87.4578C301.883 87.4578 301.883 87.4578 301.883 87.4987V91.1711C301.974 92.5607 301.516 93.9305 300.606 94.9867C300.146 95.45 299.593 95.811 298.983 96.0459C298.373 96.2808 297.72 96.3842 297.067 96.3494C296.418 96.3453 295.771 96.2792 295.134 96.1518C294.527 96.043 293.935 95.8599 293.372 95.6067L293.563 94.9253C294.097 95.1673 294.653 95.3567 295.223 95.4909C295.821 95.6263 296.434 95.6903 297.047 95.6816C297.621 95.7226 298.198 95.639 298.736 95.4367C299.275 95.2344 299.764 94.9182 300.169 94.5097C300.937 93.5648 301.318 92.3645 301.234 91.1507V89.1066C300.803 89.7914 300.2 90.3526 299.486 90.7351C298.693 91.1468 297.81 91.353 296.917 91.3347C296.231 91.3603 295.549 91.2133 294.934 90.9073C294.319 90.6014 293.791 90.1462 293.399 89.5836C292.483 88.167 292.041 86.4972 292.135 84.8141V84.6234ZM292.784 84.8755C292.709 86.3684 293.072 87.8509 293.83 89.1407C294.158 89.6503 294.614 90.0646 295.154 90.3421C295.694 90.6196 296.297 90.7504 296.903 90.7214C297.87 90.7558 298.823 90.4942 299.636 89.972C300.361 89.4795 300.919 88.7784 301.234 87.962V81.7617C300.943 80.8878 300.43 80.1038 299.745 79.486C298.958 78.8349 297.952 78.5061 296.931 78.5662C296.312 78.5402 295.698 78.6824 295.154 78.9776C294.61 79.2729 294.157 79.71 293.843 80.2423C293.086 81.5749 292.719 83.0929 292.784 84.6234V84.8755Z" fill="white"/>
<path d="M306.651 91.2122L305.797 94.2033H305.196L305.988 91.2599V89.2158H306.624L306.651 91.2122Z" fill="white"/>
<path d="M325.545 85.9045H317.177L315.258 91.1168H314.575L320.982 73.6743H321.761L328.175 91.1168H327.492L325.545 85.9045ZM317.41 85.2572H325.313L321.72 75.5003L321.392 74.4783H321.324L321.003 75.5003L317.41 85.2572Z" fill="white"/>
<path d="M332.021 91.1168H331.386V73.6743H332.021V91.1168Z" fill="white"/>
<path d="M33.8128 117.335C33.3565 118.138 32.6877 118.8 31.8796 119.249C30.9047 119.764 29.8126 120.017 28.7101 119.985C28.1985 120.019 27.6854 119.95 27.2009 119.782C26.7164 119.615 26.2704 119.353 25.889 119.011C25.546 118.659 25.2793 118.24 25.1053 117.78C24.9314 117.321 24.8541 116.831 24.878 116.34C24.8841 115.796 25.0258 115.262 25.2906 114.786C25.5553 114.31 25.9347 113.908 26.3945 113.615C27.5026 112.847 28.8307 112.46 30.1788 112.511H33.8128V110.617C33.8393 110.148 33.7619 109.679 33.5859 109.243C33.41 108.807 33.14 108.416 32.795 108.096C31.986 107.452 30.9658 107.131 29.9328 107.196C28.9336 107.146 27.9481 107.445 27.1458 108.041C26.8122 108.301 26.5435 108.634 26.3609 109.015C26.1784 109.395 26.087 109.813 26.0939 110.235H25.5611V110.181C25.5332 109.693 25.6236 109.205 25.8245 108.759C26.0255 108.313 26.3311 107.922 26.7155 107.619C27.6301 106.887 28.7824 106.516 29.9533 106.576C31.1381 106.515 32.3044 106.888 33.2321 107.626C33.655 108.008 33.9859 108.48 34.2 109.007C34.4141 109.535 34.5059 110.103 34.4685 110.671V117.165C34.4668 117.62 34.4941 118.075 34.5505 118.527C34.5978 118.961 34.6823 119.389 34.8032 119.808H34.1202C34.0177 119.243 33.9494 118.813 33.9152 118.534C33.8788 118.229 33.8605 117.922 33.8606 117.614L33.8128 117.335ZM28.6828 119.379C29.8126 119.415 30.9286 119.122 31.8933 118.534C32.7799 117.951 33.4533 117.098 33.8128 116.102V113.192H30.2129C29.0306 113.152 27.8645 113.476 26.8726 114.119C26.4665 114.353 26.1276 114.687 25.8883 115.089C25.6491 115.491 25.5175 115.948 25.5064 116.415C25.5027 116.809 25.5816 117.199 25.738 117.56C25.8945 117.922 26.1251 118.246 26.4149 118.514C26.7197 118.794 27.0768 119.012 27.466 119.154C27.8551 119.297 28.2686 119.362 28.6828 119.345V119.379Z" fill="white"/>
<path d="M39.093 106.747L39.175 109.356C39.5246 108.506 40.1129 107.775 40.869 107.251C41.6825 106.731 42.636 106.472 43.6014 106.508C44.194 106.47 44.7872 106.574 45.3315 106.811C45.8757 107.048 46.3552 107.411 46.7299 107.871C47.4221 108.757 47.7682 110.167 47.7682 112.102V119.733H47.1329V112.075C47.1329 110.285 46.8164 109.02 46.1835 108.28C45.8665 107.915 45.4707 107.627 45.0258 107.437C44.5808 107.247 44.0985 107.16 43.615 107.183C43.049 107.145 42.4816 107.231 41.9528 107.436C41.424 107.641 40.9467 107.959 40.5548 108.368C39.8096 109.23 39.3345 110.292 39.1886 111.421V119.733H38.5534V113.097H38.5192C38.5192 112.947 38.5192 112.79 38.5192 112.634C38.5192 112.477 38.5192 112.32 38.5192 112.163V106.747H39.093Z" fill="white"/>
<path d="M51.1563 113.24C51.066 111.518 51.5096 109.81 52.4268 108.348C52.8133 107.772 53.3401 107.304 53.9578 106.987C54.5756 106.67 55.264 106.514 55.9584 106.536C56.8642 106.515 57.7573 106.751 58.5336 107.217C59.264 107.673 59.8621 108.312 60.2687 109.07V101.051H60.9039V110.794V116.075C60.9039 116.075 60.9039 116.075 60.9039 116.115V119.72H60.296V117.717C59.8662 118.421 59.2523 118.996 58.52 119.379C57.7225 119.797 56.8316 120.005 55.9311 119.985C55.2457 120.01 54.5651 119.862 53.9517 119.556C53.3383 119.251 52.8116 118.796 52.42 118.234C51.4983 116.82 51.0532 115.149 51.1495 113.465L51.1563 113.24ZM51.8394 113.492C51.7652 114.984 52.1259 116.466 52.8777 117.757C53.2051 118.266 53.6609 118.68 54.1992 118.957C54.7375 119.235 55.3395 119.366 55.9447 119.338C56.912 119.365 57.8647 119.099 58.6771 118.575C59.4033 118.072 59.9566 117.359 60.2618 116.531V110.399C59.9723 109.522 59.4619 108.734 58.7795 108.11C57.9903 107.451 56.9783 107.12 55.9516 107.183C55.3341 107.158 54.7214 107.301 54.1789 107.596C53.6364 107.891 53.1843 108.328 52.8709 108.859C52.1158 110.192 51.7513 111.71 51.8189 113.24L51.8394 113.492Z" fill="white"/>
<path d="M70.1325 113.24C70.0421 111.518 70.4857 109.81 71.403 108.348C71.7894 107.772 72.3162 107.304 72.934 106.987C73.5517 106.67 74.2402 106.514 74.9346 106.536C75.8408 106.511 76.7348 106.748 77.5098 107.217C78.2407 107.679 78.8386 108.322 79.2448 109.084L79.3405 106.774H79.8801V110.794V116.074C79.8801 116.074 79.8801 116.074 79.8801 116.115V119.788C79.9712 121.177 79.5126 122.547 78.6027 123.603C78.1428 124.067 77.5897 124.428 76.9798 124.663C76.37 124.897 75.7172 125.001 75.0643 124.966C74.4151 124.962 73.7678 124.896 73.1312 124.768C72.5239 124.658 71.9321 124.475 71.3688 124.223L71.5601 123.542C72.0937 123.784 72.6496 123.973 73.22 124.108C73.8182 124.243 74.4305 124.307 75.0439 124.298C75.6182 124.339 76.1945 124.256 76.7334 124.053C77.2723 123.851 77.7608 123.535 78.1656 123.126C78.9339 122.181 79.3146 120.981 79.2312 119.767V117.723C78.7996 118.408 78.197 118.969 77.4825 119.352C76.6904 119.763 75.8071 119.97 74.9141 119.951C74.2275 119.977 73.5456 119.83 72.9309 119.524C72.3162 119.218 71.7884 118.763 71.3962 118.2C70.48 116.784 70.0375 115.114 70.1325 113.431V113.24ZM70.8156 113.492C70.7399 114.985 71.1031 116.468 71.8607 117.757C72.1887 118.267 72.6455 118.681 73.1852 118.959C73.7248 119.236 74.3281 119.367 74.9346 119.338C75.9007 119.372 76.8542 119.111 77.6669 118.589C78.3921 118.096 78.9496 117.395 79.2653 116.579V110.378C78.9739 109.504 78.461 108.721 77.7762 108.103C76.9888 107.452 75.9829 107.123 74.9619 107.183C74.3433 107.157 73.7292 107.299 73.1853 107.594C72.6415 107.89 72.1883 108.327 71.8743 108.859C71.1169 110.192 70.7501 111.71 70.8156 113.24V113.492Z" fill="white"/>
<path d="M88.3777 119.985C87.6514 119.992 86.9328 119.836 86.2753 119.528C85.6178 119.22 85.0383 118.769 84.5797 118.207C83.5248 116.963 82.972 115.372 83.0291 113.744V112.974C82.9617 111.297 83.5079 109.653 84.5661 108.348C85.0287 107.771 85.6178 107.308 86.288 106.993C86.9583 106.679 87.6919 106.523 88.4323 106.535C89.0716 106.503 89.7101 106.613 90.3011 106.858C90.8921 107.103 91.4205 107.477 91.8478 107.953C92.7369 109.043 93.1852 110.426 93.1047 111.83V112.818H83.6644V113.744C83.6217 115.184 84.0885 116.592 84.9828 117.723C85.3849 118.241 85.9037 118.657 86.4971 118.938C87.0905 119.218 87.7418 119.355 88.3982 119.338C89.151 119.34 89.8965 119.192 90.5909 118.902C91.2408 118.653 91.8266 118.261 92.3054 117.757L92.647 118.261C92.1607 118.788 91.5698 119.208 90.9119 119.495C90.1137 119.842 89.2484 120.01 88.3777 119.985V119.985ZM88.4323 107.183C87.8248 107.162 87.22 107.273 86.6597 107.508C86.0995 107.743 85.5972 108.097 85.1877 108.545C84.3254 109.527 83.8221 110.771 83.76 112.075L83.7942 112.15H92.4352V111.755C92.4838 110.561 92.1035 109.389 91.3628 108.45C91.006 108.027 90.5557 107.692 90.0471 107.472C89.5386 107.252 88.9858 107.153 88.4323 107.183Z" fill="white"/>
<path d="M96.6908 106.747L96.7728 109.356C97.1224 108.506 97.7107 107.775 98.4669 107.251C99.2803 106.731 100.234 106.472 101.199 106.508C101.792 106.47 102.385 106.574 102.929 106.811C103.474 107.048 103.953 107.411 104.328 107.871C105.02 108.757 105.366 110.167 105.366 112.102V119.733H104.731V112.075C104.731 110.285 104.414 109.02 103.781 108.28C103.464 107.915 103.068 107.627 102.624 107.437C102.179 107.247 101.696 107.16 101.213 107.183C100.647 107.145 100.079 107.231 99.5506 107.436C99.0218 107.641 98.5446 107.959 98.1526 108.368C97.4074 109.23 96.9324 110.292 96.7865 111.421V119.733H96.1512V113.097H96.0897C96.0897 112.947 96.0897 112.79 96.0897 112.634C96.0897 112.477 96.0897 112.32 96.0897 112.163V106.747H96.6908Z" fill="white"/>
<path d="M113.809 119.985C113.083 119.992 112.364 119.836 111.707 119.528C111.049 119.22 110.47 118.769 110.011 118.207C108.956 116.963 108.403 115.372 108.46 113.744V112.974C108.393 111.297 108.939 109.653 109.997 108.348C110.46 107.771 111.049 107.308 111.719 106.993C112.39 106.679 113.123 106.523 113.864 106.535C114.497 106.508 115.129 106.62 115.714 106.865C116.298 107.11 116.821 107.482 117.245 107.953C118.134 109.043 118.582 110.426 118.502 111.829V112.817H109.068V113.744C109.026 115.184 109.492 116.592 110.387 117.723C110.789 118.241 111.308 118.657 111.901 118.937C112.494 119.218 113.146 119.355 113.802 119.338C114.555 119.34 115.3 119.192 115.995 118.902C116.645 118.652 117.231 118.261 117.709 117.757L118.051 118.261C117.565 118.788 116.974 119.208 116.316 119.495C115.526 119.838 114.67 120.006 113.809 119.985V119.985ZM113.864 107.183C113.256 107.162 112.651 107.273 112.091 107.508C111.531 107.743 111.028 108.097 110.619 108.545C109.757 109.527 109.253 110.771 109.191 112.075V112.15H117.832V111.754C117.881 110.561 117.501 109.389 116.76 108.45C116.405 108.03 115.958 107.697 115.454 107.477C114.949 107.257 114.4 107.156 113.85 107.183H113.864Z" fill="white"/>
<path d="M127.191 107.237L126.371 107.169C125.856 107.15 125.343 107.24 124.865 107.432C124.387 107.625 123.955 107.916 123.598 108.286C122.857 109.112 122.382 110.139 122.231 111.237V119.733H121.596V106.747H122.115L122.231 108.995V109.472C122.537 108.615 123.085 107.865 123.809 107.312C124.562 106.78 125.469 106.51 126.391 106.542C126.559 106.541 126.725 106.555 126.89 106.583C127.024 106.605 127.156 106.635 127.286 106.672L127.191 107.237Z" fill="white"/>
<path d="M137.635 117.335C137.171 118.143 136.489 118.806 135.668 119.249C134.696 119.765 133.606 120.018 132.505 119.985C131.997 120.013 131.488 119.94 131.009 119.77C130.529 119.601 130.088 119.338 129.711 118.997C129.367 118.646 129.099 118.227 128.925 117.767C128.751 117.308 128.675 116.817 128.7 116.326C128.706 115.782 128.848 115.248 129.113 114.772C129.378 114.297 129.757 113.894 130.217 113.601C131.325 112.834 132.653 112.446 134.001 112.497H137.635V110.603C137.662 110.134 137.584 109.665 137.408 109.229C137.232 108.794 136.962 108.402 136.617 108.082C135.806 107.437 134.783 107.116 133.748 107.183C132.751 107.134 131.768 107.432 130.968 108.028C130.634 108.287 130.366 108.62 130.183 109.001C130.001 109.382 129.909 109.8 129.916 110.221H129.383V110.167C129.356 109.679 129.446 109.191 129.647 108.745C129.848 108.299 130.153 107.908 130.538 107.605C131.451 106.875 132.6 106.504 133.769 106.563C134.956 106.501 136.124 106.875 137.054 107.612C137.477 107.994 137.808 108.466 138.022 108.993C138.236 109.521 138.328 110.09 138.291 110.658V117.151C138.289 117.606 138.316 118.061 138.373 118.513C138.42 118.947 138.505 119.375 138.626 119.794H137.942C137.84 119.229 137.772 118.8 137.738 118.52C137.701 118.215 137.683 117.908 137.683 117.6L137.635 117.335ZM132.505 119.379C133.633 119.416 134.747 119.123 135.709 118.534C136.599 117.954 137.275 117.1 137.635 116.102V113.192H134.035C132.853 113.152 131.687 113.476 130.695 114.119C130.289 114.352 129.95 114.686 129.711 115.089C129.471 115.491 129.34 115.947 129.329 116.415C129.315 116.811 129.385 117.206 129.535 117.574C129.684 117.941 129.909 118.273 130.196 118.548C130.509 118.827 130.874 119.041 131.27 119.178C131.667 119.315 132.086 119.372 132.505 119.345V119.379Z" fill="white"/>
<path d="M143.687 103.272V106.747H146.823V107.428H143.687V116.388C143.617 117.182 143.804 117.977 144.22 118.657C144.378 118.87 144.584 119.043 144.821 119.161C145.058 119.28 145.321 119.34 145.586 119.338C145.775 119.35 145.964 119.35 146.153 119.338L146.836 119.256L146.952 119.842C146.752 119.906 146.546 119.95 146.338 119.972C146.1 120.001 145.86 120.014 145.62 120.013C145.251 120.036 144.882 119.97 144.544 119.822C144.205 119.674 143.907 119.447 143.674 119.161C143.159 118.349 142.92 117.394 142.99 116.436V107.428H140.641V106.747H142.99V103.272H143.687Z" fill="white"/>
<path d="M150.614 102.7H149.978V101.051H150.614V102.7ZM150.614 119.733H149.978V106.747H150.614V119.733Z" fill="white"/>
<path d="M157.889 116.967L158.49 118.718H158.558L159.173 116.967L163.094 106.747H163.777L158.818 119.692H158.251L153.305 106.747H153.988L157.889 116.967Z" fill="white"/>
<path d="M170.614 119.985C169.888 119.992 169.17 119.835 168.512 119.528C167.855 119.22 167.275 118.768 166.816 118.207C165.763 116.963 165.213 115.371 165.273 113.744V112.974C165.205 111.297 165.751 109.653 166.81 108.348C167.272 107.77 167.861 107.306 168.531 106.992C169.201 106.678 169.935 106.522 170.676 106.535C171.309 106.507 171.94 106.62 172.523 106.865C173.107 107.11 173.628 107.482 174.05 107.953C174.942 109.042 175.393 110.425 175.314 111.83V112.818H165.908V113.744C165.859 115.185 166.327 116.595 167.226 117.723C167.628 118.242 168.146 118.658 168.74 118.939C169.333 119.22 169.985 119.356 170.642 119.338C171.397 119.341 172.145 119.193 172.841 118.902C173.488 118.651 174.071 118.26 174.549 117.757L174.891 118.261C174.407 118.788 173.818 119.208 173.162 119.495C172.36 119.844 171.49 120.012 170.614 119.985V119.985ZM170.676 107.183C170.068 107.161 169.463 107.271 168.903 107.507C168.342 107.742 167.84 108.097 167.431 108.545C166.566 109.525 166.062 110.771 166.004 112.075L166.038 112.15H174.679V111.755C174.727 110.561 174.347 109.389 173.606 108.45C173.249 108.028 172.798 107.694 172.29 107.474C171.781 107.255 171.229 107.155 170.676 107.183V107.183Z" fill="white"/>
<path d="M192.152 117.335C191.684 118.14 191.003 118.802 190.185 119.25C189.21 119.765 188.118 120.019 187.015 119.986C186.506 120.017 185.995 119.948 185.513 119.78C185.031 119.613 184.587 119.352 184.208 119.011C183.863 118.66 183.594 118.242 183.419 117.782C183.244 117.322 183.166 116.832 183.19 116.34C183.196 115.796 183.338 115.262 183.603 114.786C183.867 114.311 184.247 113.908 184.707 113.615C185.815 112.849 187.143 112.461 188.491 112.511H192.132V110.617C192.157 110.148 192.079 109.68 191.903 109.244C191.727 108.809 191.458 108.417 191.114 108.096C190.302 107.453 189.28 107.133 188.245 107.197C187.246 107.147 186.26 107.445 185.458 108.042C185.124 108.301 184.856 108.634 184.673 109.015C184.49 109.396 184.399 109.814 184.406 110.235H183.873V110.181C183.845 109.693 183.936 109.205 184.137 108.759C184.338 108.313 184.643 107.922 185.028 107.619C185.942 106.887 187.094 106.516 188.265 106.577C189.452 106.517 190.62 106.89 191.551 107.626C191.973 108.009 192.303 108.481 192.517 109.008C192.731 109.536 192.823 110.104 192.787 110.672V117.165C192.783 117.62 192.808 118.075 192.863 118.527C192.913 118.96 192.998 119.389 193.115 119.808H192.432C192.33 119.243 192.261 118.814 192.22 118.534C192.186 118.229 192.17 117.922 192.173 117.614L192.152 117.335ZM187.015 119.379C188.145 119.417 189.262 119.123 190.226 118.534C191.113 117.95 191.788 117.098 192.152 116.102V113.193H188.545C187.365 113.152 186.201 113.475 185.212 114.119C184.806 114.353 184.467 114.687 184.228 115.089C183.988 115.491 183.857 115.948 183.846 116.415C183.832 116.811 183.902 117.205 184.05 117.572C184.198 117.94 184.422 118.272 184.707 118.548C185.019 118.827 185.385 119.041 185.781 119.177C186.177 119.314 186.597 119.371 187.015 119.345V119.379Z" fill="white"/>
<path d="M202.501 107.237L201.674 107.169C201.159 107.15 200.646 107.24 200.168 107.432C199.69 107.625 199.258 107.916 198.901 108.286C198.161 109.112 197.685 110.139 197.535 111.237V119.733H196.9V106.747H197.412L197.535 108.995V109.472C197.836 108.613 198.385 107.861 199.113 107.312C199.863 106.78 200.768 106.51 201.688 106.542C201.855 106.541 202.022 106.555 202.187 106.583C202.321 106.604 202.453 106.634 202.583 106.672L202.501 107.237Z" fill="white"/>
<path d="M206.47 103.272V106.747H209.598V107.428H206.47V116.388C206.398 117.181 206.582 117.976 206.996 118.657C207.157 118.875 207.368 119.051 207.612 119.169C207.856 119.288 208.125 119.346 208.396 119.338C208.585 119.35 208.774 119.35 208.963 119.338L209.646 119.256L209.762 119.842C209.565 119.906 209.361 119.95 209.154 119.972C208.914 120.001 208.672 120.014 208.43 120.013C208.061 120.036 207.692 119.97 207.353 119.822C207.015 119.674 206.716 119.447 206.483 119.161C205.97 118.349 205.73 117.394 205.8 116.436V107.428H203.444V106.747H205.8V103.272H206.47Z" fill="white"/>
<path d="M214.885 115.986L215.568 118.643H215.637L216.47 115.972L219.312 106.747H219.961L222.809 115.958L223.636 118.629H223.704L224.387 115.972L226.976 106.747H227.72L224.011 119.692H223.376L220.186 109.956L219.653 107.912H219.585L219.032 109.956L215.889 119.692H215.247L211.531 106.747H212.262L214.885 115.986Z" fill="white"/>
<path d="M229.852 113.002C229.779 111.312 230.328 109.655 231.395 108.341C231.9 107.773 232.521 107.319 233.215 107.007C233.909 106.696 234.661 106.535 235.422 106.535C236.183 106.535 236.936 106.696 237.63 107.007C238.324 107.319 238.944 107.773 239.449 108.341C240.519 109.654 241.07 111.312 241 113.002V113.506C241.071 115.198 240.52 116.859 239.449 118.173C238.963 118.759 238.349 119.227 237.654 119.541C236.959 119.855 236.202 120.007 235.439 119.986C234.673 120.007 233.911 119.855 233.212 119.542C232.513 119.228 231.894 118.76 231.402 118.173C230.331 116.859 229.78 115.198 229.852 113.506V113.002ZM230.487 113.506C230.449 115.001 230.932 116.462 231.853 117.642C232.277 118.191 232.826 118.631 233.454 118.926C234.083 119.221 234.773 119.362 235.467 119.338C236.156 119.361 236.842 119.218 237.464 118.922C238.087 118.625 238.63 118.184 239.046 117.635C239.966 116.457 240.449 114.998 240.412 113.506V113.002C240.44 111.523 239.958 110.08 239.046 108.914C238.614 108.378 238.067 107.945 237.445 107.648C236.823 107.351 236.142 107.197 235.453 107.197C234.764 107.197 234.083 107.351 233.461 107.648C232.839 107.945 232.292 108.378 231.86 108.914C230.95 110.081 230.468 111.523 230.494 113.002L230.487 113.506Z" fill="white"/>
<path d="M249.668 107.238L248.841 107.169C248.326 107.15 247.813 107.24 247.335 107.433C246.857 107.625 246.426 107.916 246.068 108.287C245.328 109.112 244.852 110.14 244.702 111.237V119.733H244.06V106.747H244.579L244.702 108.995V109.472C245.003 108.615 245.549 107.864 246.273 107.312C247.026 106.781 247.933 106.511 248.855 106.543C249.022 106.541 249.189 106.555 249.354 106.583C249.488 106.605 249.62 106.634 249.75 106.672L249.668 107.238Z" fill="white"/>
<path d="M254.491 113.111H252.749V119.733H252.113V101.051H252.749V112.463H254.245L260.03 106.747H260.775V106.815L254.935 112.647L261.253 119.692V119.754H260.515L254.491 113.111Z" fill="white"/>
<path d="M271.329 116.558C271.323 116.203 271.242 115.853 271.093 115.53C270.944 115.208 270.728 114.92 270.461 114.685C269.593 113.981 268.549 113.524 267.442 113.363C266.27 113.174 265.151 112.742 264.156 112.095C263.813 111.823 263.541 111.472 263.363 111.072C263.184 110.673 263.105 110.236 263.132 109.799C263.13 109.349 263.234 108.905 263.434 108.502C263.635 108.099 263.926 107.747 264.286 107.476C265.18 106.81 266.28 106.478 267.394 106.536C268.585 106.467 269.761 106.822 270.714 107.537C271.105 107.848 271.414 108.25 271.616 108.707C271.817 109.164 271.903 109.663 271.868 110.16V110.235H271.329C271.328 109.818 271.232 109.406 271.049 109.031C270.866 108.655 270.599 108.326 270.27 108.069C269.457 107.439 268.442 107.125 267.415 107.183C266.439 107.107 265.468 107.385 264.682 107.966C264.401 108.179 264.171 108.452 264.011 108.766C263.851 109.08 263.766 109.427 263.76 109.779C263.756 110.107 263.824 110.433 263.959 110.733C264.093 111.033 264.291 111.3 264.539 111.516C265.456 112.168 266.513 112.597 267.626 112.77C268.788 112.991 269.889 113.456 270.857 114.133C271.22 114.421 271.509 114.792 271.7 115.213C271.891 115.635 271.979 116.096 271.957 116.558C271.966 117.037 271.86 117.511 271.647 117.94C271.434 118.369 271.121 118.741 270.734 119.025C269.787 119.694 268.642 120.027 267.483 119.972C266.237 120.041 265.006 119.683 263.992 118.957C263.604 118.679 263.292 118.308 263.085 117.878C262.879 117.448 262.784 116.973 262.811 116.497V116.422H263.33C263.331 116.873 263.451 117.317 263.679 117.707C263.907 118.097 264.234 118.42 264.628 118.643C265.497 119.113 266.474 119.348 267.462 119.325C268.465 119.38 269.456 119.083 270.263 118.486C270.58 118.271 270.841 117.984 271.026 117.649C271.211 117.314 271.315 116.94 271.329 116.558V116.558Z" fill="white"/>
<path d="M276.547 119.733H275.53V118.173H276.547V119.733Z" fill="white"/>
<path d="M214.448 27.1656H205.978V50.0589H203.888V27.1656H195.438V25.4009H214.448V27.1656Z" fill="white"/>
<path d="M218.437 50.0589V25.4009H225.74C228.39 25.4009 230.398 25.946 231.764 27.0361C233.131 28.1263 233.814 29.7343 233.814 31.8601C233.846 33.0588 233.481 34.2346 232.775 35.2055C232.062 36.1715 231.06 36.8871 229.913 37.2495C231.275 37.5253 232.497 38.2662 233.37 39.3445C234.243 40.4228 234.711 41.771 234.695 43.1568C234.746 44.1095 234.583 45.0617 234.218 45.9435C233.853 46.8253 233.295 47.6145 232.584 48.2533C231.172 49.4797 229.212 50.0929 226.703 50.0929L218.437 50.0589ZM220.528 36.4319H226.231C227.682 36.491 229.109 36.0588 230.282 35.2055C230.765 34.7841 231.146 34.2582 231.395 33.6677C231.643 33.0773 231.753 32.4381 231.717 31.7987C231.769 31.1376 231.66 30.4737 231.401 29.863C231.142 29.2523 230.739 28.7127 230.227 28.2898C229.239 27.5403 227.743 27.1656 225.74 27.1656H220.528V36.4319ZM220.528 38.1966V48.2942H226.791C228.33 48.3761 229.844 47.8911 231.047 46.9315C231.573 46.4564 231.986 45.8706 232.256 45.2165C232.527 44.5625 232.648 43.8566 232.611 43.15C232.644 42.4764 232.527 41.8038 232.268 41.1807C232.01 40.5576 231.616 39.9992 231.115 39.5457C229.944 38.6039 228.464 38.1303 226.962 38.217L220.528 38.1966Z" fill="white"/>
<path d="M239.743 50.0584V25.4005H246.656C248.566 25.3635 250.452 25.8338 252.12 26.7632C253.731 27.6883 255.037 29.0615 255.877 30.715C256.806 32.5274 257.275 34.5393 257.243 36.5746V38.8435C257.275 40.8787 256.806 42.8906 255.877 44.703C255.03 46.3568 253.717 47.7279 252.1 48.6481C250.389 49.588 248.458 50.0583 246.505 50.0108L239.743 50.0584ZM241.833 27.1651V48.2869H246.519C247.689 48.3364 248.855 48.131 249.937 47.6851C251.018 47.2391 251.99 46.5633 252.783 45.7046C254.354 43.9785 255.14 41.6483 255.14 38.714V36.5678C255.14 33.7333 254.365 31.4622 252.817 29.7543C252.043 28.9037 251.091 28.2324 250.029 27.7875C248.967 27.3426 247.82 27.1348 246.669 27.1788L241.833 27.1651Z" fill="white"/>
<path d="M287.06 27.1656H278.59V50.0589H276.5V27.1656H268.043V25.4009H287.06V27.1656Z" fill="white"/>
<path d="M287.771 40.656C287.742 39.0082 288.095 37.3761 288.802 35.8865C289.431 34.5299 290.442 33.3851 291.712 32.5915C292.982 31.7979 294.456 31.3898 295.954 31.4169C297.073 31.3793 298.187 31.5902 299.215 32.0344C300.243 32.4787 301.159 33.1451 301.897 33.9856C303.413 35.6935 304.171 37.9646 304.171 40.799V41.2283C304.195 42.8749 303.845 44.5055 303.147 45.9977C302.518 47.3457 301.512 48.4838 300.251 49.275C298.967 50.0515 297.489 50.4507 295.988 50.4265C294.873 50.4537 293.766 50.2351 292.746 49.7864C291.726 49.3376 290.818 48.6698 290.086 47.8305C288.57 46.1181 287.809 43.8469 287.805 41.0171L287.771 40.656ZM289.82 41.2147C289.742 43.1548 290.346 45.0612 291.528 46.6041C292.069 47.2641 292.751 47.796 293.523 48.1611C294.296 48.5263 295.14 48.7158 295.995 48.7158C296.85 48.7158 297.694 48.5263 298.467 48.1611C299.239 47.796 299.921 47.2641 300.462 46.6041C301.66 45.0043 302.261 43.0384 302.163 41.0443V40.656C302.179 39.3323 301.914 38.0203 301.384 36.8063C300.928 35.7087 300.167 34.7634 299.192 34.0809C298.241 33.4391 297.115 33.1059 295.968 33.1271C295.113 33.1111 294.268 33.2951 293.498 33.6643C292.728 34.0335 292.055 34.5776 291.534 35.2529C290.333 36.8512 289.726 38.817 289.82 40.8127V41.2147Z" fill="white"/>
<path d="M312.731 40.8265L310.401 43.0682V50.0588H308.352V24.0449H310.401V40.6971L312.321 38.653L319.35 31.7646H321.911L314.117 39.457L322.594 50.0588H320.142L312.731 40.8265Z" fill="white"/>
<path d="M332.164 50.3991C330.673 50.4152 329.206 50.0165 327.929 49.2476C326.665 48.475 325.645 47.3628 324.985 46.0384C324.269 44.6048 323.908 43.0206 323.933 41.4189V40.6967C323.906 39.0497 324.256 37.4184 324.958 35.9272C325.591 34.5798 326.58 33.4302 327.82 32.6023C328.992 31.8078 330.378 31.3851 331.795 31.3895C332.794 31.3465 333.789 31.5288 334.707 31.9228C335.624 32.3169 336.441 32.9124 337.096 33.6652C338.408 35.1823 339.061 37.2581 339.057 39.8927V41.0237H325.955V41.4121C325.888 43.3038 326.526 45.1531 327.745 46.604C328.291 47.267 328.98 47.7983 329.76 48.1582C330.541 48.518 331.393 48.6971 332.253 48.6821C333.244 48.7017 334.227 48.4992 335.129 48.0893C336.024 47.6415 336.8 46.9903 337.397 46.1883L338.667 47.1558C337.953 48.2072 336.98 49.0577 335.841 49.6257C334.702 50.1936 333.436 50.46 332.164 50.3991V50.3991ZM331.795 33.161C331.068 33.1481 330.347 33.2911 329.68 33.5803C329.013 33.8695 328.416 34.298 327.929 34.8371C326.832 36.0807 326.164 37.6426 326.023 39.2931H337.042V39.0682C337.053 37.5029 336.516 35.9826 335.525 34.7689C335.065 34.2385 334.49 33.8185 333.844 33.5401C333.199 33.2617 332.498 33.1321 331.795 33.161V33.161Z" fill="white"/>
<path d="M344.952 31.7371L345.02 34.8713C345.646 33.8051 346.535 32.9162 347.602 32.289C348.64 31.6916 349.819 31.3834 351.017 31.3964C352.985 31.3964 354.451 31.9506 355.417 33.0589C356.38 34.1627 356.865 35.8252 356.872 38.0327V50.0585H354.822V38.0191C354.91 36.7155 354.54 35.4221 353.777 34.3603C353.094 33.5563 351.994 33.1611 350.492 33.1611C349.276 33.1449 348.095 33.5603 347.158 34.333C346.156 35.1688 345.41 36.2692 345.006 37.5081V50.0585H342.957V31.7371H344.952Z" fill="white"/>
<path d="M373.115 45.4255C373.127 44.9539 373.022 44.4867 372.81 44.065C372.598 43.6432 372.285 43.2799 371.899 43.0067C370.795 42.2798 369.55 41.7923 368.245 41.5759C366.935 41.3382 365.659 40.94 364.447 40.3904C363.647 40.0301 362.957 39.4661 362.446 38.7551C361.985 38.0634 361.747 37.2482 361.762 36.4181C361.756 35.7203 361.917 35.031 362.233 34.4085C362.55 33.786 363.011 33.2484 363.579 32.841C364.922 31.8523 366.564 31.3521 368.231 31.4238C370.004 31.3335 371.751 31.8718 373.163 32.9432C373.76 33.4117 374.24 34.0131 374.562 34.6993C374.885 35.3855 375.042 36.1374 375.021 36.8951H372.972C372.974 36.3725 372.851 35.857 372.614 35.3912C372.376 34.9255 372.031 34.5231 371.606 34.2174C370.636 33.5561 369.496 33.1877 368.322 33.1563C367.148 33.1249 365.99 33.4318 364.987 34.0402C364.627 34.3005 364.336 34.6445 364.14 35.0422C363.943 35.44 363.847 35.8795 363.86 36.3227C363.84 36.7326 363.922 37.1409 364.099 37.5116C364.275 37.8824 364.54 38.2041 364.87 38.4485C366.005 39.1273 367.255 39.5894 368.559 39.8112C369.944 40.1011 371.288 40.5588 372.562 41.1739C373.358 41.5664 374.039 42.1551 374.543 42.8841C375.125 43.88 375.321 45.0543 375.093 46.1846C374.865 47.3148 374.23 48.3224 373.307 49.0162C371.866 49.9893 370.147 50.4676 368.409 50.3789C366.539 50.4746 364.692 49.9288 363.176 48.8323C362.553 48.3866 362.047 47.798 361.7 47.1162C361.353 46.4343 361.175 45.6792 361.182 44.9145H363.231C363.248 45.4605 363.393 45.9948 363.654 46.4751C363.915 46.9553 364.285 47.3682 364.734 47.6808C365.817 48.3878 367.096 48.7359 368.388 48.6756C369.597 48.73 370.792 48.4034 371.804 47.7421C372.198 47.4952 372.525 47.1541 372.754 46.7496C372.983 46.3451 373.107 45.89 373.115 45.4255V45.4255Z" fill="white"/>
<path d="M251.512 226.759C246.878 226.415 242.218 226.729 237.673 227.693C236.066 228.002 234.561 228.7 233.287 229.725C232.014 230.751 231.013 232.072 230.371 233.573C229.706 235.133 229.154 236.738 228.718 238.376C227.078 244.243 227.167 250.286 226.867 256.296C226.58 262.067 226.443 267.879 225.883 273.609C225.289 279.741 221.935 284.02 216.265 286.486C212.57 288.088 208.649 288.783 204.694 289.3C202.822 289.546 202.808 289.505 202.815 287.638C202.865 273.629 202.918 259.623 202.972 245.619C202.937 242.89 203.049 240.16 203.307 237.443C203.662 234.282 205.479 232.197 208.731 231.652C210.595 231.345 212.488 231.188 214.366 230.97C216.907 230.698 216.525 231.072 216.566 228.572C216.6 226.753 216.566 226.739 214.728 226.739H176.544C173.64 226.739 173.545 226.868 173.77 229.832C173.832 230.589 174.112 230.902 174.911 230.943C176.96 231.052 179.01 231.188 181.059 231.433C184.474 231.842 186.455 233.716 187.097 237.048C187.296 238.03 187.398 239.03 187.405 240.032C187.405 247.827 187.405 255.621 187.405 263.416H187.5C187.5 271.474 187.5 279.539 187.5 287.611C187.5 289.137 187.234 289.382 185.731 289.239C181.949 288.935 178.231 288.086 174.692 286.718C169.672 284.674 166.181 281.267 164.945 275.912C164.465 273.962 164.161 271.974 164.036 269.971C163.749 263.689 163.681 257.4 163.353 251.118C163.215 245.867 162.395 240.657 160.915 235.617C159.35 230.616 155.914 227.863 150.887 227.236C147.425 226.903 143.948 226.751 140.47 226.78C137.737 226.719 137.737 226.78 137.737 229.553C137.737 230.459 138.079 230.773 138.988 230.739C140.415 230.677 141.85 230.698 143.277 230.739C144.024 230.687 144.766 230.895 145.376 231.327C145.986 231.76 146.427 232.389 146.624 233.11C147.174 234.709 147.522 236.371 147.663 238.056C147.847 243.262 147.888 248.474 147.881 253.679C147.881 260.779 148.271 267.804 151.187 274.433C153.551 279.809 156.611 284.654 162.247 287.141C165.529 288.602 168.929 289.785 172.411 290.677C176.906 291.808 181.503 292.51 186.073 293.327C187.138 293.518 187.569 293.838 187.528 295.017C187.412 298.103 187.487 301.19 187.459 304.276C187.459 306.627 187.459 308.985 187.33 311.328C187.253 312.489 187.024 313.634 186.646 314.735C185.451 318.326 182.978 320.336 179.133 320.567C177.391 320.67 175.662 320.874 173.927 320.949C172.773 320.997 172.561 321.576 172.561 322.591C172.561 323.606 173.087 323.913 174.023 323.865C174.959 323.817 175.956 323.865 176.926 323.865L216.156 323.831C216.948 323.831 217.85 324.029 217.85 322.721C217.85 321.412 217.747 321.174 216.286 321.058C214.393 320.915 212.501 320.826 210.616 320.615C207.412 320.261 205.083 318.619 204.038 315.546C203.454 313.912 203.109 312.202 203.013 310.47C202.849 305.421 202.883 300.359 202.842 295.31C202.842 293.62 202.842 293.606 204.509 293.368C211.149 292.494 217.692 290.999 224.052 288.905C229.633 287.011 234.251 283.904 237.072 278.583C240.409 272.281 242.176 265.27 242.222 258.142C242.304 251.697 242.393 245.251 242.619 238.812C242.731 236.961 243.071 235.131 243.63 233.362C244.121 231.665 245.508 230.875 247.264 230.807C248.193 230.766 249.122 230.807 250.051 230.807C252.838 230.807 252.783 230.807 252.715 228.013C252.674 227.107 252.298 226.8 251.512 226.759Z" fill="white"/>
<path d="M194.994 181.879C150.054 182.315 114.233 217.125 112.538 261.29C112.054 272.398 113.835 283.489 117.776 293.89C121.716 304.291 127.733 313.785 135.461 321.798C143.189 329.81 152.468 336.174 162.736 340.503C173.003 344.833 184.045 347.037 195.192 346.983C239.961 346.983 276.144 312.337 277.996 267.265C279.84 221.629 242.789 182.111 194.994 181.879ZM194.741 340.449C154.5 340.49 119.861 307.227 119.677 264.472C119.506 224.02 151.953 189.878 193.655 188.897C235.221 187.922 270.161 220.586 271.103 262.367C272.121 305.98 238.103 340.326 194.741 340.449Z" fill="white"/>
</svg>
