<svg width="392" height="392" viewBox="0 0 392 392" fill="none" xmlns="http://www.w3.org/2000/svg">
<path d="M377.923 392.007H14.0835C10.3516 391.996 6.77569 390.509 4.13687 387.87C1.49804 385.231 0.0107858 381.655 0 377.923V14.0835C0.0107858 10.3516 1.49804 6.77569 4.13687 4.13687C6.77569 1.49804 10.3516 0.0107858 14.0835 0H377.923C381.655 0.0107858 385.231 1.49804 387.87 4.13687C390.509 6.77569 391.996 10.3516 392.007 14.0835V377.923C391.996 381.655 390.509 385.231 387.87 387.87C385.231 390.509 381.655 391.996 377.923 392.007V392.007ZM14.0835 6.13213C11.9774 6.1411 9.96015 6.9817 8.47093 8.47093C6.9817 9.96015 6.1411 11.9774 6.13213 14.0835V377.923C6.1411 380.029 6.9817 382.047 8.47093 383.536C9.96015 385.025 11.9774 385.866 14.0835 385.875H377.923C380.036 385.871 382.062 385.03 383.556 383.536C385.05 382.042 385.892 380.016 385.895 377.903V14.0835C385.886 11.9739 385.043 9.95355 383.549 8.46375C382.055 6.97394 380.033 6.13571 377.923 6.13213H14.0835Z" fill="white"/>
<path d="M99.9333 58.6846H98.2163V18.5327H99.9333V58.6846Z" fill="#7E7F7F"/>
<path d="M32.9772 48.5803V52.28H25.5846V22.7163H45.9092V52.28H38.5166V48.5803H32.9772ZM38.5166 41.1945V30.1021H32.9772V41.1945H38.5166Z" fill="white"/>
<path d="M57.0084 22.7163V52.28H49.6089V22.7163H57.0084Z" fill="white"/>
<path d="M60.6945 30.1021V22.7163H81.0191V41.1945H68.0735V52.28H60.6945V33.8018H73.6401V30.1021H60.6945ZM77.3262 44.8874L81.0191 52.28H73.6264L69.954 44.8874H77.3262Z" fill="white"/>
<path d="M329.95 353.579H333.799C333.101 355.087 332.588 356.675 332.273 358.307C331.95 359.631 331.745 360.981 331.66 362.341C331.702 363.652 331.89 364.954 332.218 366.224C332.55 367.703 333.02 369.147 333.622 370.537H329.854C329.8 370.319 329.704 370.026 329.568 369.638C329.343 369.004 329.152 368.364 328.989 367.723C328.426 368.662 327.638 369.445 326.696 370.002C325.754 370.558 324.688 370.871 323.594 370.912C322.501 370.952 321.415 370.719 320.434 370.234C319.453 369.749 318.609 369.026 317.978 368.132C316.65 366.226 315.96 363.948 316.009 361.625C315.948 359.466 316.642 357.353 317.972 355.65C318.623 354.84 319.456 354.196 320.403 353.768C321.35 353.341 322.384 353.143 323.422 353.19C325.721 353.19 327.579 354.292 328.996 356.495C329.258 355.505 329.577 354.532 329.95 353.579V353.579ZM320.608 362.102C320.548 363.443 320.895 364.771 321.603 365.911C321.866 366.344 322.233 366.704 322.671 366.96C323.108 367.215 323.602 367.358 324.109 367.375C324.615 367.392 325.118 367.282 325.571 367.057C326.025 366.831 326.415 366.496 326.706 366.081C327.354 365.216 327.681 363.894 327.681 362.102C327.776 360.694 327.413 359.294 326.645 358.11C326.368 357.697 325.996 357.357 325.559 357.12C325.122 356.882 324.635 356.754 324.138 356.747C323.631 356.749 323.134 356.879 322.691 357.124C322.248 357.369 321.874 357.722 321.603 358.15C320.876 359.335 320.529 360.714 320.608 362.102V362.102ZM326.005 347.344C326.068 348.343 325.831 349.337 325.323 350.199C324.673 350.978 323.822 351.564 322.864 351.896L322.094 350.431C322.607 350.247 323.087 349.982 323.518 349.647C323.693 349.451 323.827 349.221 323.912 348.972C323.996 348.722 324.029 348.458 324.008 348.196H322.319V345.13H325.991L326.005 347.344Z" fill="white"/>
<path d="M352.591 376.983H348.108V361.877C348.137 360.813 348.076 359.749 347.924 358.695C347.82 358.112 347.513 357.583 347.058 357.203C346.572 356.804 345.956 356.598 345.328 356.624C344.531 356.608 343.753 356.863 343.12 357.346C342.512 357.799 342.08 358.45 341.9 359.186C341.676 360.394 341.583 361.623 341.621 362.852V370.537H337.138V353.579H341.301V356.065C341.935 355.17 342.776 354.441 343.752 353.941C344.729 353.44 345.811 353.183 346.908 353.19C348.073 353.153 349.224 353.448 350.226 354.042C351.07 354.531 351.726 355.289 352.087 356.195C352.477 357.423 352.648 358.71 352.591 359.997V376.983ZM342.371 351.5L344.571 346.731H349.606L345.212 351.5H342.371Z" fill="white"/>
<path d="M361.217 369.495V376.99H356.727V363.615C356.663 361.68 356.914 359.747 357.469 357.892C357.967 356.491 358.913 355.294 360.161 354.485C361.566 353.588 363.209 353.135 364.875 353.184C366.09 353.128 367.303 353.336 368.43 353.794C369.556 354.251 370.571 354.947 371.403 355.834C373.02 357.574 373.893 359.878 373.835 362.252C373.88 364.523 373.04 366.723 371.491 368.385C370.775 369.196 369.891 369.843 368.901 370.281C367.91 370.718 366.837 370.936 365.754 370.919C364.137 370.884 362.564 370.39 361.217 369.495V369.495ZM361.217 362.566C361.155 363.793 361.534 365.001 362.286 365.973C362.638 366.399 363.084 366.738 363.589 366.962C364.094 367.187 364.644 367.291 365.196 367.267C365.762 367.279 366.323 367.154 366.831 366.903C367.339 366.651 367.778 366.281 368.112 365.823C368.905 364.721 369.301 363.383 369.236 362.028C369.308 360.688 368.945 359.362 368.2 358.246C367.858 357.793 367.409 357.431 366.893 357.194C366.377 356.956 365.81 356.849 365.243 356.883C364.706 356.876 364.172 356.984 363.68 357.2C363.187 357.417 362.747 357.736 362.389 358.137C361.603 358.955 361.212 360.431 361.217 362.566Z" fill="white"/>
<path d="M35.1235 82.5387H26.7156V91.1168H26.082V73.6743H36.3022V74.3557H26.7156V81.905H35.1235V82.5387Z" fill="white"/>
<path d="M37.7467 84.3847C37.6729 82.6941 38.2234 81.0353 39.2933 79.7243C39.7965 79.1565 40.4143 78.702 41.1061 78.3907C41.7979 78.0794 42.5479 77.9185 43.3065 77.9185C44.0651 77.9185 44.815 78.0794 45.5068 78.3907C46.1986 78.702 46.8165 79.1565 47.3196 79.7243C48.3896 81.0353 48.9401 82.6941 48.8663 84.3847V84.8889C48.9411 86.5817 48.3906 88.243 47.3196 89.5561C46.8355 90.1417 46.2243 90.6092 45.5325 90.9232C44.8407 91.2373 44.0864 91.3895 43.3269 91.3685C42.5613 91.3907 41.8007 91.2392 41.1021 90.9253C40.4035 90.6114 39.7851 90.1433 39.2933 89.5561C38.2252 88.2414 37.675 86.5813 37.7467 84.8889V84.3847ZM38.3803 84.8889C38.3427 86.3836 38.8243 87.8451 39.743 89.0247C40.1665 89.5744 40.7151 90.0151 41.3432 90.3102C41.9713 90.6053 42.6607 90.7462 43.3542 90.7212C44.0421 90.7433 44.7253 90.6001 45.3465 90.3038C45.9677 90.0074 46.5088 89.5664 46.9244 89.0179C47.8422 87.8404 48.3237 86.3813 48.2871 84.8889V84.3847C48.3154 82.906 47.8342 81.4626 46.9244 80.2966C46.4934 79.7607 45.9477 79.3282 45.3275 79.0311C44.7073 78.734 44.0283 78.5798 43.3405 78.5798C42.6528 78.5798 41.9738 78.734 41.3536 79.0311C40.7334 79.3282 40.1877 79.7607 39.7567 80.2966C38.8488 81.4637 38.3679 82.9063 38.394 84.3847L38.3803 84.8889Z" fill="white"/>
<path d="M56.218 90.7213C57.2355 90.7381 58.2307 90.4223 59.0524 89.822C59.4702 89.5077 59.8022 89.0934 60.0178 88.6171C60.2333 88.1407 60.3254 87.6178 60.2857 87.0966H60.8239V87.1715C60.862 87.7508 60.7578 88.3306 60.5202 88.8603C60.2827 89.39 59.9191 89.8535 59.4612 90.2103C58.5361 90.9567 57.3794 91.3567 56.1908 91.3414C55.4592 91.3716 54.7311 91.2251 54.0682 90.9144C53.4052 90.6037 52.8268 90.1378 52.382 89.5562C51.4159 88.1877 50.9361 86.5349 51.0193 84.8617V84.3575C50.9392 82.689 51.4188 81.0415 52.382 79.6767C52.8227 79.094 53.3984 78.6271 54.0595 78.3162C54.7206 78.0052 55.4473 77.8595 56.1771 77.8915C57.3978 77.8558 58.5881 78.2761 59.5157 79.0703C59.9782 79.4845 60.3383 80.0003 60.5677 80.5773C60.7971 81.1543 60.8894 81.7766 60.8375 82.3953V82.4634H60.2993C60.3345 81.9181 60.2447 81.372 60.0369 80.8666C59.8291 80.3613 59.5087 79.91 59.1001 79.5472C58.29 78.8694 57.2603 78.5108 56.2044 78.5388C55.5447 78.4967 54.8853 78.6243 54.2889 78.9094C53.6926 79.1944 53.1792 79.6275 52.7976 80.1673C51.9861 81.4097 51.5835 82.8749 51.6462 84.3575V84.8617C51.5819 86.351 51.9845 87.8231 52.7976 89.0725C53.1812 89.6147 53.6964 90.0505 54.2947 90.339C54.893 90.6274 55.5549 90.759 56.218 90.7213V90.7213Z" fill="white"/>
<path d="M72.6249 88.8412C72.2481 89.6123 71.6566 90.2582 70.9215 90.7012C70.1086 91.1703 69.182 91.406 68.2438 91.3826C67.6551 91.4081 67.0688 91.2922 66.5341 91.0444C65.9994 90.7966 65.532 90.4243 65.1709 89.9586C64.435 89.0115 64.0603 87.5466 64.0603 85.5571V78.1304H64.7008V85.5434C64.7008 87.3013 65.0165 88.5982 65.6478 89.4339C65.9415 89.8385 66.3298 90.1649 66.7788 90.3846C67.2278 90.6044 67.7237 90.7107 68.2233 90.6944C69.3092 90.7642 70.381 90.4183 71.2213 89.7269C71.9402 89.0508 72.4186 88.1584 72.584 87.1855V78.1304H73.2244V85.7547C73.2244 85.8637 73.2244 85.9591 73.2244 86.0545C73.2244 86.1498 73.2244 86.2657 73.2244 86.3951V91.0896H72.6998L72.6249 88.8412Z" fill="white"/>
<path d="M85.0595 87.9415C85.0535 87.5869 84.9741 87.2373 84.8264 86.9148C84.6786 86.5923 84.4657 86.3039 84.201 86.0678C83.333 85.3665 82.2932 84.9101 81.1894 84.746C80.0183 84.5573 78.8996 84.1256 77.9053 83.4787C77.5644 83.2054 77.2943 82.8541 77.1176 82.4545C76.9409 82.0549 76.8629 81.6186 76.8901 81.1826C76.8877 80.7324 76.9906 80.2878 77.1905 79.8844C77.3904 79.481 77.6819 79.1299 78.0416 78.8592C78.9336 78.1937 80.0303 77.861 81.1417 77.9189C82.3289 77.853 83.5014 78.2076 84.4531 78.9205C84.8433 79.2312 85.1534 79.6309 85.3573 80.0861C85.5612 80.5414 85.653 81.0388 85.625 81.5369V81.6118H85.0867C85.0859 81.195 84.9911 80.7838 84.8095 80.4087C84.6278 80.0336 84.3639 79.7042 84.0374 79.4451C83.2251 78.8179 82.2143 78.5035 81.1894 78.5594C80.2166 78.487 79.2499 78.7649 78.464 79.3429C78.185 79.5566 77.958 79.8307 77.7999 80.1445C77.6418 80.4584 77.5567 80.8039 77.551 81.1553C77.5474 81.4838 77.615 81.8092 77.749 82.1091C77.8831 82.409 78.0805 82.6764 78.3278 82.8928C79.2395 83.546 80.2922 83.9754 81.4006 84.1464C82.5591 84.3679 83.6575 84.8323 84.6234 85.5091C84.9865 85.7966 85.2755 86.1668 85.4664 86.5888C85.6572 87.0107 85.7443 87.4722 85.7204 87.9347C85.7305 88.4136 85.6249 88.8879 85.4126 89.3173C85.2002 89.7467 84.8875 90.1185 84.5008 90.4012C83.5562 91.0711 82.4142 91.4046 81.2575 91.3483C80.0151 91.4172 78.7865 91.059 77.7759 90.3331C77.3884 90.0553 77.0772 89.6843 76.8712 89.2543C76.6651 88.8244 76.5709 88.3494 76.5971 87.8734V87.7985H77.1081C77.1105 88.2497 77.2313 88.6923 77.4584 89.0821C77.6856 89.472 78.0113 89.7953 78.4027 90.0197C79.2701 90.4885 80.2446 90.7233 81.2303 90.701C82.2328 90.7561 83.2232 90.4597 84.0306 89.8629C84.3386 89.6436 84.5917 89.3561 84.7702 89.0228C84.9487 88.6895 85.0477 88.3194 85.0595 87.9415V87.9415Z" fill="white"/>
<path d="M93.9988 84.3851C93.9282 82.6949 94.4783 81.0372 95.5454 79.7246C96.0492 79.1567 96.6677 78.7021 97.36 78.3908C98.0524 78.0794 98.8029 77.9185 99.562 77.9185C100.321 77.9185 101.072 78.0794 101.764 78.3908C102.456 78.7021 103.075 79.1567 103.579 79.7246C104.643 81.0382 105.191 82.6957 105.118 84.3851V84.8893C105.192 86.5808 104.644 88.2408 103.579 89.5565C103.077 90.1262 102.459 90.5825 101.767 90.895C101.075 91.2076 100.325 91.3693 99.5654 91.3693C98.8061 91.3693 98.0556 91.2076 97.3636 90.895C96.6717 90.5825 96.0542 90.1262 95.5523 89.5565C94.4794 88.244 93.9265 86.5829 93.9988 84.8893V84.3851ZM94.6324 84.8893C94.5948 86.3839 95.0764 87.8455 95.9951 89.0251C96.4297 89.5567 96.9769 89.9851 97.5974 90.2793C98.2178 90.5734 98.8958 90.7261 99.5824 90.7261C100.269 90.7261 100.947 90.5734 101.568 90.2793C102.188 89.9851 102.735 89.5567 103.17 89.0251C104.087 87.8476 104.569 86.3885 104.532 84.8961V84.3919C104.561 82.9132 104.08 81.4698 103.17 80.3038C102.739 79.768 102.194 79.3356 101.575 79.0385C100.955 78.7414 100.276 78.5871 99.5892 78.5871C98.902 78.5871 98.2236 78.7414 97.6039 79.0385C96.9842 79.3356 96.4391 79.768 96.0088 80.3038C95.1014 81.4711 94.6206 82.9136 94.6461 84.3919L94.6324 84.8893Z" fill="white"/>
<path d="M108.702 78.1299L108.784 80.7395C109.136 79.8914 109.722 79.1611 110.474 78.6341C111.286 78.1171 112.237 77.8582 113.199 77.8915C113.79 77.8521 114.382 77.9553 114.926 78.1925C115.469 78.4296 115.947 78.7937 116.32 79.2542C117.015 80.1399 117.362 81.5503 117.362 83.4853V91.1164H116.729V83.4581C116.729 81.6661 116.408 80.3988 115.781 79.663C115.464 79.298 115.068 79.0097 114.623 78.8197C114.178 78.6297 113.696 78.543 113.213 78.566C112.648 78.529 112.083 78.6159 111.555 78.8207C111.028 79.0255 110.552 79.3432 110.16 79.7516C109.419 80.6151 108.946 81.6758 108.798 82.804V91.1164H108.164V84.4801H108.109V84.0168C108.109 83.8601 108.109 83.7034 108.144 83.5467V78.1299H108.702Z" fill="white"/>
<path d="M126.506 84.6234C126.416 82.9012 126.858 81.1931 127.773 79.7313C128.159 79.1544 128.686 78.6854 129.303 78.3683C129.921 78.0512 130.609 77.8966 131.303 77.9189C132.204 77.8994 133.092 78.1356 133.864 78.6003C134.593 79.0567 135.19 79.6956 135.595 80.4536V72.4341H136.229V82.1774V87.4578C136.229 87.4578 136.229 87.4578 136.229 87.4987V91.103H135.622V89.0999C135.201 89.795 134.601 90.3644 133.885 90.7487C133.089 91.1664 132.201 91.3751 131.303 91.3551C130.619 91.3796 129.94 91.2321 129.328 90.9261C128.716 90.6202 128.191 90.1656 127.8 89.6041C126.881 88.1897 126.437 86.5188 126.533 84.8346L126.506 84.6234ZM127.187 84.8755C127.113 86.3674 127.473 87.8489 128.223 89.1407C128.55 89.6493 129.004 90.063 129.541 90.3404C130.078 90.6178 130.678 90.7492 131.282 90.7215C132.247 90.7487 133.197 90.4826 134.008 89.9584C134.732 89.4555 135.284 88.7418 135.588 87.9143V81.7822C135.3 80.8995 134.788 80.1063 134.103 79.4792C133.316 78.8211 132.306 78.4895 131.282 78.5526C130.666 78.5278 130.055 78.6706 129.514 78.9658C128.973 79.261 128.522 79.6975 128.209 80.2287C127.456 81.562 127.093 83.08 127.16 84.6098L127.187 84.8755Z" fill="white"/>
<path d="M144.698 91.3688C143.973 91.3759 143.257 91.2197 142.601 90.9119C141.945 90.604 141.367 90.1524 140.91 89.5905C139.857 88.3468 139.306 86.7558 139.363 85.1277V84.3577C139.296 82.6807 139.84 81.0364 140.896 79.7314C141.358 79.1536 141.947 78.6897 142.617 78.3755C143.286 78.0613 144.019 77.9051 144.759 77.919C145.39 77.8918 146.019 78.0048 146.601 78.2498C147.183 78.4949 147.704 78.8659 148.125 79.3362C149.014 80.4259 149.464 81.8088 149.386 83.2131V84.201H139.997V85.1277C139.95 86.569 140.419 87.9797 141.318 89.1067C141.719 89.6254 142.236 90.042 142.828 90.3226C143.42 90.6033 144.07 90.7399 144.725 90.7215C145.476 90.7245 146.22 90.5762 146.912 90.2855C147.56 90.0361 148.145 89.645 148.622 89.1408L148.963 89.645C148.481 90.1716 147.893 90.5916 147.239 90.8782C146.438 91.2261 145.571 91.3936 144.698 91.3688V91.3688ZM144.759 78.5663C144.153 78.5439 143.549 78.6543 142.99 78.8897C142.431 79.1251 141.93 79.4798 141.523 79.929C140.658 80.9082 140.153 82.1533 140.092 83.4584L140.126 83.5333H148.752V83.1381C148.797 81.9449 148.418 80.7742 147.682 79.8336C147.325 79.4117 146.876 79.0778 146.369 78.858C145.862 78.6382 145.311 78.5384 144.759 78.5663V78.5663Z" fill="white"/>
<path d="M155.381 88.3506L155.981 90.1017H156.056L156.662 88.3506L160.573 78.1304H161.255L156.315 91.076H155.708L150.776 78.1304H151.457L155.381 88.3506Z" fill="white"/>
<path d="M168.068 91.369C167.344 91.376 166.627 91.2199 165.971 90.912C165.315 90.6041 164.737 90.1525 164.28 89.5907C163.228 88.3469 162.676 86.7559 162.733 85.1278V84.3579C162.666 82.6808 163.211 81.0365 164.266 79.7316C164.728 79.1547 165.315 78.6914 165.984 78.3772C166.652 78.063 167.384 77.9063 168.123 77.9192C168.755 77.8914 169.385 78.0041 169.968 78.2492C170.551 78.4942 171.073 78.8655 171.495 79.3364C172.382 80.427 172.829 81.8098 172.749 83.2132V84.2012H163.38V85.1278C163.338 86.5675 163.803 87.9761 164.695 89.1069C165.097 89.6247 165.614 90.0407 166.206 90.3213C166.798 90.6018 167.447 90.739 168.102 90.7217C168.853 90.7239 169.597 90.5756 170.289 90.2856C170.938 90.0363 171.522 89.6452 172 89.141L172.34 89.6452C171.856 90.1702 171.27 90.5901 170.616 90.8784C169.813 91.2273 168.943 91.3948 168.068 91.369V91.369ZM168.123 78.5664C167.517 78.5455 166.913 78.6565 166.355 78.8918C165.796 79.1271 165.295 79.481 164.886 79.9291C164.026 80.9107 163.524 82.1549 163.462 83.4585L163.496 83.5335H172.156V83.1383C172.205 81.9445 171.825 80.7727 171.087 79.8337C170.728 79.4068 170.274 79.0698 169.762 78.8497C169.25 78.6297 168.693 78.5326 168.136 78.5664H168.123Z" fill="white"/>
<path d="M176.619 91.1167H175.985V72.4341H176.619V91.1167Z" fill="white"/>
<path d="M179.787 84.3851C179.717 82.6949 180.267 81.0372 181.334 79.7246C181.838 79.1567 182.456 78.7021 183.149 78.3908C183.841 78.0794 184.591 77.9185 185.351 77.9185C186.11 77.9185 186.86 78.0794 187.553 78.3908C188.245 78.7021 188.863 79.1567 189.367 79.7246C190.432 81.0382 190.979 82.6957 190.907 84.3851V84.8893C190.98 86.5808 190.433 88.2408 189.367 89.5565C188.865 90.1262 188.248 90.5825 187.556 90.895C186.864 91.2076 186.113 91.3693 185.354 91.3693C184.595 91.3693 183.844 91.2076 183.152 90.895C182.46 90.5825 181.843 90.1262 181.341 89.5565C180.268 88.244 179.715 86.5829 179.787 84.8893V84.3851ZM180.421 84.8893C180.383 86.3839 180.865 87.8455 181.784 89.0251C182.218 89.5567 182.765 89.9851 183.386 90.2793C184.006 90.5734 184.684 90.7261 185.371 90.7261C186.058 90.7261 186.736 90.5734 187.356 90.2793C187.976 89.9851 188.524 89.5567 188.958 89.0251C189.876 87.8476 190.358 86.3885 190.321 84.8961V84.3919C190.349 82.9132 189.868 81.4698 188.958 80.3038C188.528 79.768 187.983 79.3356 187.363 79.0385C186.743 78.7414 186.065 78.5871 185.378 78.5871C184.691 78.5871 184.012 78.7414 183.392 79.0385C182.773 79.3356 182.228 79.768 181.797 80.3038C180.89 81.4711 180.409 82.9136 180.435 84.3919L180.421 84.8893Z" fill="white"/>
<path d="M203.662 84.8757C203.758 86.5598 203.314 88.2307 202.394 89.6451C202.004 90.2067 201.479 90.6613 200.867 90.9672C200.255 91.2731 199.576 91.4206 198.892 91.3962C197.997 91.4144 197.112 91.2083 196.317 90.7966C195.608 90.4137 195.011 89.8524 194.586 89.1682V96.1247H193.959V87.567V87.5125C193.959 87.5125 193.959 87.4784 193.959 87.4648V82.1775C193.959 82.1775 193.959 82.1435 193.959 82.0958V78.1303H194.45L194.579 80.4196C194.981 79.6586 195.578 79.0187 196.31 78.5664C197.084 78.1005 197.975 77.8642 198.879 77.885C199.57 77.865 200.255 78.0207 200.87 78.3377C201.485 78.6547 202.01 79.1225 202.394 79.6974C203.315 81.1572 203.76 82.8663 203.669 84.5895L203.662 84.8757ZM203.014 84.6236C203.085 83.0917 202.716 81.5716 201.952 80.2425C201.639 79.7123 201.19 79.2765 200.65 78.9814C200.11 78.6863 199.5 78.5429 198.886 78.5664C197.861 78.5072 196.852 78.8355 196.058 79.4862C195.379 80.1048 194.872 80.8889 194.586 81.7619V87.9554C194.882 88.7859 195.433 89.5015 196.16 89.9994C196.972 90.5189 197.922 90.7802 198.886 90.7489C199.489 90.776 200.089 90.6443 200.626 90.3669C201.163 90.0895 201.618 89.6762 201.945 89.1682C202.706 87.8803 203.071 86.3968 202.994 84.9029L203.014 84.6236Z" fill="white"/>
<path d="M207.9 74.0829H207.266V72.4341H207.9V74.0829ZM207.9 91.1167H207.266V78.1302H207.9V91.1167Z" fill="white"/>
<path d="M212.615 78.1299L212.696 80.7395C213.037 79.8617 213.645 79.1138 214.436 78.6024C215.226 78.091 216.158 77.8422 217.098 77.8915C217.689 77.8521 218.281 77.9553 218.824 78.1925C219.367 78.4296 219.846 78.7937 220.219 79.2542C220.904 80.1399 221.25 81.5503 221.254 83.4853V91.1164H220.621V83.4581C220.621 81.6684 220.305 80.4034 219.673 79.663C219.357 79.2981 218.962 79.0098 218.519 78.8198C218.075 78.6298 217.594 78.543 217.112 78.566C216.547 78.528 215.981 78.6145 215.454 78.8194C214.926 79.0242 214.45 79.3425 214.059 79.7516C213.316 80.6136 212.842 81.675 212.696 82.804V91.1164H212.063V84.4801H212.029C212.029 84.3302 212.029 84.1735 212.029 84.0168C212.029 83.8601 212.029 83.7034 212.029 83.5467V78.1299H212.615Z" fill="white"/>
<path d="M224.62 84.6236C224.532 82.9007 224.977 81.1926 225.894 79.7315C226.277 79.1529 226.802 78.6823 227.419 78.3649C228.035 78.0475 228.723 77.894 229.417 77.9192C230.318 77.8958 231.208 78.1323 231.979 78.6005C232.709 79.0602 233.306 79.704 233.709 80.4674L233.805 78.1576H234.35V82.1776V87.458C234.347 87.4715 234.347 87.4854 234.35 87.4989V91.1714C234.437 92.5605 233.98 93.929 233.076 94.9869C232.616 95.4496 232.064 95.8101 231.456 96.0449C230.848 96.2798 230.197 96.3836 229.546 96.3496C228.896 96.3454 228.248 96.2793 227.611 96.152C227.006 96.0409 226.415 95.8579 225.853 95.607L226.044 94.9256C226.577 95.1655 227.131 95.3548 227.7 95.4911C228.296 95.6265 228.907 95.6906 229.519 95.6819C230.093 95.7229 230.669 95.6394 231.207 95.4372C231.746 95.2349 232.234 94.9186 232.639 94.51C233.406 93.565 233.786 92.3647 233.702 91.1509V89.1069C233.27 89.7901 232.669 90.3508 231.958 90.7353C231.166 91.147 230.282 91.3532 229.389 91.3349C228.706 91.3594 228.027 91.2119 227.415 90.9059C226.803 90.6 226.278 90.1454 225.887 89.5838C224.968 88.1694 224.524 86.4986 224.62 84.8144V84.6236ZM225.267 84.8757C225.191 86.3697 225.556 87.8531 226.317 89.141C226.644 89.6505 227.099 90.0649 227.638 90.3424C228.176 90.6199 228.778 90.7507 229.383 90.7217C230.346 90.7573 231.298 90.4957 232.108 89.9722C232.832 89.4783 233.39 88.7778 233.709 87.9622V81.762C233.416 80.8894 232.905 80.1061 232.224 79.4863C231.436 78.8353 230.43 78.5067 229.41 78.5664C228.793 78.5404 228.18 78.6826 227.638 78.9779C227.095 79.2731 226.643 79.7103 226.33 80.2426C225.575 81.5751 225.209 83.0932 225.274 84.6236L225.267 84.8757Z" fill="white"/>
<path d="M246.423 87.3695L247.105 90.0267H247.179L248.011 87.3558L250.852 78.1304H251.499L254.34 87.3422L255.158 90.0131H255.233L255.914 87.3558L258.497 78.1304H259.232L255.54 91.076H254.899L251.717 81.3395L251.193 79.2955H251.118L250.566 81.3395L247.432 91.076H246.798L243.112 78.1304H243.841L246.423 87.3695Z" fill="white"/>
<path d="M266.809 91.369C266.085 91.3755 265.368 91.2191 264.712 90.9113C264.057 90.6035 263.479 90.1521 263.021 89.5906C261.97 88.3463 261.421 86.7552 261.481 85.1278V84.3579C261.414 82.6808 261.959 81.0365 263.014 79.7316C263.475 79.1539 264.062 78.69 264.731 78.3758C265.4 78.0615 266.132 77.9053 266.87 77.9192C267.502 77.8914 268.133 78.0041 268.716 78.2492C269.299 78.4942 269.821 78.8655 270.243 79.3364C271.127 80.4286 271.574 81.8102 271.497 83.2132V84.2012H262.094V85.1278C262.046 86.5683 262.512 87.979 263.409 89.1069C263.81 89.6251 264.327 90.0414 264.919 90.322C265.511 90.6026 266.161 90.7395 266.816 90.7217C267.569 90.7246 268.315 90.5763 269.01 90.2856C269.656 90.0364 270.238 89.6452 270.713 89.141L271.054 89.6451C270.571 90.1717 269.984 90.5918 269.33 90.8784C268.536 91.2248 267.675 91.3923 266.809 91.369ZM266.87 78.5664C266.264 78.5455 265.661 78.6565 265.102 78.8918C264.544 79.1271 264.043 79.481 263.634 79.9291C262.771 80.909 262.269 82.1542 262.21 83.4585L262.244 83.5335H270.863V83.1383C270.912 81.9445 270.532 80.7727 269.793 79.8337C269.436 79.4109 268.985 79.0765 268.477 78.8566C267.969 78.6368 267.417 78.5375 266.864 78.5664H266.87Z" fill="white"/>
<path d="M284.272 84.8755C284.368 86.5597 283.924 88.2305 283.005 89.6449C282.614 90.2065 282.089 90.6611 281.477 90.967C280.865 91.273 280.186 91.4205 279.503 91.396C278.599 91.418 277.705 91.2069 276.907 90.7828C276.191 90.4009 275.591 89.8338 275.169 89.1407L275.087 91.1439H274.563V87.6077V87.5464C274.563 87.5464 274.563 87.5464 274.563 87.4987V82.2046C274.559 82.1775 274.559 82.15 274.563 82.1229V72.4341H275.197V80.4331C275.595 79.6763 276.188 79.039 276.913 78.5867C277.687 78.1187 278.578 77.8822 279.482 77.9053C280.174 77.8853 280.859 78.041 281.474 78.358C282.089 78.675 282.613 79.1428 282.998 79.7177C283.918 81.1775 284.363 82.8866 284.272 84.6098V84.8755ZM283.591 84.6234C283.656 83.093 283.29 81.5749 282.535 80.2423C282.223 79.7121 281.773 79.2763 281.233 78.9812C280.693 78.6861 280.083 78.5427 279.469 78.5662C278.444 78.507 277.435 78.8354 276.641 79.486C275.962 80.1047 275.455 80.8887 275.169 81.7617V87.962C275.472 88.7796 276.022 89.4823 276.743 89.972C277.555 90.4915 278.505 90.7528 279.469 90.7215C280.072 90.7523 280.672 90.6221 281.209 90.3443C281.745 90.0666 282.198 89.6512 282.521 89.1407C283.282 87.8529 283.647 86.3694 283.57 84.8755L283.591 84.6234Z" fill="white"/>
<path d="M291.91 81.8775C293.142 81.9545 294.358 81.5654 295.317 80.7874C295.71 80.4619 296.025 80.0523 296.238 79.5888C296.451 79.1254 296.558 78.6199 296.55 78.1097C296.588 77.5563 296.504 77.0014 296.305 76.4838C296.105 75.9662 295.795 75.4985 295.396 75.1135C294.997 74.7285 294.518 74.4356 293.993 74.2552C293.469 74.0748 292.911 74.0113 292.36 74.0693C291.199 74.0301 290.068 74.4373 289.198 75.2071C288.781 75.591 288.453 76.0611 288.237 76.5848C288.02 77.1084 287.921 77.673 287.945 78.2391H287.399V78.171C287.356 77.5372 287.456 76.9018 287.692 76.312C287.928 75.7221 288.293 75.1931 288.762 74.7643C289.747 73.8833 291.032 73.4127 292.353 73.4493C292.995 73.4175 293.636 73.5144 294.24 73.7344C294.844 73.9544 295.398 74.293 295.869 74.7302C296.314 75.1838 296.661 75.7252 296.886 76.3199C297.111 76.9146 297.21 77.5496 297.177 78.1846C297.183 79.08 296.882 79.9504 296.325 80.6511C295.735 81.393 294.935 81.9392 294.029 82.2182C295.033 82.4368 295.942 82.9689 296.625 83.7376C297.26 84.5213 297.59 85.5092 297.552 86.5175C297.588 87.1807 297.48 87.8439 297.235 88.4614C296.99 89.0789 296.615 89.636 296.134 90.0946C295.121 90.9854 293.803 91.4514 292.455 91.396C291.063 91.4119 289.708 90.9475 288.619 90.081C288.066 89.6408 287.629 89.0713 287.347 88.4225C287.066 87.7738 286.948 87.0658 287.004 86.3608V86.2927H287.543C287.521 86.8927 287.632 87.4901 287.868 88.0424C288.103 88.5947 288.457 89.0883 288.905 89.4882C289.867 90.3392 291.117 90.7902 292.401 90.7487C293.601 90.8236 294.782 90.4248 295.691 89.6381C296.093 89.2377 296.405 88.7569 296.607 88.2272C296.809 87.6976 296.896 87.1311 296.863 86.5652C296.903 85.9897 296.799 85.4133 296.561 84.8878C296.324 84.3622 295.959 83.9038 295.501 83.5537C294.418 82.8538 293.143 82.5129 291.855 82.5793H290.547V81.898L291.91 81.8775Z" fill="white"/>
<path d="M35.4642 113.492C35.5602 115.176 35.1162 116.847 34.1969 118.262C33.8069 118.822 33.2827 119.276 32.6721 119.582C32.0615 119.888 31.3841 120.036 30.7016 120.013C29.8042 120.032 28.9165 119.826 28.1192 119.413C27.4104 119.03 26.8139 118.469 26.3886 117.785V124.741H25.755V116.184V116.129V110.794C25.7531 110.767 25.7531 110.74 25.755 110.712V106.747H26.2455L26.3477 109.064C26.7526 108.279 27.3712 107.626 28.1321 107.178C28.8929 106.731 29.7649 106.508 30.647 106.536C31.3393 106.511 32.0262 106.665 32.6419 106.982C33.2575 107.3 33.7813 107.77 34.1628 108.348C35.083 109.808 35.5281 111.517 35.4369 113.24L35.4642 113.492ZM34.8237 113.24C34.8911 111.709 34.5225 110.19 33.7608 108.859C33.4482 108.328 32.9972 107.891 32.4561 107.596C31.9149 107.301 31.3038 107.158 30.6879 107.183C29.6625 107.126 28.653 107.457 27.8603 108.11C27.1813 108.728 26.6743 109.512 26.3886 110.385V116.579C26.684 117.409 27.235 118.125 27.9625 118.623C28.7744 119.142 29.7246 119.404 30.6879 119.372C31.2917 119.4 31.8921 119.269 32.429 118.991C32.966 118.714 33.4205 118.3 33.7472 117.792C34.5105 116.504 34.8778 115.021 34.8033 113.526L34.8237 113.24Z" fill="white"/>
<path d="M44.5193 107.237L43.7016 107.169C43.1879 107.15 42.6759 107.24 42.1992 107.433C41.7225 107.625 41.2918 107.916 40.9354 108.287C40.1971 109.112 39.7226 110.14 39.5727 111.237V119.733H38.939V106.747H39.4568L39.5727 108.995V109.472C39.8773 108.615 40.4241 107.865 41.1466 107.312C41.897 106.779 42.8023 106.509 43.7221 106.542C43.8888 106.541 44.0552 106.555 44.2195 106.583C44.3528 106.605 44.4847 106.635 44.6147 106.672L44.5193 107.237Z" fill="white"/>
<path d="M45.7321 113.001C45.6583 111.311 46.2088 109.652 47.2788 108.341C47.7819 107.773 48.3997 107.319 49.0915 107.007C49.7833 106.696 50.5333 106.535 51.2919 106.535C52.0505 106.535 52.8005 106.696 53.4922 107.007C54.184 107.319 54.8019 107.773 55.305 108.341C56.375 109.652 56.9255 111.311 56.8517 113.001V113.506C56.9265 115.198 56.376 116.86 55.305 118.173C54.8209 118.758 54.2097 119.226 53.5179 119.54C52.8261 119.854 52.0718 120.006 51.3123 119.985C50.5468 120.007 49.7861 119.856 49.0875 119.542C48.3889 119.228 47.7705 118.76 47.2788 118.173C46.2106 116.858 45.6604 115.198 45.7321 113.506V113.001ZM46.3657 113.506C46.3281 115 46.8097 116.462 47.7284 117.641C48.1519 118.191 48.7005 118.632 49.3286 118.927C49.9567 119.222 50.6461 119.363 51.3396 119.338C52.0275 119.36 52.7107 119.217 53.3319 118.92C53.9531 118.624 54.4942 118.183 54.9099 117.635C55.8276 116.457 56.3091 114.998 56.2725 113.506V113.001C56.3008 111.523 55.8196 110.079 54.9099 108.913C54.4788 108.377 53.9331 107.945 53.3129 107.648C52.6927 107.351 52.0137 107.196 51.326 107.196C50.6382 107.196 49.9593 107.351 49.339 107.648C48.7188 107.945 48.1731 108.377 47.7421 108.913C46.8343 110.08 46.3534 111.523 46.3794 113.001L46.3657 113.506Z" fill="white"/>
<path d="M69.6065 113.492C69.7025 115.177 69.2585 116.847 68.3392 118.262C67.9486 118.823 67.4232 119.278 66.8114 119.584C66.1995 119.89 65.5207 120.037 64.8371 120.013C63.9418 120.033 63.056 119.826 62.2616 119.413C61.5514 119.032 60.9544 118.471 60.5309 117.785V124.741H59.8973V116.184C59.8955 116.166 59.8955 116.147 59.8973 116.129C59.8945 116.113 59.8945 116.097 59.8973 116.081V110.794C59.8939 110.767 59.8939 110.74 59.8973 110.712V106.747H60.4151L60.5446 109.036C60.9475 108.25 61.5657 107.595 62.327 107.148C63.0883 106.7 63.9612 106.479 64.8439 106.509C65.5354 106.489 66.2206 106.644 66.8355 106.961C67.4504 107.278 67.9748 107.746 68.3596 108.321C69.2798 109.781 69.725 111.49 69.6337 113.213L69.6065 113.492ZM68.9592 113.24C69.0307 111.71 68.6669 110.191 67.9099 108.859C67.5978 108.329 67.148 107.893 66.6082 107.598C66.0683 107.303 65.4587 107.16 64.8439 107.183C63.8193 107.124 62.8099 107.452 62.0163 108.103C61.3351 108.72 60.8276 109.504 60.5446 110.379V116.572C60.8399 117.403 61.391 118.118 62.1185 118.616C62.9303 119.136 63.8805 119.397 64.8439 119.366C65.4474 119.392 66.0473 119.26 66.584 118.983C67.1207 118.705 67.5755 118.292 67.9031 117.785C68.6641 116.497 69.029 115.014 68.9524 113.52L68.9592 113.24Z" fill="white"/>
<path d="M77.5101 119.985C76.7858 119.992 76.0692 119.836 75.4134 119.528C74.7577 119.22 74.1795 118.769 73.7218 118.207C72.6696 116.963 72.1182 115.372 72.1752 113.744V112.974C72.1079 111.297 72.6527 109.653 73.7082 108.348C74.1704 107.77 74.7591 107.306 75.4289 106.992C76.0987 106.678 76.8317 106.522 77.5715 106.536C78.2024 106.508 78.8315 106.621 79.4135 106.867C79.9955 107.112 80.5159 107.483 80.9373 107.953C81.8266 109.043 82.2762 110.425 82.1978 111.83V112.818H72.8156V113.744C72.7672 115.185 73.2334 116.595 74.1307 117.723C74.531 118.242 75.0483 118.659 75.6404 118.939C76.2324 119.22 76.8825 119.357 77.5374 119.338C78.2883 119.341 79.0321 119.193 79.7245 118.902C80.3728 118.653 80.9571 118.262 81.4347 117.758L81.7754 118.262C81.2929 118.788 80.7058 119.208 80.0516 119.495C79.2506 119.843 78.383 120.01 77.5101 119.985V119.985ZM77.5715 107.183C76.9654 107.161 76.3618 107.272 75.8028 107.507C75.2439 107.742 74.743 108.097 74.3351 108.546C73.4701 109.525 72.9654 110.77 72.9042 112.075L72.9451 112.15H81.5369V111.755C81.5818 110.562 81.2028 109.391 80.4672 108.45C80.1132 108.032 79.6682 107.701 79.1663 107.481C78.6644 107.261 78.1188 107.159 77.5715 107.183V107.183Z" fill="white"/>
<path d="M90.8646 107.237L90.0401 107.169C89.5264 107.15 89.0144 107.24 88.5377 107.432C88.061 107.625 87.6303 107.916 87.2739 108.286C86.5353 109.112 86.0606 110.139 85.9112 111.237V119.733H85.2775V106.747H85.7885L85.9112 108.995V109.472C86.2112 108.613 86.7588 107.861 87.4851 107.312C88.2334 106.78 89.1362 106.51 90.0538 106.542C90.2205 106.541 90.3869 106.555 90.5512 106.583C90.6846 106.604 90.8166 106.634 90.9463 106.672L90.8646 107.237Z" fill="white"/>
<path d="M94.8232 103.272V106.747H97.9438V107.428H94.8232V116.388C94.7517 117.181 94.9355 117.976 95.3478 118.657C95.505 118.87 95.7104 119.043 95.9473 119.161C96.1841 119.28 96.4457 119.34 96.7105 119.338C96.8989 119.35 97.0877 119.35 97.276 119.338L97.9574 119.256L98.0732 119.842C97.8763 119.907 97.673 119.95 97.4668 119.972C97.2272 120.001 96.986 120.014 96.7446 120.013C96.3765 120.036 96.0082 119.97 95.6705 119.822C95.3327 119.674 95.0352 119.447 94.8027 119.161C94.2904 118.349 94.0516 117.394 94.1214 116.436V107.428H91.8253V106.747H94.1759V103.272H94.8232Z" fill="white"/>
<path d="M101.725 102.7H101.092V101.051H101.725V102.7ZM101.725 119.733H101.092V106.747H101.725V119.733Z" fill="white"/>
<path d="M110.344 119.985C109.62 119.992 108.903 119.835 108.248 119.528C107.592 119.22 107.014 118.768 106.556 118.207C105.506 116.962 104.957 115.371 105.016 113.744V112.974C104.949 111.297 105.494 109.653 106.549 108.348C107.01 107.77 107.597 107.306 108.266 106.992C108.935 106.678 109.667 106.521 110.406 106.535C111.038 106.508 111.668 106.62 112.251 106.865C112.834 107.11 113.356 107.482 113.778 107.953C114.665 109.043 115.112 110.426 115.032 111.829V112.817H105.65V113.744C105.601 115.185 106.068 116.595 106.965 117.723C107.366 118.241 107.883 118.658 108.475 118.938C109.067 119.219 109.717 119.356 110.372 119.338C111.125 119.341 111.871 119.193 112.566 118.902C113.213 118.651 113.797 118.26 114.276 117.757L114.61 118.261C114.128 118.789 113.541 119.21 112.886 119.495C112.085 119.844 111.217 120.012 110.344 119.985V119.985ZM110.406 107.183C109.8 107.162 109.196 107.273 108.638 107.508C108.079 107.743 107.578 108.097 107.169 108.545C106.309 109.527 105.807 110.771 105.745 112.075L105.779 112.15H114.398V111.754C114.447 110.561 114.067 109.389 113.329 108.45C112.972 108.027 112.523 107.693 112.016 107.473C111.509 107.253 110.958 107.154 110.406 107.183V107.183Z" fill="white"/>
<path d="M125.886 116.558C125.879 116.203 125.798 115.853 125.649 115.531C125.5 115.209 125.286 114.92 125.021 114.685C124.153 113.982 123.113 113.525 122.009 113.363C120.838 113.174 119.719 112.742 118.725 112.095C118.384 111.822 118.114 111.471 117.937 111.071C117.761 110.672 117.682 110.235 117.71 109.799C117.707 109.349 117.81 108.905 118.01 108.501C118.21 108.098 118.501 107.747 118.861 107.476C119.753 106.81 120.85 106.478 121.961 106.536C123.149 106.467 124.322 106.822 125.273 107.537C125.661 107.85 125.969 108.251 126.17 108.708C126.37 109.165 126.457 109.663 126.424 110.16V110.235H125.879C125.882 109.818 125.789 109.406 125.607 109.03C125.425 108.654 125.159 108.325 124.83 108.069C124.018 107.44 123.007 107.126 121.982 107.183C121.008 107.104 120.039 107.383 119.256 107.966C118.975 108.179 118.746 108.452 118.587 108.766C118.428 109.08 118.342 109.427 118.337 109.779C118.333 110.107 118.4 110.433 118.535 110.733C118.669 111.033 118.866 111.3 119.113 111.516C120.026 112.168 121.078 112.597 122.186 112.77C123.346 112.993 124.447 113.457 125.416 114.133C125.778 114.421 126.066 114.792 126.256 115.213C126.447 115.635 126.535 116.096 126.513 116.558C126.521 117.038 126.415 117.512 126.201 117.941C125.988 118.371 125.674 118.742 125.286 119.025C124.344 119.694 123.204 120.027 122.05 119.972C120.807 120.041 119.579 119.683 118.568 118.957C118.179 118.681 117.865 118.31 117.658 117.88C117.451 117.45 117.356 116.974 117.383 116.497V116.422H117.9C117.9 116.873 118.019 117.316 118.245 117.706C118.471 118.096 118.797 118.42 119.188 118.643C120.058 119.112 121.035 119.347 122.023 119.325C123.023 119.379 124.011 119.082 124.816 118.486C125.132 118.27 125.394 117.984 125.579 117.649C125.765 117.314 125.87 116.941 125.886 116.558V116.558Z" fill="white"/>
<path d="M136.781 119.733V107.428H134.573V106.747H136.781V104.614C136.717 103.592 137.03 102.581 137.66 101.773C137.967 101.434 138.346 101.169 138.769 100.995C139.192 100.822 139.649 100.746 140.106 100.772C140.363 100.77 140.62 100.786 140.876 100.819C141.125 100.848 141.371 100.898 141.611 100.969L141.516 101.596C141.264 101.535 141.046 101.487 140.835 101.46C140.593 101.43 140.349 101.416 140.106 101.419C139.732 101.4 139.358 101.466 139.014 101.612C138.669 101.759 138.362 101.981 138.116 102.264C137.605 102.937 137.352 103.771 137.401 104.614V106.747H140.76V107.428H137.407V119.733H136.781Z" fill="white"/>
<path d="M142.395 113.002C142.324 111.312 142.874 109.654 143.942 108.341C144.445 107.773 145.064 107.319 145.756 107.007C146.449 106.696 147.199 106.535 147.958 106.535C148.717 106.535 149.468 106.696 150.16 107.007C150.852 107.319 151.471 107.773 151.975 108.341C153.039 109.655 153.587 111.312 153.515 113.002V113.506C153.588 115.198 153.04 116.858 151.975 118.173C151.473 118.743 150.855 119.199 150.163 119.512C149.471 119.824 148.721 119.986 147.962 119.986C147.202 119.986 146.452 119.824 145.76 119.512C145.068 119.199 144.45 118.743 143.948 118.173C142.876 116.861 142.323 115.2 142.395 113.506V113.002ZM143.029 113.506C142.991 115.001 143.473 116.462 144.391 117.642C144.826 118.173 145.373 118.602 145.994 118.896C146.614 119.19 147.292 119.343 147.979 119.343C148.665 119.343 149.343 119.19 149.964 118.896C150.584 118.602 151.131 118.173 151.566 117.642C152.484 116.464 152.965 115.005 152.929 113.513V113.009C152.957 111.53 152.476 110.087 151.566 108.921C151.136 108.385 150.59 107.952 149.971 107.655C149.351 107.358 148.673 107.204 147.985 107.204C147.298 107.204 146.62 107.358 146 107.655C145.38 107.952 144.835 108.385 144.405 108.921C143.498 110.088 143.017 111.53 143.042 113.009L143.029 113.506Z" fill="white"/>
<path d="M162.161 107.237L161.336 107.169C160.823 107.151 160.311 107.24 159.834 107.433C159.358 107.626 158.927 107.916 158.57 108.286C157.832 109.112 157.357 110.139 157.207 111.237V119.733H156.574V106.747H157.092L157.207 108.995V109.472C157.512 108.615 158.059 107.865 158.781 107.312C159.53 106.78 160.432 106.51 161.35 106.542C161.519 106.541 161.688 106.555 161.854 106.583C161.985 106.605 162.115 106.634 162.243 106.672L162.161 107.237Z" fill="white"/>
<path d="M170.794 106.747L170.875 109.356C171.219 108.513 171.793 107.784 172.531 107.251C173.3 106.738 174.21 106.478 175.134 106.508C176.086 106.464 177.022 106.759 177.777 107.34C178.531 108.014 179.033 108.925 179.201 109.922C179.489 108.933 180.068 108.055 180.864 107.401C181.669 106.778 182.667 106.458 183.685 106.495C184.291 106.455 184.898 106.562 185.454 106.807C186.01 107.051 186.499 107.425 186.88 107.898C187.611 108.834 187.975 110.301 187.97 112.3V119.693H187.289V112.307C187.289 110.426 186.962 109.104 186.308 108.328C185.985 107.949 185.581 107.648 185.126 107.447C184.67 107.246 184.175 107.151 183.678 107.169C183.124 107.131 182.568 107.217 182.051 107.419C181.533 107.622 181.068 107.937 180.687 108.341C179.963 109.209 179.505 110.266 179.365 111.387V111.871C179.365 112.034 179.365 112.198 179.365 112.368V119.733H178.718V113.097H178.684C178.684 112.947 178.684 112.79 178.684 112.641C178.684 112.491 178.684 112.341 178.684 112.198C178.684 110.365 178.322 109.063 177.675 108.314C177.353 107.94 176.95 107.644 176.497 107.448C176.044 107.252 175.552 107.161 175.059 107.183C174.513 107.145 173.965 107.227 173.454 107.424C172.943 107.621 172.482 107.927 172.102 108.321C171.39 109.164 170.931 110.192 170.78 111.285V119.733H170.139V113.097C170.139 112.981 170.139 112.872 170.139 112.763C170.139 112.654 170.139 112.511 170.139 112.341V106.747H170.794Z" fill="white"/>
<path d="M200.432 117.457C200.057 118.23 199.465 118.876 198.729 119.317C197.916 119.786 196.989 120.022 196.051 119.999C195.463 120.025 194.878 119.909 194.344 119.661C193.81 119.413 193.344 119.041 192.985 118.575C192.245 117.625 191.874 116.158 191.874 114.173V106.747H192.508V114.16C192.508 115.918 192.824 117.214 193.455 118.05C193.749 118.455 194.137 118.781 194.586 119.001C195.035 119.221 195.531 119.327 196.031 119.311C197.117 119.381 198.189 119.035 199.029 118.343C199.747 117.667 200.226 116.775 200.391 115.802V106.747H201.039V114.371C201.046 114.471 201.046 114.571 201.039 114.671C201.039 114.766 201.039 114.882 201.039 115.011V119.706H200.507L200.432 117.457Z" fill="white"/>
<path d="M212.874 116.558C212.866 116.203 212.786 115.853 212.637 115.531C212.488 115.209 212.274 114.92 212.008 114.685C211.14 113.983 210.101 113.527 208.997 113.363C207.826 113.174 206.707 112.742 205.713 112.095C205.372 111.822 205.102 111.471 204.925 111.071C204.748 110.672 204.67 110.235 204.697 109.799C204.695 109.349 204.798 108.905 204.998 108.501C205.198 108.098 205.489 107.747 205.849 107.476C206.741 106.81 207.838 106.478 208.949 106.536C210.137 106.467 211.31 106.822 212.26 107.537C212.649 107.85 212.957 108.251 213.157 108.708C213.358 109.165 213.445 109.663 213.412 110.16V110.235H212.874C212.876 109.818 212.783 109.406 212.601 109.03C212.419 108.654 212.153 108.325 211.824 108.069C211.012 107.44 210.001 107.126 208.976 107.183C208.003 107.111 207.037 107.388 206.251 107.966C205.972 108.18 205.745 108.454 205.587 108.768C205.429 109.082 205.344 109.427 205.338 109.779C205.334 110.107 205.402 110.433 205.536 110.733C205.67 111.033 205.867 111.3 206.115 111.516C207.027 112.168 208.079 112.597 209.187 112.77C210.348 112.993 211.448 113.457 212.417 114.133C212.779 114.421 213.067 114.792 213.258 115.213C213.448 115.635 213.536 116.096 213.514 116.558C213.523 117.038 213.416 117.512 213.202 117.941C212.989 118.371 212.675 118.742 212.288 119.025C211.345 119.694 210.206 120.027 209.051 119.972C207.808 120.045 206.578 119.686 205.57 118.957C205.18 118.681 204.867 118.31 204.659 117.88C204.452 117.45 204.357 116.974 204.384 116.497V116.422H204.902C204.901 116.873 205.02 117.316 205.246 117.706C205.473 118.096 205.798 118.42 206.19 118.643C207.059 119.113 208.036 119.348 209.024 119.325C210.024 119.379 211.012 119.082 211.817 118.486C212.131 118.269 212.39 117.982 212.573 117.647C212.756 117.312 212.859 116.94 212.874 116.558V116.558Z" fill="white"/>
<path d="M217.841 102.7H217.207V101.051H217.841V102.7ZM217.841 119.733H217.207V106.747H217.841V119.733Z" fill="white"/>
<path d="M226.317 119.338C227.336 119.355 228.334 119.039 229.158 118.439C229.576 118.124 229.908 117.71 230.123 117.234C230.339 116.757 230.431 116.235 230.391 115.713H230.929V115.788C230.966 116.367 230.861 116.946 230.623 117.476C230.386 118.005 230.023 118.469 229.567 118.827C228.641 119.573 227.485 119.973 226.296 119.958C225.565 119.988 224.837 119.842 224.174 119.531C223.511 119.22 222.932 118.755 222.487 118.173C221.521 116.804 221.042 115.152 221.125 113.478V112.974C221.039 111.305 221.519 109.656 222.487 108.293C222.928 107.711 223.504 107.244 224.165 106.933C224.826 106.622 225.553 106.476 226.283 106.508C227.503 106.473 228.693 106.893 229.621 107.687C230.082 108.102 230.442 108.618 230.671 109.195C230.9 109.772 230.993 110.393 230.943 111.012V111.08H230.405C230.44 110.535 230.35 109.989 230.142 109.483C229.934 108.978 229.614 108.527 229.205 108.164C228.395 107.486 227.366 107.128 226.31 107.156C225.65 107.113 224.991 107.241 224.394 107.526C223.798 107.811 223.285 108.244 222.903 108.784C222.091 110.026 221.689 111.492 221.752 112.974V113.478C221.687 114.968 222.09 116.44 222.903 117.689C223.286 118.23 223.8 118.666 224.397 118.954C224.994 119.242 225.655 119.375 226.317 119.338V119.338Z" fill="white"/>
<path d="M234.997 102.7H234.363V101.051H234.997V102.7ZM234.997 119.733H234.363V106.747H234.997V119.733Z" fill="white"/>
<path d="M247.139 117.335C246.675 118.143 245.996 118.806 245.176 119.25C244.207 119.765 243.119 120.019 242.022 119.985C241.515 120.013 241.008 119.94 240.529 119.771C240.051 119.601 239.611 119.338 239.235 118.997C238.891 118.646 238.625 118.227 238.451 117.768C238.277 117.308 238.201 116.817 238.227 116.327C238.232 115.783 238.373 115.25 238.636 114.774C238.899 114.298 239.275 113.895 239.732 113.601C240.839 112.836 242.163 112.449 243.507 112.497H247.139V110.603C247.164 110.134 247.086 109.666 246.91 109.23C246.735 108.795 246.466 108.403 246.123 108.082C245.314 107.438 244.294 107.118 243.262 107.183C242.267 107.132 241.286 107.431 240.489 108.028C240.155 108.287 239.885 108.619 239.702 109C239.519 109.381 239.426 109.799 239.433 110.222H238.908V110.167C238.882 109.679 238.973 109.192 239.173 108.747C239.373 108.301 239.677 107.91 240.059 107.605C240.974 106.878 242.122 106.507 243.289 106.563C244.473 106.503 245.638 106.876 246.566 107.612C246.982 107.992 247.307 108.461 247.518 108.983C247.729 109.505 247.821 110.068 247.786 110.631V117.124C247.785 117.579 247.81 118.034 247.861 118.486C247.915 118.919 247.999 119.347 248.113 119.767H247.432C247.329 119.202 247.261 118.773 247.227 118.493C247.191 118.188 247.173 117.881 247.173 117.573L247.139 117.335ZM242.022 119.379C243.147 119.416 244.257 119.122 245.217 118.534C246.102 117.95 246.775 117.097 247.139 116.102V113.192H243.548C242.368 113.152 241.205 113.475 240.216 114.119C239.811 114.353 239.473 114.687 239.234 115.089C238.996 115.491 238.864 115.948 238.853 116.415C238.84 116.811 238.91 117.206 239.059 117.574C239.208 117.941 239.433 118.273 239.719 118.548C240.03 118.827 240.394 119.042 240.79 119.179C241.185 119.316 241.604 119.372 242.022 119.345V119.379Z" fill="white"/>
<path d="M252.399 106.747L252.48 109.356C252.831 108.505 253.42 107.774 254.177 107.251C254.988 106.731 255.939 106.472 256.902 106.508C257.493 106.469 258.084 106.572 258.626 106.809C259.168 107.046 259.645 107.411 260.016 107.871C260.711 108.757 261.059 110.167 261.059 112.102V119.733H260.425V112.075C260.425 110.283 260.105 109.016 259.478 108.28C259.16 107.915 258.764 107.626 258.319 107.436C257.874 107.246 257.392 107.16 256.909 107.183C256.345 107.146 255.779 107.233 255.252 107.438C254.725 107.643 254.248 107.96 253.857 108.368C253.116 109.232 252.642 110.292 252.494 111.421V119.733H251.874V113.097H251.84C251.84 112.947 251.84 112.79 251.84 112.634C251.84 112.477 251.84 112.32 251.84 112.163V106.747H252.399Z" fill="white"/>
<path d="M272.812 116.558C272.806 116.203 272.726 115.853 272.577 115.53C272.428 115.208 272.213 114.92 271.946 114.685C271.079 113.982 270.039 113.525 268.935 113.363C267.764 113.173 266.646 112.741 265.651 112.095C265.31 111.822 265.04 111.471 264.863 111.071C264.686 110.672 264.608 110.235 264.636 109.799C264.634 109.349 264.738 108.905 264.937 108.502C265.137 108.099 265.428 107.747 265.787 107.476C266.679 106.81 267.776 106.478 268.887 106.536C270.075 106.467 271.248 106.822 272.199 107.537C272.589 107.848 272.897 108.25 273.098 108.707C273.298 109.164 273.385 109.663 273.35 110.16V110.235H272.805C272.808 109.818 272.714 109.406 272.533 109.03C272.351 108.654 272.085 108.325 271.756 108.069C270.944 107.44 269.933 107.126 268.908 107.183C267.934 107.106 266.966 107.384 266.182 107.966C265.901 108.179 265.672 108.452 265.513 108.766C265.354 109.08 265.268 109.427 265.262 109.779C265.26 110.108 265.328 110.434 265.464 110.734C265.599 111.034 265.798 111.301 266.046 111.516C266.96 112.169 268.015 112.599 269.126 112.77C270.284 112.993 271.382 113.457 272.348 114.133C272.71 114.421 272.998 114.792 273.189 115.213C273.38 115.635 273.468 116.096 273.445 116.558C273.454 117.037 273.348 117.511 273.136 117.94C272.924 118.369 272.612 118.741 272.226 119.025C271.281 119.694 270.139 120.027 268.983 119.972C267.74 120.041 266.512 119.683 265.501 118.957C265.112 118.68 264.801 118.309 264.595 117.879C264.388 117.449 264.295 116.973 264.322 116.497V116.422H264.84C264.84 116.874 264.959 117.318 265.187 117.708C265.414 118.098 265.741 118.421 266.135 118.643C267.002 119.113 267.976 119.348 268.962 119.325C269.962 119.379 270.95 119.082 271.756 118.486C272.069 118.269 272.328 117.982 272.511 117.647C272.694 117.312 272.797 116.94 272.812 116.558V116.558Z" fill="white"/>
<path d="M290.711 117.335C290.248 118.141 289.571 118.804 288.755 119.249C287.783 119.764 286.694 120.017 285.594 119.985C285.087 120.013 284.58 119.94 284.101 119.771C283.623 119.601 283.183 119.338 282.807 118.997C282.465 118.645 282.199 118.226 282.026 117.767C281.852 117.307 281.775 116.817 281.799 116.326C281.805 115.782 281.946 115.248 282.21 114.772C282.474 114.297 282.853 113.894 283.311 113.601C284.417 112.834 285.741 112.446 287.086 112.497H290.711V110.603C290.737 110.134 290.66 109.665 290.485 109.229C290.309 108.794 290.04 108.402 289.696 108.082C288.889 107.438 287.871 107.118 286.841 107.183C285.844 107.133 284.861 107.431 284.061 108.028C283.728 108.287 283.46 108.62 283.278 109.001C283.096 109.382 283.005 109.8 283.012 110.222H282.48V110.167C282.452 109.679 282.542 109.191 282.743 108.745C282.943 108.3 283.248 107.908 283.632 107.605C284.544 106.873 285.693 106.502 286.861 106.563C288.043 106.501 289.206 106.875 290.132 107.612C290.553 107.994 290.883 108.466 291.097 108.994C291.311 109.521 291.402 110.09 291.365 110.658V117.151C291.363 117.606 291.39 118.062 291.447 118.514C291.494 118.947 291.578 119.376 291.699 119.794H291.017C290.915 119.229 290.847 118.8 290.813 118.52C290.777 118.215 290.758 117.908 290.758 117.601L290.711 117.335ZM285.594 119.379C286.721 119.415 287.834 119.122 288.796 118.534C289.681 117.951 290.352 117.098 290.711 116.102V113.192H287.12C285.941 113.152 284.778 113.476 283.788 114.119C283.383 114.353 283.045 114.686 282.807 115.089C282.568 115.491 282.437 115.948 282.426 116.415C282.412 116.811 282.482 117.206 282.631 117.574C282.78 117.941 283.005 118.273 283.291 118.548C283.603 118.828 283.969 119.043 284.365 119.179C284.762 119.316 285.182 119.373 285.601 119.345L285.594 119.379Z" fill="white"/>
<path d="M295.984 106.747L296.066 109.356C296.406 108.479 297.015 107.731 297.806 107.219C298.596 106.708 299.528 106.459 300.468 106.508C301.059 106.47 301.651 106.574 302.193 106.811C302.736 107.048 303.215 107.411 303.588 107.871C304.279 108.757 304.624 110.167 304.624 112.102V119.733H303.99V112.075C303.99 110.285 303.675 109.02 303.043 108.28C302.727 107.915 302.332 107.627 301.888 107.437C301.445 107.247 300.964 107.16 300.481 107.183C299.917 107.145 299.351 107.231 298.823 107.436C298.296 107.641 297.82 107.959 297.429 108.368C296.686 109.23 296.212 110.292 296.066 111.421V119.733H295.433V113.097H295.398C295.398 112.947 295.398 112.79 295.398 112.634C295.398 112.477 295.398 112.32 295.398 112.163V106.747H295.984Z" fill="white"/>
<path d="M308.017 113.24C307.927 111.518 308.369 109.81 309.284 108.348C309.67 107.771 310.197 107.302 310.814 106.985C311.432 106.668 312.12 106.513 312.814 106.536C313.715 106.516 314.603 106.752 315.376 107.217C316.104 107.673 316.701 108.312 317.106 109.07V101.051H317.74V110.794V116.074C317.74 116.074 317.74 116.074 317.74 116.115V119.72H317.133V117.717C316.712 118.412 316.112 118.981 315.396 119.365C314.601 119.783 313.712 119.992 312.814 119.972C312.13 119.996 311.451 119.849 310.839 119.543C310.228 119.237 309.702 118.782 309.312 118.221C308.392 116.806 307.948 115.135 308.044 113.451L308.017 113.24ZM308.698 113.492C308.624 114.984 308.984 116.466 309.734 117.757C310.061 118.266 310.515 118.68 311.052 118.957C311.589 119.235 312.19 119.366 312.793 119.338C313.758 119.365 314.708 119.099 315.519 118.575C316.243 118.072 316.795 117.359 317.099 116.531V110.399C316.813 109.515 316.301 108.721 315.614 108.096C314.827 107.438 313.817 107.106 312.793 107.169C312.177 107.145 311.566 107.287 311.025 107.583C310.484 107.878 310.033 108.314 309.72 108.845C308.967 110.179 308.604 111.697 308.671 113.226L308.698 113.492Z" fill="white"/>
<path d="M27.07 131.889V135.364H30.1974V136.045H27.07V145.005C27.0001 145.798 27.1863 146.593 27.6014 147.273C27.7582 147.487 27.9636 147.66 28.2005 147.779C28.4375 147.897 28.6992 147.958 28.9641 147.955C29.1502 147.966 29.3368 147.966 29.5228 147.955L30.2042 147.873L30.3268 148.459C30.1274 148.523 29.9219 148.566 29.7136 148.589C29.4762 148.617 29.2373 148.631 28.9982 148.629C28.6301 148.652 28.2619 148.587 27.9241 148.439C27.5864 148.291 27.2889 148.064 27.0563 147.778C26.5436 146.965 26.3048 146.01 26.375 145.052V136.045H24.0789V135.364H26.4227V131.889H27.07Z" fill="white"/>
<path d="M33.8425 138.089C34.202 137.217 34.8052 136.467 35.58 135.929C36.4041 135.395 37.3718 135.127 38.3531 135.159C38.9153 135.125 39.4779 135.222 39.9961 135.443C40.5142 135.664 40.9735 136.003 41.3374 136.433C42.0187 137.285 42.3662 138.634 42.3662 140.467V148.35H41.6848V140.446C41.6848 138.743 41.3782 137.542 40.765 136.842C40.4578 136.497 40.0777 136.225 39.6524 136.044C39.227 135.864 38.7669 135.78 38.3054 135.8C37.7324 135.767 37.1593 135.858 36.6245 136.066C36.0897 136.274 35.6057 136.595 35.2052 137.006C34.4533 137.891 33.9793 138.979 33.8425 140.133V148.377H33.1612V141.741V141.319C33.1546 141.207 33.1546 141.096 33.1612 140.985V129.667H33.8425V138.089Z" fill="white"/>
<path d="M50.8081 148.602C50.0837 148.609 49.3669 148.453 48.7111 148.145C48.0553 147.837 47.4772 147.386 47.0198 146.824C45.9676 145.58 45.4162 143.989 45.4732 142.361V141.591C45.4058 139.914 45.9507 138.27 47.0062 136.965C47.4691 136.386 48.0588 135.921 48.7299 135.607C49.401 135.293 50.1354 135.137 50.8763 135.152C51.5139 135.119 52.1507 135.229 52.7402 135.475C53.3297 135.72 53.8568 136.094 54.283 136.569C55.1698 137.66 55.617 139.043 55.5367 140.446V141.434H46.1068V142.361C46.0583 143.801 46.5245 145.212 47.4218 146.34C47.8229 146.858 48.3404 147.274 48.9323 147.554C49.5241 147.835 50.1738 147.972 50.8286 147.955C51.5794 147.957 52.3231 147.809 53.0157 147.519C53.6631 147.268 54.247 146.877 54.7259 146.374L55.0665 146.878C54.5815 147.405 53.9921 147.825 53.3359 148.111C52.5397 148.459 51.6766 148.627 50.8081 148.602V148.602ZM50.8763 135.799C50.2703 135.778 49.667 135.889 49.1081 136.125C48.5493 136.36 48.0483 136.714 47.6398 137.162C46.7797 138.144 46.2778 139.388 46.2158 140.692V140.766H54.8553V140.371C54.9038 139.178 54.5244 138.006 53.7856 137.067C53.4312 136.646 52.9842 136.312 52.4795 136.092C51.9748 135.872 51.4261 135.772 50.8763 135.799V135.799Z" fill="white"/>
<path d="M64.7553 135.363L64.8371 137.973C65.1855 137.132 65.7582 136.404 66.4927 135.867C67.2641 135.354 68.1763 135.095 69.1023 135.125C70.0541 135.08 70.9908 135.375 71.7459 135.956C72.4974 136.631 72.9971 137.542 73.1631 138.538C73.453 137.551 74.0321 136.673 74.8256 136.017C75.6334 135.394 76.6338 135.074 77.6532 135.111C78.2592 135.073 78.8656 135.18 79.4216 135.424C79.9775 135.669 80.4669 136.042 80.8488 136.515C81.571 137.448 81.9389 138.913 81.9389 140.916V148.309H81.2576V140.923C81.2576 139.042 80.9305 137.721 80.2696 136.944C79.9477 136.564 79.5437 136.262 79.088 136.062C78.6324 135.861 78.1371 135.767 77.6396 135.786C77.0864 135.748 76.5317 135.833 76.0155 136.036C75.4994 136.238 75.0348 136.553 74.6553 136.958C73.9293 137.823 73.4701 138.881 73.3335 140.003V140.487C73.3335 140.65 73.3335 140.814 73.3335 140.984V148.35H72.6521V141.713C72.6521 141.563 72.6521 141.407 72.6521 141.257C72.6521 141.107 72.6521 140.957 72.6521 140.814C72.6521 138.981 72.291 137.68 71.6437 136.93C71.3196 136.557 70.9154 136.261 70.4613 136.065C70.0071 135.869 69.5147 135.779 69.0205 135.799C68.4755 135.761 67.9288 135.844 67.419 136.04C66.9093 136.237 66.4489 136.543 66.0703 136.937C65.3582 137.78 64.8998 138.808 64.7485 139.901V148.35H64.0671V141.713C64.0671 141.597 64.0671 141.488 64.0671 141.379C64.0671 141.27 64.0671 141.127 64.0671 140.957V135.363H64.7553Z" fill="white"/>
<path d="M94.3872 146.074C94.0104 146.845 93.4189 147.491 92.6838 147.934C91.8709 148.403 90.9443 148.639 90.0061 148.615C89.4174 148.641 88.8311 148.525 88.2964 148.277C87.7618 148.03 87.2943 147.657 86.9332 147.191C86.1974 146.244 85.8226 144.779 85.8226 142.79V135.363H86.4631V142.776C86.4631 144.534 86.7788 145.831 87.4102 146.667C87.7038 147.071 88.0921 147.398 88.5411 147.618C88.9901 147.837 89.4861 147.944 89.9857 147.927C91.0716 147.997 92.1434 147.651 92.9836 146.96C93.7033 146.284 94.1819 145.392 94.3463 144.418V135.363H95.0277V142.988C95.0277 143.097 95.0277 143.192 95.0277 143.287C95.0277 143.383 95.0277 143.499 95.0277 143.628V148.323H94.4826L94.3872 146.074Z" fill="white"/>
<path d="M106.822 145.175C106.816 144.82 106.736 144.471 106.589 144.148C106.441 143.826 106.228 143.537 105.963 143.301C105.094 142.598 104.051 142.142 102.945 141.979C101.776 141.79 100.66 141.358 99.6676 140.712C99.3267 140.439 99.0565 140.088 98.8798 139.688C98.7032 139.288 98.6251 138.852 98.6524 138.416C98.65 137.966 98.7529 137.521 98.9528 137.118C99.1527 136.714 99.4441 136.363 99.8038 136.093C100.696 135.427 101.793 135.094 102.904 135.152C104.091 135.086 105.264 135.441 106.215 136.154C106.603 136.467 106.91 136.869 107.11 137.326C107.31 137.782 107.398 138.28 107.367 138.777V138.852H106.829C106.828 138.435 106.733 138.024 106.551 137.649C106.37 137.274 106.106 136.944 105.779 136.685C104.967 136.058 103.956 135.744 102.931 135.8C101.958 135.727 100.992 136.005 100.206 136.583C99.9268 136.797 99.6998 137.071 99.5417 137.385C99.3836 137.699 99.2985 138.044 99.2928 138.396C99.2893 138.723 99.3562 139.048 99.489 139.348C99.6218 139.648 99.8175 139.915 100.063 140.133C100.978 140.785 102.032 141.214 103.142 141.387C104.301 141.608 105.399 142.073 106.365 142.749C106.728 143.037 107.017 143.407 107.208 143.829C107.399 144.251 107.486 144.712 107.462 145.175C107.472 145.654 107.367 146.128 107.154 146.558C106.942 146.987 106.629 147.359 106.243 147.641C105.298 148.311 104.156 148.645 102.999 148.588C101.757 148.657 100.528 148.299 99.5177 147.573C99.1302 147.296 98.819 146.924 98.613 146.495C98.407 146.065 98.3127 145.59 98.339 145.114V145.039H98.85C98.8523 145.49 98.9731 145.933 99.2003 146.322C99.4275 146.712 99.7531 147.035 100.145 147.26C101.012 147.729 101.986 147.964 102.972 147.941C103.975 147.995 104.965 147.699 105.772 147.103C106.085 146.885 106.343 146.598 106.525 146.263C106.707 145.928 106.809 145.556 106.822 145.175Z" fill="white"/>
<path d="M111.789 131.316H111.155V129.667H111.789V131.316ZM111.789 148.35H111.155V135.364H111.789V148.35Z" fill="white"/>
<path d="M120.272 147.955C121.291 147.971 122.288 147.655 123.113 147.056C123.531 146.741 123.863 146.327 124.078 145.851C124.294 145.374 124.386 144.851 124.346 144.33H124.884V144.405C124.919 144.984 124.813 145.563 124.576 146.092C124.338 146.621 123.977 147.085 123.522 147.444C122.595 148.188 121.439 148.588 120.251 148.575C119.52 148.605 118.792 148.459 118.129 148.148C117.466 147.837 116.887 147.371 116.442 146.79C115.472 145.423 114.992 143.769 115.08 142.095V141.591C114.994 139.922 115.474 138.273 116.442 136.91C116.882 136.329 117.457 135.862 118.117 135.551C118.777 135.241 119.502 135.094 120.231 135.125C121.453 135.09 122.646 135.51 123.576 136.304C124.037 136.719 124.397 137.235 124.626 137.812C124.855 138.388 124.948 139.01 124.898 139.629V139.697H124.36C124.393 139.152 124.303 138.606 124.095 138.101C123.887 137.596 123.568 137.145 123.16 136.781C122.348 136.102 121.316 135.743 120.258 135.772C119.598 135.73 118.939 135.858 118.342 136.143C117.746 136.428 117.233 136.861 116.851 137.401C116.037 138.642 115.634 140.108 115.7 141.591V142.095C115.632 143.585 116.035 145.058 116.851 146.306C117.235 146.848 117.75 147.284 118.348 147.573C118.947 147.861 119.608 147.993 120.272 147.955V147.955Z" fill="white"/>
<path d="M134.682 131.316H134.048V129.667H134.682V131.316ZM134.682 148.35H134.048V135.364H134.682V148.35Z" fill="white"/>
<path d="M139.411 135.363L139.492 137.973C139.847 137.124 140.435 136.394 141.189 135.868C142 135.348 142.951 135.089 143.914 135.125C144.505 135.085 145.096 135.189 145.638 135.426C146.18 135.663 146.657 136.027 147.028 136.488C147.723 137.373 148.071 138.784 148.071 140.719V148.35H147.437V140.692C147.437 138.902 147.121 137.637 146.49 136.896C146.174 136.532 145.779 136.243 145.335 136.053C144.891 135.863 144.41 135.776 143.928 135.799C143.362 135.762 142.796 135.849 142.267 136.054C141.739 136.259 141.262 136.576 140.869 136.985C140.128 137.849 139.654 138.909 139.506 140.037V148.35H138.872V141.714H138.838C138.838 141.564 138.838 141.407 138.838 141.25C138.838 141.093 138.838 140.937 138.838 140.78V135.363H139.411Z" fill="white"/>
<path d="M151.45 141.857C151.36 140.135 151.802 138.427 152.717 136.965C153.103 136.389 153.628 135.92 154.244 135.603C154.861 135.286 155.547 135.131 156.24 135.152C157.143 135.132 158.034 135.368 158.809 135.834C159.549 136.284 160.157 136.92 160.573 137.68V129.667H161.207V139.411V144.691C161.207 144.691 161.207 144.691 161.207 144.732V148.336H160.573V146.333C160.152 147.028 159.552 147.598 158.836 147.982C158.04 148.4 157.152 148.608 156.254 148.589C155.569 148.614 154.889 148.467 154.275 148.161C153.662 147.855 153.136 147.4 152.745 146.837C151.831 145.421 151.389 143.751 151.484 142.068L151.45 141.857ZM152.131 142.109C152.054 143.601 152.414 145.084 153.167 146.374C153.494 146.883 153.948 147.296 154.485 147.574C155.022 147.851 155.623 147.983 156.226 147.955C157.192 147.986 158.143 147.72 158.952 147.192C159.678 146.689 160.232 145.976 160.539 145.148V139.016C160.251 138.133 159.739 137.34 159.054 136.713C158.267 136.054 157.257 135.723 156.233 135.786C155.617 135.761 155.006 135.904 154.465 136.199C153.924 136.494 153.473 136.931 153.16 137.462C152.407 138.795 152.044 140.313 152.111 141.843L152.131 142.109Z" fill="white"/>
<path d="M173.717 146.074C173.342 146.847 172.75 147.493 172.013 147.934C171.2 148.403 170.274 148.639 169.335 148.615C168.747 148.641 168.16 148.525 167.626 148.277C167.091 148.03 166.624 147.657 166.263 147.191C165.527 146.242 165.159 144.775 165.159 142.79V135.363H165.792V142.776C165.792 144.534 166.108 145.831 166.739 146.667C167.033 147.071 167.421 147.398 167.87 147.618C168.319 147.837 168.815 147.944 169.315 147.927C170.401 147.997 171.473 147.651 172.313 146.96C173.032 146.284 173.51 145.391 173.676 144.418V135.363H174.316V142.988C174.316 143.097 174.316 143.192 174.316 143.287C174.316 143.383 174.316 143.499 174.316 143.628V148.323H173.791L173.717 146.074Z" fill="white"/>
<path d="M186.151 145.175C186.145 144.82 186.066 144.471 185.918 144.148C185.77 143.826 185.557 143.537 185.293 143.301C184.425 142.6 183.385 142.143 182.281 141.979C181.11 141.791 179.991 141.359 178.997 140.712C178.656 140.439 178.386 140.088 178.209 139.688C178.033 139.288 177.955 138.852 177.982 138.416C177.979 137.966 178.082 137.521 178.282 137.118C178.482 136.714 178.774 136.363 179.133 136.093C180.025 135.427 181.122 135.094 182.233 135.152C183.421 135.086 184.593 135.441 185.545 136.154C185.932 136.467 186.239 136.869 186.439 137.326C186.64 137.782 186.728 138.28 186.696 138.777V138.852H186.158C186.161 138.435 186.067 138.022 185.885 137.647C185.704 137.271 185.438 136.942 185.109 136.685C184.297 136.057 183.286 135.742 182.261 135.8C181.288 135.727 180.321 136.005 179.535 136.583C179.256 136.797 179.029 137.071 178.871 137.385C178.713 137.699 178.628 138.044 178.622 138.396C178.619 138.724 178.686 139.049 178.82 139.349C178.954 139.649 179.152 139.917 179.399 140.133C180.311 140.786 181.363 141.216 182.472 141.387C183.63 141.608 184.729 142.073 185.695 142.749C186.059 143.036 186.349 143.406 186.541 143.828C186.733 144.25 186.821 144.712 186.798 145.175C186.807 145.654 186.7 146.129 186.487 146.558C186.273 146.987 185.959 147.359 185.572 147.641C184.63 148.31 183.49 148.644 182.336 148.589C181.091 148.659 179.86 148.301 178.847 147.573C178.46 147.296 178.148 146.925 177.942 146.495C177.736 146.065 177.642 145.59 177.668 145.114V145.039H178.186C178.186 145.49 178.305 145.933 178.531 146.323C178.757 146.713 179.082 147.036 179.474 147.26C180.343 147.73 181.32 147.964 182.308 147.941C183.309 147.995 184.296 147.699 185.102 147.103C185.414 146.885 185.672 146.598 185.854 146.263C186.036 145.928 186.138 145.556 186.151 145.175V145.175Z" fill="white"/>
<path d="M191.65 131.889V135.364H194.777V136.045H191.65V145.005C191.58 145.798 191.766 146.593 192.181 147.273C192.341 147.492 192.552 147.668 192.795 147.787C193.039 147.905 193.307 147.963 193.578 147.955C193.766 147.966 193.955 147.966 194.143 147.955L194.825 147.873L194.947 148.459C194.748 148.523 194.542 148.566 194.334 148.589C194.097 148.617 193.858 148.631 193.619 148.629C193.251 148.652 192.882 148.587 192.545 148.439C192.207 148.291 191.909 148.064 191.677 147.778C191.164 146.965 190.925 146.01 190.996 145.052V136.045H188.652V135.364H190.996V131.889H191.65Z" fill="white"/>
<path d="M203.369 135.854L202.551 135.786C202.037 135.767 201.525 135.857 201.049 136.049C200.572 136.242 200.141 136.533 199.785 136.903C199.047 137.729 198.572 138.756 198.422 139.854V148.35H197.789V135.363H198.306L198.422 137.612V138.089C198.727 137.232 199.274 136.482 199.996 135.929C200.747 135.396 201.652 135.125 202.572 135.159C202.738 135.158 202.905 135.172 203.069 135.2C203.202 135.222 203.334 135.251 203.464 135.289L203.369 135.854Z" fill="white"/>
<path d="M209.385 145.999L209.855 147.294H209.923L209.991 147.103L214.4 135.363H215.081L209.426 150.476C209.145 151.274 208.741 152.024 208.227 152.697C207.952 153 207.611 153.235 207.231 153.384C206.85 153.533 206.44 153.592 206.033 153.555C205.869 153.554 205.705 153.54 205.542 153.514C205.406 153.495 205.272 153.466 205.14 153.426L205.249 152.813C205.377 152.844 205.507 152.866 205.638 152.881C205.768 152.904 205.9 152.918 206.033 152.922C206.344 152.939 206.656 152.89 206.947 152.778C207.238 152.667 207.502 152.495 207.723 152.274C208.2 151.711 208.563 151.061 208.792 150.36L209.555 148.248L204.513 135.363H205.195L209.385 145.999Z" fill="white"/>
<path d="M217.275 148.35H216.267V146.79H217.275V148.35Z" fill="white"/>
<path d="M127.644 50.0587H112.198V48.4984L120.653 38.9187C121.769 37.6984 122.745 36.3568 123.562 34.9192C124.077 33.978 124.356 32.9257 124.373 31.8531C124.409 31.1763 124.306 30.4993 124.072 29.8633C123.838 29.2273 123.477 28.6455 123.011 28.1534C122.505 27.6843 121.911 27.3218 121.262 27.0877C120.613 26.8535 119.924 26.7525 119.236 26.7907C118.492 26.7598 117.749 26.8858 117.056 27.1605C116.364 27.4351 115.737 27.8524 115.216 28.385C114.699 28.9371 114.297 29.5865 114.034 30.2954C113.771 31.0043 113.652 31.7585 113.683 32.514H111.639C111.623 31.1895 111.947 29.883 112.579 28.7189C113.2 27.5887 114.128 26.6578 115.257 26.0344C116.468 25.374 117.83 25.0406 119.209 25.0669C121.48 25.0669 123.245 25.6596 124.503 26.8452C125.146 27.4697 125.648 28.2244 125.976 29.0586C126.304 29.8929 126.449 30.7876 126.404 31.6828C126.358 33.0121 125.988 34.3101 125.327 35.4642C124.264 37.3051 122.995 39.0194 121.546 40.5744L114.691 48.3485H127.637L127.644 50.0587Z" fill="white"/>
<path d="M131.316 54.6648L130.117 53.7858C131.087 52.5661 131.645 51.0705 131.711 49.5138V46.877H133.687V48.9891C133.73 50.0508 133.539 51.1089 133.13 52.0893C132.72 53.0696 132.101 53.9487 131.316 54.6648Z" fill="white"/>
<path d="M153.501 50.0587H138.089V48.4984L146.538 38.9186C147.654 37.6983 148.63 36.3568 149.447 34.9191C149.964 33.9783 150.244 32.9262 150.265 31.853C150.3 31.1762 150.197 30.4992 149.963 29.8632C149.729 29.2272 149.368 28.6455 148.902 28.1533C148.396 27.6842 147.802 27.3217 147.153 27.0876C146.505 26.8535 145.816 26.7525 145.127 26.7906C144.383 26.7598 143.64 26.8857 142.948 27.1604C142.255 27.4351 141.628 27.8523 141.107 28.385C140.59 28.937 140.189 29.5864 139.925 30.2953C139.662 31.0042 139.543 31.7584 139.574 32.5139H137.53C137.515 31.1894 137.838 29.8829 138.47 28.7188C139.091 27.5887 140.019 26.6578 141.148 26.0343C142.359 25.3746 143.721 25.0411 145.1 25.0668C147.371 25.0668 149.136 25.6596 150.394 26.8451C151.037 27.4697 151.539 28.2243 151.867 29.0586C152.195 29.8928 152.341 30.7875 152.295 31.6827C152.249 33.012 151.879 34.31 151.218 35.4642C150.155 37.305 148.887 39.0193 147.437 40.5743L140.548 48.3485H153.494L153.501 50.0587Z" fill="white"/>
<path d="M172.722 50.0587H157.276V48.4984L165.731 38.9187C166.847 37.6984 167.823 36.3568 168.64 34.9192C169.155 33.978 169.434 32.9257 169.451 31.8531C169.487 31.1763 169.384 30.4993 169.15 29.8633C168.916 29.2273 168.555 28.6455 168.089 28.1534C167.583 27.6843 166.989 27.3218 166.34 27.0877C165.691 26.8535 165.002 26.7525 164.314 26.7907C163.569 26.7594 162.827 26.8852 162.134 27.1599C161.442 27.4346 160.815 27.852 160.294 28.385C159.777 28.9371 159.375 29.5865 159.112 30.2954C158.849 31.0043 158.73 31.7585 158.761 32.514H156.717C156.701 31.1895 157.025 29.883 157.657 28.7189C158.278 27.5887 159.206 26.6578 160.335 26.0344C161.546 25.374 162.908 25.0406 164.287 25.0669C166.558 25.0669 168.32 25.6596 169.574 26.8452C170.219 27.4683 170.723 28.2226 171.052 29.0571C171.382 29.8916 171.528 30.7869 171.482 31.6828C171.432 33.0115 171.063 34.3086 170.405 35.4642C169.342 37.3051 168.073 39.0194 166.624 40.5744L159.769 48.3485H172.715L172.722 50.0587Z" fill="white"/>
<path d="M191.915 50.0586H176.496V48.4984L184.945 38.9186C186.063 37.6981 187.041 36.3566 187.861 34.9191C188.373 33.9766 188.651 32.9252 188.672 31.853C188.708 31.1762 188.605 30.4992 188.371 29.8632C188.136 29.2272 187.775 28.6455 187.309 28.1533C186.804 27.6842 186.209 27.3217 185.561 27.0876C184.912 26.8535 184.223 26.7524 183.535 26.7906C182.788 26.76 182.043 26.8867 181.348 27.1625C180.653 27.4384 180.024 27.8572 179.501 28.3918C178.984 28.9438 178.583 29.5932 178.319 30.3021C178.056 31.011 177.937 31.7652 177.968 32.5207H175.958C175.95 31.1915 176.283 29.8824 176.926 28.7188C177.544 27.5896 178.47 26.6588 179.597 26.0343C180.81 25.3746 182.174 25.0412 183.555 25.0668C185.826 25.0668 187.589 25.6596 188.842 26.8451C189.488 27.4683 189.992 28.2225 190.321 29.057C190.65 29.8915 190.796 30.7868 190.75 31.6827C190.701 33.0114 190.331 34.3085 189.674 35.4642C188.61 37.305 187.342 39.0193 185.892 40.5743L178.97 48.3485H191.915V50.0586Z" fill="white"/>
<path d="M221.002 27.1656H212.553V50.0589H210.468V27.1656H202.033V25.4009H221.002V27.1656Z" fill="white"/>
<path d="M221.711 40.656C221.683 39.009 222.033 37.3777 222.733 35.8865C223.361 34.5288 224.37 33.3833 225.638 32.5896C226.906 31.7959 228.378 31.3885 229.873 31.4169C230.99 31.3793 232.101 31.5902 233.126 32.0344C234.151 32.4787 235.065 33.1451 235.801 33.9856C237.314 35.6935 238.07 37.9646 238.07 40.799V41.2283C238.094 42.8749 237.744 44.5055 237.048 45.9977C236.417 47.3357 235.414 48.4639 234.159 49.2477C232.878 50.0236 231.405 50.4227 229.907 50.3992C228.792 50.4349 227.683 50.223 226.659 49.7789C225.635 49.3347 224.722 48.6694 223.986 47.8305C222.465 46.1181 221.706 43.8469 221.711 41.0171V40.656ZM223.755 41.2147C223.677 43.1548 224.279 45.0612 225.458 46.6041C225.997 47.264 226.677 47.7958 227.447 48.1609C228.217 48.5261 229.058 48.7155 229.911 48.7155C230.763 48.7155 231.605 48.5261 232.375 48.1609C233.145 47.7958 233.824 47.264 234.363 46.6041C235.563 45.0065 236.165 43.0396 236.067 41.0443V40.656C236.083 39.3323 235.818 38.0203 235.29 36.8063C234.834 35.7087 234.076 34.7634 233.103 34.0809C232.155 33.4391 231.032 33.1059 229.887 33.1271C229.035 33.1111 228.191 33.2951 227.423 33.6643C226.655 34.0335 225.985 34.5776 225.465 35.2529C224.266 36.8512 223.662 38.817 223.755 40.8127V41.2147Z" fill="white"/>
<path d="M246.6 40.8265L244.284 43.0682V50.0588H242.24V24.0449H244.284V40.6971L246.198 38.653L253.237 31.7373H255.792L247.99 39.457L256.439 50.0588H254.02L246.6 40.8265Z" fill="white"/>
<path d="M265.991 50.3992C264.504 50.4161 263.041 50.0173 261.767 49.2477C260.506 48.4752 259.488 47.363 258.83 46.0386C258.116 44.605 257.756 43.0207 257.781 41.4191V40.6968C257.754 39.0499 258.104 37.4185 258.803 35.9274C259.432 34.5782 260.42 33.4279 261.658 32.6024C262.825 31.8089 264.205 31.3862 265.617 31.3896C266.614 31.3461 267.607 31.5281 268.524 31.9222C269.441 32.3162 270.257 32.9121 270.911 33.6653C272.214 35.1824 272.866 37.2583 272.866 39.8928V41.0239H259.791V41.4122C259.727 43.3047 260.366 45.1539 261.583 46.6041C262.127 47.2675 262.814 47.7991 263.593 48.159C264.372 48.5189 265.222 48.6978 266.08 48.6822C267.069 48.7019 268.049 48.4993 268.949 48.0894C269.841 47.6416 270.616 46.9905 271.211 46.1885L272.478 47.156C271.766 48.2074 270.795 49.0579 269.659 49.6258C268.523 50.1938 267.26 50.4601 265.991 50.3992V50.3992ZM265.617 33.1611C264.893 33.1488 264.174 33.2921 263.51 33.5813C262.846 33.8704 262.252 34.2987 261.767 34.8372C260.664 36.0946 259.995 37.6738 259.859 39.3409H270.85V39.1161C270.862 37.5515 270.33 36.0314 269.344 34.8168C268.888 34.2768 268.316 33.8471 267.671 33.5603C267.025 33.2735 266.323 33.137 265.617 33.1611V33.1611Z" fill="white"/>
<path d="M278.746 31.737L278.814 34.8712C279.436 33.8053 280.321 32.9163 281.383 32.2888C282.419 31.6934 283.595 31.3852 284.79 31.3963C286.752 31.3963 288.215 31.9504 289.178 33.0588C290.132 34.1626 290.622 35.825 290.629 38.0326V50.0584H288.619V38.019C288.706 36.7154 288.338 35.422 287.577 34.3601C286.895 33.5562 285.798 33.161 284.299 33.161C283.085 33.1462 281.905 33.5613 280.968 34.3329C279.972 35.1711 279.231 36.2708 278.828 37.508V50.0584H276.784V31.737H278.746Z" fill="white"/>
<path d="M306.838 45.4254C306.85 44.9538 306.745 44.4866 306.533 44.0649C306.322 43.6432 306.01 43.2798 305.626 43.0067C304.522 42.2787 303.278 41.7911 301.973 41.5758C300.673 41.3275 299.407 40.9202 298.206 40.363C297.407 40.0048 296.718 39.4404 296.209 38.7278C295.75 38.036 295.512 37.2209 295.528 36.3908C295.521 35.6929 295.682 35.0037 295.998 34.3812C296.313 33.7586 296.774 33.221 297.34 32.8137C298.68 31.8249 300.317 31.3248 301.98 31.3965C303.748 31.3062 305.491 31.8444 306.9 32.9159C307.495 33.3844 307.973 33.9858 308.295 34.6719C308.617 35.3581 308.774 36.1101 308.753 36.8677H306.709C306.711 36.3452 306.589 35.8296 306.352 35.3639C306.115 34.8982 305.77 34.4957 305.346 34.19C304.379 33.5288 303.242 33.1604 302.071 33.1289C300.9 33.0975 299.745 33.4044 298.744 34.0129C298.365 34.2658 298.055 34.6097 297.843 35.0132C297.631 35.4167 297.524 35.8669 297.531 36.3226C297.512 36.7325 297.594 37.1408 297.77 37.5116C297.945 37.8823 298.21 38.204 298.539 38.4484C299.668 39.1274 300.914 39.5896 302.212 39.8111C303.596 40.1012 304.939 40.5588 306.211 41.1738C307.005 41.5664 307.685 42.155 308.187 42.884C308.63 43.6141 308.852 44.4563 308.828 45.3096C308.846 46.0341 308.684 46.7518 308.357 47.3986C308.03 48.0454 307.548 48.6011 306.954 49.0162C305.517 49.9892 303.802 50.4676 302.069 50.3788C300.229 50.4574 298.416 49.9124 296.925 48.8322C296.303 48.3865 295.798 47.7979 295.452 47.1161C295.106 46.4342 294.928 45.6791 294.935 44.9144H296.979C296.997 45.4604 297.141 45.9948 297.401 46.475C297.661 46.9552 298.03 47.3681 298.478 47.6807C299.558 48.3877 300.834 48.7358 302.123 48.6755C303.329 48.729 304.52 48.4025 305.53 47.742C305.924 47.4951 306.249 47.154 306.478 46.7495C306.706 46.345 306.83 45.8899 306.838 45.4254V45.4254Z" fill="white"/>
<path d="M208.997 208.833C201.684 210.168 195.158 214.248 190.757 220.239C186.785 225.372 184.801 231.767 185.17 238.247C185.17 238.86 184.891 239.807 185.851 239.909C186.056 239.909 186.533 238.881 186.628 238.288C187.315 233.385 189.327 228.763 192.447 224.92C194.661 222.089 197.461 219.771 200.655 218.124C203.849 216.478 207.362 215.542 210.952 215.381C214.4 215.11 217.863 215.646 221.067 216.947C224.27 218.248 227.127 220.278 229.41 222.876C234.091 228.013 236.182 234.22 236.353 241.109C236.484 244.063 235.928 247.007 234.726 249.709C233.525 252.411 231.712 254.796 229.43 256.677C224.436 260.97 218.44 262.891 211.995 263.45C207.293 263.859 202.565 264.015 197.843 264.268C185.797 264.901 173.751 265.48 161.732 266.162C153.065 266.652 144.405 267.272 135.745 267.845C134.833 267.884 133.923 267.97 133.02 268.104C132.72 268.151 132.474 268.512 132.209 268.73C132.447 268.936 132.705 269.119 132.979 269.275C133.201 269.334 133.431 269.357 133.66 269.344C138.334 269.671 143.008 270.025 147.689 270.311C167.564 271.456 187.439 272.56 207.505 273.718C214.359 273.936 221.234 273.118 227.679 270.12C235.903 266.305 241.851 260.261 244.713 251.554C247.275 243.711 246.593 235.923 243.548 228.32C238.029 214.699 223.993 205.931 208.997 208.833Z" fill="white"/>
<path d="M216.873 282.412C212.129 278.899 206.362 277.042 200.459 277.125C195.69 277.091 190.866 277.54 186.076 277.806C177.528 278.31 168.974 278.835 160.417 279.38C156.969 279.605 153.528 279.905 150.081 280.198C149.711 280.273 149.35 280.387 149.004 280.538V280.886C149.364 281.023 149.735 281.126 150.115 281.192C152.104 281.37 154.101 281.533 156.09 281.663C170.017 282.548 183.944 283.4 197.863 284.333C200.512 284.444 203.144 284.799 205.726 285.396C215.204 287.842 219.891 295.126 218.188 304.426C216.233 315.062 206.871 321.31 196.569 318.85C189.388 317.133 183.828 310.858 182.554 303.05C182.479 302.587 182.342 302.13 182.233 301.687H181.729C181.631 302.294 181.57 302.906 181.545 303.52C181.573 306.606 182.27 309.649 183.589 312.439C188.12 322.121 200.466 327.095 210.373 323.095C219.346 319.477 224.143 312.528 225.424 303.152C226.596 294.69 223.796 287.617 216.873 282.412Z" fill="white"/>
<path d="M142.613 257.093C151.409 257.393 160.205 257.706 169.002 257.965C179.721 258.288 190.439 258.574 201.154 258.824C203.686 258.945 206.222 258.881 208.745 258.633C212.581 258.163 216.035 256.671 218.522 253.55C221.779 249.462 221.929 243.473 218.985 238.595C217.717 236.374 215.789 234.604 213.47 233.527C211.151 232.45 208.554 232.121 206.04 232.585C200.514 233.512 196.215 238.513 196.269 243.95C196.309 244.387 196.387 244.82 196.501 245.245H196.889C196.985 244.897 197.059 244.563 197.168 244.202C197.44 243.124 197.807 242.073 198.265 241.061C200.309 237.348 203.464 235.304 207.736 235.44C211.695 235.563 214.413 237.695 215.987 241.286C217.772 245.374 216.955 249.728 213.882 252.249C211.736 254.007 209.113 254.572 206.435 254.647C191.609 255.076 176.783 255.438 161.963 255.84C155.743 256.003 149.522 256.207 143.301 256.412C142.842 256.458 142.386 256.538 141.938 256.65L141.979 256.998C142.188 257.046 142.4 257.077 142.613 257.093V257.093Z" fill="white"/>
<path d="M194.825 182.083C150.149 182.52 114.589 217.187 112.906 261.181C112.42 272.246 114.186 283.294 118.099 293.656C122.011 304.017 127.988 313.475 135.666 321.457C143.344 329.439 152.564 335.777 162.767 340.088C172.969 344.398 183.94 346.591 195.015 346.534C239.494 346.568 275.415 312.023 277.281 267.15C279.128 221.677 242.335 182.315 194.825 182.083ZM194.573 340.047C154.598 340.088 120.176 306.961 119.999 264.377C119.829 224.075 152.07 190.069 193.496 189.095C234.793 188.127 269.466 220.661 270.441 262.271C271.449 305.7 237.654 339.904 194.573 340.047V340.047Z" fill="white"/>
</svg>
