<svg width="394" height="392" viewBox="0 0 394 392" fill="none" xmlns="http://www.w3.org/2000/svg">
<path d="M379.852 392.007H14.1553C10.4044 391.996 6.81026 390.509 4.15797 387.87C1.50568 385.231 0.0108408 381.655 0 377.923V14.0835C0.0108408 10.3516 1.50568 6.77569 4.15797 4.13687C6.81026 1.49804 10.4044 0.0107858 14.1553 0H379.852C383.602 0.0107858 387.197 1.49804 389.849 4.13687C392.501 6.77569 393.996 10.3516 394.007 14.0835V377.923C393.996 381.655 392.501 385.231 389.849 387.87C387.197 390.509 383.602 391.996 379.852 392.007V392.007ZM14.1553 6.13213C12.0385 6.1411 10.011 6.9817 8.51415 8.47093C7.01733 9.96015 6.17243 11.9774 6.16342 14.0835V377.923C6.17243 380.029 7.01733 382.047 8.51415 383.536C10.011 385.025 12.0385 385.866 14.1553 385.875H379.852C381.975 385.871 384.011 385.03 385.513 383.536C387.015 382.042 387.86 380.016 387.864 377.903V14.0835C387.855 11.9739 387.007 9.95355 385.506 8.46375C384.005 6.97394 381.972 6.13571 379.852 6.13213H14.1553Z" fill="white"/>
<path d="M226.636 208.37C216.473 210.918 206.522 214.039 197.051 218.59C184.218 224.811 173.452 233.369 165.406 245.21C158.749 255.022 154.777 265.651 155.133 277.636C155.174 278.999 155.291 280.402 155.366 281.785H155.661C155.756 280.688 155.811 279.584 155.955 278.488C157.523 266.194 162.723 254.641 170.898 245.292C182.334 231.917 196.764 223.591 214.165 220.457C216.11 220.103 218.082 219.926 220.253 219.633C219.712 220.805 219.267 221.677 218.884 222.61C214.918 231.999 211.029 241.415 206.988 250.77C204.717 256.243 201.955 261.502 198.736 266.482C195.004 272.062 190.361 276.818 185.444 281.342C178.743 287.555 171.652 293.338 164.214 298.655C163.865 298.901 163.529 299.126 163.146 299.337L162.906 299.091C169.795 277.52 179.595 257.638 196.764 242.042L196.545 241.797C196.161 242.035 195.771 242.267 195.394 242.519C188.824 246.958 183.129 252.561 178.595 259.049C170.617 270.27 164.851 282.535 159.948 295.296C158.044 300.25 156.523 305.333 154.743 310.334C154.311 311.56 154.469 312.419 155.53 313.223C156.541 314 157.489 314.854 158.366 315.778C159.092 316.534 159.578 316.52 160.324 315.778C162.674 313.321 165.402 311.251 168.405 309.646C176.575 305.312 185.416 303.214 194.504 302.021C197.38 301.64 200.284 301.497 203.167 301.238C190.606 299.715 177.862 301.189 165.988 305.537C165.988 305.278 165.988 305.183 166.036 305.142C166.207 304.936 166.403 304.751 166.618 304.59C169.405 302.737 172.055 300.618 175.021 299.105C183.718 294.663 193.052 293.389 202.722 294.254C210.018 294.91 217.099 297.06 223.52 300.57C223.931 300.795 224.294 301.101 224.773 301.429C222.369 302.791 220.109 304.072 217.925 305.435C213.131 308.433 208.433 311.635 203.543 314.49C195.812 318.987 187.676 320.336 179.116 316.827C178.913 316.804 178.709 316.804 178.506 316.827C180.769 318.572 183.425 319.742 186.245 320.234C191.691 321.282 197.333 320.452 202.242 317.883C206.952 315.327 211.524 312.527 215.939 309.496C220.048 306.716 224.376 304.535 229.252 303.5C230.327 303.275 231.416 303.084 232.498 302.88V302.553C219.205 292.864 204.571 287.563 187.731 289.403C188.123 288.958 188.562 288.556 189.039 288.204C196.661 282.201 203.42 275.408 208.748 267.252C213.076 260.623 216.466 253.482 219.671 246.287C225.52 233.151 231.094 219.885 236.792 206.673C236.922 206.374 236.997 206.047 237.168 205.522C236.573 205.645 236.169 205.706 235.799 205.815C232.738 206.667 229.711 207.586 226.636 208.37Z" fill="white"/>
<path d="M195.867 182.097C150.963 182.533 115.222 217.193 113.53 261.195C113.036 272.262 114.808 283.314 118.739 293.68C122.669 304.045 128.675 313.508 136.393 321.493C144.111 329.478 153.38 335.82 163.637 340.133C173.893 344.445 184.924 346.639 196.058 346.581C240.764 346.581 276.868 312.071 278.744 267.198C280.62 221.69 243.571 182.329 195.867 182.097ZM195.634 340.061C155.455 340.102 120.858 306.968 120.68 264.384C120.509 224.089 152.914 190.117 194.552 189.108C236.059 188.134 270.91 220.668 271.889 262.285C272.889 305.701 238.915 339.918 195.634 340.061Z" fill="white"/>
<path d="M46.1435 22.7163V30.1021H25.7151V22.7163H46.1435ZM46.1435 33.8018V41.1945H25.7151V33.8018H46.1435ZM46.1435 44.8874V52.28H25.7151V44.8874H46.1435Z" fill="white"/>
<path d="M57.2993 48.5803V52.28H49.8621V22.7163H70.3109V52.28H62.86V48.5803H57.2993ZM62.8737 41.1945V30.1021H57.2993V41.1945H62.8737Z" fill="white"/>
<path d="M74.0021 30.1021V22.7163H94.4373V41.1945H81.4256V52.28H74.0021V33.8018H87.0138V30.1021H74.0021ZM90.7187 44.8874L94.4373 52.28H87.0069L83.3226 44.8874H90.7187Z" fill="white"/>
<path d="M98.149 30.1021V22.7163H116.721V30.1021H98.149ZM111.161 33.8018V52.28H103.723V33.8018H111.161Z" fill="white"/>
<path d="M127.836 33.8018H133.411V22.7163H140.848V52.28H133.438V41.1945H127.836V52.28H120.433V22.7163H127.836V33.8018Z" fill="white"/>
<path d="M35.5355 82.5387H26.9136V91.1168H26.2288V73.6743H36.7545V74.3557H26.9136V81.905H35.5355V82.5387Z" fill="white"/>
<path d="M38.22 84.3849C38.1457 82.6896 38.7098 81.0277 39.802 79.7244C40.3242 79.1577 40.9591 78.7052 41.6665 78.3957C42.3739 78.0861 43.1382 77.9263 43.9109 77.9263C44.6837 77.9263 45.448 78.0861 46.1554 78.3957C46.8627 78.7052 47.4977 79.1577 48.0199 79.7244C49.1121 81.0277 49.6762 82.6896 49.6018 84.3849V84.8891C49.6746 86.5862 49.1108 88.2496 48.0199 89.5563C47.4993 90.1258 46.8649 90.5808 46.1574 90.8921C45.4498 91.2035 44.6846 91.3643 43.9109 91.3643C43.1372 91.3643 42.3721 91.2035 41.6645 90.8921C40.9569 90.5808 40.3225 90.1258 39.802 89.5563C38.7057 88.2522 38.139 86.5875 38.2132 84.8891L38.22 84.3849ZM38.9049 84.8891C38.8584 86.385 39.3434 87.8494 40.2745 89.0248C40.7134 89.577 41.277 90.0184 41.9196 90.3132C42.5621 90.608 43.2655 90.7478 43.9726 90.7214C44.6739 90.7444 45.3708 90.602 46.0063 90.306C46.6419 90.01 47.1981 89.5686 47.6295 89.018C48.5597 87.8447 49.0446 86.3828 48.9992 84.8891V84.3849C49.0355 82.905 48.551 81.459 47.6295 80.2968C47.1796 79.7638 46.6178 79.3353 45.9837 79.0413C45.3496 78.7473 44.6585 78.5949 43.9589 78.5949C43.2593 78.5949 42.5682 78.7473 41.934 79.0413C41.2999 79.3353 40.7382 79.7638 40.2882 80.2968C39.3687 81.4601 38.8845 82.9053 38.9186 84.3849L38.9049 84.8891Z" fill="white"/>
<path d="M57.1554 90.7216C58.1973 90.7389 59.2173 90.4238 60.0659 89.8223C60.4919 89.5119 60.8316 89.0991 61.0532 88.6223C61.2748 88.1456 61.371 87.6207 61.3329 87.0969H61.8807V87.1718C61.9202 87.7512 61.816 88.3314 61.5771 88.8613C61.3383 89.3912 60.9722 89.8546 60.5111 90.2106C59.5579 90.9579 58.3758 91.3572 57.1623 91.3417C56.4149 91.3738 55.6706 91.2287 54.9907 90.9183C54.3108 90.6079 53.7148 90.1412 53.2519 89.5565C52.2586 88.2063 51.7541 86.5612 51.8207 84.8893V84.3851C51.7288 82.7152 52.2119 81.0641 53.1903 79.7042C53.6485 79.1195 54.2407 78.6524 54.9174 78.3418C55.5941 78.0313 56.3356 77.8863 57.0801 77.9191C58.3281 77.8813 59.5466 78.3008 60.5042 79.0978C60.9791 79.506 61.3506 80.0197 61.5886 80.5974C61.8265 81.1751 61.9243 81.8005 61.8739 82.4228V82.4909H61.326C61.3596 81.9433 61.2658 81.3953 61.052 80.8896C60.8383 80.3839 60.5102 79.9339 60.0933 79.5748C59.2568 78.8939 58.2016 78.5359 57.1212 78.5664C56.4556 78.5251 55.7902 78.6507 55.1859 78.9316C54.5817 79.2126 54.058 79.6399 53.6628 80.1744C52.8343 81.4186 52.4286 82.8945 52.5055 84.3851V84.8893C52.4371 86.3819 52.8498 87.8572 53.6834 89.1C54.0822 89.6349 54.6081 90.063 55.2141 90.346C55.82 90.629 56.4871 90.7581 57.1554 90.7216V90.7216Z" fill="white"/>
<path d="M73.9679 88.8412C73.5823 89.6185 72.9748 90.2655 72.2216 90.7012C71.3875 91.1712 70.4406 91.4068 69.4823 91.3826C68.8815 91.4096 68.2828 91.2947 67.7352 91.0472C67.1877 90.7996 66.7068 90.4266 66.3321 89.9586C65.5742 89.0092 65.1953 87.5421 65.1953 85.5571V78.1304H65.8801V85.5434C65.8801 87.3013 66.2043 88.5981 66.8526 89.4339C67.1572 89.8401 67.5561 90.1668 68.0153 90.3863C68.4744 90.6058 68.9801 90.7115 69.4891 90.6944C70.5997 90.7663 71.6969 90.4211 72.564 89.7269C73.3046 89.058 73.8029 88.1647 73.9816 87.1855V78.1304H74.6664V85.7547C74.6664 85.8637 74.6664 85.9591 74.6664 86.0545C74.6664 86.1498 74.6664 86.2657 74.6664 86.3951V91.0896H74.1254L73.9679 88.8412Z" fill="white"/>
<path d="M86.7467 87.9413C86.7398 87.5848 86.6576 87.2338 86.5054 86.911C86.3532 86.5882 86.1344 86.3008 85.8633 86.0676C84.9691 85.3634 83.9035 84.9074 82.7747 84.7458C81.5765 84.5562 80.43 84.125 79.4054 83.4785C79.0563 83.2097 78.7789 82.8598 78.5974 82.4595C78.4159 82.0591 78.3359 81.6206 78.3645 81.1824C78.3641 80.7296 78.4713 80.2832 78.6772 79.8795C78.883 79.4758 79.1818 79.1261 79.5492 78.859C80.4678 78.1906 81.5903 77.8584 82.7268 77.9187C83.9395 77.8493 85.1386 78.2036 86.1167 78.9203C86.5147 79.2278 86.8308 79.6278 87.0373 80.0851C87.2439 80.5424 87.3346 81.0432 87.3014 81.5435V81.6184H86.7467C86.747 81.1993 86.6501 80.7858 86.4637 80.4101C86.2772 80.0343 86.0061 79.7063 85.6715 79.4518C84.8351 78.8223 83.8013 78.5084 82.7542 78.566C81.7659 78.4956 80.7842 78.7729 79.9806 79.3495C79.6957 79.5604 79.463 79.8334 79.3004 80.1475C79.1378 80.4617 79.0495 80.8087 79.0424 81.1619C79.0396 81.4916 79.1092 81.818 79.2464 82.1181C79.3836 82.4182 79.5851 82.6849 79.8368 82.8994C80.7785 83.5528 81.8587 83.9818 82.9939 84.153C84.1777 84.3731 85.3021 84.8373 86.2947 85.5157C86.666 85.7992 86.9627 86.1679 87.1595 86.5903C87.3563 87.0127 87.4473 87.4763 87.4247 87.9413C87.4329 88.4228 87.3231 88.8991 87.1047 89.3288C86.8863 89.7586 86.566 90.1289 86.1714 90.4078C85.199 91.0781 84.0317 91.4109 82.85 91.3549C81.5796 91.4275 80.3219 91.0696 79.2821 90.3397C78.8862 90.0664 78.567 89.697 78.3549 89.2665C78.1428 88.836 78.0447 88.3588 78.07 87.88V87.8051H78.6041C78.6064 88.2587 78.7301 88.7036 78.9623 89.0939C79.1946 89.4843 79.5272 89.8061 79.9258 90.0263C80.8196 90.4958 81.8191 90.7304 82.8295 90.7076C83.8521 90.7631 84.8627 90.4672 85.6921 89.8696C86.0067 89.6521 86.2659 89.3646 86.449 89.0298C86.6321 88.695 86.7341 88.3223 86.7467 87.9413V87.9413Z" fill="white"/>
<path d="M95.8822 84.3849C95.8079 82.6896 96.372 81.0277 97.4642 79.7244C97.9864 79.1577 98.6214 78.7052 99.3287 78.3957C100.036 78.0861 100.8 77.9263 101.573 77.9263C102.346 77.9263 103.11 78.0861 103.818 78.3957C104.525 78.7052 105.16 79.1577 105.682 79.7244C106.774 81.0277 107.338 82.6896 107.264 84.3849V84.8891C107.337 86.5862 106.773 88.2496 105.682 89.5563C105.162 90.1258 104.527 90.5808 103.82 90.8921C103.112 91.2035 102.347 91.3643 101.573 91.3643C100.799 91.3643 100.034 91.2035 99.3267 90.8921C98.6191 90.5808 97.9847 90.1258 97.4642 89.5563C96.3679 88.2522 95.8012 86.5875 95.8754 84.8891L95.8822 84.3849ZM96.526 84.8891C96.4801 86.3849 96.965 87.8491 97.8956 89.0248C98.3451 89.5582 98.9064 89.9873 99.5403 90.2818C100.174 90.5764 100.865 90.7294 101.565 90.7301C102.264 90.7307 102.956 90.579 103.59 90.2856C104.224 89.9922 104.786 89.5642 105.237 89.0317C106.164 87.8566 106.649 86.3959 106.607 84.9027V84.3985C106.643 82.9186 106.158 81.4726 105.237 80.3104C104.787 79.7774 104.225 79.3489 103.591 79.0549C102.957 78.7609 102.266 78.6086 101.566 78.6086C100.867 78.6086 100.176 78.7609 99.5415 79.0549C98.9074 79.3489 98.3456 79.7774 97.8956 80.3104C96.9762 81.4737 96.4919 82.919 96.526 84.3985V84.8891Z" fill="white"/>
<path d="M110.948 78.1301L111.037 80.7397C111.397 79.8854 111.999 79.1538 112.77 78.6343C113.601 78.1159 114.57 77.8573 115.55 77.8916C116.154 77.8519 116.758 77.9546 117.314 78.1914C117.87 78.4282 118.361 78.7925 118.749 79.2543C119.452 80.1401 119.805 81.5505 119.81 83.4855V91.1166H119.159V83.4583C119.159 81.6686 118.838 80.4036 118.194 79.6632C117.865 79.2975 117.458 79.0094 117.003 78.8196C116.548 78.6299 116.057 78.5433 115.564 78.5662C114.987 78.527 114.409 78.6127 113.869 78.8174C113.328 79.022 112.839 79.3408 112.434 79.7517C111.686 80.6129 111.209 81.6748 111.065 82.8042V91.1166H110.414V84.4803H110.38C110.38 84.3304 110.38 84.1737 110.38 84.017C110.38 83.8603 110.38 83.7035 110.38 83.5468V78.1301H110.948Z" fill="white"/>
<path d="M139.745 84.8755C139.844 86.5637 139.387 88.2378 138.444 89.6449C138.039 90.2097 137.498 90.6653 136.872 90.971C136.246 91.2766 135.553 91.4227 134.856 91.396C133.93 91.4168 133.014 91.206 132.192 90.7828C131.463 90.4034 130.851 89.8363 130.418 89.1407L130.329 91.1439H129.788V87.6077C129.785 87.5874 129.785 87.5667 129.788 87.5464C129.784 87.5307 129.784 87.5144 129.788 87.4987V82.2046V82.1229V72.4341H130.473V80.4331C130.892 79.6438 131.528 78.9888 132.306 78.5439C133.084 78.0989 133.973 77.8823 134.869 77.9189C135.575 77.8936 136.275 78.0466 136.905 78.3635C137.535 78.6805 138.074 79.151 138.471 79.7313C139.412 81.1852 139.87 82.8966 139.78 84.6234L139.745 84.8755ZM139.06 84.6234C139.129 83.0892 138.751 81.568 137.972 80.2423C137.647 79.7093 137.185 79.2726 136.634 78.9778C136.082 78.6829 135.461 78.5408 134.835 78.5662C133.789 78.5062 132.759 78.8366 131.945 79.4928C131.248 80.1057 130.726 80.8907 130.432 81.7686V87.9688C130.746 88.7902 131.311 89.4931 132.048 89.9788C132.889 90.5038 133.87 90.765 134.862 90.7283C135.477 90.7575 136.089 90.6271 136.638 90.35C137.186 90.0729 137.653 89.6585 137.992 89.1476C138.768 87.8633 139.142 86.3787 139.067 84.8823L139.06 84.6234Z" fill="white"/>
<path d="M152.01 88.8412C151.621 89.6158 151.014 90.2618 150.264 90.7012C149.43 91.1712 148.483 91.4068 147.525 91.3826C146.924 91.4096 146.325 91.2947 145.778 91.0472C145.23 90.7996 144.749 90.4266 144.375 89.9586C143.612 89.0092 143.233 87.5421 143.238 85.5571V78.1304H143.888V85.5434C143.888 87.3013 144.213 88.5981 144.861 89.4339C145.166 89.8401 145.564 90.1668 146.024 90.3863C146.483 90.6058 146.988 90.7115 147.497 90.6944C148.608 90.7657 149.705 90.4205 150.572 89.7269C151.313 89.058 151.811 88.1647 151.99 87.1855V78.1304H152.675V85.7547C152.675 85.8637 152.675 85.9591 152.675 86.0545C152.675 86.1498 152.675 86.2657 152.675 86.3951V91.0896H152.134L152.01 88.8412Z" fill="white"/>
<path d="M157.585 74.0829H156.934V72.4341H157.585V74.0829ZM157.585 91.1167H156.934V78.1302H157.585V91.1167Z" fill="white"/>
<path d="M162.666 91.1167H161.982V72.4341H162.666V91.1167Z" fill="white"/>
<path d="M166.337 84.6234C166.245 82.8973 166.7 81.186 167.638 79.7313C168.036 79.1496 168.576 78.678 169.207 78.361C169.839 78.0439 170.541 77.8918 171.247 77.9189C172.171 77.8972 173.081 78.1333 173.877 78.6003C174.623 79.0529 175.237 79.6918 175.657 80.4536V72.4341H176.301V82.1774V87.4578C176.301 87.4578 176.301 87.4578 176.301 87.4987V91.103H175.678V89.0999C175.241 89.7983 174.624 90.3675 173.891 90.7487C173.074 91.1665 172.165 91.3749 171.247 91.3551C170.549 91.3823 169.855 91.2365 169.227 90.9309C168.6 90.6253 168.059 90.1693 167.652 89.6041C166.714 88.1949 166.26 86.5217 166.358 84.8346L166.337 84.6234ZM167.022 84.8755C166.945 86.3712 167.317 87.8557 168.09 89.1407C168.429 89.6532 168.897 90.0686 169.447 90.3458C169.997 90.6231 170.611 90.7526 171.227 90.7215C172.221 90.7571 173.203 90.4909 174.041 89.9584C174.781 89.4578 175.349 88.7448 175.671 87.9143V81.7822C175.365 80.8993 174.834 80.1104 174.13 79.4928C173.316 78.832 172.282 78.5011 171.233 78.5662C170.607 78.5403 169.984 78.6822 169.432 78.977C168.879 79.2718 168.415 79.7088 168.09 80.2423C167.317 81.57 166.941 83.0902 167.008 84.6234L167.022 84.8755Z" fill="white"/>
<path d="M181.252 74.0829H180.568V72.4341H181.252V74.0829ZM181.252 91.1167H180.568V78.1302H181.252V91.1167Z" fill="white"/>
<path d="M186.046 78.1303L186.128 80.7399C186.492 79.8862 187.096 79.1551 187.868 78.6345C188.699 78.1162 189.668 77.8575 190.648 77.8919C191.251 77.8515 191.854 77.954 192.409 78.1909C192.964 78.4278 193.454 78.7924 193.84 79.2546C194.552 80.1403 194.908 81.5507 194.908 83.4857V91.1168H194.223V83.4585C194.223 81.6688 193.899 80.4038 193.251 79.6634C192.923 79.2966 192.516 79.0076 192.061 78.8178C191.606 78.6279 191.114 78.542 190.621 78.5664C190.044 78.5286 189.466 78.6149 188.926 78.8195C188.386 79.0241 187.897 79.3421 187.491 79.752C186.742 80.6129 186.266 81.6749 186.122 82.8044V91.1168H185.471V84.4805H185.437C185.437 84.3306 185.437 84.1739 185.437 84.0172C185.437 83.8605 185.437 83.7038 185.437 83.5471V78.1303H186.046Z" fill="white"/>
<path d="M198.407 84.6236C198.315 82.8975 198.77 81.1861 199.708 79.7315C200.106 79.1497 200.646 78.6782 201.278 78.3611C201.909 78.0441 202.611 77.892 203.318 77.9191C204.241 77.8941 205.153 78.1303 205.947 78.6004C206.692 79.0585 207.303 79.702 207.721 80.4673L207.817 78.1576H208.372V82.1775V87.458C208.372 87.458 208.372 87.458 208.372 87.4989V91.1713C208.462 92.5644 207.995 93.9365 207.07 94.9869C206.595 95.4522 206.027 95.8138 205.403 96.0484C204.78 96.2831 204.114 96.3856 203.448 96.3496C202.783 96.3453 202.121 96.2791 201.468 96.152C200.849 96.0416 200.244 95.8586 199.667 95.6069L199.866 94.9255C200.411 95.1657 200.977 95.355 201.558 95.4911C202.171 95.6263 202.799 95.6903 203.427 95.6818C204.012 95.7245 204.6 95.642 205.15 95.4399C205.701 95.2377 206.201 94.9206 206.618 94.5099C207.407 93.5734 207.799 92.3694 207.714 91.1509V89.1068C207.266 89.7914 206.651 90.3517 205.927 90.7353C205.113 91.1469 204.21 91.3528 203.297 91.3348C202.599 91.362 201.905 91.2163 201.277 90.9106C200.65 90.605 200.108 90.149 199.702 89.5838C198.764 88.1746 198.31 86.5015 198.407 84.8143V84.6236ZM199.092 84.8757C199.016 86.3713 199.387 87.8559 200.16 89.1409C200.501 89.6534 200.97 90.0687 201.522 90.3459C202.073 90.6231 202.687 90.7526 203.304 90.7216C204.29 90.7563 205.263 90.4952 206.098 89.9721C206.835 89.4817 207.405 88.781 207.735 87.9622V81.7619C207.433 80.8844 206.906 80.1002 206.207 79.4862C205.396 78.8317 204.367 78.5035 203.324 78.5664C202.697 78.54 202.073 78.6815 201.519 78.9763C200.965 79.2711 200.501 79.7084 200.174 80.2425C199.397 81.5689 199.022 83.0901 199.092 84.6236V84.8757Z" fill="white"/>
<path d="M217.802 84.6236C217.709 82.8975 218.164 81.1861 219.103 79.7315C219.5 79.1497 220.04 78.6782 220.672 78.3611C221.303 78.0441 222.005 77.892 222.712 77.9191C223.635 77.8941 224.547 78.1303 225.341 78.6004C226.086 79.0585 226.697 79.702 227.115 80.4673L227.211 78.1576H227.766V82.1775V87.458C227.766 87.458 227.766 87.458 227.766 87.4989V91.1713C227.811 91.8617 227.719 92.5543 227.495 93.2091C227.27 93.8639 226.918 94.4681 226.458 94.9869C225.983 95.4514 225.417 95.8124 224.794 96.047C224.171 96.2816 223.507 96.3847 222.842 96.3496C222.177 96.3453 221.515 96.2791 220.863 96.152C220.243 96.0416 219.638 95.8586 219.062 95.6069L219.253 94.9255C219.801 95.1648 220.37 95.3541 220.952 95.4911C221.565 95.6263 222.193 95.6903 222.821 95.6818C223.407 95.7245 223.994 95.642 224.545 95.4399C225.095 95.2377 225.596 94.9206 226.013 94.5099C226.796 93.571 227.189 92.3688 227.108 91.1509V89.1068C226.661 89.7939 226.043 90.3547 225.314 90.7353C224.501 91.1485 223.597 91.3545 222.684 91.3348C221.987 91.3615 221.294 91.2154 220.668 90.9098C220.042 90.6042 219.501 90.1485 219.096 89.5838C218.158 88.1746 217.704 86.5015 217.802 84.8143V84.6236ZM218.486 84.8757C218.412 86.372 218.786 87.8566 219.562 89.1409C219.902 89.6534 220.371 90.0687 220.923 90.3459C221.474 90.6231 222.088 90.7526 222.705 90.7216C223.689 90.7566 224.66 90.4954 225.492 89.9722C226.231 89.482 226.804 88.7815 227.136 87.9622V81.7619C226.834 80.8844 226.307 80.1002 225.609 79.4862C224.796 78.8329 223.768 78.5048 222.725 78.5664C222.098 78.54 221.474 78.6815 220.92 78.9763C220.366 79.2711 219.902 79.7084 219.575 80.2425C218.796 81.5682 218.418 83.0894 218.486 84.6236V84.8757Z" fill="white"/>
<path d="M240.072 88.7184C239.59 89.5285 238.894 90.1909 238.059 90.633C237.06 91.1491 235.945 91.4024 234.819 91.3689C233.776 91.4274 232.751 91.0722 231.971 90.3809C231.619 90.0331 231.344 89.6156 231.165 89.1555C230.986 88.6954 230.905 88.203 230.93 87.7101C230.938 87.1633 231.084 86.6273 231.354 86.1512C231.625 85.675 232.011 85.274 232.477 84.9847C233.619 84.2164 234.976 83.8297 236.353 83.8809H240.072V81.9867C240.097 81.5161 240.017 81.0457 239.837 80.6097C239.657 80.1738 239.381 79.783 239.031 79.4657C238.197 78.8211 237.155 78.5014 236.1 78.5664C235.081 78.5149 234.075 78.8131 233.251 79.4112C232.91 79.6664 232.635 79.9982 232.448 80.3796C232.262 80.761 232.168 81.181 232.176 81.6052H231.628V81.5507C231.601 81.0606 231.694 80.5713 231.899 80.125C232.104 79.6787 232.416 79.2887 232.806 78.9888C233.75 78.2575 234.926 77.8875 236.121 77.9463C237.329 77.8857 238.52 78.2579 239.476 78.9956C239.907 79.3736 240.245 79.8445 240.464 80.3724C240.684 80.9003 240.779 81.4711 240.743 82.0412V88.5345C240.739 88.9899 240.764 89.445 240.818 89.8972C240.872 90.3303 240.959 90.7585 241.079 91.1781H240.353C240.25 90.6126 240.182 90.1833 240.147 89.904C240.107 89.599 240.089 89.2917 240.093 88.9842L240.072 88.7184ZM234.819 90.7625C235.972 90.8015 237.111 90.5081 238.1 89.9176C239.004 89.3402 239.696 88.4868 240.072 87.4852V84.5759H236.388C235.179 84.5341 233.985 84.8571 232.964 85.5025C232.556 85.7362 232.217 86.0701 231.977 86.4722C231.737 86.8744 231.605 87.3311 231.594 87.7986C231.58 88.1968 231.653 88.5931 231.807 88.961C231.96 89.3289 232.191 89.6597 232.484 89.9313C233.127 90.492 233.966 90.7783 234.819 90.7284V90.7625Z" fill="white"/>
<path d="M245.366 78.1301L245.448 80.7396C245.808 79.8955 246.396 79.1669 247.146 78.6343C247.939 78.1206 248.871 77.8614 249.817 77.8916C250.8 77.8401 251.77 78.1343 252.556 78.7228C253.325 79.3926 253.84 80.3039 254.015 81.3052C254.311 80.3129 254.903 79.4337 255.713 78.7842C256.546 78.1608 257.569 77.8409 258.61 77.878C259.229 77.8377 259.848 77.9439 260.417 78.1879C260.986 78.4318 261.489 78.8067 261.884 79.2816C262.632 80.2173 263.007 81.6844 263.007 83.6831V91.0757H262.322V83.6899C262.322 81.8094 261.986 80.4875 261.308 79.7108C260.976 79.3292 260.561 79.027 260.095 78.8265C259.63 78.6259 259.124 78.5323 258.617 78.5525C258.051 78.5137 257.483 78.5985 256.953 78.8009C256.423 79.0034 255.944 79.3185 255.549 79.7244C254.805 80.5861 254.33 81.6442 254.179 82.7701V83.2538C254.179 83.4173 254.179 83.5809 254.179 83.7512V91.1166H253.495V84.4802C253.495 84.3303 253.495 84.1736 253.495 84.0237C253.495 83.8738 253.495 83.7239 253.495 83.5809C253.495 81.748 253.125 80.4467 252.461 79.6972C252.126 79.3215 251.711 79.0249 251.247 78.8292C250.782 78.6335 250.28 78.5436 249.776 78.5661C249.219 78.5272 248.66 78.6087 248.137 78.8051C247.615 79.0016 247.141 79.3082 246.749 79.704C246.017 80.5412 245.541 81.5698 245.379 82.6679V91.1166H244.695V84.4802C244.695 84.3644 244.695 84.2554 244.695 84.1464C244.695 84.0374 244.695 83.8943 244.695 83.7239V78.1301H245.366Z" fill="white"/>
<path d="M267.814 74.0829H267.171V72.4341H267.814V74.0829ZM267.814 91.1167H267.171V78.1302H267.814V91.1167Z" fill="white"/>
<path d="M272.642 78.1303L272.731 80.7399C273.091 79.8856 273.693 79.154 274.464 78.6345C275.295 78.1162 276.264 77.8575 277.244 77.8919C277.847 77.8515 278.45 77.954 279.005 78.1909C279.56 78.4278 280.05 78.7924 280.436 79.2546C281.148 80.1403 281.504 81.5507 281.504 83.4857V91.1168H280.853V83.4585C280.853 81.6688 280.531 80.4038 279.888 79.6634C279.559 79.2977 279.152 79.0096 278.697 78.8198C278.242 78.6301 277.751 78.5435 277.258 78.5664C276.681 78.5272 276.103 78.6129 275.562 78.8176C275.022 79.0223 274.533 79.341 274.128 79.752C273.38 80.6132 272.903 81.675 272.759 82.8044V91.1168H272.108V84.4805H272.074C272.074 84.3306 272.074 84.1739 272.074 84.0172C272.074 83.8605 272.074 83.7038 272.074 83.5471V78.1303H272.642Z" fill="white"/>
<path d="M284.983 84.6236C284.89 82.8975 285.346 81.1861 286.284 79.7315C286.682 79.1497 287.222 78.6782 287.853 78.3611C288.484 78.0441 289.186 77.892 289.893 77.9191C290.817 77.8941 291.729 78.1303 292.523 78.6004C293.269 79.0583 293.883 79.7017 294.303 80.4673L294.399 78.1576H294.933V82.1775V87.458C294.931 87.4715 294.931 87.4854 294.933 87.4989V91.1713C295.022 92.5653 294.552 93.9376 293.625 94.9869C293.151 95.4514 292.584 95.8124 291.962 96.047C291.339 96.2816 290.674 96.3847 290.009 96.3496C289.343 96.3453 288.678 96.2791 288.023 96.152C287.406 96.0417 286.803 95.8587 286.229 95.6069L286.421 94.9255C286.968 95.1668 287.537 95.3561 288.119 95.4911C288.731 95.6267 289.356 95.6907 289.982 95.6818C290.568 95.7255 291.157 95.6435 291.709 95.4413C292.261 95.2392 292.762 94.9215 293.18 94.5099C293.961 93.57 294.351 92.3679 294.269 91.1509V89.1068C293.821 89.7914 293.206 90.3517 292.482 90.7353C291.668 91.1469 290.765 91.3528 289.852 91.3348C289.154 91.362 288.46 91.2163 287.832 90.9106C287.205 90.605 286.663 90.1491 286.257 89.5838C285.319 88.1746 284.865 86.5015 284.962 84.8143L284.983 84.6236ZM285.668 84.8757C285.591 86.3713 285.963 87.8559 286.736 89.1409C287.077 89.6534 287.546 90.0687 288.097 90.3459C288.648 90.6231 289.262 90.7526 289.879 90.7216C290.865 90.7563 291.839 90.4952 292.673 89.9722C293.41 89.4817 293.981 88.781 294.31 87.9622V81.7619C294.008 80.8844 293.482 80.1002 292.783 79.4862C291.971 78.8317 290.943 78.5035 289.9 78.5664C289.272 78.54 288.649 78.6815 288.095 78.9763C287.541 79.2711 287.076 79.7084 286.75 80.2425C285.973 81.5689 285.597 83.0901 285.668 84.6236V84.8757Z" fill="white"/>
<path d="M34.0974 117.335C33.6202 118.146 32.9254 118.809 32.0909 119.25C31.0918 119.766 29.9768 120.019 28.8516 119.985C27.808 120.046 26.7822 119.697 25.9959 119.011C25.6463 118.662 25.3738 118.244 25.1957 117.784C25.0177 117.324 24.938 116.832 24.9618 116.34C24.9702 115.793 25.1163 115.257 25.3867 114.781C25.6571 114.305 26.0431 113.904 26.5095 113.615C27.6488 112.847 29.004 112.461 30.3788 112.511H34.0974V110.617C34.1218 110.148 34.041 109.68 33.861 109.246C33.6809 108.813 33.4061 108.424 33.0565 108.11C32.2226 107.464 31.18 107.144 30.1254 107.21C29.1088 107.16 28.1055 107.458 27.2834 108.055C26.9438 108.312 26.6692 108.644 26.4814 109.025C26.2935 109.405 26.1976 109.825 26.2014 110.249H25.6604V110.194C25.6331 109.704 25.7261 109.215 25.9313 108.769C26.1365 108.322 26.4478 107.932 26.8383 107.633C27.7798 106.902 28.9535 106.532 30.146 106.59C31.3569 106.528 32.5499 106.901 33.5084 107.639C33.9377 108.018 34.2744 108.489 34.4928 109.017C34.7112 109.545 34.8055 110.115 34.7685 110.685V117.178C34.7667 117.634 34.7942 118.089 34.8507 118.541C34.9004 118.975 34.9875 119.403 35.1109 119.822H34.3645C34.2618 119.256 34.1933 118.827 34.1522 118.548C34.1156 118.243 34.0973 117.935 34.0974 117.628V117.335ZM28.8516 119.379C30.004 119.417 31.143 119.124 32.132 118.534C33.0361 117.958 33.7263 117.104 34.0974 116.102V113.192H30.4199C29.2107 113.151 28.0171 113.474 26.9958 114.119C26.5887 114.353 26.2488 114.687 26.009 115.089C25.7691 115.491 25.6373 115.948 25.6261 116.415C25.6145 116.805 25.6846 117.193 25.832 117.554C25.9794 117.915 26.2008 118.242 26.4821 118.514C26.8028 118.8 27.1772 119.021 27.5837 119.164C27.9903 119.307 28.4212 119.368 28.8516 119.345V119.379Z" fill="white"/>
<path d="M48.8965 113.492C48.9947 115.18 48.538 116.855 47.5953 118.262C47.1893 118.826 46.649 119.281 46.0227 119.587C45.3965 119.892 44.7038 120.039 44.0068 120.013C43.0895 120.032 42.1815 119.826 41.3634 119.413C40.6397 119.033 40.0283 118.472 39.5897 117.785V124.741H38.9049V116.184V116.129V110.794V110.712V106.747H39.4116L39.5417 109.036C39.958 108.273 40.57 107.634 41.3154 107.183C42.1137 106.717 43.0266 106.481 43.952 106.502C44.6574 106.477 45.3575 106.63 45.9873 106.947C46.6171 107.264 47.1561 107.734 47.5542 108.314C48.4951 109.768 48.9526 111.479 48.8622 113.206L48.8965 113.492ZM48.2116 113.24C48.28 111.706 47.9019 110.185 47.1228 108.859C46.7958 108.325 46.3312 107.889 45.7773 107.594C45.2233 107.299 44.6002 107.157 43.9726 107.183C42.9337 107.127 41.9112 107.458 41.1031 108.11C40.4062 108.722 39.8842 109.507 39.5897 110.385V116.579C39.8973 117.413 40.4632 118.129 41.2059 118.623C42.0473 119.148 43.028 119.409 44.0205 119.372C44.636 119.401 45.2484 119.27 45.798 118.993C46.3477 118.716 46.8159 118.302 47.157 117.792C47.936 116.509 48.3105 115.023 48.2322 113.526L48.2116 113.24Z" fill="white"/>
<path d="M62.3875 113.492C62.4857 115.181 62.029 116.855 61.0863 118.262C60.6814 118.826 60.1423 119.281 59.5172 119.586C58.8921 119.892 58.2007 120.038 57.5047 120.013C56.5873 120.033 55.6792 119.827 54.8613 119.413C54.1363 119.035 53.5245 118.473 53.0876 117.785V124.741H52.437V116.184C52.4352 116.166 52.4352 116.147 52.437 116.129C52.4342 116.113 52.4342 116.097 52.437 116.081V110.794C52.4336 110.767 52.4336 110.74 52.437 110.712V106.747H52.9369L53.0739 109.036C53.4856 108.272 54.0957 107.632 54.8407 107.183C55.639 106.717 56.5519 106.481 57.4773 106.502C58.1837 106.477 58.885 106.629 59.516 106.946C60.147 107.263 60.6872 107.734 61.0863 108.314C62.0248 109.769 62.48 111.48 62.3875 113.206V113.492ZM61.7027 113.24C61.7711 111.706 61.393 110.185 60.6138 108.859C60.2852 108.327 59.8203 107.891 59.2668 107.597C58.7132 107.302 58.0909 107.16 57.4636 107.183C56.4249 107.128 55.4025 107.458 54.5942 108.11C53.8993 108.723 53.3796 109.508 53.0876 110.385V116.579C53.3925 117.413 53.9561 118.129 54.6969 118.623C55.5383 119.148 56.519 119.409 57.5115 119.372C58.1271 119.401 58.7398 119.271 59.2895 118.994C59.8393 118.717 60.3074 118.303 60.648 117.792C61.4294 116.51 61.8063 115.024 61.7301 113.526L61.7027 113.24Z" fill="white"/>
<path d="M66.7361 119.733H66.0513V101.051H66.7361V119.733Z" fill="white"/>
<path d="M71.8175 102.7H71.1327V101.051H71.8175V102.7ZM71.8175 119.733H71.1327V106.747H71.8175V119.733Z" fill="white"/>
<path d="M80.5079 119.338C81.5498 119.356 82.5698 119.04 83.4185 118.439C83.8444 118.129 84.1841 117.716 84.4057 117.239C84.6273 116.762 84.7235 116.237 84.6854 115.713H85.2401V115.788C85.2769 116.371 85.1679 116.953 84.9229 117.484C84.6779 118.014 84.3045 118.476 83.8362 118.827C82.883 119.575 81.7009 119.974 80.4874 119.958C79.74 119.99 78.9957 119.845 78.3158 119.535C77.6359 119.225 77.04 118.758 76.5771 118.173C75.5851 116.813 75.0876 115.157 75.1663 113.479V112.974C75.083 111.299 75.5811 109.647 76.5771 108.294C77.0338 107.709 77.6247 107.242 78.3003 106.931C78.9759 106.621 79.7165 106.476 80.46 106.508C81.708 106.471 82.9265 106.89 83.8841 107.687C84.359 108.095 84.7305 108.609 84.9685 109.187C85.2064 109.764 85.3042 110.39 85.2538 111.012V111.08H84.6922C84.7258 110.533 84.632 109.985 84.4182 109.479C84.2045 108.973 83.8764 108.523 83.4595 108.164C82.623 107.483 81.5678 107.125 80.4874 107.156C79.8189 107.116 79.1511 107.245 78.5456 107.529C77.94 107.814 77.4162 108.245 77.0222 108.784C76.1906 110.02 75.7779 111.488 75.8443 112.974V113.479C75.7759 114.971 76.1886 116.447 77.0222 117.689C77.4193 118.231 77.9461 118.666 78.5548 118.954C79.1635 119.242 79.8349 119.374 80.5079 119.338V119.338Z" fill="white"/>
<path d="M96.7725 117.335C96.2909 118.145 95.5943 118.808 94.7591 119.25C93.7601 119.766 92.6451 120.019 91.5199 119.986C90.4763 120.044 89.452 119.689 88.6711 118.998C88.3192 118.65 88.0447 118.232 87.8654 117.772C87.6861 117.312 87.6059 116.82 87.6301 116.327C87.6385 115.78 87.7846 115.244 88.055 114.768C88.3253 114.292 88.7114 113.891 89.1778 113.601C90.3171 112.834 91.6722 112.447 93.0471 112.498H96.7725V110.603C96.7975 110.133 96.7171 109.662 96.5371 109.226C96.3571 108.79 96.0819 108.4 95.7316 108.082C94.8971 107.438 93.855 107.118 92.8005 107.183C91.7817 107.132 90.7759 107.43 89.9517 108.028C89.6121 108.285 89.3375 108.617 89.1496 108.997C88.9618 109.378 88.8659 109.798 88.8697 110.222H88.3286V110.167C88.3014 109.677 88.3944 109.188 88.5996 108.742C88.8048 108.295 89.1161 107.905 89.5065 107.606C90.4502 106.874 91.6264 106.504 92.8211 106.563C94.0297 106.502 95.2203 106.875 96.1767 107.612C96.6073 107.99 96.9452 108.461 97.1648 108.989C97.3844 109.517 97.4798 110.088 97.4436 110.658V117.151C97.4396 117.607 97.4648 118.062 97.519 118.514C97.572 118.947 97.659 119.375 97.7792 119.795H97.0191C96.9163 119.229 96.8479 118.8 96.8136 118.521C96.7737 118.216 96.7554 117.908 96.7588 117.601L96.7725 117.335ZM91.5199 119.379C92.6724 119.418 93.8116 119.125 94.8002 118.534C95.7046 117.957 96.3966 117.103 96.7725 116.102V113.193H93.0882C91.879 113.151 90.6854 113.474 89.664 114.119C89.2569 114.353 88.9171 114.687 88.6773 115.089C88.4374 115.491 88.3055 115.948 88.2944 116.415C88.281 116.813 88.3535 117.21 88.5071 117.578C88.6606 117.946 88.8917 118.276 89.1847 118.548C89.8327 119.114 90.68 119.401 91.5405 119.345L91.5199 119.379Z" fill="white"/>
<path d="M102.956 103.272V106.747H106.161V107.428H102.956V116.388C102.888 117.182 103.077 117.978 103.498 118.657C103.665 118.875 103.882 119.051 104.131 119.169C104.379 119.288 104.653 119.346 104.929 119.338C105.123 119.35 105.317 119.35 105.511 119.338L106.196 119.256L106.312 119.842C106.11 119.907 105.901 119.95 105.689 119.972C105.446 120.001 105.201 120.014 104.956 120.013C104.58 120.037 104.204 119.972 103.857 119.824C103.511 119.676 103.205 119.449 102.963 119.161C102.444 118.35 102.204 117.394 102.279 116.436V107.428H99.8748V106.747H102.279V103.272H102.956Z" fill="white"/>
<path d="M110.031 102.7H109.38V101.051H110.031V102.7ZM110.031 119.733H109.38V106.747H110.031V119.733Z" fill="white"/>
<path d="M113.284 113.002C113.209 111.306 113.773 109.645 114.866 108.341C115.388 107.775 116.023 107.324 116.731 107.015C117.438 106.706 118.202 106.546 118.975 106.546C119.747 106.546 120.511 106.706 121.218 107.015C121.926 107.324 122.561 107.775 123.083 108.341C124.176 109.645 124.74 111.306 124.665 113.002V113.506C124.738 115.203 124.174 116.866 123.083 118.173C122.562 118.742 121.928 119.196 121.22 119.507C120.513 119.817 119.748 119.978 118.975 119.978C118.201 119.978 117.436 119.817 116.729 119.507C116.021 119.196 115.387 118.742 114.866 118.173C113.773 116.867 113.207 115.204 113.277 113.506L113.284 113.002ZM113.934 113.506C113.888 115.002 114.373 116.466 115.304 117.642C115.754 118.177 116.316 118.608 116.952 118.903C117.587 119.199 118.28 119.352 118.981 119.352C119.683 119.352 120.376 119.199 121.011 118.903C121.646 118.608 122.209 118.177 122.659 117.642C123.586 116.467 124.07 115.006 124.029 113.513V113.009C124.065 111.529 123.58 110.083 122.659 108.92C122.209 108.387 121.647 107.959 121.013 107.665C120.379 107.371 119.688 107.219 118.988 107.219C118.289 107.219 117.598 107.371 116.963 107.665C116.329 107.959 115.768 108.387 115.318 108.92C114.398 110.084 113.914 111.529 113.948 113.009L113.934 113.506Z" fill="white"/>
<path d="M128.357 106.747L128.439 109.356C128.803 108.502 129.407 107.771 130.178 107.251C131.01 106.732 131.978 106.474 132.959 106.508C133.561 106.468 134.164 106.57 134.719 106.807C135.274 107.044 135.764 107.409 136.15 107.871C136.862 108.757 137.218 110.167 137.218 112.102V119.733H136.568V112.075C136.568 110.285 136.244 109.02 135.595 108.28C135.267 107.913 134.861 107.624 134.406 107.434C133.95 107.244 133.458 107.158 132.965 107.183C132.389 107.145 131.811 107.231 131.271 107.436C130.731 107.64 130.241 107.958 129.836 108.368C129.087 109.229 128.61 110.291 128.466 111.421V119.733H127.781V113.097C127.781 112.947 127.781 112.79 127.781 112.633C127.781 112.477 127.781 112.32 127.781 112.163V106.747H128.357Z" fill="white"/>
<path d="M149.278 116.558C149.271 116.202 149.189 115.851 149.037 115.528C148.884 115.205 148.666 114.918 148.395 114.685C147.501 113.979 146.435 113.523 145.306 113.363C144.11 113.175 142.965 112.743 141.944 112.095C141.593 111.828 141.315 111.478 141.133 111.078C140.951 110.677 140.872 110.238 140.903 109.799C140.901 109.347 141.007 108.901 141.212 108.497C141.416 108.093 141.714 107.743 142.081 107.476C142.999 106.808 144.122 106.476 145.258 106.536C146.482 106.461 147.694 106.815 148.682 107.537C149.078 107.846 149.392 108.247 149.597 108.704C149.803 109.161 149.893 109.661 149.86 110.16V110.235H149.305C149.305 109.816 149.207 109.402 149.019 109.026C148.832 108.65 148.559 108.323 148.223 108.069C147.387 107.439 146.353 107.125 145.306 107.183C144.329 107.118 143.36 107.395 142.567 107.966C142.281 108.176 142.047 108.449 141.884 108.763C141.722 109.078 141.634 109.425 141.629 109.779C141.624 110.109 141.693 110.436 141.831 110.736C141.968 111.036 142.17 111.303 142.423 111.516C143.362 112.17 144.44 112.599 145.573 112.77C146.759 112.991 147.885 113.455 148.881 114.133C149.25 114.418 149.545 114.787 149.74 115.209C149.936 115.631 150.026 116.094 150.004 116.558C150.012 117.04 149.902 117.516 149.684 117.946C149.466 118.376 149.145 118.746 148.751 119.025C147.779 119.696 146.611 120.029 145.429 119.972C144.159 120.043 142.902 119.686 141.861 118.957C141.465 118.683 141.146 118.314 140.934 117.883C140.722 117.453 140.624 116.976 140.649 116.497V116.422H141.177C141.18 116.876 141.305 117.321 141.539 117.712C141.772 118.102 142.106 118.423 142.505 118.643C143.396 119.114 144.394 119.348 145.402 119.325C146.426 119.379 147.439 119.083 148.271 118.486C148.577 118.264 148.828 117.975 149.002 117.64C149.177 117.306 149.271 116.935 149.278 116.558V116.558Z" fill="white"/>
<path d="M160.269 102.7H159.585V101.051H160.269V102.7ZM160.269 119.733H159.585V106.747H160.269V119.733Z" fill="white"/>
<path d="M165.097 106.747L165.18 109.356C165.543 108.504 166.145 107.774 166.912 107.251C167.744 106.734 168.712 106.476 169.693 106.508C170.296 106.468 170.9 106.57 171.456 106.807C172.012 107.044 172.504 107.408 172.891 107.871C173.603 108.757 173.959 110.167 173.959 112.102V119.733H173.274V112.075C173.274 110.285 172.95 109.02 172.302 108.28C171.974 107.913 171.567 107.624 171.112 107.434C170.657 107.244 170.165 107.158 169.672 107.183C169.095 107.145 168.517 107.231 167.977 107.436C167.437 107.64 166.948 107.958 166.542 108.368C165.794 109.229 165.317 110.291 165.173 111.421V119.733H164.488V113.097C164.488 112.947 164.488 112.79 164.488 112.633C164.488 112.477 164.488 112.32 164.488 112.163V106.747H165.097Z" fill="white"/>
<path d="M186.272 115.986L186.957 118.643H187.032L187.888 115.972L190.799 106.747H191.484L194.394 115.958L195.237 118.629H195.312L195.997 115.972L198.633 106.747H199.393L195.6 119.692H194.949L191.689 109.956L191.148 107.912H191.073L190.511 109.956L187.293 119.692H186.642L182.862 106.747H183.608L186.272 115.986Z" fill="white"/>
<path d="M207.159 119.985C206.42 119.994 205.688 119.839 205.017 119.531C204.345 119.224 203.751 118.771 203.276 118.207C202.202 116.972 201.637 115.377 201.694 113.744V112.974C201.625 111.293 202.184 109.645 203.263 108.348C203.742 107.768 204.347 107.304 205.033 106.99C205.718 106.676 206.467 106.521 207.221 106.536C207.861 106.51 208.499 106.624 209.09 106.869C209.681 107.114 210.212 107.483 210.645 107.953C211.551 109.037 212.011 110.422 211.933 111.83V112.818H202.345V113.744C202.302 115.192 202.789 116.606 203.715 117.723C204.128 118.24 204.656 118.655 205.257 118.935C205.858 119.216 206.516 119.353 207.18 119.338C207.95 119.341 208.713 119.192 209.426 118.902C210.087 118.655 210.683 118.264 211.172 117.757L211.522 118.262C211.025 118.79 210.423 119.21 209.755 119.495C208.935 119.843 208.05 120.011 207.159 119.985V119.985ZM207.221 107.183C206.602 107.16 205.985 107.27 205.411 107.505C204.838 107.74 204.323 108.095 203.9 108.546C203.019 109.519 202.503 110.766 202.441 112.075L202.475 112.15H211.309V111.755C211.358 110.558 210.969 109.384 210.214 108.45C209.845 108.026 209.384 107.691 208.865 107.471C208.346 107.251 207.784 107.153 207.221 107.183V107.183Z" fill="white"/>
<path d="M225.081 113.492C225.176 115.18 224.72 116.853 223.78 118.262C223.374 118.826 222.834 119.281 222.207 119.587C221.581 119.892 220.889 120.039 220.192 120.013C219.266 120.036 218.349 119.825 217.528 119.4C216.797 119.02 216.182 118.453 215.747 117.757L215.665 119.761H215.124V116.224V116.163C215.124 116.163 215.124 116.163 215.124 116.115V110.821C215.124 110.821 215.124 110.787 215.124 110.74V101.051H215.774V109.05C216.193 108.262 216.828 107.607 217.605 107.162C218.381 106.718 219.269 106.5 220.164 106.536C220.871 106.51 221.572 106.662 222.203 106.979C222.834 107.296 223.375 107.767 223.773 108.348C224.714 109.802 225.172 111.513 225.081 113.24V113.492ZM224.396 113.24C224.467 111.707 224.091 110.185 223.314 108.859C222.989 108.325 222.526 107.888 221.973 107.594C221.42 107.299 220.798 107.157 220.171 107.183C219.124 107.121 218.092 107.449 217.274 108.103C216.582 108.718 216.062 109.502 215.768 110.378V116.579C216.08 117.4 216.642 118.103 217.377 118.589C218.221 119.114 219.204 119.375 220.198 119.338C220.813 119.367 221.425 119.237 221.974 118.96C222.522 118.683 222.989 118.268 223.328 117.757C224.101 116.472 224.473 114.988 224.396 113.492V113.24Z" fill="white"/>
<path d="M232.881 110.494C234.134 110.566 235.369 110.178 236.353 109.404C236.749 109.083 237.068 108.677 237.286 108.218C237.504 107.758 237.616 107.255 237.613 106.747C237.633 106.216 237.547 105.686 237.36 105.188C237.173 104.69 236.889 104.233 236.525 103.844C236.1 103.433 235.594 103.115 235.038 102.911C234.483 102.707 233.89 102.621 233.299 102.659C232.114 102.618 230.957 103.025 230.06 103.797C229.633 104.176 229.297 104.645 229.074 105.169C228.851 105.693 228.748 106.26 228.772 106.829H228.218V106.761C228.179 106.122 228.288 105.482 228.536 104.892C228.784 104.301 229.165 103.775 229.649 103.354C230.664 102.468 231.978 101.999 233.327 102.039C234.65 101.974 235.946 102.434 236.929 103.32C237.39 103.766 237.75 104.305 237.986 104.901C238.222 105.496 238.329 106.135 238.298 106.774C238.306 107.672 237.999 108.545 237.429 109.241C236.819 109.986 235.998 110.532 235.073 110.808C236.097 111.023 237.027 111.555 237.73 112.327C238.382 113.104 238.722 114.095 238.682 115.107C238.716 115.773 238.604 116.437 238.354 117.055C238.103 117.673 237.719 118.229 237.23 118.684C236.182 119.575 234.834 120.039 233.457 119.985C232.034 120.003 230.648 119.54 229.526 118.67C228.947 118.24 228.486 117.67 228.188 117.015C227.89 116.36 227.763 115.64 227.821 114.923V114.855H228.375C228.36 115.459 228.481 116.059 228.727 116.612C228.973 117.164 229.34 117.656 229.8 118.05C230.792 118.903 232.071 119.353 233.381 119.311C234.608 119.385 235.817 118.987 236.757 118.2C237.166 117.803 237.485 117.323 237.692 116.793C237.898 116.263 237.988 115.695 237.956 115.127C237.999 114.552 237.896 113.974 237.657 113.448C237.417 112.922 237.049 112.464 236.586 112.116C235.472 111.413 234.165 111.072 232.847 111.142H231.512V110.46L232.881 110.494Z" fill="white"/>
<path d="M243.14 119.733H242.106V118.173H243.14V119.733Z" fill="white"/>
<path d="M177.383 37.4267L178.588 25.4009H190.984V27.2814H180.342L179.472 35.6143C180.848 34.6922 182.477 34.2162 184.136 34.2516C185.13 34.209 186.122 34.3813 187.042 34.7565C187.963 35.1317 188.792 35.701 189.47 36.4251C190.855 38.0254 191.568 40.0939 191.463 42.2029C191.463 44.8011 190.815 46.8156 189.518 48.2465C188.818 48.9811 187.965 49.5544 187.019 49.9263C186.072 50.2983 185.055 50.4598 184.04 50.3995C182.127 50.4841 180.254 49.8409 178.801 48.6008C177.404 47.2873 176.578 45.483 176.5 43.5724H178.513C178.592 45.0119 179.205 46.3712 180.232 47.388C181.305 48.2964 182.687 48.762 184.094 48.6894C184.847 48.7399 185.602 48.6147 186.297 48.3236C186.993 48.0326 187.61 47.5839 188.101 47.0132C189.014 45.8958 189.47 44.306 189.47 42.2438C189.541 40.6331 189.001 39.0547 187.957 37.8219C187.441 37.2536 186.805 36.8056 186.094 36.51C185.384 36.2144 184.617 36.0784 183.848 36.1117C182.994 36.0967 182.143 36.2186 181.328 36.4728C180.489 36.7946 179.721 37.276 179.068 37.89L177.383 37.4267Z" fill="white"/>
<path d="M195.216 54.6648L194.011 53.7858C194.996 52.5708 195.565 51.0737 195.634 49.5138V46.877H197.627V48.9891C197.666 50.0529 197.47 51.1123 197.054 52.0928C196.637 53.0733 196.01 53.9512 195.216 54.6648V54.6648Z" fill="white"/>
<path d="M203.372 37.4267L204.578 25.4009H216.973V27.2814H206.331L205.461 35.6143C206.839 34.6913 208.471 34.2153 210.132 34.2516C211.126 34.2072 212.119 34.3779 213.041 34.7519C213.963 35.126 214.793 35.6945 215.473 36.4183C216.858 38.0186 217.571 40.0871 217.466 42.1961C217.466 44.7943 216.818 46.8088 215.521 48.2397C214.234 49.6705 212.412 50.3927 210.042 50.3927C208.128 50.479 206.252 49.8358 204.797 48.594C203.402 47.2798 202.579 45.4753 202.503 43.5656H204.454C204.537 45.0044 205.149 46.3625 206.173 47.3812C207.249 48.2894 208.633 48.7549 210.042 48.6825C210.795 48.7336 211.55 48.6086 212.246 48.3176C212.941 48.0265 213.559 47.5775 214.049 47.0064C214.953 45.889 215.418 44.281 215.418 42.237C215.489 40.6263 214.949 39.0479 213.905 37.815C213.389 37.2468 212.753 36.7988 212.042 36.5032C211.332 36.2076 210.565 36.0716 209.796 36.1049C208.944 36.0898 208.095 36.2117 207.283 36.466C206.441 36.7854 205.67 37.267 205.016 37.8832L203.372 37.4267Z" fill="white"/>
<path d="M222.691 37.4267L223.896 25.4009H236.285V27.2814H225.65L224.78 35.6143C226.156 34.6922 227.785 34.2162 229.444 34.2516C230.44 34.2062 231.434 34.3764 232.357 34.7505C233.28 35.1245 234.111 35.6936 234.792 36.4183C236.175 38.0193 236.886 40.088 236.778 42.1961C236.778 44.7943 236.132 46.8088 234.84 48.2397C234.14 48.9742 233.287 49.5476 232.34 49.9195C231.394 50.2914 230.377 50.453 229.361 50.3927C227.449 50.4773 225.576 49.8341 224.122 48.594C222.726 47.2805 221.9 45.4761 221.821 43.5656H223.78C223.859 45.0051 224.472 46.3644 225.499 47.3812C226.57 48.2933 227.954 48.7594 229.361 48.6825C230.115 48.7342 230.871 48.6095 231.568 48.3184C232.265 48.0274 232.883 47.578 233.374 47.0064C234.288 45.889 234.744 44.2992 234.744 42.237C234.815 40.6263 234.275 39.0479 233.231 37.815C232.714 37.2468 232.078 36.7988 231.368 36.5032C230.658 36.2076 229.891 36.0716 229.122 36.1049C228.268 36.0899 227.417 36.2118 226.602 36.466C225.763 36.7878 224.995 37.2692 224.342 37.8832L222.691 37.4267Z" fill="white"/>
<path d="M242.003 37.4267L243.215 25.4009H255.604V27.2814H244.941L244.099 35.6143C245.475 34.6922 247.104 34.2162 248.762 34.2516C249.758 34.2062 250.752 34.3764 251.676 34.7505C252.599 35.1245 253.43 35.6936 254.111 36.4183C255.491 38.021 256.201 40.0885 256.097 42.1961C256.097 44.7943 255.451 46.8088 254.159 48.2397C253.459 48.9742 252.605 49.5476 251.659 49.9195C250.713 50.2914 249.696 50.453 248.68 50.3927C246.768 50.4773 244.894 49.8341 243.441 48.594C242.042 47.2823 241.216 45.4768 241.14 43.5656H243.099C243.178 45.0051 243.791 46.3644 244.818 47.3812C245.889 48.2933 247.272 48.7594 248.68 48.6825C249.434 48.7369 250.189 48.6134 250.885 48.3221C251.581 48.0309 252.199 47.58 252.686 47.0064C253.6 45.889 254.056 44.2992 254.056 42.237C254.124 40.6268 253.584 39.0496 252.543 37.815C252.026 37.2475 251.39 36.8001 250.68 36.5045C249.97 36.209 249.203 36.0725 248.434 36.1049C247.58 36.0893 246.729 36.2112 245.914 36.466C245.075 36.7878 244.307 37.2692 243.654 37.8832L242.003 37.4267Z" fill="white"/>
<path d="M285.346 27.1656H276.861V50.0589H274.772V27.1656H266.294V25.4009H285.346V27.1656Z" fill="white"/>
<path d="M286.072 40.6559C286.044 39.009 286.396 37.3776 287.099 35.8864C287.725 34.5293 288.734 33.3823 290.004 32.5852C291.273 31.7881 292.748 31.375 294.248 31.3964C295.371 31.3588 296.488 31.5697 297.518 32.0139C298.548 32.4582 299.467 33.1246 300.206 33.965C301.727 35.673 302.487 37.9441 302.487 40.7785V41.2078C302.512 42.8552 302.158 44.4866 301.453 45.9772C300.827 47.3263 299.821 48.465 298.556 49.2545C297.268 50.0293 295.787 50.4283 294.283 50.406C293.162 50.4416 292.047 50.2297 291.018 49.7856C289.989 49.3415 289.071 48.6761 288.332 47.8373C286.807 46.1248 286.044 43.8537 286.044 41.0238L286.072 40.6559ZM288.126 41.2146C288.048 43.1547 288.653 45.0611 289.838 46.6041C290.38 47.2639 291.063 47.7957 291.837 48.1609C292.611 48.526 293.457 48.7155 294.314 48.7155C295.17 48.7155 296.016 48.526 296.79 48.1609C297.564 47.7957 298.247 47.2639 298.789 46.6041C299.994 45.0064 300.6 43.0395 300.501 41.0443V40.6559C300.523 39.3235 300.259 38.0018 299.727 36.779C299.269 35.6814 298.507 34.7361 297.529 34.0536C296.555 33.4238 295.409 33.1118 294.248 33.1611C293.392 33.1451 292.544 33.3291 291.772 33.6983C291 34.0675 290.326 34.6116 289.804 35.2869C288.607 36.876 287.999 38.8285 288.085 40.8126L288.126 41.2146Z" fill="white"/>
<path d="M311.088 40.8265L308.76 43.0682V50.0588H306.705V24.0449H308.76V40.6971L310.684 38.6121L317.731 31.7237H320.272L312.485 39.457L320.957 50.0588H318.526L311.088 40.8265Z" fill="white"/>
<path d="M330.578 50.3992C329.083 50.4161 327.612 50.0173 326.333 49.2477C325.064 48.4769 324.04 47.3642 323.381 46.0386C322.663 44.605 322.301 43.0207 322.326 41.4191V40.6968C322.299 39.0499 322.65 37.4185 323.354 35.9274C323.985 34.5782 324.978 33.4279 326.223 32.6024C327.396 31.8089 328.783 31.3862 330.202 31.3896C331.204 31.3461 332.203 31.5281 333.124 31.9222C334.045 32.3162 334.865 32.9121 335.523 33.6653C336.833 35.1824 337.488 37.2583 337.488 39.8928V41.0239H324.381V41.4122C324.317 43.3047 324.958 45.1539 326.182 46.6041C326.727 47.2674 327.417 47.7989 328.198 48.1589C328.98 48.5188 329.834 48.6977 330.695 48.6822C331.691 48.7027 332.678 48.5001 333.585 48.0895C334.482 47.6416 335.261 46.9905 335.858 46.1885L337.132 47.156C336.413 48.2125 335.432 49.0662 334.284 49.6344C333.135 50.2026 331.859 50.4661 330.578 50.3992V50.3992ZM330.202 33.1611C329.474 33.1488 328.752 33.2921 328.084 33.5813C327.417 33.8704 326.819 34.2987 326.333 34.8372C325.221 36.0931 324.549 37.6731 324.415 39.3409H335.461V39.1161C335.488 37.5424 334.96 36.0091 333.968 34.7827C333.505 34.2461 332.925 33.8213 332.273 33.5404C331.62 33.2594 330.912 33.1298 330.202 33.1611V33.1611Z" fill="white"/>
<path d="M343.391 31.737L343.46 34.8712C344.089 33.8065 344.98 32.918 346.049 32.2889C347.089 31.6925 348.272 31.3843 349.473 31.3963C351.445 31.3963 352.897 31.9482 353.876 33.0588C354.855 34.1694 355.335 35.8251 355.342 38.0327V50.0585H353.287V38.019C353.38 36.7159 353.012 35.4215 352.246 34.3602C351.561 33.5562 350.459 33.161 348.952 33.161C347.734 33.1478 346.551 33.5629 345.61 34.3329C344.61 35.1711 343.865 36.2709 343.46 37.508V50.0585H341.405V31.737H343.391Z" fill="white"/>
<path d="M371.634 45.4255C371.643 44.9542 371.537 44.4876 371.325 44.0662C371.112 43.6447 370.8 43.2811 370.415 43.0068C369.306 42.2787 368.055 41.7912 366.744 41.5759C365.433 41.3374 364.156 40.9392 362.943 40.3904C362.14 40.0321 361.448 39.4677 360.937 38.7551C360.475 38.0634 360.236 37.2482 360.252 36.4181C360.245 35.7203 360.407 35.031 360.724 34.4085C361.041 33.786 361.504 33.2484 362.073 32.841C363.42 31.8523 365.065 31.3521 366.737 31.4238C368.514 31.3335 370.265 31.8718 371.682 32.9432C372.28 33.4117 372.761 34.0131 373.084 34.6993C373.408 35.3855 373.565 36.1374 373.544 36.8951H371.49C371.492 36.3725 371.369 35.857 371.131 35.3912C370.893 34.9255 370.546 34.5231 370.12 34.2174C369.148 33.5561 368.005 33.1877 366.828 33.1563C365.651 33.1249 364.49 33.4318 363.484 34.0402C363.103 34.2931 362.792 34.637 362.579 35.0406C362.366 35.4441 362.258 35.8943 362.265 36.35C362.244 36.7601 362.326 37.169 362.502 37.5401C362.679 37.9111 362.946 38.2326 363.279 38.4758C364.413 39.1548 365.665 39.6169 366.97 39.8385C368.361 40.1286 369.711 40.5862 370.99 41.2012C371.794 41.5795 372.487 42.1566 373.003 42.8773C373.591 43.8716 373.79 45.0463 373.563 46.1773C373.335 47.3083 372.697 48.3165 371.771 49.0094C370.326 49.9825 368.603 50.4608 366.86 50.3721C365.005 50.4573 363.175 49.9145 361.669 48.8323C361.044 48.3873 360.535 47.7991 360.185 47.1172C359.836 46.4353 359.657 45.6798 359.663 44.9145H361.717C361.735 45.4605 361.88 45.9948 362.142 46.4751C362.403 46.9553 362.774 47.3682 363.224 47.6808C364.31 48.3878 365.592 48.7359 366.888 48.6756C368.099 48.7291 369.297 48.4025 370.312 47.7421C370.709 47.496 371.037 47.1552 371.268 46.7507C371.499 46.3461 371.625 45.8906 371.634 45.4255V45.4255Z" fill="white"/>
<path d="M343.494 364.651L336.851 347.692H341.584L344.795 356.345L345.727 359.234L346.192 357.783C346.343 357.306 346.501 356.829 346.672 356.345L349.918 347.692H354.554L348.007 364.651V371.11H343.494V364.651Z" fill="white"/>
<path d="M372.709 371.11H368.209V355.998C368.239 354.931 368.178 353.865 368.025 352.809C367.92 352.227 367.615 351.699 367.162 351.317C366.668 350.922 366.048 350.719 365.415 350.744C364.622 350.719 363.844 350.959 363.203 351.426C362.589 351.879 362.155 352.533 361.978 353.272C361.748 354.48 361.654 355.709 361.697 356.938V364.617H357.184V347.692H361.361V350.186C361.998 349.291 362.842 348.563 363.822 348.062C364.802 347.562 365.889 347.304 366.99 347.31C368.163 347.27 369.322 347.563 370.332 348.155C371.179 348.646 371.837 349.403 372.202 350.308C372.591 351.537 372.762 352.823 372.709 354.11V371.11ZM361.457 345.416H359.403C359.403 345.171 359.403 344.98 359.403 344.837C359.338 343.907 359.63 342.987 360.218 342.262C360.482 341.968 360.806 341.736 361.169 341.579C361.532 341.423 361.925 341.347 362.32 341.355C362.671 341.352 363.021 341.393 363.361 341.478C363.964 341.662 364.552 341.89 365.121 342.159C365.745 342.475 366.424 342.667 367.121 342.725C367.437 342.734 367.745 342.619 367.977 342.405C368.245 342.11 368.402 341.732 368.422 341.335H370.476C370.476 342.773 370.195 343.801 369.668 344.415C369.42 344.715 369.106 344.955 368.749 345.116C368.393 345.276 368.005 345.354 367.614 345.341C367.252 345.342 366.892 345.306 366.539 345.232C366.292 345.171 365.676 344.953 364.696 344.551C364.014 344.251 363.288 344.063 362.546 343.992C362.397 343.984 362.247 344.008 362.108 344.062C361.968 344.116 361.842 344.199 361.738 344.306C361.513 344.627 361.413 345.02 361.457 345.409V345.416Z" fill="white"/>
<path d="M163.858 58.6846H162.139V18.5327H163.858V58.6846Z" fill="#7E7F7F"/>
</svg>
