<svg width="392" height="392" viewBox="0 0 392 392" fill="none" xmlns="http://www.w3.org/2000/svg">
<path d="M377.923 392.007H14.0835C10.3516 391.996 6.77569 390.509 4.13687 387.87C1.49804 385.231 0.0107858 381.655 0 377.923V14.0835C0.0107858 10.3516 1.49804 6.77569 4.13687 4.13687C6.77569 1.49804 10.3516 0.0107858 14.0835 0H377.923C381.655 0.0107858 385.231 1.49804 387.87 4.13687C390.509 6.77569 391.996 10.3516 392.007 14.0835V377.923C391.996 381.655 390.509 385.231 387.87 387.87C385.231 390.509 381.655 391.996 377.923 392.007V392.007ZM14.0835 6.13213C11.9774 6.1411 9.96015 6.9817 8.47093 8.47093C6.9817 9.96015 6.1411 11.9774 6.13213 14.0835V377.923C6.1411 380.029 6.9817 382.047 8.47093 383.536C9.96015 385.025 11.9774 385.866 14.0835 385.875H377.923C380.036 385.871 382.062 385.03 383.556 383.536C385.05 382.042 385.892 380.016 385.895 377.903V14.0835C385.886 11.9739 385.043 9.95355 383.549 8.46375C382.055 6.97394 380.033 6.13571 377.923 6.13213H14.0835Z" fill="white"/>
<path d="M225.485 208.37C215.374 210.918 205.474 214.039 196.051 218.59C183.283 224.811 172.572 233.369 164.566 245.21C157.943 255.022 153.991 265.651 154.346 277.636C154.387 278.999 154.502 280.402 154.577 281.785H154.87C154.966 280.688 155.02 279.584 155.163 278.488C156.723 266.194 161.897 254.641 170.03 245.292C181.409 231.917 195.765 223.591 213.078 220.457C215.013 220.103 216.975 219.926 219.135 219.633C218.597 220.805 218.154 221.677 217.772 222.61C213.827 231.999 209.957 241.415 205.937 250.77C203.677 256.243 200.93 261.502 197.727 266.482C194.014 272.062 189.394 276.818 184.502 281.342C177.836 287.555 170.781 293.338 163.38 298.655C163.033 298.901 162.699 299.126 162.318 299.337L162.079 299.091C168.933 277.52 178.684 257.638 195.765 242.042L195.547 241.797C195.165 242.035 194.777 242.267 194.402 242.519C187.865 246.958 182.2 252.561 177.689 259.049C169.751 270.27 164.014 282.535 159.136 295.296C157.242 300.25 155.729 305.333 153.957 310.334C153.528 311.56 153.685 312.419 154.741 313.223C155.746 314 156.689 314.854 157.562 315.778C158.284 316.534 158.768 316.52 159.51 315.778C161.849 313.321 164.563 311.251 167.55 309.646C175.679 305.312 184.475 303.214 193.516 302.021C196.378 301.64 199.267 301.497 202.136 301.238C189.639 299.715 176.959 301.189 165.145 305.537C165.145 305.278 165.145 305.183 165.193 305.142C165.364 304.936 165.558 304.751 165.772 304.59C168.545 302.737 171.182 300.618 174.132 299.105C182.785 294.663 192.072 293.389 201.693 294.254C208.952 294.91 215.997 297.06 222.385 300.57C222.794 300.795 223.155 301.101 223.632 301.429C221.241 302.791 218.992 304.072 216.819 305.435C212.049 308.433 207.375 311.635 202.51 314.49C194.818 318.987 186.723 320.336 178.207 316.827C178.005 316.804 177.802 316.804 177.6 316.827C179.851 318.572 182.494 319.742 185.299 320.234C190.718 321.282 196.332 320.452 201.216 317.883C205.901 315.327 210.45 312.527 214.843 309.496C218.931 306.716 223.237 304.535 228.088 303.5C229.158 303.275 230.241 303.084 231.318 302.88V302.553C218.093 292.864 203.532 287.563 186.778 289.403C187.168 288.958 187.604 288.556 188.079 288.204C195.663 282.201 202.388 275.408 207.689 267.252C211.995 260.623 215.367 253.482 218.556 246.287C224.375 233.151 229.921 219.885 235.59 206.673C235.719 206.374 235.794 206.047 235.964 205.522C235.372 205.645 234.97 205.706 234.602 205.815C231.556 206.667 228.545 207.586 225.485 208.37Z" fill="white"/>
<path d="M194.872 182.097C150.196 182.533 114.637 217.193 112.954 261.195C112.463 272.262 114.226 283.314 118.136 293.68C122.046 304.045 128.022 313.508 135.701 321.493C143.38 329.478 152.601 335.82 162.806 340.133C173.01 344.445 183.985 346.639 195.063 346.581C239.542 346.581 275.462 312.071 277.329 267.198C279.196 221.69 242.335 182.329 194.872 182.097ZM194.641 340.061C154.666 340.102 120.244 306.968 120.067 264.384C119.897 224.089 152.138 190.117 193.564 189.108C234.861 188.134 269.535 220.668 270.509 262.285C271.504 305.701 237.702 339.918 194.641 340.061Z" fill="white"/>
<path d="M45.9092 22.7163V30.1021H25.5846V22.7163H45.9092ZM45.9092 33.8018V41.1945H25.5846V33.8018H45.9092ZM45.9092 44.8874V52.28H25.5846V44.8874H45.9092Z" fill="white"/>
<path d="M57.0084 48.5803V52.28H49.6089V22.7163H69.954V52.28H62.5409V48.5803H57.0084ZM62.5546 41.1945V30.1021H57.0084V41.1945H62.5546Z" fill="white"/>
<path d="M73.6265 30.1021V22.7163H93.9579V41.1945H81.0123V52.28H73.6265V33.8018H86.5721V30.1021H73.6265ZM90.2582 44.8874L93.9579 52.28H86.5653L82.8996 44.8874H90.2582Z" fill="white"/>
<path d="M97.6508 30.1021V22.7163H116.129V30.1021H97.6508ZM110.596 33.8018V52.28H103.197V33.8018H110.596Z" fill="white"/>
<path d="M127.187 33.8018H132.733V22.7163H140.133V52.28H132.761V41.1945H127.187V52.28H119.822V22.7163H127.187V33.8018Z" fill="white"/>
<path d="M35.3552 82.5387H26.777V91.1168H26.0956V73.6743H36.568V74.3557H26.777V81.905H35.3552V82.5387Z" fill="white"/>
<path d="M38.0261 84.3849C37.9521 82.6896 38.5133 81.0277 39.6 79.7244C40.1195 79.1577 40.7513 78.7052 41.455 78.3957C42.1588 78.0861 42.9192 77.9263 43.6881 77.9263C44.4569 77.9263 45.2173 78.0861 45.9211 78.3957C46.6249 78.7052 47.2566 79.1577 47.7762 79.7244C48.8628 81.0277 49.4241 82.6896 49.3501 84.3849V84.8891C49.4225 86.5862 48.8615 88.2496 47.7762 89.5563C47.2583 90.1258 46.6271 90.5808 45.9231 90.8921C45.2191 91.2035 44.4578 91.3643 43.6881 91.3643C42.9183 91.3643 42.157 91.2035 41.453 90.8921C40.749 90.5808 40.1179 90.1258 39.6 89.5563C38.5092 88.2522 37.9454 86.5875 38.0192 84.8891L38.0261 84.3849ZM38.7074 84.8891C38.6612 86.385 39.1437 87.8494 40.0701 89.0248C40.5068 89.577 41.0675 90.0184 41.7068 90.3132C42.3461 90.608 43.0459 90.7478 43.7494 90.7214C44.4472 90.7444 45.1405 90.602 45.7728 90.306C46.4052 90.01 46.9585 89.5686 47.3878 89.018C48.3132 87.8447 48.7957 86.3828 48.7505 84.8891V84.3849C48.7866 82.905 48.3046 81.459 47.3878 80.2968C46.9401 79.7638 46.3812 79.3353 45.7503 79.0413C45.1194 78.7473 44.4318 78.5949 43.7358 78.5949C43.0397 78.5949 42.3521 78.7473 41.7212 79.0413C41.0903 79.3353 40.5314 79.7638 40.0837 80.2968C39.1689 81.4601 38.6872 82.9053 38.721 84.3849L38.7074 84.8891Z" fill="white"/>
<path d="M56.8653 90.7216C57.9019 90.7389 58.9167 90.4238 59.7611 89.8223C60.1848 89.5119 60.5228 89.0991 60.7433 88.6223C60.9638 88.1456 61.0595 87.6207 61.0215 87.0969H61.5666V87.1718C61.6059 87.7512 61.5022 88.3314 61.2646 88.8613C61.027 89.3912 60.6627 89.8546 60.2039 90.2106C59.2556 90.9579 58.0795 91.3572 56.8721 91.3417C56.1286 91.3738 55.388 91.2287 54.7116 90.9183C54.0351 90.6079 53.4422 90.1412 52.9816 89.5565C51.9934 88.2063 51.4914 86.5612 51.5576 84.8893V84.3851C51.4662 82.7152 51.9469 81.0641 52.9203 79.7042C53.3762 79.1195 53.9654 78.6524 54.6386 78.3418C55.3119 78.0313 56.0497 77.8863 56.7904 77.9191C58.032 77.8813 59.2443 78.3008 60.1971 79.0978C60.6696 79.506 61.0392 80.0197 61.2759 80.5974C61.5127 81.1751 61.61 81.8005 61.5598 82.4228V82.4909H61.0147C61.0481 81.9433 60.9548 81.3953 60.7421 80.8896C60.5294 80.3839 60.2031 79.9339 59.7883 79.5748C58.956 78.8939 57.9061 78.5359 56.8313 78.5664C56.169 78.5251 55.507 78.6507 54.9058 78.9316C54.3047 79.2126 53.7836 79.6399 53.3904 80.1744C52.5661 81.4186 52.1625 82.8945 52.239 84.3851V84.8893C52.171 86.3819 52.5815 87.8572 53.4109 89.1C53.8077 89.6349 54.3309 90.063 54.9338 90.346C55.5367 90.629 56.2003 90.7581 56.8653 90.7216V90.7216Z" fill="white"/>
<path d="M73.5924 88.8412C73.2087 89.6185 72.6044 90.2655 71.8549 90.7012C71.0251 91.1712 70.083 91.4068 69.1296 91.3826C68.5318 91.4096 67.9361 91.2947 67.3914 91.0472C66.8466 90.7996 66.3682 90.4266 65.9954 89.9586C65.2413 89.0092 64.8643 87.5421 64.8643 85.5571V78.1304H65.5457V85.5434C65.5457 87.3013 65.8682 88.5981 66.5132 89.4339C66.8163 89.8401 67.2132 90.1668 67.67 90.3863C68.1268 90.6058 68.6299 90.7115 69.1364 90.6944C70.2413 90.7663 71.333 90.4211 72.1956 89.7269C72.9325 89.058 73.4282 88.1647 73.606 87.1855V78.1304H74.2874V85.7547C74.2874 85.8637 74.2874 85.9591 74.2874 86.0545C74.2874 86.1498 74.2874 86.2657 74.2874 86.3951V91.0896H73.7491L73.5924 88.8412Z" fill="white"/>
<path d="M86.3064 87.9413C86.2995 87.5848 86.2177 87.2338 86.0663 86.911C85.9148 86.5882 85.6972 86.3008 85.4274 86.0676C84.5378 85.3634 83.4776 84.9074 82.3545 84.7458C81.1624 84.5562 80.0217 84.125 79.0023 83.4785C78.655 83.2097 78.379 82.8598 78.1985 82.4595C78.0179 82.0591 77.9383 81.6206 77.9667 81.1824C77.9663 80.7296 78.0729 80.2832 78.2778 79.8795C78.4826 79.4758 78.7799 79.1261 79.1454 78.859C80.0594 78.1906 81.1762 77.8584 82.3068 77.9187C83.5134 77.8493 84.7064 78.2036 85.6795 78.9203C86.0755 79.2278 86.39 79.6278 86.5955 80.0851C86.801 80.5424 86.8912 81.0432 86.8582 81.5435V81.6184H86.3064C86.3066 81.1993 86.2103 80.7858 86.0247 80.4101C85.8392 80.0343 85.5695 79.7063 85.2366 79.4518C84.4044 78.8223 83.3759 78.5084 82.3341 78.566C81.3509 78.4956 80.3741 78.7729 79.5746 79.3495C79.2911 79.5604 79.0596 79.8334 78.8978 80.1475C78.736 80.4617 78.6483 80.8087 78.6412 81.1619C78.6383 81.4916 78.7076 81.818 78.8441 82.1181C78.9807 82.4182 79.1812 82.6849 79.4316 82.8994C80.3684 83.5528 81.4432 83.9818 82.5726 84.153C83.7504 84.3731 84.8691 84.8373 85.8567 85.5157C86.226 85.7992 86.5213 86.1679 86.717 86.5903C86.9128 87.0127 87.0034 87.4763 86.9809 87.9413C86.9891 88.4228 86.8798 88.8991 86.6625 89.3288C86.4453 89.7586 86.1266 90.1289 85.734 90.4078C84.7665 91.0781 83.6051 91.4109 82.4295 91.3549C81.1655 91.4275 79.9142 91.0696 78.8797 90.3397C78.4858 90.0664 78.1682 89.697 77.9572 89.2665C77.7461 88.836 77.6485 88.3588 77.6737 87.88V87.8051H78.2051C78.2074 88.2587 78.3304 88.7036 78.5615 89.0939C78.7926 89.4843 79.1235 89.8061 79.5201 90.0263C80.4093 90.4958 81.4037 90.7304 82.409 90.7076C83.4264 90.7631 84.4319 90.4672 85.2571 89.8696C85.5701 89.6521 85.828 89.3646 86.0102 89.0298C86.1924 88.695 86.2938 88.3223 86.3064 87.9413V87.9413Z" fill="white"/>
<path d="M95.3956 84.3849C95.3216 82.6896 95.8828 81.0277 96.9695 79.7244C97.489 79.1577 98.1208 78.7052 98.8245 78.3957C99.5283 78.0861 100.289 77.9263 101.058 77.9263C101.826 77.9263 102.587 78.0861 103.291 78.3957C103.994 78.7052 104.626 79.1577 105.146 79.7244C106.232 81.0277 106.794 82.6896 106.72 84.3849V84.8891C106.792 86.5862 106.231 88.2496 105.146 89.5563C104.628 90.1258 103.997 90.5808 103.293 90.8921C102.589 91.2035 101.827 91.3643 101.058 91.3643C100.288 91.3643 99.5265 91.2035 98.8225 90.8921C98.1185 90.5808 97.4874 90.1258 96.9695 89.5563C95.8787 88.2522 95.3149 86.5875 95.3888 84.8891L95.3956 84.3849ZM96.036 84.8891C95.9904 86.3849 96.4728 87.8491 97.3987 89.0248C97.8459 89.5582 98.4044 89.9873 99.035 90.2818C99.6657 90.5764 100.353 90.7294 101.049 90.7301C101.745 90.7307 102.433 90.579 103.064 90.2856C103.695 89.9922 104.255 89.5642 104.703 89.0317C105.625 87.8566 106.107 86.3959 106.065 84.9027V84.3985C106.102 82.9186 105.62 81.4726 104.703 80.3104C104.255 79.7774 103.696 79.3489 103.065 79.0549C102.434 78.7609 101.747 78.6086 101.051 78.6086C100.355 78.6086 99.6671 78.7609 99.0362 79.0549C98.4053 79.3489 97.8464 79.7774 97.3987 80.3104C96.4839 81.4737 96.0022 82.919 96.036 84.3985V84.8891Z" fill="white"/>
<path d="M110.385 78.1301L110.474 80.7397C110.832 79.8854 111.431 79.1538 112.198 78.6343C113.025 78.1159 113.988 77.8573 114.964 77.8916C115.564 77.8519 116.165 77.9546 116.718 78.1914C117.271 78.4282 117.76 78.7925 118.146 79.2543C118.845 80.1401 119.197 81.5505 119.202 83.4855V91.1166H118.555V83.4583C118.555 81.6686 118.234 80.4036 117.594 79.6632C117.267 79.2975 116.862 79.0094 116.409 78.8196C115.957 78.6299 115.468 78.5433 114.977 78.5662C114.404 78.527 113.828 78.6127 113.291 78.8174C112.753 79.022 112.266 79.3408 111.864 79.7517C111.119 80.6129 110.645 81.6748 110.501 82.8042V91.1166H109.854V84.4803H109.82C109.82 84.3304 109.82 84.1737 109.82 84.017C109.82 83.8603 109.82 83.7035 109.82 83.5468V78.1301H110.385Z" fill="white"/>
<path d="M139.036 84.8755C139.134 86.5637 138.679 88.2378 137.741 89.6449C137.338 90.2097 136.8 90.6653 136.177 90.971C135.554 91.2766 134.865 91.4227 134.171 91.396C133.25 91.4168 132.339 91.206 131.521 90.7828C130.796 90.4034 130.186 89.8363 129.756 89.1407L129.667 91.1439H129.129V87.6077C129.126 87.5874 129.126 87.5667 129.129 87.5464C129.125 87.5307 129.125 87.5144 129.129 87.4987V82.2046V82.1229V72.4341H129.81V80.4331C130.228 79.6438 130.86 78.9888 131.634 78.5439C132.408 78.0989 133.293 77.8823 134.185 77.9189C134.887 77.8936 135.583 78.0466 136.21 78.3635C136.837 78.6805 137.373 79.151 137.769 79.7313C138.705 81.1852 139.16 82.8966 139.07 84.6234L139.036 84.8755ZM138.355 84.6234C138.423 83.0892 138.046 81.568 137.271 80.2423C136.949 79.7093 136.489 79.2726 135.94 78.9778C135.391 78.6829 134.773 78.5408 134.151 78.5662C133.11 78.5062 132.085 78.8366 131.275 79.4928C130.582 80.1057 130.063 80.8907 129.77 81.7686V87.9688C130.083 88.7902 130.645 89.4931 131.378 89.9788C132.215 90.5038 133.19 90.765 134.178 90.7283C134.789 90.7575 135.398 90.6271 135.944 90.35C136.49 90.0729 136.954 89.6585 137.292 89.1476C138.063 87.8633 138.436 86.3787 138.361 84.8823L138.355 84.6234Z" fill="white"/>
<path d="M151.239 88.8412C150.851 89.6158 150.248 90.2618 149.501 90.7012C148.672 91.1712 147.729 91.4068 146.776 91.3826C146.178 91.4096 145.583 91.2947 145.038 91.0472C144.493 90.7996 144.015 90.4266 143.642 89.9586C142.883 89.0092 142.506 87.5421 142.511 85.5571V78.1304H143.158V85.5434C143.158 87.3013 143.481 88.5981 144.126 89.4339C144.429 89.8401 144.826 90.1668 145.282 90.3863C145.739 90.6058 146.242 90.7115 146.749 90.6944C147.854 90.7657 148.945 90.4205 149.808 89.7269C150.545 89.058 151.041 88.1647 151.218 87.1855V78.1304H151.9V85.7547C151.9 85.8637 151.9 85.9591 151.9 86.0545C151.9 86.1498 151.9 86.2657 151.9 86.3951V91.0896H151.361L151.239 88.8412Z" fill="white"/>
<path d="M156.785 74.0829H156.138V72.4341H156.785V74.0829ZM156.785 91.1167H156.138V78.1302H156.785V91.1167Z" fill="white"/>
<path d="M161.841 91.1167H161.159V72.4341H161.841V91.1167Z" fill="white"/>
<path d="M165.493 84.6234C165.401 82.8973 165.854 81.186 166.787 79.7313C167.183 79.1496 167.72 78.678 168.348 78.361C168.976 78.0439 169.675 77.8918 170.378 77.9189C171.297 77.8972 172.203 78.1333 172.994 78.6003C173.736 79.0529 174.347 79.6918 174.766 80.4536V72.4341H175.406V82.1774V87.4578C175.406 87.4578 175.406 87.4578 175.406 87.4987V91.103H174.786V89.0999C174.351 89.7983 173.737 90.3675 173.008 90.7487C172.195 91.1665 171.291 91.3749 170.378 91.3551C169.683 91.3823 168.993 91.2365 168.368 90.9309C167.744 90.6253 167.205 90.1693 166.801 89.6041C165.868 88.1949 165.416 86.5217 165.513 84.8346L165.493 84.6234ZM166.174 84.8755C166.098 86.3712 166.468 87.8557 167.237 89.1407C167.574 89.6532 168.04 90.0686 168.587 90.3458C169.134 90.6231 169.745 90.7526 170.357 90.7215C171.347 90.7571 172.323 90.4909 173.158 89.9584C173.894 89.4578 174.459 88.7448 174.779 87.9143V81.7822C174.475 80.8993 173.947 80.1104 173.246 79.4928C172.437 78.832 171.407 78.5011 170.364 78.5662C169.741 78.5403 169.122 78.6822 168.572 78.977C168.022 79.2718 167.561 79.7088 167.237 80.2423C166.467 81.57 166.094 83.0902 166.16 84.6234L166.174 84.8755Z" fill="white"/>
<path d="M180.332 74.0829H179.651V72.4341H180.332V74.0829ZM180.332 91.1167H179.651V78.1302H180.332V91.1167Z" fill="white"/>
<path d="M185.102 78.1303L185.184 80.7399C185.546 79.8862 186.147 79.1551 186.914 78.6345C187.741 78.1162 188.705 77.8575 189.68 77.8919C190.28 77.8515 190.88 77.954 191.432 78.1909C191.984 78.4278 192.472 78.7924 192.856 79.2546C193.564 80.1403 193.918 81.5507 193.918 83.4857V91.1168H193.237V83.4585C193.237 81.6688 192.915 80.4038 192.27 79.6634C191.943 79.2966 191.539 79.0076 191.086 78.8178C190.633 78.6279 190.144 78.542 189.653 78.5664C189.08 78.5286 188.504 78.6149 187.967 78.8195C187.43 79.0241 186.943 79.3421 186.539 79.752C185.794 80.6129 185.32 81.6749 185.177 82.8044V91.1168H184.53V84.4805H184.495C184.495 84.3306 184.495 84.1739 184.495 84.0172C184.495 83.8605 184.495 83.7038 184.495 83.5471V78.1303H185.102Z" fill="white"/>
<path d="M197.4 84.6236C197.308 82.8975 197.761 81.1861 198.695 79.7315C199.091 79.1497 199.628 78.6782 200.256 78.3611C200.884 78.0441 201.582 77.892 202.285 77.9191C203.204 77.8941 204.112 78.1303 204.902 78.6004C205.643 79.0585 206.251 79.702 206.667 80.4673L206.762 78.1576H207.314V82.1775V87.458C207.314 87.458 207.314 87.458 207.314 87.4989V91.1713C207.404 92.5644 206.939 93.9365 206.019 94.9869C205.546 95.4522 204.981 95.8138 204.361 96.0484C203.74 96.2831 203.077 96.3856 202.415 96.3496C201.754 96.3453 201.095 96.2791 200.446 96.152C199.829 96.0416 199.228 95.8586 198.654 95.6069L198.851 94.9255C199.394 95.1657 199.957 95.355 200.534 95.4911C201.145 95.6263 201.769 95.6903 202.394 95.6818C202.977 95.7245 203.561 95.642 204.109 95.4399C204.657 95.2377 205.155 94.9206 205.57 94.5099C206.354 93.5734 206.745 92.3694 206.66 91.1509V89.1068C206.214 89.7914 205.602 90.3517 204.881 90.7353C204.072 91.1469 203.173 91.3528 202.265 91.3348C201.57 91.362 200.88 91.2163 200.256 90.9106C199.631 90.605 199.093 90.149 198.688 89.5838C197.755 88.1746 197.303 86.5015 197.4 84.8143V84.6236ZM198.082 84.8757C198.005 86.3713 198.375 87.8559 199.144 89.1409C199.483 89.6534 199.95 90.0687 200.499 90.3459C201.047 90.6231 201.658 90.7526 202.272 90.7216C203.253 90.7563 204.221 90.4952 205.052 89.9721C205.785 89.4817 206.352 88.781 206.68 87.9622V81.7619C206.38 80.8844 205.856 80.1002 205.161 79.4862C204.353 78.8317 203.33 78.5035 202.292 78.5664C201.668 78.54 201.047 78.6815 200.496 78.9763C199.945 79.2711 199.483 79.7084 199.158 80.2425C198.385 81.5689 198.011 83.0901 198.082 84.6236V84.8757Z" fill="white"/>
<path d="M216.696 84.6236C216.604 82.8975 217.057 81.1861 217.991 79.7315C218.386 79.1497 218.923 78.6782 219.552 78.3611C220.18 78.0441 220.878 77.892 221.581 77.9191C222.5 77.8941 223.408 78.1303 224.198 78.6004C224.938 79.0585 225.547 79.702 225.962 80.4673L226.058 78.1576H226.61V82.1775V87.458C226.61 87.458 226.61 87.458 226.61 87.4989V91.1713C226.655 91.8617 226.563 92.5543 226.34 93.2091C226.117 93.8639 225.766 94.4681 225.308 94.9869C224.836 95.4514 224.272 95.8124 223.653 96.047C223.034 96.2816 222.372 96.3847 221.711 96.3496C221.05 96.3453 220.39 96.2791 219.742 96.152C219.125 96.0416 218.523 95.8586 217.95 95.6069L218.14 94.9255C218.685 95.1648 219.251 95.3541 219.83 95.4911C220.441 95.6263 221.065 95.6903 221.69 95.6818C222.272 95.7245 222.857 95.642 223.405 95.4399C223.952 95.2377 224.45 94.9206 224.865 94.5099C225.645 93.571 226.035 92.3688 225.955 91.1509V89.1068C225.51 89.7939 224.895 90.3547 224.17 90.7353C223.361 91.1485 222.462 91.3545 221.554 91.3348C220.86 91.3615 220.171 91.2154 219.548 90.9098C218.925 90.6042 218.387 90.1485 217.984 89.5838C217.051 88.1746 216.599 86.5015 216.696 84.8143V84.6236ZM217.377 84.8757C217.303 86.372 217.675 87.8566 218.447 89.1409C218.786 89.6534 219.253 90.0687 219.801 90.3459C220.35 90.6231 220.961 90.7526 221.574 90.7216C222.553 90.7566 223.52 90.4954 224.348 89.9722C225.082 89.482 225.652 88.7815 225.983 87.9622V81.7619C225.682 80.8844 225.159 80.1002 224.463 79.4862C223.655 78.8329 222.632 78.5048 221.595 78.5664C220.97 78.54 220.35 78.6815 219.799 78.9763C219.248 79.2711 218.785 79.7084 218.461 80.2425C217.685 81.5682 217.309 83.0894 217.377 84.6236V84.8757Z" fill="white"/>
<path d="M238.853 88.7184C238.374 89.5285 237.681 90.1909 236.85 90.633C235.856 91.1491 234.747 91.4024 233.627 91.3689C232.589 91.4274 231.57 91.0722 230.793 90.3809C230.443 90.0331 230.17 89.6156 229.991 89.1555C229.813 88.6954 229.733 88.203 229.757 87.7101C229.766 87.1633 229.911 86.6273 230.18 86.1512C230.449 85.675 230.833 85.274 231.297 84.9847C232.433 84.2164 233.784 83.8297 235.154 83.8809H238.853V81.9867C238.878 81.5161 238.798 81.0457 238.619 80.6097C238.44 80.1738 238.166 79.783 237.818 79.4657C236.987 78.8211 235.951 78.5014 234.902 78.5664C233.888 78.5149 232.887 78.8131 232.067 79.4112C231.728 79.6664 231.454 79.9982 231.269 80.3796C231.083 80.761 230.99 81.181 230.997 81.6052H230.452V81.5507C230.425 81.0606 230.518 80.5713 230.722 80.125C230.926 79.6787 231.236 79.2887 231.624 78.9888C232.563 78.2575 233.733 77.8875 234.922 77.9463C236.125 77.8857 237.309 78.2579 238.261 78.9956C238.689 79.3736 239.025 79.8445 239.244 80.3724C239.462 80.9003 239.557 81.4711 239.521 82.0412V88.5345C239.517 88.9899 239.542 89.445 239.596 89.8972C239.649 90.3303 239.735 90.7585 239.855 91.1781H239.133C239.031 90.6126 238.962 90.1833 238.928 89.904C238.889 89.599 238.87 89.2917 238.874 88.9842L238.853 88.7184ZM233.627 90.7625C234.774 90.8015 235.907 90.5081 236.891 89.9176C237.791 89.3402 238.479 88.4868 238.853 87.4852V84.5759H235.188C233.985 84.5341 232.797 84.8571 231.781 85.5025C231.376 85.7362 231.038 86.0701 230.799 86.4722C230.561 86.8744 230.429 87.3311 230.418 87.7986C230.405 88.1968 230.477 88.5931 230.63 88.961C230.783 89.3289 231.013 89.6597 231.304 89.9313C231.944 90.492 232.778 90.7783 233.627 90.7284V90.7625Z" fill="white"/>
<path d="M244.12 78.1301L244.202 80.7396C244.56 79.8955 245.145 79.1669 245.892 78.6343C246.681 78.1206 247.608 77.8614 248.549 77.8916C249.527 77.8401 250.492 78.1343 251.274 78.7228C252.039 79.3926 252.551 80.3039 252.726 81.3052C253.02 80.3129 253.61 79.4337 254.415 78.7842C255.244 78.1608 256.261 77.8409 257.297 77.878C257.913 77.8377 258.529 77.9439 259.095 78.1879C259.661 78.4318 260.161 78.8067 260.554 79.2816C261.299 80.2173 261.672 81.6844 261.672 83.6831V91.0757H260.99V83.6899C260.99 81.8094 260.657 80.4875 259.982 79.7108C259.651 79.3292 259.239 79.027 258.775 78.8265C258.312 78.6259 257.809 78.5323 257.304 78.5525C256.741 78.5137 256.176 78.5985 255.648 78.8009C255.121 79.0034 254.645 79.3185 254.252 79.7244C253.512 80.5861 253.039 81.6442 252.889 82.7701V83.2538C252.889 83.4173 252.889 83.5809 252.889 83.7512V91.1166H252.208V84.4802C252.208 84.3303 252.208 84.1736 252.208 84.0237C252.208 83.8738 252.208 83.7239 252.208 83.5809C252.208 81.748 251.84 80.4467 251.179 79.6972C250.846 79.3215 250.434 79.0249 249.972 78.8292C249.509 78.6335 249.009 78.5436 248.508 78.5661C247.954 78.5272 247.398 78.6087 246.878 78.8051C246.358 79.0016 245.887 79.3082 245.497 79.704C244.768 80.5412 244.295 81.5698 244.134 82.6679V91.1166H243.452V84.4802C243.452 84.3644 243.452 84.2554 243.452 84.1464C243.452 84.0374 243.452 83.8943 243.452 83.7239V78.1301H244.12Z" fill="white"/>
<path d="M266.455 74.0829H265.814V72.4341H266.455V74.0829ZM266.455 91.1167H265.814V78.1302H266.455V91.1167Z" fill="white"/>
<path d="M271.258 78.1303L271.347 80.7399C271.705 79.8856 272.304 79.154 273.071 78.6345C273.898 78.1162 274.861 77.8575 275.837 77.8919C276.436 77.8515 277.037 77.954 277.589 78.1909C278.141 78.4278 278.628 78.7924 279.012 79.2546C279.721 80.1403 280.075 81.5507 280.075 83.4857V91.1168H279.428V83.4585C279.428 81.6688 279.107 80.4038 278.467 79.6634C278.14 79.2977 277.735 79.0096 277.282 78.8198C276.83 78.6301 276.341 78.5435 275.851 78.5664C275.277 78.5272 274.701 78.6129 274.164 78.8176C273.626 79.0223 273.139 79.341 272.737 79.752C271.992 80.6132 271.518 81.675 271.374 82.8044V91.1168H270.727V84.4805H270.693C270.693 84.3306 270.693 84.1739 270.693 84.0172C270.693 83.8605 270.693 83.7038 270.693 83.5471V78.1303H271.258Z" fill="white"/>
<path d="M283.536 84.6236C283.444 82.8975 283.897 81.1861 284.831 79.7315C285.227 79.1497 285.764 78.6782 286.392 78.3611C287.02 78.0441 287.718 77.892 288.421 77.9191C289.341 77.8941 290.248 78.1303 291.038 78.6004C291.781 79.0583 292.391 79.7017 292.809 80.4673L292.905 78.1576H293.436V82.1775V87.458C293.433 87.4715 293.433 87.4854 293.436 87.4989V91.1713C293.525 92.5653 293.057 93.9376 292.135 94.9869C291.663 95.4514 291.099 95.8124 290.48 96.047C289.86 96.2816 289.199 96.3847 288.537 96.3496C287.874 96.3453 287.212 96.2791 286.561 96.152C285.947 96.0417 285.348 95.8587 284.776 95.6069L284.967 94.9255C285.511 95.1668 286.077 95.3561 286.657 95.4911C287.265 95.6267 287.887 95.6907 288.51 95.6818C289.093 95.7255 289.679 95.6435 290.228 95.4413C290.777 95.2392 291.276 94.9215 291.692 94.5099C292.469 93.57 292.857 92.3679 292.775 91.1509V89.1068C292.33 89.7914 291.718 90.3517 290.997 90.7353C290.187 91.1469 289.289 91.3528 288.381 91.3348C287.686 91.362 286.995 91.2163 286.371 90.9106C285.747 90.605 285.208 90.1491 284.803 89.5838C283.871 88.1746 283.419 86.5015 283.516 84.8143L283.536 84.6236ZM284.218 84.8757C284.141 86.3713 284.511 87.8559 285.28 89.1409C285.619 89.6534 286.086 90.0687 286.635 90.3459C287.183 90.6231 287.794 90.7526 288.408 90.7216C289.389 90.7563 290.357 90.4952 291.188 89.9722C291.921 89.4817 292.488 88.781 292.816 87.9622V81.7619C292.516 80.8844 291.992 80.1002 291.297 79.4862C290.489 78.8317 289.466 78.5035 288.428 78.5664C287.804 78.54 287.183 78.6815 286.632 78.9763C286.081 79.2711 285.619 79.7084 285.294 80.2425C284.521 81.5689 284.147 83.0901 284.218 84.6236V84.8757Z" fill="white"/>
<path d="M33.9243 117.335C33.4495 118.146 32.7583 118.809 31.928 119.25C30.934 119.766 29.8246 120.019 28.7052 119.985C27.6669 120.046 26.6463 119.697 25.864 119.011C25.5162 118.662 25.245 118.244 25.0679 117.784C24.8907 117.324 24.8115 116.832 24.8352 116.34C24.8435 115.793 24.9888 115.257 25.2578 114.781C25.5268 114.305 25.9109 113.904 26.375 113.615C27.5085 112.847 28.8568 112.461 30.2246 112.511H33.9243V110.617C33.9486 110.148 33.8683 109.68 33.6891 109.246C33.51 108.813 33.2366 108.424 32.8887 108.11C32.059 107.464 31.0218 107.144 29.9725 107.21C28.961 107.16 27.9629 107.458 27.1449 108.055C26.8071 108.312 26.5339 108.644 26.347 109.025C26.1601 109.405 26.0647 109.825 26.0684 110.249H25.5301V110.194C25.503 109.704 25.5955 109.215 25.7997 108.769C26.0038 108.322 26.3135 107.932 26.702 107.633C27.6388 106.902 28.8066 106.532 29.993 106.59C31.1977 106.528 32.3847 106.901 33.3384 107.639C33.7655 108.018 34.1005 108.489 34.3177 109.017C34.535 109.545 34.6288 110.115 34.5921 110.685V117.178C34.5903 117.634 34.6176 118.089 34.6738 118.541C34.7233 118.975 34.8099 119.403 34.9327 119.822H34.1901C34.0879 119.256 34.0197 118.827 33.9788 118.548C33.9425 118.243 33.9243 117.935 33.9243 117.628V117.335ZM28.7052 119.379C29.8517 119.417 30.9849 119.124 31.9689 118.534C32.8684 117.958 33.5551 117.104 33.9243 116.102V113.192H30.2655C29.0625 113.151 27.8749 113.474 26.8588 114.119C26.4537 114.353 26.1156 114.687 25.877 115.089C25.6383 115.491 25.5071 115.948 25.4961 116.415C25.4845 116.805 25.5542 117.193 25.7009 117.554C25.8475 117.915 26.0678 118.242 26.3477 118.514C26.6668 118.8 27.0392 119.021 27.4437 119.164C27.8483 119.307 28.2769 119.368 28.7052 119.345V119.379Z" fill="white"/>
<path d="M48.6483 113.492C48.746 115.18 48.2916 116.855 47.3537 118.262C46.9498 118.826 46.4122 119.281 45.7891 119.587C45.166 119.892 44.4769 120.039 43.7834 120.013C42.8708 120.032 41.9674 119.826 41.1534 119.413C40.4334 119.033 39.8251 118.472 39.3887 117.785V124.741H38.7074V116.184V116.129V110.794V110.712V106.747H39.2116L39.3411 109.036C39.7552 108.273 40.3641 107.634 41.1057 107.183C41.8999 106.717 42.8082 106.481 43.7289 106.502C44.4307 106.477 45.1273 106.63 45.7539 106.947C46.3805 107.264 46.9168 107.734 47.3128 108.314C48.2489 109.768 48.7042 111.479 48.6142 113.206L48.6483 113.492ZM47.9669 113.24C48.035 111.706 47.6588 110.185 46.8836 108.859C46.5582 108.325 46.096 107.889 45.5449 107.594C44.9938 107.299 44.3738 107.157 43.7494 107.183C42.7158 107.127 41.6985 107.458 40.8945 108.11C40.2011 108.722 39.6817 109.507 39.3887 110.385V116.579C39.6948 117.413 40.2578 118.129 40.9967 118.623C41.8339 119.148 42.8096 119.409 43.7971 119.372C44.4094 119.401 45.0187 119.27 45.5656 118.993C46.1125 118.716 46.5783 118.302 46.9176 117.792C47.6927 116.509 48.0653 115.023 47.9874 113.526L47.9669 113.24Z" fill="white"/>
<path d="M62.0708 113.492C62.1686 115.181 61.7142 116.855 60.7763 118.262C60.3734 118.826 59.837 119.281 59.2151 119.586C58.5932 119.892 57.9053 120.038 57.2128 120.013C56.3001 120.033 55.3966 119.827 54.5828 119.413C53.8615 119.035 53.2528 118.473 52.8181 117.785V124.741H52.1708V116.184C52.1691 116.166 52.1691 116.147 52.1708 116.129C52.168 116.113 52.168 116.097 52.1708 116.081V110.794C52.1674 110.767 52.1674 110.74 52.1708 110.712V106.747H52.6682L52.8045 109.036C53.2141 108.272 53.8212 107.632 54.5624 107.183C55.3566 106.717 56.2649 106.481 57.1856 106.502C57.8883 106.477 58.5861 106.629 59.2139 106.946C59.8417 107.263 60.3791 107.734 60.7763 108.314C61.71 109.769 62.1628 111.48 62.0708 113.206V113.492ZM61.3895 113.24C61.4575 111.706 61.0814 110.185 60.3061 108.859C59.9792 108.327 59.5167 107.891 58.9659 107.597C58.4152 107.302 57.796 107.16 57.1719 107.183C56.1385 107.128 55.1213 107.458 54.3171 108.11C53.6257 108.723 53.1086 109.508 52.8181 110.385V116.579C53.1215 117.413 53.6823 118.129 54.4193 118.623C55.2564 119.148 56.2321 119.409 57.2196 119.372C57.8321 119.401 58.4416 119.271 58.9886 118.994C59.5356 118.717 60.0013 118.303 60.3402 117.792C61.1176 116.51 61.4926 115.024 61.4167 113.526L61.3895 113.24Z" fill="white"/>
<path d="M66.3974 119.733H65.716V101.051H66.3974V119.733Z" fill="white"/>
<path d="M71.453 102.7H70.7716V101.051H71.453V102.7ZM71.453 119.733H70.7716V106.747H71.453V119.733Z" fill="white"/>
<path d="M80.0993 119.338C81.1358 119.356 82.1507 119.04 82.995 118.439C83.4188 118.129 83.7568 117.716 83.9772 117.239C84.1977 116.762 84.2935 116.237 84.2555 115.713H84.8074V115.788C84.844 116.371 84.7356 116.953 84.4918 117.484C84.248 118.014 83.8766 118.476 83.4106 118.827C82.4623 119.575 81.2862 119.974 80.0788 119.958C79.3353 119.99 78.5947 119.845 77.9183 119.535C77.2418 119.225 76.6489 118.758 76.1883 118.173C75.2014 116.813 74.7064 115.157 74.7848 113.479V112.974C74.7019 111.299 75.1974 109.647 76.1883 108.294C76.6428 107.709 77.2307 107.242 77.9029 106.931C78.575 106.621 79.3119 106.476 80.0516 106.508C81.2932 106.471 82.5055 106.89 83.4583 107.687C83.9308 108.095 84.3004 108.609 84.5371 109.187C84.7739 109.764 84.8712 110.39 84.821 111.012V111.08H84.2623C84.2957 110.533 84.2024 109.985 83.9897 109.479C83.777 108.973 83.4506 108.523 83.0359 108.164C82.2036 107.483 81.1537 107.125 80.0788 107.156C79.4137 107.116 78.7493 107.245 78.1469 107.529C77.5444 107.814 77.0232 108.245 76.6312 108.784C75.8039 110.02 75.3933 111.488 75.4593 112.974V113.479C75.3913 114.971 75.8019 116.447 76.6312 117.689C77.0263 118.231 77.5504 118.666 78.156 118.954C78.7617 119.242 79.4296 119.374 80.0993 119.338V119.338Z" fill="white"/>
<path d="M96.2813 117.335C95.8021 118.145 95.109 118.808 94.2781 119.25C93.2842 119.766 92.1748 120.019 91.0554 119.986C90.0171 120.044 88.9979 119.689 88.2209 118.998C87.8709 118.65 87.5978 118.232 87.4194 117.772C87.2409 117.312 87.1612 116.82 87.1853 116.327C87.1936 115.78 87.339 115.244 87.608 114.768C87.877 114.292 88.2611 113.891 88.7251 113.601C89.8586 112.834 91.2069 112.447 92.5748 112.498H96.2813V110.603C96.3062 110.133 96.2262 109.662 96.047 109.226C95.8679 108.79 95.5942 108.4 95.2456 108.082C94.4154 107.438 93.3786 107.118 92.3295 107.183C91.3158 107.132 90.3151 107.43 89.4951 108.028C89.1572 108.285 88.884 108.617 88.6971 108.997C88.5102 109.378 88.4148 109.798 88.4185 110.222H87.8803V110.167C87.8531 109.677 87.9457 109.188 88.1498 108.742C88.354 108.295 88.6637 107.905 89.0522 107.606C89.991 106.874 91.1613 106.504 92.3499 106.563C93.5524 106.502 94.7369 106.875 95.6885 107.612C96.1169 107.99 96.4531 108.461 96.6716 108.989C96.8901 109.517 96.985 110.088 96.949 110.658V117.151C96.945 117.607 96.97 118.062 97.024 118.514C97.0767 118.947 97.1633 119.375 97.2829 119.795H96.5266C96.4244 119.229 96.3562 118.8 96.3222 118.521C96.2824 118.216 96.2642 117.908 96.2677 117.601L96.2813 117.335ZM91.0554 119.379C92.202 119.418 93.3354 119.125 94.319 118.534C95.2188 117.957 95.9072 117.103 96.2813 116.102V113.193H92.6156C91.4126 113.151 90.2251 113.474 89.2089 114.119C88.8039 114.353 88.4658 114.687 88.2271 115.089C87.9885 115.491 87.8573 115.948 87.8462 116.415C87.8328 116.813 87.905 117.21 88.0578 117.578C88.2106 117.946 88.4405 118.276 88.732 118.548C89.3767 119.114 90.2197 119.401 91.0758 119.345L91.0554 119.379Z" fill="white"/>
<path d="M102.434 103.272V106.747H105.623V107.428H102.434V116.388C102.365 117.182 102.554 117.978 102.972 118.657C103.138 118.875 103.354 119.051 103.602 119.169C103.85 119.288 104.122 119.346 104.396 119.338C104.589 119.35 104.782 119.35 104.975 119.338L105.657 119.256L105.772 119.842C105.571 119.907 105.363 119.95 105.152 119.972C104.911 120.001 104.667 120.014 104.423 120.013C104.049 120.037 103.675 119.972 103.33 119.824C102.986 119.676 102.681 119.449 102.441 119.161C101.924 118.35 101.685 117.394 101.759 116.436V107.428H99.3678V106.747H101.759V103.272H102.434Z" fill="white"/>
<path d="M109.472 102.7H108.825V101.051H109.472V102.7ZM109.472 119.733H108.825V106.747H109.472V119.733Z" fill="white"/>
<path d="M112.709 113.002C112.635 111.306 113.196 109.645 114.283 108.341C114.803 107.775 115.435 107.324 116.138 107.015C116.842 106.706 117.602 106.546 118.371 106.546C119.139 106.546 119.899 106.706 120.603 107.015C121.307 107.324 121.939 107.775 122.459 108.341C123.545 109.645 124.107 111.306 124.033 113.002V113.506C124.105 115.203 123.544 116.866 122.459 118.173C121.94 118.742 121.309 119.196 120.605 119.507C119.901 119.817 119.14 119.978 118.371 119.978C117.601 119.978 116.84 119.817 116.136 119.507C115.432 119.196 114.801 118.742 114.283 118.173C113.195 116.867 112.632 115.204 112.702 113.506L112.709 113.002ZM113.356 113.506C113.31 115.002 113.793 116.466 114.719 117.642C115.166 118.177 115.726 118.608 116.358 118.903C116.99 119.199 117.68 119.352 118.377 119.352C119.075 119.352 119.765 119.199 120.397 118.903C121.029 118.608 121.589 118.177 122.036 117.642C122.959 116.467 123.441 115.006 123.399 113.513V113.009C123.435 111.529 122.953 110.083 122.036 108.92C121.589 108.387 121.03 107.959 120.399 107.665C119.768 107.371 119.08 107.219 118.384 107.219C117.688 107.219 117.001 107.371 116.37 107.665C115.739 107.959 115.18 108.387 114.732 108.92C113.817 110.084 113.336 111.529 113.37 113.009L113.356 113.506Z" fill="white"/>
<path d="M127.705 106.747L127.787 109.356C128.149 108.502 128.75 107.771 129.517 107.251C130.345 106.732 131.308 106.474 132.284 106.508C132.883 106.468 133.483 106.57 134.035 106.807C134.587 107.044 135.075 107.409 135.459 107.871C136.167 108.757 136.522 110.167 136.522 112.102V119.733H135.874V112.075C135.874 110.285 135.552 109.02 134.907 108.28C134.581 107.913 134.176 107.624 133.723 107.434C133.271 107.244 132.781 107.158 132.291 107.183C131.717 107.145 131.142 107.231 130.604 107.436C130.067 107.64 129.58 107.958 129.177 108.368C128.432 109.229 127.958 110.291 127.814 111.421V119.733H127.133V113.097C127.133 112.947 127.133 112.79 127.133 112.633C127.133 112.477 127.133 112.32 127.133 112.163V106.747H127.705Z" fill="white"/>
<path d="M148.52 116.558C148.513 116.202 148.432 115.851 148.28 115.528C148.129 115.205 147.911 114.918 147.641 114.685C146.752 113.979 145.692 113.523 144.568 113.363C143.378 113.175 142.239 112.743 141.223 112.095C140.874 111.828 140.597 111.478 140.417 111.078C140.236 110.677 140.157 110.238 140.187 109.799C140.186 109.347 140.291 108.901 140.495 108.497C140.698 108.093 140.995 107.743 141.359 107.476C142.274 106.808 143.39 106.476 144.521 106.536C145.738 106.461 146.944 106.815 147.927 107.537C148.321 107.846 148.634 108.247 148.838 108.704C149.042 109.161 149.132 109.661 149.099 110.16V110.235H148.547C148.547 109.816 148.45 109.402 148.263 109.026C148.076 108.65 147.805 108.323 147.471 108.069C146.639 107.439 145.61 107.125 144.568 107.183C143.596 107.118 142.632 107.395 141.843 107.966C141.558 108.176 141.326 108.449 141.164 108.763C141.002 109.078 140.915 109.425 140.91 109.779C140.905 110.109 140.974 110.436 141.111 110.736C141.247 111.036 141.448 111.303 141.7 111.516C142.634 112.17 143.707 112.599 144.834 112.77C146.014 112.991 147.134 113.455 148.125 114.133C148.492 114.418 148.786 114.787 148.98 115.209C149.175 115.631 149.265 116.094 149.242 116.558C149.251 117.04 149.141 117.516 148.924 117.946C148.707 118.376 148.388 118.746 147.996 119.025C147.029 119.696 145.867 120.029 144.691 119.972C143.427 120.043 142.176 119.686 141.141 118.957C140.747 118.683 140.43 118.314 140.219 117.883C140.008 117.453 139.91 116.976 139.935 116.497V116.422H140.46C140.464 116.876 140.588 117.321 140.82 117.712C141.052 118.102 141.384 118.423 141.782 118.643C142.668 119.114 143.661 119.348 144.664 119.325C145.683 119.379 146.69 119.083 147.519 118.486C147.823 118.264 148.072 117.975 148.246 117.64C148.42 117.306 148.514 116.935 148.52 116.558V116.558Z" fill="white"/>
<path d="M159.456 102.7H158.775V101.051H159.456V102.7ZM159.456 119.733H158.775V106.747H159.456V119.733Z" fill="white"/>
<path d="M164.259 106.747L164.341 109.356C164.703 108.504 165.301 107.774 166.065 107.251C166.893 106.734 167.856 106.476 168.831 106.508C169.432 106.468 170.033 106.57 170.586 106.807C171.139 107.044 171.628 107.408 172.013 107.871C172.722 108.757 173.076 110.167 173.076 112.102V119.733H172.395V112.075C172.395 110.285 172.072 109.02 171.427 108.28C171.101 107.913 170.696 107.624 170.244 107.434C169.791 107.244 169.301 107.158 168.811 107.183C168.237 107.145 167.662 107.231 167.125 107.436C166.587 107.64 166.1 107.958 165.697 108.368C164.952 109.229 164.478 110.291 164.334 111.421V119.733H163.653V113.097C163.653 112.947 163.653 112.79 163.653 112.633C163.653 112.477 163.653 112.32 163.653 112.163V106.747H164.259Z" fill="white"/>
<path d="M185.327 115.986L186.008 118.643H186.083L186.935 115.972L189.83 106.747H190.512L193.407 115.958L194.246 118.629H194.321L195.002 115.972L197.625 106.747H198.381L194.607 119.692H193.959L190.716 109.956L190.178 107.912H190.103L189.544 109.956L186.342 119.692H185.695L181.934 106.747H182.676L185.327 115.986Z" fill="white"/>
<path d="M206.108 119.985C205.372 119.994 204.644 119.839 203.976 119.531C203.308 119.224 202.716 118.771 202.245 118.207C201.175 116.972 200.613 115.377 200.671 113.744V112.974C200.601 111.293 201.157 109.645 202.231 108.348C202.708 107.768 203.31 107.304 203.992 106.99C204.674 106.676 205.418 106.521 206.169 106.536C206.806 106.51 207.44 106.624 208.029 106.869C208.617 107.114 209.145 107.483 209.576 107.953C210.477 109.037 210.935 110.422 210.857 111.83V112.818H201.318V113.744C201.275 115.192 201.759 116.606 202.681 117.723C203.092 118.24 203.617 118.655 204.215 118.935C204.813 119.216 205.468 119.353 206.128 119.338C206.895 119.341 207.654 119.192 208.363 118.902C209.02 118.655 209.614 118.264 210.1 117.757L210.448 118.262C209.954 118.79 209.355 119.21 208.69 119.495C207.875 119.843 206.994 120.011 206.108 119.985V119.985ZM206.169 107.183C205.553 107.16 204.939 107.27 204.369 107.505C203.799 107.74 203.286 108.095 202.865 108.546C201.988 109.519 201.475 110.766 201.413 112.075L201.447 112.15H210.237V111.755C210.285 110.558 209.898 109.384 209.147 108.45C208.78 108.026 208.321 107.691 207.805 107.471C207.289 107.251 206.729 107.153 206.169 107.183V107.183Z" fill="white"/>
<path d="M223.939 113.492C224.033 115.18 223.579 116.853 222.644 118.262C222.24 118.826 221.703 119.281 221.08 119.587C220.456 119.892 219.767 120.039 219.074 120.013C218.153 120.036 217.241 119.825 216.423 119.4C215.697 119.02 215.085 118.453 214.652 117.757L214.57 119.761H214.032V116.224V116.163C214.032 116.163 214.032 116.163 214.032 116.115V110.821C214.032 110.821 214.032 110.787 214.032 110.74V101.051H214.679V109.05C215.096 108.262 215.727 107.607 216.5 107.162C217.273 106.718 218.156 106.5 219.047 106.536C219.75 106.51 220.447 106.662 221.075 106.979C221.703 107.296 222.241 107.767 222.637 108.348C223.573 109.802 224.029 111.513 223.939 113.24V113.492ZM223.257 113.24C223.327 111.707 222.954 110.185 222.181 108.859C221.857 108.325 221.396 107.888 220.846 107.594C220.296 107.299 219.677 107.157 219.053 107.183C218.012 107.121 216.985 107.449 216.171 108.103C215.482 108.718 214.965 109.502 214.672 110.378V116.579C214.983 117.4 215.543 118.103 216.274 118.589C217.113 119.114 218.091 119.375 219.081 119.338C219.692 119.367 220.301 119.237 220.847 118.96C221.393 118.683 221.857 118.268 222.194 117.757C222.964 116.472 223.334 114.988 223.257 113.492V113.24Z" fill="white"/>
<path d="M231.699 110.494C232.945 110.566 234.174 110.178 235.154 109.404C235.548 109.083 235.865 108.677 236.082 108.218C236.299 107.758 236.41 107.255 236.407 106.747C236.427 106.216 236.341 105.686 236.155 105.188C235.969 104.69 235.687 104.233 235.324 103.844C234.902 103.433 234.398 103.115 233.845 102.911C233.292 102.707 232.703 102.621 232.115 102.659C230.936 102.618 229.784 103.025 228.892 103.797C228.468 104.176 228.133 104.645 227.911 105.169C227.69 105.693 227.587 106.26 227.611 106.829H227.059V106.761C227.021 106.122 227.129 105.482 227.376 104.892C227.623 104.301 228.001 103.775 228.483 103.354C229.493 102.468 230.8 101.999 232.142 102.039C233.459 101.974 234.748 102.434 235.726 103.32C236.185 103.766 236.543 104.305 236.778 104.901C237.013 105.496 237.119 106.135 237.089 106.774C237.097 107.672 236.791 108.545 236.223 109.241C235.616 109.986 234.8 110.532 233.88 110.808C234.899 111.023 235.824 111.555 236.523 112.327C237.172 113.104 237.51 114.095 237.47 115.107C237.505 115.773 237.393 116.437 237.144 117.055C236.894 117.673 236.513 118.229 236.026 118.684C234.983 119.575 233.642 120.039 232.272 119.985C230.857 120.003 229.477 119.54 228.361 118.67C227.784 118.24 227.326 117.67 227.03 117.015C226.733 116.36 226.607 115.64 226.664 114.923V114.855H227.216C227.201 115.459 227.321 116.059 227.566 116.612C227.811 117.164 228.175 117.656 228.633 118.05C229.62 118.903 230.893 119.353 232.197 119.311C233.417 119.385 234.62 118.987 235.556 118.2C235.962 117.803 236.279 117.323 236.485 116.793C236.691 116.263 236.78 115.695 236.748 115.127C236.791 114.552 236.688 113.974 236.45 113.448C236.212 112.922 235.846 112.464 235.385 112.116C234.276 111.413 232.976 111.072 231.665 111.142H230.337V110.46L231.699 110.494Z" fill="white"/>
<path d="M241.906 119.733H240.877V118.173H241.906V119.733Z" fill="white"/>
<path d="M176.483 37.4267L177.682 25.4009H190.014V27.2814H179.426L178.561 35.6143C179.93 34.6922 181.551 34.2162 183.201 34.2516C184.19 34.209 185.177 34.3813 186.093 34.7565C187.009 35.1317 187.833 35.701 188.509 36.4251C189.886 38.0254 190.596 40.0939 190.491 42.2029C190.491 44.8011 189.846 46.8156 188.556 48.2465C187.86 48.9811 187.011 49.5544 186.069 49.9263C185.128 50.2983 184.116 50.4598 183.106 50.3995C181.203 50.4841 179.339 49.8409 177.893 48.6008C176.504 47.2873 175.682 45.483 175.604 43.5724H177.607C177.686 45.0119 178.295 46.3712 179.317 47.388C180.385 48.2964 181.76 48.762 183.16 48.6894C183.909 48.7399 184.66 48.6147 185.352 48.3236C186.044 48.0326 186.658 47.5839 187.146 47.0132C188.054 45.8958 188.509 44.306 188.509 42.2438C188.579 40.6331 188.042 39.0547 187.003 37.8219C186.489 37.2536 185.856 36.8056 185.15 36.51C184.443 36.2144 183.68 36.0784 182.915 36.1117C182.065 36.0967 181.218 36.2186 180.407 36.4728C179.573 36.7946 178.809 37.276 178.159 37.89L176.483 37.4267Z" fill="white"/>
<path d="M194.225 54.6648L193.026 53.7858C194.007 52.5708 194.572 51.0737 194.641 49.5138V46.877H196.623V48.9891C196.662 50.0529 196.468 51.1123 196.053 52.0928C195.639 53.0733 195.015 53.9512 194.225 54.6648V54.6648Z" fill="white"/>
<path d="M202.34 37.4267L203.539 25.4009H215.872V27.2814H205.283L204.418 35.6143C205.789 34.6913 207.412 34.2153 209.065 34.2516C210.055 34.2072 211.042 34.3779 211.96 34.7519C212.877 35.126 213.703 35.6945 214.379 36.4183C215.757 38.0186 216.467 40.0871 216.362 42.1961C216.362 44.7943 215.717 46.8088 214.427 48.2397C213.146 49.6705 211.334 50.3927 208.976 50.3927C207.071 50.479 205.205 49.8358 203.757 48.594C202.369 47.2798 201.55 45.4753 201.475 43.5656H203.416C203.499 45.0044 204.107 46.3625 205.127 47.3812C206.197 48.2894 207.574 48.7549 208.976 48.6825C209.725 48.7336 210.476 48.6086 211.168 48.3176C211.86 48.0265 212.475 47.5775 212.962 47.0064C213.862 45.889 214.325 44.281 214.325 42.237C214.396 40.6263 213.858 39.0479 212.819 37.815C212.305 37.2468 211.673 36.7988 210.966 36.5032C210.259 36.2076 209.496 36.0716 208.731 36.1049C207.883 36.0898 207.039 36.2117 206.23 36.466C205.393 36.7854 204.626 37.267 203.975 37.8832L202.34 37.4267Z" fill="white"/>
<path d="M221.561 37.4267L222.76 25.4009H235.086V27.2814H224.504L223.639 35.6143C225.008 34.6922 226.629 34.2162 228.279 34.2516C229.27 34.2062 230.259 34.3764 231.177 34.7505C232.096 35.1245 232.923 35.6936 233.6 36.4183C234.976 38.0193 235.683 40.088 235.576 42.1961C235.576 44.7943 234.933 46.8088 233.648 48.2397C232.951 48.9742 232.102 49.5476 231.161 49.9195C230.219 50.2914 229.208 50.453 228.197 50.3927C226.294 50.4773 224.431 49.8341 222.985 48.594C221.595 47.2805 220.774 45.4761 220.695 43.5656H222.644C222.723 45.0051 223.332 46.3644 224.354 47.3812C225.42 48.2933 226.796 48.7594 228.197 48.6825C228.947 48.7342 229.699 48.6095 230.392 48.3184C231.086 48.0274 231.701 47.578 232.19 47.0064C233.098 45.889 233.552 44.2992 233.552 42.237C233.623 40.6263 233.086 39.0479 232.047 37.815C231.533 37.2468 230.9 36.7988 230.194 36.5032C229.487 36.2076 228.724 36.0716 227.959 36.1049C227.109 36.0899 226.262 36.2118 225.451 36.466C224.617 36.7878 223.853 37.2692 223.203 37.8832L221.561 37.4267Z" fill="white"/>
<path d="M240.775 37.4267L241.981 25.4009H254.306V27.2814H243.698L242.86 35.6143C244.229 34.6922 245.849 34.2162 247.5 34.2516C248.491 34.2062 249.48 34.3764 250.398 34.7505C251.317 35.1245 252.144 35.6936 252.821 36.4183C254.194 38.021 254.901 40.0885 254.797 42.1961C254.797 44.7943 254.154 46.8088 252.869 48.2397C252.172 48.9742 251.323 49.5476 250.382 49.9195C249.44 50.2914 248.429 50.453 247.418 50.3927C245.515 50.4773 243.651 49.8341 242.206 48.594C240.814 47.2823 239.992 45.4768 239.916 43.5656H241.865C241.944 45.0051 242.553 46.3644 243.575 47.3812C244.641 48.2933 246.017 48.7594 247.418 48.6825C248.167 48.7369 248.919 48.6134 249.612 48.3221C250.304 48.0309 250.918 47.58 251.404 47.0064C252.312 45.889 252.766 44.2992 252.766 42.237C252.834 40.6268 252.297 39.0496 251.261 37.815C250.747 37.2475 250.114 36.8001 249.407 36.5045C248.701 36.209 247.938 36.0725 247.173 36.1049C246.323 36.0893 245.476 36.2112 244.665 36.466C243.831 36.7878 243.067 37.2692 242.417 37.8832L240.775 37.4267Z" fill="white"/>
<path d="M283.897 27.1656H275.455V50.0589H273.377V27.1656H264.942V25.4009H283.897V27.1656Z" fill="white"/>
<path d="M284.62 40.6559C284.592 39.009 284.942 37.3776 285.642 35.8864C286.265 34.5293 287.269 33.3823 288.532 32.5852C289.794 31.7881 291.262 31.375 292.755 31.3964C293.871 31.3588 294.982 31.5697 296.008 32.0139C297.033 32.4582 297.946 33.1246 298.683 33.965C300.195 35.673 300.951 37.9441 300.951 40.7785V41.2078C300.977 42.8552 300.625 44.4866 299.923 45.9772C299.3 47.3263 298.299 48.465 297.041 49.2545C295.759 50.0293 294.286 50.4283 292.789 50.406C291.674 50.4416 290.564 50.2297 289.54 49.7856C288.517 49.3415 287.604 48.6761 286.868 47.8373C285.351 46.1248 284.592 43.8537 284.592 41.0238L284.62 40.6559ZM286.664 41.2146C286.586 43.1547 287.188 45.0611 288.367 46.6041C288.906 47.2639 289.586 47.7957 290.356 48.1609C291.126 48.526 291.967 48.7155 292.82 48.7155C293.672 48.7155 294.513 48.526 295.283 48.1609C296.054 47.7957 296.733 47.2639 297.272 46.6041C298.471 45.0064 299.074 43.0395 298.976 41.0443V40.6559C298.998 39.3235 298.735 38.0018 298.206 36.779C297.75 35.6814 296.991 34.7361 296.018 34.0536C295.05 33.4238 293.909 33.1118 292.755 33.1611C291.903 33.1451 291.059 33.3291 290.291 33.6983C289.523 34.0675 288.853 34.6116 288.333 35.2869C287.142 36.876 286.538 38.8285 286.623 40.8126L286.664 41.2146Z" fill="white"/>
<path d="M309.509 40.8265L307.193 43.0682V50.0588H305.149V24.0449H307.193V40.6971L309.107 38.6121L316.118 31.7237H318.646L310.899 39.457L319.327 50.0588H316.909L309.509 40.8265Z" fill="white"/>
<path d="M328.9 50.3992C327.412 50.4161 325.949 50.0173 324.676 49.2477C323.414 48.4769 322.395 47.3642 321.739 46.0386C321.025 44.605 320.665 43.0207 320.69 41.4191V40.6968C320.663 39.0499 321.012 37.4185 321.712 35.9274C322.341 34.5782 323.328 33.4279 324.567 32.6024C325.734 31.8089 327.114 31.3862 328.526 31.3896C329.522 31.3461 330.516 31.5281 331.433 31.9222C332.349 32.3162 333.165 32.9121 333.82 33.6653C335.123 35.1824 335.775 37.2583 335.775 39.8928V41.0239H322.734V41.4122C322.67 43.3047 323.309 45.1539 324.526 46.6041C325.069 47.2674 325.755 47.7989 326.532 48.1589C327.31 48.5188 328.159 48.6977 329.016 48.6822C330.007 48.7027 330.99 48.5001 331.891 48.0895C332.784 47.6416 333.559 46.9905 334.154 46.1885L335.421 47.156C334.705 48.2125 333.729 49.0662 332.587 49.6344C331.444 50.2026 330.175 50.4661 328.9 50.3992V50.3992ZM328.526 33.1611C327.801 33.1488 327.083 33.2921 326.419 33.5813C325.755 33.8704 325.16 34.2987 324.676 34.8372C323.57 36.0931 322.901 37.6731 322.768 39.3409H333.758V39.1161C333.785 37.5424 333.259 36.0091 332.273 34.7827C331.812 34.2461 331.235 33.8213 330.586 33.5404C329.937 33.2594 329.232 33.1298 328.526 33.1611V33.1611Z" fill="white"/>
<path d="M341.648 31.737L341.717 34.8712C342.343 33.8065 343.229 32.918 344.292 32.2889C345.328 31.6925 346.504 31.3843 347.699 31.3963C349.661 31.3963 351.106 31.9482 352.08 33.0588C353.054 34.1694 353.531 35.8251 353.538 38.0327V50.0585H351.494V38.019C351.587 36.7159 351.22 35.4215 350.458 34.3602C349.777 33.5562 348.68 33.161 347.181 33.161C345.969 33.1478 344.792 33.5629 343.856 34.3329C342.861 35.1711 342.12 36.2709 341.717 37.508V50.0585H339.672V31.737H341.648Z" fill="white"/>
<path d="M369.747 45.4255C369.757 44.9542 369.651 44.4876 369.44 44.0662C369.229 43.6447 368.918 43.2811 368.534 43.0068C367.431 42.2787 366.187 41.7912 364.882 41.5759C363.578 41.3374 362.308 40.9392 361.101 40.3904C360.302 40.0321 359.613 39.4677 359.104 38.7551C358.645 38.0634 358.408 37.2482 358.423 36.4181C358.416 35.7203 358.578 35.031 358.893 34.4085C359.208 33.786 359.669 33.2484 360.235 32.841C361.575 31.8523 363.212 31.3521 364.875 31.4238C366.643 31.3335 368.386 31.8718 369.795 32.9432C370.391 33.4117 370.868 34.0131 371.19 34.6993C371.512 35.3855 371.669 36.1374 371.648 36.8951H369.604C369.606 36.3725 369.484 35.857 369.247 35.3912C369.01 34.9255 368.665 34.5231 368.241 34.2174C367.274 33.5561 366.137 33.1877 364.966 33.1563C363.795 33.1249 362.64 33.4318 361.639 34.0402C361.26 34.2931 360.95 34.637 360.738 35.0406C360.526 35.4441 360.419 35.8943 360.426 36.35C360.405 36.7601 360.486 37.169 360.662 37.5401C360.838 37.9111 361.104 38.2326 361.435 38.4758C362.563 39.1548 363.809 39.6169 365.107 39.8385C366.491 40.1286 367.834 40.5862 369.107 41.2012C369.907 41.5795 370.596 42.1566 371.11 42.8773C371.694 43.8716 371.893 45.0463 371.666 46.1773C371.44 47.3083 370.805 48.3165 369.883 49.0094C368.446 49.9825 366.731 50.4608 364.998 50.3721C363.152 50.4573 361.332 49.9145 359.834 48.8323C359.211 48.3873 358.704 47.7991 358.357 47.1172C358.009 46.4353 357.831 45.6798 357.837 44.9145H359.881C359.899 45.4605 360.043 45.9948 360.303 46.4751C360.564 46.9553 360.932 47.3682 361.38 47.6808C362.46 48.3878 363.736 48.7359 365.025 48.6756C366.231 48.7291 367.422 48.4025 368.432 47.7421C368.827 47.496 369.154 47.1552 369.384 46.7507C369.613 46.3461 369.738 45.8906 369.747 45.4255V45.4255Z" fill="white"/>
<path d="M341.751 364.651L335.142 347.692H339.85L343.045 356.345L343.972 359.234L344.435 357.783C344.585 357.306 344.742 356.829 344.912 356.345L348.142 347.692H352.754L346.241 364.651V371.11H341.751V364.651Z" fill="white"/>
<path d="M370.817 371.11H366.34V355.998C366.37 354.931 366.309 353.865 366.156 352.809C366.052 352.227 365.749 351.699 365.298 351.317C364.807 350.922 364.19 350.719 363.56 350.744C362.771 350.719 361.997 350.959 361.36 351.426C360.749 351.879 360.317 352.533 360.14 353.272C359.912 354.48 359.818 355.709 359.861 356.938V364.617H355.371V347.692H359.527V350.186C360.16 349.291 361 348.563 361.975 348.062C362.95 347.562 364.032 347.304 365.128 347.31C366.294 347.27 367.447 347.563 368.453 348.155C369.295 348.646 369.95 349.403 370.313 350.308C370.7 351.537 370.87 352.823 370.817 354.11V371.11ZM359.622 345.416H357.578C357.578 345.171 357.578 344.98 357.578 344.837C357.514 343.907 357.804 342.987 358.389 342.262C358.652 341.968 358.975 341.736 359.336 341.579C359.697 341.423 360.087 341.347 360.481 341.355C360.83 341.352 361.178 341.393 361.516 341.478C362.116 341.662 362.701 341.89 363.268 342.159C363.888 342.475 364.564 342.667 365.257 342.725C365.572 342.734 365.878 342.619 366.109 342.405C366.376 342.11 366.532 341.732 366.552 341.335H368.596C368.596 342.773 368.316 343.801 367.792 344.415C367.545 344.715 367.232 344.955 366.877 345.116C366.523 345.276 366.137 345.354 365.748 345.341C365.388 345.342 365.03 345.306 364.678 345.232C364.433 345.171 363.819 344.953 362.845 344.551C362.166 344.251 361.444 344.063 360.706 343.992C360.557 343.984 360.408 344.008 360.27 344.062C360.131 344.116 360.006 344.199 359.902 344.306C359.678 344.627 359.578 345.02 359.622 345.409V345.416Z" fill="white"/>
<path d="M163.026 58.6846H161.316V18.5327H163.026V58.6846Z" fill="#7E7F7F"/>
</svg>
