<svg width="392" height="392" viewBox="0 0 392 392" fill="none" xmlns="http://www.w3.org/2000/svg">
<path d="M377.923 392.007H14.0835C10.3516 391.996 6.77569 390.509 4.13687 387.87C1.49804 385.231 0.0107858 381.655 0 377.923V14.0835C0.0107858 10.3516 1.49804 6.77569 4.13687 4.13687C6.77569 1.49804 10.3516 0.0107858 14.0835 0H377.923C381.655 0.0107858 385.231 1.49804 387.87 4.13687C390.509 6.77569 391.996 10.3516 392.007 14.0835V377.923C391.996 381.655 390.509 385.231 387.87 387.87C385.231 390.509 381.655 391.996 377.923 392.007ZM14.0835 6.13213C11.9774 6.1411 9.96015 6.9817 8.47093 8.47093C6.9817 9.96015 6.1411 11.9774 6.13213 14.0835V377.923C6.1411 380.029 6.9817 382.047 8.47093 383.536C9.96015 385.025 11.9774 385.866 14.0835 385.875H377.923C380.036 385.871 382.062 385.03 383.556 383.536C385.05 382.042 385.892 380.016 385.895 377.903V14.0835C385.886 11.9739 385.043 9.95355 383.549 8.46375C382.055 6.97394 380.033 6.13571 377.923 6.13213H14.0835Z" fill="white"/>
<path d="M120.169 58.6846H118.459V18.5327H120.169V58.6846Z" fill="#7E7F7F"/>
<path d="M25.5846 30.1021V22.7163H45.9092V30.1021H25.5846ZM45.9092 33.8018V41.1945H32.9636V52.28H25.5846V33.8018H45.9092Z" fill="white"/>
<path d="M57.0084 22.7163V52.28H49.6089V22.7163H57.0084Z" fill="white"/>
<path d="M60.6945 30.1021V22.7163H81.0191V41.1945H68.0735V52.28H60.6945V33.8018H73.6401V30.1021H60.6945ZM77.3262 44.8874L81.0191 52.28H73.6265L69.954 44.8874H77.3262Z" fill="white"/>
<path d="M105.043 22.7163V30.1021H84.712V22.7163H105.043ZM105.043 33.8018V41.1945H84.712V33.8018H105.043ZM105.043 44.8874V52.28H84.712V44.8874H105.043Z" fill="white"/>
<path d="M311.58 353.579H335.067V357.299H330.57V370.537H326.08V357.299H320.567V370.537H316.084V357.299H311.58V353.579Z" fill="white"/>
<path d="M337.724 353.579H342.207V362.252C342.207 364.296 342.5 365.659 343.086 366.34C343.375 366.65 343.727 366.894 344.118 367.057C344.51 367.219 344.932 367.295 345.355 367.281C345.811 367.313 346.268 367.23 346.683 367.039C347.099 366.849 347.46 366.557 347.733 366.19C348.246 365.459 348.503 364.158 348.503 362.286V353.579H352.986V361.571C353.061 363.371 352.807 365.17 352.237 366.879C351.748 368.133 350.847 369.183 349.681 369.856C348.391 370.608 346.916 370.985 345.423 370.946C343.855 370.998 342.305 370.603 340.953 369.808C339.797 369.116 338.908 368.052 338.432 366.79C337.907 365.102 337.676 363.337 337.751 361.571L337.724 353.579ZM341.873 351.289H339.829C339.829 351.044 339.829 350.853 339.829 350.717C339.768 349.787 340.057 348.868 340.64 348.141C340.901 347.846 341.223 347.611 341.585 347.455C341.946 347.298 342.338 347.223 342.732 347.235C343.083 347.232 343.433 347.274 343.774 347.358C344.372 347.541 344.955 347.769 345.518 348.039C346.138 348.358 346.814 348.553 347.508 348.612C347.825 348.62 348.132 348.505 348.366 348.291C348.63 347.995 348.783 347.618 348.803 347.222H350.847C350.847 348.659 350.567 349.681 350.036 350.301C349.789 350.602 349.476 350.842 349.122 351.003C348.767 351.163 348.381 351.24 347.992 351.228C347.632 351.23 347.274 351.193 346.922 351.119C346.677 351.051 346.064 350.824 345.082 350.438C344.404 350.137 343.682 349.949 342.943 349.879C342.796 349.87 342.649 349.893 342.511 349.946C342.374 349.999 342.249 350.081 342.146 350.186C341.933 350.512 341.841 350.902 341.887 351.289H341.873Z" fill="white"/>
<path d="M361.257 369.495V376.99H356.801V363.615C356.735 361.679 356.985 359.746 357.544 357.891C358.046 356.483 359.006 355.284 360.27 354.485C361.673 353.588 363.313 353.135 364.978 353.183C366.193 353.129 367.407 353.337 368.534 353.794C369.662 354.252 370.678 354.948 371.512 355.834C373.114 357.566 373.983 359.852 373.937 362.211C373.982 364.482 373.142 366.681 371.594 368.343C370.877 369.155 369.993 369.802 369.003 370.24C368.013 370.677 366.939 370.895 365.857 370.878C364.223 370.865 362.627 370.385 361.257 369.495ZM361.257 362.566C361.199 363.792 361.578 364.999 362.327 365.972C362.694 366.391 363.149 366.724 363.659 366.947C364.169 367.17 364.722 367.279 365.279 367.264C365.835 367.25 366.382 367.113 366.88 366.864C367.378 366.615 367.814 366.259 368.16 365.822C368.947 364.719 369.341 363.382 369.277 362.027C369.348 360.689 368.987 359.364 368.248 358.246C367.904 357.793 367.453 357.432 366.936 357.194C366.42 356.957 365.852 356.85 365.284 356.883C364.746 356.876 364.213 356.984 363.721 357.2C363.228 357.416 362.788 357.736 362.429 358.137C361.653 358.941 361.257 360.426 361.257 362.566Z" fill="white"/>
<path d="M26.7157 83.6285V91.1233H26.082V73.6808H31.4306C32.9191 73.5829 34.3866 74.0721 35.5187 75.0435C36.4399 76.0229 36.9529 77.3168 36.9529 78.6614C36.9529 80.006 36.4399 81.3 35.5187 82.2794C34.387 83.2514 32.9191 83.7407 31.4306 83.6421L26.7157 83.6285ZM26.7157 82.9812H31.4306C32.0909 83.0313 32.7546 82.9479 33.382 82.736C34.0095 82.5241 34.5878 82.1881 35.0826 81.7479C35.4866 81.3453 35.8044 80.8646 36.0164 80.3351C36.2284 79.8056 36.3303 79.2384 36.3158 78.6682C36.334 78.0921 36.2347 77.5182 36.0238 76.9817C35.8129 76.4452 35.495 75.9573 35.0894 75.5477C34.5928 75.1085 34.0131 74.7736 33.3845 74.5629C32.756 74.3523 32.0915 74.2701 31.4306 74.3212H26.7157V82.9812Z" fill="white"/>
<path d="M45.8002 78.6206L44.9826 78.5525C44.4688 78.5335 43.9568 78.6233 43.4801 78.8158C43.0034 79.0084 42.5728 79.2994 42.2163 79.6699C41.4781 80.4954 41.0035 81.5228 40.8536 82.6201V91.1166H40.22V78.1301H40.7378L40.8536 80.3785V80.8555C41.1583 79.9984 41.705 79.2481 42.4275 78.6956C43.178 78.1626 44.0832 77.892 45.003 77.9257C45.1697 77.9249 45.3361 77.9386 45.5004 77.9665C45.6337 77.9884 45.7657 78.018 45.8956 78.0551L45.8002 78.6206Z" fill="white"/>
<path d="M47.013 84.3851C46.9405 82.6958 47.4882 81.0382 48.5529 79.7247C49.0566 79.1567 49.6751 78.7021 50.3674 78.3908C51.0598 78.0794 51.8103 77.9185 52.5694 77.9185C53.3286 77.9185 54.0791 78.0794 54.7714 78.3908C55.4638 78.7021 56.0822 79.1567 56.586 79.7247C57.6531 81.0373 58.2032 82.6949 58.1326 84.3851V84.8893C58.2043 86.5817 57.6541 88.2418 56.586 89.5565C56.1018 90.142 55.4907 90.6096 54.7988 90.9236C54.107 91.2376 53.3527 91.3899 52.5933 91.3689C51.8277 91.3911 51.067 91.2396 50.3684 90.9257C49.6698 90.6118 49.0514 90.1437 48.5597 89.5565C47.4915 88.2418 46.9414 86.5817 47.013 84.8893V84.3851ZM47.6467 84.8893C47.6091 86.384 48.0906 87.8455 49.0094 89.0251C49.4329 89.5748 49.9815 90.0155 50.6095 90.3106C51.2376 90.6056 51.927 90.7466 52.6205 90.7216C53.3075 90.7437 53.9897 90.6005 54.6098 90.3041C55.2299 90.0077 55.7698 89.5667 56.184 89.0182C57.1017 87.8408 57.5833 86.3817 57.5467 84.8893V84.3851C57.5749 82.9064 57.0938 81.463 56.184 80.297C55.753 79.7611 55.2073 79.3286 54.587 79.0315C53.9668 78.7344 53.2878 78.5802 52.6001 78.5802C51.9124 78.5802 51.2334 78.7344 50.6131 79.0315C49.9929 79.3286 49.4472 79.7611 49.0162 80.297C48.1084 81.464 47.6275 82.9067 47.6535 84.3851L47.6467 84.8893Z" fill="white"/>
<path d="M64.0876 88.3506L64.6872 90.1017H64.7553L65.3685 88.3506L69.2727 78.1304H69.954L65.0074 91.076H64.3942L59.4612 78.1304H60.1426L64.0876 88.3506Z" fill="white"/>
<path d="M73.2722 74.0829H72.6385V72.4341H73.2722V74.0829ZM73.2722 91.1167H72.6385V78.1302H73.2722V91.1167Z" fill="white"/>
<path d="M76.8561 84.6234C76.766 82.9012 77.2085 81.1931 78.1234 79.7313C78.506 79.1527 79.0309 78.6821 79.6478 78.3647C80.2646 78.0473 80.9527 77.8938 81.646 77.9189C82.5471 77.8994 83.4354 78.1356 84.2078 78.6003C84.9384 79.0563 85.5373 79.6951 85.9453 80.4536V72.4341H86.5789V82.1774V87.4578C86.5762 87.4713 86.5762 87.4852 86.5789 87.4987V91.103H85.9657V89.0999C85.5444 89.795 84.9444 90.3644 84.2283 90.7487C83.4301 91.1659 82.5395 91.3745 81.6391 91.3551C80.9555 91.3796 80.2767 91.2321 79.6648 90.9261C79.0529 90.6202 78.5276 90.1656 78.137 89.6041C77.2201 88.1889 76.7785 86.5181 76.8765 84.8346L76.8561 84.6234ZM77.5374 84.8755C77.462 86.3684 77.8243 87.8509 78.5799 89.1407C78.9034 89.6522 79.3574 90.0683 79.8951 90.3461C80.4328 90.6239 81.0348 90.7535 81.6391 90.7215C82.6043 90.7522 83.5556 90.4858 84.3645 89.9584C85.089 89.454 85.6427 88.741 85.9521 87.9143V81.7822C85.6612 80.9006 85.1499 80.1079 84.4667 79.4792C83.6764 78.8219 82.6652 78.4905 81.6391 78.5526C81.0232 78.5278 80.4121 78.6706 79.871 78.9658C79.3298 79.261 78.8789 79.6975 78.5663 80.2287C77.8131 81.562 77.4496 83.08 77.517 84.6098L77.5374 84.8755Z" fill="white"/>
<path d="M95.0549 91.3686C94.3305 91.3752 93.6139 91.2188 92.9582 90.911C92.3024 90.6031 91.7243 90.1518 91.2666 89.5903C90.2162 88.3459 89.6672 86.7548 89.7267 85.1275V84.3575C89.6594 82.6805 90.2043 81.0362 91.2598 79.7312C91.7205 79.1536 92.308 78.6897 92.9767 78.3754C93.6454 78.0611 94.3774 77.9049 95.1162 77.9188C95.7472 77.8906 96.3766 78.0031 96.9588 78.2483C97.5409 78.4934 98.0612 78.8649 98.482 79.336C99.3713 80.4257 99.821 81.8086 99.7425 83.2129V84.2008H90.3944V85.1275C90.346 86.5679 90.8122 87.9786 91.7094 89.1065C92.1098 89.6252 92.6271 90.0418 93.2192 90.3224C93.8112 90.603 94.4613 90.7397 95.1162 90.7213C95.8693 90.7242 96.6154 90.5759 97.3101 90.2853C97.9555 90.0342 98.5372 89.6433 99.0135 89.1406L99.3542 89.6448C98.8717 90.1714 98.2845 90.5914 97.6304 90.878C96.8194 91.2324 95.9393 91.4001 95.0549 91.3686ZM95.1162 78.5661C94.5101 78.5442 93.9065 78.6548 93.3475 78.8901C92.7886 79.1255 92.2877 79.4799 91.8798 79.9288C91.0177 80.9097 90.5133 82.1538 90.449 83.4582L90.4898 83.5331H99.1089V83.1379C99.1574 81.9441 98.778 80.7723 98.0392 79.8334C97.6823 79.4115 97.2329 79.0776 96.7259 78.8578C96.2189 78.638 95.6681 78.5382 95.1162 78.5661Z" fill="white"/>
<path d="M110.596 87.9418C110.589 87.5867 110.509 87.2369 110.36 86.9145C110.211 86.592 109.997 86.3039 109.731 86.0681C108.863 85.3667 107.823 84.9104 106.72 84.7463C105.548 84.5575 104.43 84.1259 103.435 83.479C103.095 83.2057 102.824 82.8544 102.648 82.4548C102.471 82.0551 102.393 81.6189 102.42 81.1828C102.418 80.7326 102.521 80.2881 102.721 79.8847C102.921 79.4813 103.212 79.1302 103.572 78.8594C104.464 78.1939 105.56 77.8613 106.672 77.9192C107.859 77.8521 109.032 78.2068 109.983 78.9208C110.372 79.2331 110.68 79.6347 110.88 80.0914C111.081 80.548 111.168 81.0463 111.135 81.5439V81.6189H110.596C110.599 81.2015 110.506 80.7891 110.324 80.4134C110.142 80.0378 109.876 79.7089 109.547 79.4522C108.735 78.8238 107.724 78.5093 106.699 78.5665C105.726 78.4941 104.76 78.772 103.974 79.35C103.695 79.5637 103.468 79.8377 103.31 80.1516C103.151 80.4654 103.066 80.811 103.061 81.1624C103.057 81.4909 103.125 81.8163 103.259 82.1162C103.393 82.4161 103.59 82.6835 103.837 82.8998C104.75 83.5517 105.802 83.981 106.91 84.1535C108.069 84.3749 109.167 84.8394 110.133 85.5162C110.497 85.8033 110.787 86.1733 110.979 86.5952C111.171 87.0171 111.259 87.4788 111.237 87.9418C111.246 88.4212 111.139 88.8957 110.925 89.325C110.712 89.7543 110.398 90.1259 110.01 90.4083C109.068 91.0772 107.928 91.4107 106.774 91.3554C105.531 91.4282 104.301 91.0696 103.292 90.3401C102.903 90.064 102.59 89.6935 102.382 89.2633C102.175 88.8331 102.08 88.3573 102.107 87.8805V87.8055H102.659C102.658 88.2565 102.777 88.6995 103.003 89.0896C103.229 89.4797 103.555 89.8031 103.946 90.0267C104.816 90.4965 105.793 90.7313 106.781 90.7081C107.781 90.7622 108.769 90.4658 109.574 89.87C109.882 89.6489 110.134 89.3599 110.311 89.0255C110.488 88.691 110.586 88.3202 110.596 87.9418Z" fill="white"/>
<path d="M128.502 88.718C128.039 89.5263 127.359 90.1894 126.54 90.6326C125.57 91.148 124.483 91.4016 123.385 91.3685C122.879 91.3963 122.371 91.3234 121.893 91.1538C121.415 90.9842 120.975 90.7214 120.599 90.3805C120.255 90.0291 119.988 89.6104 119.815 89.1507C119.641 88.691 119.565 88.2003 119.59 87.7096C119.596 87.1663 119.737 86.6328 120 86.1572C120.262 85.6815 120.639 85.2785 121.096 84.9843C122.202 84.2192 123.526 83.832 124.871 83.8805H128.502V81.9863C128.527 81.5175 128.449 81.0488 128.274 80.6133C128.099 80.1778 127.83 79.786 127.487 79.4654C126.678 78.8204 125.658 78.4997 124.625 78.566C123.631 78.5152 122.65 78.8141 121.852 79.4108C121.518 79.6696 121.249 80.0026 121.066 80.3833C120.882 80.7641 120.79 81.1822 120.796 81.6048H120.272V81.5503C120.246 81.0624 120.336 80.5754 120.537 80.1297C120.737 79.6841 121.041 79.2928 121.423 78.9884C122.337 78.2607 123.485 77.8902 124.653 77.9459C125.836 77.8848 127.002 78.2579 127.93 78.9952C128.352 79.3771 128.682 79.8494 128.895 80.3768C129.109 80.9042 129.2 81.4731 129.163 82.0408V88.5341C129.163 88.9894 129.188 89.4443 129.238 89.8968C129.292 90.3292 129.376 90.7572 129.49 91.1777H128.809C128.707 90.6122 128.639 90.1829 128.604 89.9036C128.568 89.5983 128.55 89.2912 128.55 88.9838L128.502 88.718ZM123.385 90.7621C124.51 90.7996 125.621 90.5059 126.581 89.9172C127.465 89.3332 128.139 88.4805 128.502 87.4848V84.5755H124.912C123.732 84.5356 122.569 84.8591 121.58 85.5021C121.175 85.7358 120.837 86.0697 120.598 86.4718C120.359 86.874 120.228 87.3307 120.217 87.7982C120.203 88.1946 120.273 88.5893 120.422 88.9568C120.571 89.3243 120.796 89.6562 121.082 89.9308C121.394 90.2104 121.758 90.425 122.153 90.5619C122.549 90.6988 122.968 90.7553 123.385 90.728V90.7621Z" fill="white"/>
<path d="M148.691 84.8757C148.787 86.5598 148.343 88.2307 147.423 89.6451C147.033 90.2067 146.507 90.6613 145.895 90.9672C145.284 91.2731 144.605 91.4206 143.921 91.3962C143.026 91.4159 142.14 91.2097 141.346 90.7966C140.636 90.4155 140.039 89.8538 139.615 89.1682V96.1247H138.981V87.567C138.98 87.5489 138.98 87.5306 138.981 87.5125C138.979 87.4967 138.979 87.4806 138.981 87.4648V82.1775C138.978 82.1504 138.978 82.1229 138.981 82.0958V78.1303H139.452L139.581 80.4197C139.984 79.6338 140.602 78.9788 141.363 78.5312C142.125 78.0836 142.998 77.8618 143.88 77.8919C144.572 77.8718 145.257 78.0276 145.872 78.3445C146.487 78.6615 147.011 79.1293 147.396 79.7042C148.316 81.164 148.761 82.8731 148.67 84.5963L148.691 84.8757ZM148.043 84.6236C148.111 83.0921 147.742 81.5729 146.98 80.2425C146.668 79.7113 146.217 79.2748 145.676 78.9796C145.135 78.6844 144.523 78.5416 143.908 78.5664C142.884 78.5061 141.875 78.8373 141.087 79.493C140.406 80.1098 139.898 80.8945 139.615 81.7687V87.9622C139.91 88.7928 140.461 89.5084 141.189 90.0062C142.001 90.5257 142.951 90.787 143.914 90.7557C144.518 90.7821 145.118 90.6501 145.654 90.3728C146.191 90.0955 146.646 89.6825 146.974 89.175C147.735 87.8871 148.099 86.4037 148.023 84.9097L148.043 84.6236Z" fill="white"/>
<path d="M152.929 91.1167H152.295V72.4341H152.929V91.1167Z" fill="white"/>
<path d="M165.07 88.7184C164.608 89.5249 163.931 90.1876 163.115 90.633C162.143 91.1483 161.053 91.4019 159.953 91.3689C159.447 91.3986 158.941 91.3278 158.462 91.1605C157.984 90.9933 157.544 90.733 157.167 90.3945C156.824 90.0422 156.558 89.6233 156.385 89.1638C156.211 88.7044 156.134 88.2142 156.158 87.7237C156.164 87.1795 156.306 86.6454 156.57 86.1696C156.834 85.6938 157.212 85.2913 157.671 84.9983C158.776 84.2309 160.101 83.8436 161.445 83.8945H165.07V82.0003C165.097 81.5313 165.019 81.0623 164.844 80.6265C164.668 80.1908 164.399 79.7991 164.055 79.4793C163.248 78.8354 162.23 78.5148 161.2 78.58C160.203 78.5299 159.22 78.8286 158.42 79.4248C158.087 79.6843 157.819 80.0176 157.637 80.3983C157.455 80.779 157.364 81.1968 157.371 81.6188H156.84V81.5643C156.812 81.0762 156.902 80.5886 157.102 80.1427C157.303 79.6968 157.608 79.3057 157.991 79.0024C158.903 78.2707 160.053 77.8997 161.221 77.9599C162.404 77.9 163.569 78.273 164.498 79.0092C164.918 79.392 165.248 79.8645 165.461 80.3916C165.675 80.9188 165.767 81.4872 165.731 82.0548V88.5481C165.727 89.0035 165.752 89.4586 165.806 89.9108C165.857 90.3437 165.941 90.772 166.058 91.1917H165.377C165.275 90.6262 165.206 90.197 165.172 89.9176C165.136 89.6123 165.118 89.3052 165.118 88.9978L165.07 88.7184ZM159.953 90.7625C161.08 90.799 162.193 90.5053 163.156 89.9176C164.04 89.335 164.712 88.4816 165.07 87.4852V84.5758H161.479C160.3 84.536 159.137 84.8595 158.148 85.5025C157.743 85.7361 157.405 86.0701 157.166 86.4722C156.927 86.8744 156.796 87.3311 156.785 87.7986C156.773 88.1948 156.843 88.5892 156.992 88.9565C157.141 89.3237 157.365 89.6558 157.65 89.9312C157.962 90.2105 158.326 90.4248 158.722 90.5617C159.117 90.6986 159.536 90.7553 159.953 90.7284V90.7625Z" fill="white"/>
<path d="M171.107 74.6553V78.1301H174.234V78.8115H171.107V87.7712C171.037 88.5649 171.223 89.3601 171.638 90.0401C171.799 90.258 172.01 90.4338 172.253 90.5525C172.496 90.6711 172.765 90.7291 173.035 90.7215C173.224 90.7328 173.412 90.7328 173.601 90.7215L174.282 90.6397L174.398 91.2257C174.198 91.2896 173.993 91.333 173.785 91.3551C173.547 91.3839 173.308 91.3976 173.069 91.396C172.701 91.4189 172.333 91.3535 171.995 91.2054C171.657 91.0572 171.36 90.8306 171.127 90.5443C170.615 89.7319 170.376 88.7768 170.446 87.8189V78.8115H168.095V78.1301H170.446V74.6553H171.107Z" fill="white"/>
<path d="M178.193 91.1165V78.8113H175.985V78.13H178.193V75.9974C178.131 74.976 178.44 73.9666 179.065 73.1561C179.374 72.8179 179.755 72.5527 180.179 72.3794C180.603 72.2062 181.06 72.1294 181.518 72.1546C181.773 72.1535 182.028 72.1694 182.281 72.2023C182.53 72.2298 182.777 72.28 183.017 72.3521L182.922 72.979C182.676 72.9177 182.451 72.87 182.24 72.8427C181.996 72.8123 181.75 72.7986 181.504 72.8018C181.131 72.7824 180.759 72.8484 180.415 72.9948C180.072 73.1413 179.766 73.3642 179.522 73.6467C179.023 74.3247 178.782 75.1578 178.84 75.9974V78.13H182.199V78.8113H178.84V91.1165H178.193Z" fill="white"/>
<path d="M183.807 84.3851C183.735 82.6958 184.282 81.0382 185.347 79.7246C185.851 79.1567 186.469 78.7021 187.162 78.3908C187.854 78.0794 188.605 77.9185 189.364 77.9185C190.123 77.9185 190.873 78.0794 191.566 78.3908C192.258 78.7021 192.876 79.1567 193.38 79.7246C194.447 81.0372 194.997 82.6949 194.927 84.3851V84.8893C194.999 86.5817 194.448 88.2418 193.38 89.5565C192.895 90.1426 192.283 90.6104 191.59 90.9244C190.897 91.2385 190.141 91.3905 189.381 91.3689C188.616 91.3906 187.857 91.2388 187.159 90.9249C186.462 90.611 185.845 90.1432 185.354 89.5565C184.283 88.2434 183.732 86.5821 183.807 84.8893V84.3851ZM184.441 84.8893C184.403 86.384 184.885 87.8455 185.804 89.0251C186.226 89.5738 186.774 90.0139 187.401 90.309C188.028 90.604 188.716 90.7455 189.408 90.7216C190.096 90.7442 190.779 90.6014 191.401 90.3049C192.022 90.0085 192.563 89.5672 192.978 89.0182C193.896 87.8407 194.377 86.3817 194.341 84.8893V84.3851C194.369 82.9064 193.888 81.463 192.978 80.297C192.547 79.7611 192.001 79.3286 191.381 79.0315C190.761 78.7344 190.082 78.5802 189.394 78.5802C188.707 78.5802 188.028 78.7344 187.407 79.0315C186.787 79.3286 186.241 79.7611 185.81 80.297C184.903 81.464 184.422 82.9067 184.448 84.3851L184.441 84.8893Z" fill="white"/>
<path d="M203.573 78.621L202.749 78.5528C202.235 78.5339 201.723 78.6236 201.246 78.8162C200.77 79.0087 200.339 79.2998 199.982 79.6702C199.244 80.4958 198.77 81.5232 198.62 82.6205V91.1169H197.986V78.1304H198.504L198.62 80.3788V80.8558C198.924 79.9987 199.471 79.2485 200.194 78.6959C200.945 78.1639 201.85 77.8933 202.769 77.926C202.936 77.9249 203.102 77.9386 203.267 77.9669C203.4 77.988 203.532 78.0176 203.662 78.0554L203.573 78.621Z" fill="white"/>
<path d="M206.455 78.1302L206.537 80.7398C206.885 79.8975 207.461 79.1686 208.2 78.6344C208.968 78.1209 209.878 77.8611 210.802 77.8917C211.754 77.8473 212.691 78.1418 213.446 78.723C214.197 79.3995 214.699 80.3091 214.87 81.3053C215.158 80.3184 215.734 79.4403 216.526 78.7843C217.334 78.1623 218.334 77.8418 219.353 77.8781C219.959 77.8387 220.566 77.9457 221.122 78.19C221.678 78.4342 222.168 78.8087 222.549 79.2817C223.275 80.2174 223.639 81.6845 223.639 83.6832V91.0758H222.992V83.69C222.992 81.8095 222.665 80.4877 222.01 79.7109C221.687 79.3314 221.282 79.03 220.825 78.8294C220.368 78.6288 219.872 78.5342 219.374 78.5526C218.82 78.5146 218.266 78.6 217.75 78.8026C217.233 79.0053 216.769 79.3202 216.389 79.7245C215.666 80.5921 215.207 81.6493 215.068 82.7702V83.2539C215.068 83.4175 215.068 83.581 215.068 83.7513V91.1167H214.42V84.4804H214.4C214.4 84.3305 214.4 84.1737 214.4 84.0238C214.4 83.8739 214.4 83.7241 214.4 83.581C214.4 81.7481 214.039 80.4468 213.391 79.6973C213.069 79.3239 212.666 79.0283 212.213 78.8324C211.76 78.6366 211.268 78.5456 210.775 78.5662C210.229 78.5284 209.681 78.6107 209.17 78.8073C208.659 79.0039 208.198 79.31 207.818 79.7041C207.106 80.5471 206.648 81.5749 206.496 82.668V91.1167H205.815V84.4804C205.815 84.3645 205.815 84.2555 205.815 84.1465C205.815 84.0375 205.815 83.8944 205.815 83.7241V78.1302H206.455Z" fill="white"/>
<path d="M234.288 91.1168V78.8117H232.115V78.1303H234.322V75.9977C234.259 74.9751 234.571 73.9645 235.201 73.1565C235.509 72.8177 235.888 72.5519 236.311 72.3786C236.734 72.2053 237.191 72.1288 237.647 72.1549C237.905 72.1536 238.162 72.1695 238.417 72.2026C238.666 72.2315 238.913 72.2816 239.153 72.3525L239.058 72.9793C238.806 72.918 238.588 72.8703 238.376 72.843C238.132 72.8128 237.887 72.7992 237.641 72.8022C237.268 72.7827 236.895 72.8487 236.551 72.9952C236.208 73.1416 235.902 73.3645 235.658 73.647C235.142 74.3181 234.886 75.1527 234.936 75.9977V78.1303H238.295V78.8117H234.936V91.1168H234.288Z" fill="white"/>
<path d="M239.903 84.3851C239.832 82.6949 240.382 81.0372 241.449 79.7246C241.953 79.1567 242.572 78.7021 243.264 78.3908C243.956 78.0794 244.707 77.9185 245.466 77.9185C246.225 77.9185 246.976 78.0794 247.668 78.3908C248.36 78.7021 248.979 79.1567 249.482 79.7246C250.547 81.0382 251.095 82.6957 251.022 84.3851V84.8893C251.096 86.5808 250.548 88.2408 249.482 89.5565C248.98 90.1262 248.363 90.5825 247.671 90.895C246.979 91.2076 246.229 91.3693 245.469 91.3693C244.71 91.3693 243.959 91.2076 243.267 90.895C242.576 90.5825 241.958 90.1262 241.456 89.5565C240.383 88.244 239.83 86.5829 239.903 84.8893V84.3851ZM240.536 84.8893C240.499 86.3839 240.98 87.8455 241.899 89.0251C242.334 89.5567 242.881 89.9851 243.501 90.2793C244.122 90.5734 244.8 90.7261 245.486 90.7261C246.173 90.7261 246.851 90.5734 247.471 90.2793C248.092 89.9851 248.639 89.5567 249.074 89.0251C249.991 87.8476 250.473 86.3885 250.436 84.8961V84.3919C250.465 82.9132 249.983 81.4698 249.074 80.3038C248.643 79.768 248.098 79.3356 247.478 79.0385C246.859 78.7414 246.18 78.5871 245.493 78.5871C244.806 78.5871 244.127 78.7414 243.508 79.0385C242.888 79.3356 242.343 79.768 241.913 80.3038C241.005 81.4711 240.524 82.9136 240.55 84.3919L240.536 84.8893Z" fill="white"/>
<path d="M259.669 78.621L258.844 78.5528C258.331 78.5344 257.821 78.6244 257.345 78.817C256.87 79.0095 256.44 79.3003 256.085 79.6702C255.346 80.4958 254.872 81.5232 254.722 82.6205V91.1169H254.088V78.1304H254.599L254.715 80.3788V80.8558C255.02 79.9987 255.567 79.2485 256.289 78.6959C257.037 78.1639 257.94 77.8933 258.858 77.926C259.027 77.9249 259.195 77.9386 259.362 77.9669C259.493 77.9887 259.623 78.0182 259.75 78.0554L259.669 78.621Z" fill="white"/>
<path d="M275.837 88.7184C275.374 89.5249 274.698 90.1876 273.881 90.633C272.909 91.1483 271.82 91.4019 270.72 91.3688C270.214 91.3973 269.708 91.3246 269.231 91.1549C268.753 90.9853 268.315 90.7221 267.94 90.3809C267.596 90.0298 267.328 89.6113 267.153 89.1516C266.978 88.692 266.901 88.2011 266.925 87.71C266.931 87.1658 267.072 86.6318 267.336 86.156C267.601 85.6801 267.979 85.2776 268.438 84.9846C269.543 84.2173 270.868 83.8299 272.212 83.8808H275.837V81.9867C275.863 81.5177 275.786 81.0486 275.611 80.6129C275.435 80.1771 275.166 79.7854 274.822 79.4657C274.015 78.8217 272.997 78.5011 271.967 78.5663C270.97 78.5162 269.987 78.815 269.187 79.4112C268.854 79.6707 268.586 80.0039 268.404 80.3846C268.222 80.7653 268.131 81.1831 268.138 81.6051H267.606V81.5506C267.578 81.0625 267.669 80.5749 267.869 80.129C268.069 79.6831 268.374 79.292 268.758 78.9887C269.67 78.257 270.819 77.8861 271.987 77.9463C273.171 77.8863 274.336 78.2593 275.265 78.9955C275.685 79.3784 276.014 79.8508 276.228 80.378C276.441 80.9051 276.534 81.4736 276.498 82.0412V88.5344C276.494 88.9898 276.519 89.4449 276.573 89.8971C276.623 90.33 276.708 90.7583 276.825 91.178H276.144C276.041 90.6125 275.973 90.1833 275.939 89.9039C275.903 89.5987 275.885 89.2915 275.885 88.9841L275.837 88.7184ZM270.72 90.7624C271.847 90.8001 272.961 90.5064 273.922 89.9176C274.807 89.335 275.478 88.4816 275.837 87.4851V84.5758H272.246C271.067 84.5359 269.904 84.8594 268.914 85.5024C268.509 85.7361 268.171 86.0701 267.933 86.4722C267.694 86.8743 267.563 87.3311 267.552 87.7986C267.539 88.1947 267.61 88.5891 267.759 88.9564C267.908 89.3237 268.132 89.6557 268.417 89.9312C268.729 90.2105 269.093 90.4248 269.488 90.5617C269.884 90.6986 270.302 90.7552 270.72 90.7284V90.7624Z" fill="white"/>
<path d="M286.166 78.6208L285.342 78.5527C284.828 78.5337 284.316 78.6235 283.839 78.816C283.363 79.0086 282.932 79.2996 282.575 79.6701C281.837 80.4954 281.362 81.5229 281.213 82.6203V91.1167H280.572V78.1302H281.09L281.213 80.3787V80.8556C281.513 79.9979 282.058 79.247 282.78 78.6958C283.531 78.1646 284.436 77.8942 285.355 77.9258C285.522 77.9248 285.688 77.9385 285.853 77.9667C285.986 77.9878 286.118 78.0174 286.248 78.0553L286.166 78.6208Z" fill="white"/>
<path d="M290.118 74.6553V78.1301H293.245V78.8115H290.118V87.7712C290.048 88.5649 290.234 89.3601 290.649 90.0401C290.807 90.2533 291.012 90.4261 291.249 90.5446C291.486 90.663 291.747 90.7236 292.012 90.7215C292.201 90.7328 292.389 90.7328 292.578 90.7215L293.259 90.6397L293.375 91.2257C293.175 91.2896 292.97 91.333 292.762 91.3551C292.524 91.3839 292.285 91.3976 292.046 91.396C291.678 91.4189 291.31 91.3535 290.972 91.2054C290.634 91.0572 290.337 90.8306 290.104 90.5443C289.592 89.7319 289.353 88.7768 289.423 87.8189V78.8115H287.072V78.1301H289.423V74.6553H290.118Z" fill="white"/>
<path d="M297.027 74.0829H296.393V72.4341H297.027V74.0829ZM297.027 91.1167H296.393V78.1302H297.027V91.1167Z" fill="white"/>
<path d="M308.985 87.9416C308.977 87.5865 308.897 87.2367 308.748 86.9143C308.599 86.5918 308.385 86.3036 308.119 86.0679C307.251 85.3665 306.211 84.9101 305.108 84.7461C303.937 84.5573 302.818 84.1256 301.824 83.4787C301.483 83.2054 301.213 82.8541 301.036 82.4545C300.859 82.0549 300.781 81.6187 300.808 81.1826C300.806 80.7324 300.909 80.2879 301.109 79.8845C301.309 79.4811 301.6 79.13 301.96 78.8592C302.852 78.1937 303.949 77.8611 305.06 77.9189C306.248 77.8506 307.421 78.2055 308.371 78.9205C308.76 79.2329 309.068 79.6345 309.268 80.0911C309.469 80.5478 309.556 81.0461 309.523 81.5437V81.6187H308.985C308.987 81.2013 308.894 80.7889 308.712 80.4132C308.53 80.0375 308.264 79.7087 307.935 79.452C307.123 78.8236 306.112 78.5091 305.087 78.5662C304.114 78.4939 303.148 78.7718 302.362 79.3498C302.083 79.5635 301.856 79.8375 301.698 80.1514C301.54 80.4652 301.455 80.8108 301.449 81.1622C301.445 81.4907 301.513 81.8161 301.647 82.116C301.781 82.4159 301.978 82.6832 302.226 82.8996C303.138 83.5515 304.19 83.9808 305.298 84.1533C306.457 84.3747 307.555 84.8391 308.521 85.516C308.885 85.8031 309.175 86.173 309.367 86.595C309.559 87.0169 309.648 87.4786 309.625 87.9416C309.635 88.4163 309.531 88.8866 309.322 89.3132C309.114 89.7398 308.806 90.1105 308.426 90.3944C307.483 91.0633 306.344 91.3968 305.189 91.3415C303.947 91.4143 302.717 91.0557 301.708 90.3263C301.318 90.0502 301.005 89.6797 300.798 89.2495C300.59 88.8193 300.495 88.3434 300.522 87.8666V87.7917H301.04C301.04 88.2426 301.158 88.6856 301.385 89.0758C301.611 89.4659 301.936 89.7892 302.328 90.0129C303.197 90.4826 304.174 90.7174 305.162 90.6942C306.163 90.7483 307.15 90.452 307.956 89.8562C308.262 89.6372 308.515 89.3506 308.693 89.0187C308.871 88.6867 308.971 88.3182 308.985 87.9416Z" fill="white"/>
<path d="M314.476 74.6553V78.1301H317.604V78.8115H314.476V87.7712C314.406 88.5649 314.593 89.3601 315.008 90.0401C315.164 90.2537 315.37 90.4268 315.607 90.5453C315.844 90.6638 316.105 90.7242 316.37 90.7215C316.559 90.7326 316.748 90.7326 316.936 90.7215L317.617 90.6397L317.733 91.2257C317.534 91.2896 317.328 91.333 317.12 91.3551C316.882 91.3839 316.643 91.3976 316.404 91.396C316.036 91.4189 315.668 91.3535 315.33 91.2054C314.993 91.0572 314.695 90.8306 314.463 90.5443C313.95 89.7321 313.711 88.7769 313.781 87.8189V78.8115H311.437V78.1301H313.781V74.6553H314.476Z" fill="white"/>
<path d="M328.382 87.9416C328.376 87.5863 328.296 87.2361 328.147 86.9135C327.998 86.5908 327.784 86.3028 327.517 86.0679C326.65 85.3651 325.61 84.9085 324.506 84.7461C323.335 84.556 322.216 84.1244 321.222 83.4788C320.881 83.2054 320.61 82.8542 320.434 82.4545C320.257 82.0549 320.179 81.6187 320.206 81.1826C320.205 80.7326 320.308 80.2884 320.508 79.8852C320.708 79.4819 320.999 79.1307 321.358 78.8592C322.25 78.1937 323.347 77.8611 324.458 77.9189C325.645 77.8506 326.819 78.2055 327.769 78.9205C328.159 79.2318 328.468 79.6331 328.669 80.0901C328.869 80.547 328.956 81.0459 328.921 81.5437V81.6187H328.376C328.378 81.2013 328.285 80.7889 328.103 80.4132C327.921 80.0375 327.656 79.7087 327.326 79.452C326.515 78.8236 325.503 78.5091 324.478 78.5662C323.505 78.4889 322.537 78.7673 321.753 79.3498C321.472 79.5621 321.243 79.8357 321.084 80.1497C320.924 80.4638 320.839 80.81 320.833 81.1622C320.83 81.4907 320.897 81.8161 321.031 82.116C321.165 82.4159 321.363 82.6832 321.61 82.8996C322.524 83.5527 323.579 83.9821 324.69 84.1533C325.848 84.3761 326.946 84.8404 327.912 85.516C328.274 85.8046 328.562 86.175 328.753 86.5967C328.944 87.0183 329.032 87.4793 329.009 87.9416C329.018 88.4203 328.912 88.8942 328.7 89.3234C328.488 89.7526 328.176 90.1246 327.79 90.4081C326.845 91.077 325.703 91.4104 324.547 91.3551C323.304 91.4241 322.075 91.0658 321.065 90.3399C320.676 90.0631 320.365 89.6922 320.158 89.262C319.952 88.8319 319.859 88.3565 319.886 87.8803V87.8053H320.404C320.403 88.2571 320.523 88.7008 320.751 89.0911C320.978 89.4814 321.305 89.8043 321.698 90.0265C322.565 90.4963 323.54 90.7312 324.526 90.7079C325.526 90.762 326.514 90.4656 327.32 89.8698C327.634 89.6531 327.894 89.366 328.079 89.0313C328.263 88.6966 328.367 88.3235 328.382 87.9416Z" fill="white"/>
<path d="M33.7267 117.335C33.2716 118.138 32.6046 118.8 31.7985 119.249C30.826 119.764 29.7368 120.017 28.6371 119.985C28.1268 120.019 27.6149 119.95 27.1317 119.782C26.6484 119.615 26.2035 119.353 25.8231 119.011C25.481 118.659 25.2149 118.24 25.0415 117.78C24.868 117.321 24.7908 116.831 24.8147 116.34C24.8207 115.796 24.9622 115.262 25.2262 114.786C25.4903 114.31 25.8687 113.908 26.3273 113.615C27.4326 112.847 28.7574 112.46 30.102 112.511H33.7267V110.617C33.7532 110.148 33.676 109.679 33.5005 109.243C33.325 108.807 33.0556 108.416 32.7115 108.096C31.9046 107.452 30.887 107.131 29.8567 107.196C28.86 107.146 27.877 107.445 27.0768 108.041C26.744 108.301 26.4759 108.634 26.2939 109.015C26.1118 109.395 26.0206 109.813 26.0275 110.235H25.496V110.181C25.4683 109.693 25.5584 109.205 25.7588 108.759C25.9592 108.313 26.2641 107.922 26.6475 107.619C27.5598 106.887 28.7092 106.516 29.8771 106.576C31.0588 106.515 32.2222 106.888 33.1476 107.626C33.5694 108.008 33.8994 108.48 34.113 109.007C34.3265 109.535 34.4181 110.103 34.3808 110.671V117.165C34.3791 117.62 34.4064 118.075 34.4626 118.527C34.5097 118.961 34.5941 119.389 34.7147 119.808H34.0333C33.9311 119.243 33.863 118.813 33.8289 118.534C33.7926 118.229 33.7744 117.922 33.7744 117.614L33.7267 117.335ZM28.6098 119.379C29.7368 119.415 30.8499 119.122 31.8121 118.534C32.6965 117.951 33.3682 117.098 33.7267 116.102V113.192H30.136C28.9567 113.152 27.7936 113.476 26.8042 114.119C26.3992 114.353 26.0611 114.687 25.8224 115.089C25.5838 115.491 25.4526 115.948 25.4415 116.415C25.4378 116.809 25.5165 117.199 25.6725 117.56C25.8286 117.922 26.0586 118.246 26.3477 118.514C26.6517 118.794 27.0079 119.012 27.3961 119.154C27.7842 119.297 28.1966 119.362 28.6098 119.345V119.379Z" fill="white"/>
<path d="M38.9935 106.747L39.0753 109.356C39.424 108.506 40.0108 107.775 40.765 107.251C41.5764 106.731 42.5275 106.472 43.4904 106.508C44.0816 106.47 44.6733 106.574 45.2161 106.811C45.759 107.048 46.2373 107.411 46.611 107.871C47.3014 108.757 47.6467 110.167 47.6467 112.102V119.733H47.013V112.075C47.013 110.285 46.6973 109.02 46.0659 108.28C45.7498 107.915 45.355 107.627 44.9112 107.437C44.4674 107.247 43.9863 107.16 43.5041 107.183C42.9395 107.145 42.3735 107.231 41.846 107.436C41.3186 107.641 40.8425 107.959 40.4516 108.368C39.7083 109.23 39.2344 110.292 39.0889 111.421V119.733H38.4553V113.097H38.4212C38.4212 112.947 38.4212 112.79 38.4212 112.634C38.4212 112.477 38.4212 112.32 38.4212 112.163V106.747H38.9935Z" fill="white"/>
<path d="M51.0262 113.24C50.9361 111.518 51.3785 109.81 52.2935 108.348C52.6789 107.772 53.2044 107.304 53.8206 106.987C54.4367 106.67 55.1234 106.514 55.816 106.536C56.7195 106.515 57.6103 106.751 58.3847 107.217C59.1132 107.673 59.7098 108.312 60.1153 109.07V101.051H60.749V110.794V116.075C60.749 116.075 60.749 116.075 60.749 116.115V119.72H60.1426V117.717C59.7139 118.421 59.1015 118.996 58.3711 119.379C57.5756 119.797 56.687 120.005 55.7888 119.985C55.1051 120.01 54.4263 119.862 53.8144 119.556C53.2026 119.251 52.6773 118.796 52.2867 118.234C51.3673 116.82 50.9233 115.149 51.0193 113.465L51.0262 113.24ZM51.7075 113.492C51.6335 114.984 51.9932 116.466 52.7432 117.757C53.0698 118.266 53.5244 118.68 54.0613 118.957C54.5982 119.235 55.1987 119.366 55.8024 119.338C56.7672 119.365 57.7175 119.099 58.5278 118.575C59.2522 118.072 59.8041 117.359 60.1085 116.531V110.399C59.8197 109.522 59.3106 108.734 58.63 108.11C57.8428 107.451 56.8334 107.12 55.8092 107.183C55.1933 107.158 54.5822 107.301 54.0411 107.596C53.4999 107.891 53.049 108.328 52.7363 108.859C51.9832 110.192 51.6197 111.71 51.6871 113.24L51.7075 113.492Z" fill="white"/>
<path d="M80.2492 113.492C80.3465 115.177 79.8999 116.849 78.9751 118.262C78.5851 118.822 78.0608 119.276 77.4503 119.582C76.8397 119.888 76.1622 120.036 75.4797 120.013C74.5824 120.031 73.6946 119.825 72.8974 119.413C72.1886 119.03 71.592 118.469 71.1668 117.785V124.741H70.5331V116.183C70.5308 116.165 70.5308 116.147 70.5331 116.129C70.5303 116.113 70.5303 116.097 70.5331 116.081V110.794V110.712V106.747H71.0305L71.16 109.036C71.5624 108.251 72.1795 107.597 72.9395 107.15C73.6995 106.702 74.571 106.48 75.4525 106.508C76.1451 106.487 76.8318 106.642 77.448 106.959C78.0641 107.276 78.5896 107.745 78.9751 108.321C79.8924 109.782 80.3373 111.49 80.2492 113.213V113.492ZM79.5678 113.24C79.6352 111.709 79.2666 110.189 78.5049 108.859C78.1923 108.328 77.7414 107.891 77.2002 107.596C76.6591 107.301 76.048 107.158 75.432 107.183C74.4314 107.14 73.4504 107.47 72.6794 108.109C71.9962 108.726 71.4865 109.511 71.2009 110.385V116.579C71.4962 117.409 72.0473 118.125 72.7748 118.623C73.5866 119.142 74.5368 119.403 75.5002 119.372C76.1037 119.399 76.7036 119.267 77.2403 118.989C77.777 118.712 78.2318 118.299 78.5594 117.791C79.3174 116.502 79.6821 115.02 79.6087 113.526L79.5678 113.24Z" fill="white"/>
<path d="M84.3305 109.472C84.6904 108.599 85.2964 107.848 86.0747 107.312C86.8958 106.778 87.8617 106.509 88.841 106.542C89.4084 106.503 89.9771 106.599 90.5005 106.821C91.0239 107.044 91.4872 107.387 91.8525 107.823C92.5339 108.675 92.8814 110.024 92.8814 111.857V119.74H92.2V111.837C92.2 110.133 91.8934 108.932 91.2802 108.232C90.9733 107.887 90.5933 107.614 90.1679 107.434C89.7424 107.253 89.2822 107.17 88.8205 107.19C88.2443 107.154 87.6671 107.244 87.1286 107.452C86.59 107.66 86.1027 107.982 85.7 108.396C84.9468 109.279 84.4705 110.364 84.3305 111.516V119.761H83.6968V113.124V112.702C83.6902 112.591 83.6902 112.479 83.6968 112.368V101.051H84.3305V109.472Z" fill="white"/>
<path d="M95.8452 113.002C95.7746 111.312 96.3247 109.654 97.3919 108.341C97.8956 107.773 98.5141 107.319 99.2064 107.007C99.8988 106.696 100.649 106.535 101.408 106.535C102.168 106.535 102.918 106.696 103.61 107.007C104.303 107.319 104.921 107.773 105.425 108.341C106.49 109.655 107.037 111.312 106.965 113.002V113.506C107.038 115.198 106.491 116.858 105.425 118.173C104.923 118.743 104.306 119.199 103.614 119.512C102.922 119.824 102.171 119.986 101.412 119.986C100.653 119.986 99.902 119.824 99.21 119.512C98.5181 119.199 97.9006 118.743 97.3987 118.173C96.3258 116.861 95.7729 115.2 95.8452 113.506V113.002ZM96.4789 113.506C96.4413 115.001 96.9228 116.462 97.8416 117.642C98.2761 118.173 98.8234 118.602 99.4438 118.896C100.064 119.19 100.742 119.343 101.429 119.343C102.115 119.343 102.794 119.19 103.414 118.896C104.034 118.602 104.582 118.173 105.016 117.642C105.934 116.464 106.415 115.005 106.379 113.513V113.009C106.407 111.53 105.926 110.087 105.016 108.921C104.586 108.385 104.041 107.952 103.421 107.655C102.801 107.358 102.123 107.204 101.436 107.204C100.748 107.204 100.07 107.358 99.4503 107.655C98.8306 107.952 98.2855 108.385 97.8552 108.921C96.9479 110.088 96.467 111.53 96.4925 113.009L96.4789 113.506Z" fill="white"/>
<path d="M111.346 103.272V106.747H114.466V107.428H111.346V116.388C111.278 117.181 111.461 117.975 111.871 118.657C112.028 118.87 112.233 119.043 112.47 119.161C112.707 119.28 112.968 119.34 113.233 119.338C113.422 119.35 113.61 119.35 113.799 119.338L114.48 119.256L114.596 119.842C114.399 119.907 114.196 119.95 113.99 119.972C113.752 120.001 113.513 120.014 113.274 120.013C112.905 120.036 112.536 119.971 112.197 119.823C111.858 119.675 111.559 119.448 111.325 119.161C110.813 118.349 110.574 117.394 110.644 116.436V107.428H108.293V106.747H110.644V103.272H111.346Z" fill="white"/>
<path d="M116.463 113.002C116.392 111.312 116.942 109.654 118.009 108.341C118.513 107.773 119.132 107.319 119.824 107.007C120.516 106.696 121.267 106.535 122.026 106.535C122.785 106.535 123.536 106.696 124.228 107.007C124.92 107.319 125.539 107.773 126.043 108.341C127.11 109.654 127.66 111.312 127.589 113.002V113.506C127.661 115.198 127.111 116.859 126.043 118.173C125.541 118.743 124.923 119.199 124.231 119.512C123.539 119.824 122.789 119.986 122.029 119.986C121.27 119.986 120.52 119.824 119.828 119.512C119.136 119.199 118.518 118.743 118.016 118.173C116.943 116.861 116.391 115.2 116.463 113.506V113.002ZM117.096 113.506C117.059 115.001 117.54 116.462 118.459 117.642C118.894 118.173 119.441 118.602 120.061 118.896C120.682 119.19 121.36 119.343 122.046 119.343C122.733 119.343 123.411 119.19 124.032 118.896C124.652 118.602 125.199 118.173 125.634 117.642C126.552 116.464 127.033 115.005 126.996 113.513V113.009C127.025 111.53 126.544 110.087 125.634 108.921C125.203 108.385 124.658 107.952 124.039 107.655C123.419 107.358 122.741 107.204 122.053 107.204C121.366 107.204 120.688 107.358 120.068 107.655C119.448 107.952 118.903 108.385 118.473 108.921C117.565 110.088 117.085 111.53 117.11 113.009L117.096 113.506Z" fill="white"/>
<path d="M130.042 113.24C129.952 111.518 130.394 109.81 131.309 108.348C131.692 107.77 132.217 107.299 132.834 106.982C133.451 106.664 134.139 106.511 134.832 106.536C135.736 106.513 136.627 106.749 137.401 107.217C138.13 107.679 138.726 108.322 139.131 109.084L139.227 106.774H139.765V110.794V116.075C139.76 116.088 139.76 116.103 139.765 116.116V119.788C139.856 121.178 139.398 122.547 138.491 123.604C138.032 124.067 137.48 124.428 136.872 124.663C136.264 124.898 135.613 125.001 134.961 124.966C134.312 124.962 133.664 124.896 133.026 124.769C132.423 124.659 131.835 124.476 131.275 124.224L131.459 123.542C131.992 123.782 132.547 123.972 133.115 124.108C133.714 124.243 134.327 124.307 134.941 124.299C135.514 124.34 136.089 124.256 136.626 124.054C137.164 123.851 137.651 123.535 138.055 123.127C138.821 122.182 139.201 120.981 139.118 119.768V117.724C138.687 118.408 138.086 118.97 137.373 119.352C136.583 119.764 135.702 119.97 134.812 119.952C134.127 119.977 133.447 119.83 132.833 119.524C132.22 119.218 131.694 118.763 131.303 118.201C130.389 116.784 129.947 115.114 130.042 113.431V113.24ZM130.689 113.492C130.614 114.985 130.976 116.468 131.732 117.758C132.059 118.267 132.515 118.682 133.053 118.959C133.591 119.237 134.193 119.367 134.798 119.338C135.762 119.373 136.713 119.111 137.523 118.589C138.247 118.096 138.803 117.395 139.118 116.579V110.379C138.824 109.506 138.313 108.723 137.632 108.103C136.845 107.451 135.839 107.122 134.818 107.183C134.202 107.158 133.591 107.301 133.05 107.596C132.509 107.892 132.058 108.328 131.745 108.859C130.986 110.19 130.62 111.709 130.689 113.24V113.492Z" fill="white"/>
<path d="M149.392 107.237L148.575 107.169C148.061 107.15 147.549 107.24 147.072 107.433C146.596 107.625 146.165 107.916 145.808 108.287C145.07 109.112 144.596 110.14 144.446 111.237V119.733H143.812V106.747H144.33L144.446 108.995V109.472C144.75 108.615 145.297 107.865 146.02 107.312C146.77 106.779 147.675 106.509 148.595 106.542C148.762 106.541 148.928 106.555 149.093 106.583C149.226 106.605 149.358 106.635 149.488 106.672L149.392 107.237Z" fill="white"/>
<path d="M159.81 117.335C159.347 118.143 158.667 118.806 157.848 119.249C156.878 119.765 155.791 120.018 154.693 119.985C154.187 120.013 153.679 119.94 153.201 119.77C152.723 119.601 152.283 119.338 151.907 118.997C151.563 118.646 151.296 118.227 151.123 117.767C150.949 117.308 150.873 116.817 150.898 116.326C150.904 115.783 151.045 115.25 151.308 114.774C151.57 114.298 151.947 113.895 152.404 113.601C153.512 112.835 154.839 112.448 156.185 112.497H159.81V110.603C159.835 110.134 159.757 109.666 159.582 109.23C159.407 108.795 159.138 108.403 158.795 108.082C157.986 107.437 156.966 107.116 155.933 107.183C154.939 107.133 153.958 107.432 153.16 108.028C152.826 108.286 152.557 108.619 152.374 109C152.19 109.381 152.098 109.799 152.104 110.221H151.58V110.167C151.555 109.679 151.646 109.193 151.846 108.747C152.046 108.302 152.35 107.91 152.731 107.605C153.645 106.877 154.793 106.507 155.961 106.563C157.144 106.501 158.31 106.875 159.238 107.612C159.66 107.994 159.99 108.466 160.203 108.993C160.417 109.521 160.508 110.09 160.471 110.658V117.151C160.471 117.606 160.496 118.061 160.546 118.513C160.6 118.946 160.684 119.374 160.798 119.794H160.117C160.015 119.229 159.946 118.8 159.912 118.52C159.876 118.215 159.858 117.908 159.858 117.6L159.81 117.335ZM154.693 119.379C155.818 119.416 156.929 119.123 157.889 118.534C158.773 117.95 159.447 117.097 159.81 116.102V113.192H156.219C155.04 113.152 153.877 113.476 152.888 114.119C152.483 114.352 152.145 114.686 151.906 115.089C151.667 115.491 151.536 115.947 151.525 116.415C151.511 116.811 151.581 117.206 151.73 117.574C151.879 117.941 152.104 118.273 152.39 118.548C152.702 118.827 153.066 119.042 153.461 119.179C153.857 119.315 154.276 119.372 154.693 119.345V119.379Z" fill="white"/>
<path d="M174.241 113.492C174.337 115.176 173.893 116.847 172.974 118.262C172.584 118.822 172.06 119.276 171.449 119.582C170.838 119.888 170.161 120.036 169.479 120.013C168.581 120.032 167.693 119.825 166.896 119.413C166.187 119.03 165.591 118.469 165.166 117.785V124.741H164.532V116.184V116.129V110.794C164.53 110.767 164.53 110.74 164.532 110.712V106.747H165.022L165.152 109.036C165.557 108.252 166.175 107.598 166.936 107.151C167.697 106.704 168.569 106.481 169.451 106.508C170.143 106.484 170.83 106.638 171.446 106.955C172.062 107.272 172.585 107.743 172.967 108.321C173.887 109.781 174.332 111.49 174.241 113.213V113.492ZM173.601 113.24C173.668 111.709 173.299 110.189 172.538 108.859C172.225 108.328 171.774 107.891 171.233 107.596C170.692 107.301 170.081 107.158 169.465 107.183C168.439 107.126 167.43 107.456 166.637 108.11C165.958 108.728 165.451 109.512 165.166 110.385V116.579C165.461 117.409 166.012 118.125 166.739 118.623C167.551 119.142 168.502 119.404 169.465 119.372C170.069 119.4 170.669 119.269 171.206 118.991C171.743 118.714 172.197 118.3 172.524 117.792C173.287 116.504 173.655 115.021 173.58 113.526L173.601 113.24Z" fill="white"/>
<path d="M178.329 109.472C178.689 108.6 179.292 107.85 180.067 107.312C180.891 106.779 181.858 106.51 182.84 106.542C183.407 106.504 183.975 106.6 184.499 106.823C185.022 107.045 185.485 107.388 185.851 107.823C186.533 108.675 186.88 110.024 186.88 111.857V119.74H186.233V111.837C186.233 110.133 185.926 108.932 185.313 108.232C185.006 107.887 184.626 107.615 184.2 107.434C183.775 107.254 183.315 107.171 182.853 107.19C182.277 107.154 181.7 107.244 181.161 107.452C180.623 107.66 180.136 107.982 179.733 108.396C178.971 109.269 178.483 110.347 178.329 111.496V119.74H177.696V113.104V112.681C177.689 112.57 177.689 112.459 177.696 112.348V101.051H178.329V109.472Z" fill="white"/>
<path d="M195.322 119.985C194.598 119.992 193.881 119.836 193.225 119.528C192.569 119.22 191.991 118.769 191.534 118.207C190.482 116.963 189.93 115.372 189.987 113.744V112.974C189.92 111.297 190.465 109.653 191.52 108.348C191.982 107.771 192.569 107.308 193.238 106.993C193.906 106.679 194.638 106.523 195.377 106.535C196.009 106.508 196.639 106.62 197.222 106.865C197.805 107.11 198.327 107.482 198.749 107.953C199.636 109.043 200.083 110.426 200.003 111.829V112.817H190.614V113.744C190.571 115.184 191.037 116.592 191.929 117.723C192.33 118.241 192.848 118.657 193.439 118.937C194.031 119.218 194.681 119.355 195.336 119.338C196.087 119.34 196.83 119.192 197.523 118.902C198.171 118.652 198.755 118.261 199.233 117.757L199.574 118.261C199.089 118.788 198.499 119.208 197.843 119.495C197.049 119.841 196.188 120.009 195.322 119.985ZM195.377 107.183C194.771 107.162 194.167 107.273 193.608 107.508C193.05 107.743 192.549 108.097 192.14 108.545C191.28 109.527 190.778 110.771 190.716 112.075V112.15H199.335V111.755C199.384 110.561 199.004 109.389 198.265 108.45C197.912 108.031 197.468 107.698 196.966 107.478C196.463 107.259 195.917 107.157 195.37 107.183H195.377Z" fill="white"/>
<path d="M208.663 107.237L207.845 107.169C207.331 107.15 206.819 107.24 206.343 107.433C205.866 107.625 205.435 107.916 205.079 108.287C204.341 109.112 203.866 110.14 203.716 111.237V119.733H203.083V106.747H203.6L203.716 108.995V109.472C204.021 108.615 204.568 107.865 205.29 107.312C206.041 106.779 206.946 106.509 207.866 106.542C208.032 106.541 208.199 106.555 208.363 106.583C208.496 106.605 208.628 106.635 208.758 106.672L208.663 107.237Z" fill="white"/>
<path d="M218.897 116.558C218.889 116.203 218.809 115.853 218.66 115.531C218.511 115.209 218.297 114.92 218.031 114.685C217.164 113.982 216.124 113.525 215.02 113.363C213.849 113.174 212.73 112.742 211.736 112.095C211.395 111.822 211.125 111.471 210.948 111.071C210.771 110.672 210.693 110.235 210.721 109.799C210.718 109.349 210.821 108.905 211.021 108.501C211.221 108.098 211.512 107.747 211.872 107.476C212.764 106.81 213.861 106.478 214.972 106.536C216.16 106.467 217.333 106.822 218.283 107.537C218.672 107.85 218.98 108.251 219.18 108.708C219.381 109.165 219.468 109.663 219.435 110.16V110.235H218.897C218.899 109.818 218.806 109.406 218.624 109.03C218.442 108.654 218.177 108.325 217.847 108.069C217.036 107.44 216.024 107.126 214.999 107.183C214.026 107.104 213.057 107.383 212.274 107.966C211.993 108.179 211.764 108.452 211.605 108.766C211.445 109.08 211.36 109.427 211.354 109.779C211.351 110.107 211.418 110.433 211.552 110.733C211.686 111.033 211.884 111.3 212.131 111.516C213.043 112.168 214.096 112.597 215.204 112.77C216.364 112.993 217.464 113.457 218.433 114.133C218.795 114.421 219.083 114.792 219.274 115.213C219.465 115.635 219.553 116.096 219.53 116.558C219.539 117.038 219.432 117.512 219.219 117.941C219.005 118.371 218.691 118.742 218.304 119.025C217.361 119.694 216.222 120.027 215.068 119.972C213.825 120.041 212.597 119.683 211.586 118.957C211.196 118.681 210.883 118.31 210.676 117.88C210.468 117.45 210.374 116.974 210.4 116.497V116.422H210.918C210.918 116.873 211.037 117.316 211.263 117.706C211.489 118.096 211.814 118.42 212.206 118.643C213.076 119.112 214.052 119.347 215.04 119.325C216.041 119.379 217.028 119.082 217.834 118.486C218.149 118.27 218.409 117.983 218.593 117.648C218.778 117.313 218.882 116.94 218.897 116.558Z" fill="white"/>
<path d="M230.146 103.272V106.747H233.266V107.428H230.146V116.388C230.078 117.181 230.261 117.975 230.67 118.657C230.831 118.875 231.042 119.051 231.285 119.169C231.528 119.288 231.797 119.346 232.067 119.338C232.255 119.35 232.444 119.35 232.633 119.338L233.314 119.256L233.43 119.842C233.233 119.907 233.03 119.95 232.823 119.972C232.586 120.001 232.347 120.014 232.108 120.013C231.739 120.036 231.369 119.971 231.031 119.823C230.692 119.675 230.393 119.448 230.159 119.161C229.647 118.349 229.408 117.394 229.478 116.436V107.428H227.127V106.747H229.478V103.272H230.146Z" fill="white"/>
<path d="M235.263 113.002C235.192 111.312 235.742 109.654 236.809 108.341C237.313 107.773 237.932 107.319 238.624 107.007C239.316 106.696 240.067 106.535 240.826 106.535C241.585 106.535 242.336 106.696 243.028 107.007C243.72 107.319 244.339 107.773 244.842 108.341C245.91 109.654 246.46 111.312 246.389 113.002V113.506C246.461 115.198 245.911 116.859 244.842 118.173C244.341 118.743 243.723 119.199 243.031 119.512C242.339 119.824 241.589 119.986 240.829 119.986C240.07 119.986 239.319 119.824 238.628 119.512C237.936 119.199 237.318 118.743 236.816 118.173C235.743 116.861 235.19 115.2 235.263 113.506V113.002ZM235.896 113.506C235.859 115.001 236.34 116.462 237.259 117.642C237.694 118.173 238.241 118.602 238.861 118.896C239.482 119.19 240.16 119.343 240.846 119.343C241.533 119.343 242.211 119.19 242.831 118.896C243.452 118.602 243.999 118.173 244.434 117.642C245.351 116.464 245.833 115.005 245.796 113.513V113.009C245.825 111.53 245.343 110.087 244.434 108.921C244.003 108.385 243.458 107.952 242.839 107.655C242.219 107.358 241.54 107.204 240.853 107.204C240.166 107.204 239.487 107.358 238.868 107.655C238.248 107.952 237.703 108.385 237.273 108.921C236.365 110.088 235.885 111.53 235.91 113.009L235.896 113.506Z" fill="white"/>
<path d="M254.599 113.24C254.509 111.518 254.952 109.81 255.867 108.348C256.253 107.771 256.779 107.302 257.397 106.985C258.014 106.668 258.702 106.513 259.396 106.536C260.297 106.516 261.185 106.752 261.958 107.217C262.686 107.673 263.283 108.312 263.689 109.07V101.051H264.322V110.794V116.074C264.322 116.074 264.322 116.074 264.322 116.115V119.72H263.716V117.717C263.295 118.412 262.695 118.981 261.978 119.365C261.183 119.783 260.294 119.992 259.396 119.972C258.712 119.996 258.034 119.849 257.422 119.543C256.81 119.237 256.285 118.782 255.894 118.221C254.975 116.806 254.531 115.135 254.627 113.451L254.599 113.24ZM255.281 113.492C255.207 114.984 255.566 116.466 256.316 117.757C256.643 118.266 257.098 118.68 257.634 118.957C258.171 119.235 258.772 119.366 259.376 119.338C260.34 119.365 261.291 119.099 262.101 118.575C262.825 118.072 263.377 117.359 263.682 116.531V110.399C263.396 109.515 262.884 108.721 262.196 108.096C261.409 107.438 260.4 107.106 259.376 107.169C258.76 107.145 258.149 107.287 257.607 107.583C257.066 107.878 256.615 108.314 256.303 108.845C255.55 110.179 255.186 111.697 255.253 113.226L255.281 113.492Z" fill="white"/>
<path d="M272.798 119.985C272.074 119.992 271.357 119.836 270.701 119.528C270.046 119.22 269.468 118.769 269.01 118.207C267.958 116.963 267.406 115.372 267.463 113.744V112.974C267.396 111.297 267.941 109.653 268.996 108.348C269.458 107.77 270.047 107.306 270.717 106.992C271.387 106.678 272.12 106.522 272.859 106.536C273.49 106.508 274.119 106.621 274.701 106.867C275.283 107.112 275.804 107.483 276.225 107.953C277.115 109.043 277.564 110.425 277.486 111.83V112.818H268.104V113.744C268.055 115.185 268.521 116.595 269.419 117.723C269.819 118.242 270.336 118.659 270.928 118.939C271.52 119.22 272.17 119.357 272.825 119.338C273.576 119.341 274.32 119.193 275.013 118.902C275.661 118.653 276.245 118.262 276.723 117.758L277.063 118.262C276.581 118.788 275.994 119.208 275.34 119.495C274.539 119.843 273.671 120.01 272.798 119.985ZM272.859 107.183C272.253 107.161 271.65 107.272 271.091 107.507C270.532 107.742 270.031 108.097 269.623 108.546C268.758 109.525 268.253 110.77 268.192 112.075L268.226 112.15H276.852V111.755C276.897 110.562 276.518 109.391 275.782 108.45C275.426 108.028 274.976 107.695 274.469 107.475C273.962 107.255 273.411 107.155 272.859 107.183Z" fill="white"/>
<path d="M283.488 116.967L284.081 118.718H284.156L284.763 116.967L288.667 106.747H289.348L284.408 119.692H283.802L278.869 106.747H279.55L283.488 116.967Z" fill="white"/>
<path d="M296.162 119.985C295.437 119.992 294.72 119.836 294.065 119.528C293.409 119.22 292.831 118.769 292.373 118.207C291.321 116.963 290.77 115.372 290.827 113.744V112.974C290.759 111.297 291.304 109.653 292.36 108.348C292.821 107.771 293.409 107.308 294.077 106.993C294.746 106.679 295.478 106.523 296.216 106.535C296.848 106.508 297.478 106.62 298.062 106.865C298.645 107.11 299.166 107.482 299.589 107.953C300.476 109.043 300.923 110.426 300.842 111.829V112.817H291.481V113.744C291.438 115.184 291.904 116.592 292.796 117.723C293.197 118.241 293.714 118.657 294.306 118.937C294.898 119.218 295.548 119.355 296.202 119.338C296.953 119.34 297.697 119.192 298.39 118.902C299.038 118.652 299.622 118.261 300.1 117.757L300.44 118.261C299.957 118.786 299.37 119.206 298.717 119.495C297.912 119.844 297.039 120.012 296.162 119.985ZM296.216 107.183C295.611 107.161 295.008 107.271 294.451 107.507C293.893 107.742 293.393 108.097 292.987 108.545C292.122 109.525 291.617 110.77 291.556 112.075L291.59 112.15H300.25V111.755C300.297 110.562 299.921 109.391 299.187 108.45C298.827 108.024 298.373 107.688 297.861 107.468C297.349 107.248 296.793 107.15 296.237 107.183H296.216Z" fill="white"/>
<path d="M304.719 119.733H304.086V101.051H304.719V119.733Z" fill="white"/>
<path d="M307.888 113.002C307.817 111.312 308.367 109.654 309.434 108.341C309.938 107.773 310.556 107.319 311.249 107.007C311.941 106.696 312.692 106.535 313.451 106.535C314.21 106.535 314.96 106.696 315.653 107.007C316.345 107.319 316.964 107.773 317.467 108.341C318.532 109.655 319.08 111.312 319.007 113.002V113.506C319.081 115.198 318.533 116.858 317.467 118.173C316.965 118.743 316.348 119.199 315.656 119.512C314.964 119.824 314.213 119.986 313.454 119.986C312.695 119.986 311.944 119.824 311.252 119.512C310.56 119.199 309.943 118.743 309.441 118.173C308.368 116.861 307.815 115.2 307.888 113.506V113.002ZM308.521 113.506C308.484 115.001 308.965 116.462 309.884 117.642C310.318 118.173 310.866 118.602 311.486 118.896C312.107 119.19 312.785 119.343 313.471 119.343C314.158 119.343 314.836 119.19 315.456 118.896C316.077 118.602 316.624 118.173 317.059 117.642C317.976 116.464 318.458 115.005 318.421 113.513V113.009C318.449 111.53 317.968 110.087 317.059 108.921C316.628 108.385 316.083 107.952 315.463 107.655C314.844 107.358 314.165 107.204 313.478 107.204C312.791 107.204 312.112 107.358 311.493 107.655C310.873 107.952 310.328 108.385 309.898 108.921C308.99 110.088 308.509 111.53 308.535 113.009L308.521 113.506Z" fill="white"/>
<path d="M331.762 113.492C331.858 115.176 331.414 116.847 330.495 118.262C330.104 118.823 329.579 119.278 328.967 119.584C328.355 119.89 327.676 120.037 326.993 120.013C326.097 120.031 325.212 119.825 324.417 119.413C323.708 119.03 323.112 118.469 322.686 117.785V124.741H322.053V116.184V116.129C322.053 116.129 322.053 116.095 322.053 116.081V110.794C322.053 110.794 322.053 110.76 322.053 110.712V106.747H322.543L322.673 109.036C323.074 108.275 323.672 107.635 324.403 107.183C325.178 106.717 326.069 106.481 326.972 106.502C327.664 106.477 328.351 106.631 328.967 106.948C329.583 107.266 330.106 107.736 330.488 108.314C331.408 109.774 331.853 111.483 331.762 113.206V113.492ZM331.122 113.24C331.189 111.709 330.82 110.189 330.059 108.859C329.746 108.328 329.295 107.891 328.754 107.596C328.213 107.301 327.602 107.158 326.986 107.183C325.961 107.124 324.952 107.452 324.158 108.103C323.479 108.721 322.972 109.505 322.686 110.378V116.572C322.982 117.402 323.533 118.118 324.26 118.616C325.072 119.135 326.022 119.397 326.986 119.365C327.589 119.393 328.19 119.261 328.726 118.983C329.263 118.706 329.718 118.293 330.045 117.785C330.808 116.498 331.176 115.014 331.101 113.519L331.122 113.24Z" fill="white"/>
<path d="M35.4642 142.109C35.5602 143.793 35.1162 145.464 34.1969 146.878C33.8069 147.439 33.2827 147.893 32.6721 148.198C32.0615 148.504 31.3841 148.652 30.7016 148.629C29.8042 148.648 28.9165 148.442 28.1192 148.029C27.4104 147.647 26.8139 147.085 26.3886 146.401V153.358H25.755V144.8V144.745V139.41C25.7531 139.383 25.7531 139.356 25.755 139.329V135.363H26.2455L26.3477 137.68C26.7526 136.895 27.3712 136.242 28.1321 135.795C28.8929 135.347 29.7649 135.124 30.647 135.152C31.3393 135.127 32.0262 135.281 32.6419 135.599C33.2575 135.916 33.7813 136.386 34.1628 136.964C35.083 138.424 35.5281 140.133 35.4369 141.856L35.4642 142.109ZM34.8237 141.856C34.8911 140.325 34.5225 138.806 33.7608 137.475C33.4482 136.944 32.9972 136.508 32.4561 136.212C31.9149 135.917 31.3038 135.774 30.6879 135.799C29.6625 135.742 28.653 136.073 27.8603 136.726C27.1813 137.345 26.6743 138.129 26.3886 139.002V145.195C26.684 146.026 27.235 146.741 27.9625 147.239C28.7744 147.759 29.7246 148.02 30.6879 147.989C31.2917 148.016 31.8921 147.885 32.429 147.607C32.966 147.33 33.4205 146.916 33.7472 146.408C34.5105 145.121 34.8778 143.637 34.8033 142.143L34.8237 141.856Z" fill="white"/>
<path d="M44.5193 135.854L43.7017 135.786C43.1879 135.767 42.6759 135.857 42.1992 136.049C41.7225 136.242 41.2919 136.533 40.9354 136.903C40.1971 137.729 39.7226 138.756 39.5727 139.854V148.35H38.939V135.363H39.4569L39.5727 137.612V138.089C39.8773 137.232 40.4241 136.482 41.1466 135.929C41.897 135.396 42.8023 135.125 43.7221 135.159C43.8888 135.158 44.0552 135.172 44.2195 135.2C44.3528 135.222 44.4848 135.251 44.6147 135.289L44.5193 135.854Z" fill="white"/>
<path d="M45.7321 141.618C45.6583 139.927 46.2088 138.269 47.2788 136.958C47.7819 136.39 48.3997 135.935 49.0915 135.624C49.7833 135.313 50.5333 135.152 51.2919 135.152C52.0505 135.152 52.8005 135.313 53.4922 135.624C54.184 135.935 54.8019 136.39 55.305 136.958C56.375 138.269 56.9255 139.927 56.8517 141.618V142.122C56.9265 143.815 56.376 145.476 55.305 146.79C54.8209 147.375 54.2097 147.843 53.5179 148.157C52.8261 148.471 52.0718 148.623 51.3123 148.602C50.5468 148.624 49.7861 148.473 49.0875 148.159C48.3889 147.845 47.7705 147.377 47.2788 146.79C46.2106 145.475 45.6604 143.815 45.7321 142.122V141.618ZM46.3657 142.122C46.3281 143.617 46.8097 145.078 47.7284 146.258C48.1519 146.808 48.7005 147.248 49.3286 147.544C49.9567 147.839 50.6461 147.98 51.3396 147.955C52.0275 147.977 52.7107 147.834 53.3319 147.537C53.9531 147.241 54.4942 146.8 54.9098 146.251C55.8276 145.074 56.3091 143.615 56.2725 142.122V141.618C56.3008 140.139 55.8196 138.696 54.9098 137.53C54.4788 136.994 53.9331 136.562 53.3129 136.265C52.6927 135.967 52.0137 135.813 51.326 135.813C50.6382 135.813 49.9593 135.967 49.339 136.265C48.7188 136.562 48.1731 136.994 47.7421 137.53C46.8343 138.697 46.3534 140.14 46.3794 141.618L46.3657 142.122Z" fill="white"/>
<path d="M60.6945 135.364V149.386C60.7649 150.486 60.4519 151.577 59.8087 152.472C59.512 152.833 59.1349 153.118 58.7078 153.306C58.2806 153.495 57.8152 153.58 57.3491 153.556C57.1204 153.559 56.892 153.539 56.6677 153.494C56.4633 153.453 56.2385 153.392 55.9864 153.317L56.1431 152.69C56.293 152.738 56.4701 152.786 56.6881 152.833C56.8915 152.881 57.0994 152.906 57.3082 152.908C57.6905 152.928 58.0717 152.854 58.4194 152.694C58.767 152.534 59.0707 152.292 59.3045 151.988C59.8125 151.22 60.0521 150.305 59.9859 149.386V135.364H60.6945ZM60.6195 131.275H59.9859V129.674H60.6195V131.275Z" fill="white"/>
<path d="M69.5725 148.602C68.848 148.609 68.1313 148.453 67.4754 148.145C66.8196 147.837 66.2415 147.386 65.7842 146.824C64.7319 145.58 64.1805 143.989 64.2375 142.361V141.591C64.1702 139.914 64.7151 138.27 65.7705 136.965C66.232 136.388 66.8196 135.924 67.4881 135.61C68.1567 135.296 68.8884 135.139 69.627 135.152C70.2646 135.119 70.9015 135.229 71.4909 135.475C72.0804 135.72 72.6076 136.094 73.0337 136.569C73.923 137.659 74.3726 139.042 74.2942 140.446V141.434H64.8712V142.361C64.8286 143.8 65.2941 145.209 66.1862 146.34C66.5876 146.857 67.1052 147.273 67.697 147.554C68.2888 147.834 68.9382 147.971 69.5929 147.955C70.3438 147.957 71.0874 147.809 71.78 147.519C72.4283 147.269 73.0126 146.878 73.4902 146.374L73.8309 146.878C73.3484 147.405 72.7613 147.825 72.1071 148.111C71.3082 148.458 70.443 148.626 69.5725 148.602ZM69.627 135.799C69.0219 135.778 68.4193 135.888 67.8615 136.124C67.3036 136.359 66.8039 136.713 66.3974 137.162C65.5325 138.141 65.0277 139.386 64.9665 140.692V140.766H73.5856V140.371C73.633 139.179 73.2564 138.008 72.5227 137.067C72.1687 136.649 71.7237 136.317 71.2218 136.097C70.7199 135.878 70.1743 135.776 69.627 135.799Z" fill="white"/>
<path d="M81.6323 147.955C82.6518 147.97 83.6488 147.655 84.4735 147.055C84.8914 146.741 85.2233 146.327 85.4389 145.85C85.6544 145.374 85.7465 144.851 85.7068 144.33H86.245V144.405C86.2796 144.984 86.1738 145.562 85.9365 146.091C85.6992 146.621 85.3376 147.085 84.8823 147.444C83.9572 148.19 82.8005 148.59 81.6119 148.575C80.8803 148.605 80.1522 148.459 79.4893 148.148C78.8263 147.837 78.2479 147.371 77.8031 146.79C76.837 145.421 76.3573 143.768 76.4404 142.095V141.591C76.355 139.922 76.8351 138.273 77.8031 136.91C78.2439 136.327 78.8195 135.861 79.4806 135.55C80.1417 135.239 80.8684 135.093 81.5982 135.125C82.8189 135.089 84.0092 135.509 84.9368 136.304C85.4106 136.717 85.7811 137.235 86.0189 137.817C86.2567 138.4 86.3551 139.029 86.3064 139.656V139.724H85.7681C85.8017 139.179 85.7113 138.633 85.5036 138.128C85.2959 137.623 84.9763 137.172 84.5689 136.808C83.7588 136.13 82.7291 135.771 81.6732 135.799C81.0135 135.757 80.3541 135.885 79.7577 136.17C79.1614 136.455 78.648 136.888 78.2664 137.428C77.4549 138.67 77.0523 140.136 77.115 141.618V142.122C77.0507 143.612 77.4533 145.084 78.2664 146.333C78.6481 146.862 79.1558 147.288 79.7436 147.571C80.3314 147.854 80.9806 147.986 81.6323 147.955Z" fill="white"/>
<path d="M90.8373 131.889V135.364H93.9647V136.045H90.8373V145.005C90.7674 145.798 90.9537 146.593 91.3688 147.273C91.5259 147.487 91.7314 147.66 91.9682 147.778C92.2051 147.896 92.4667 147.957 92.7315 147.955C92.9198 147.966 93.1087 147.966 93.297 147.955L93.9783 147.873L94.0942 148.459C93.8947 148.523 93.6892 148.566 93.481 148.589C93.2436 148.617 93.0046 148.631 92.7655 148.629C92.3974 148.652 92.0292 148.587 91.6915 148.439C91.3537 148.291 91.0562 148.064 90.8237 147.778C90.3114 146.965 90.0726 146.01 90.1423 145.052V136.045H87.7917V135.364H90.1423V131.889H90.8373Z" fill="white"/>
<path d="M104.744 145.175C104.738 144.819 104.658 144.469 104.509 144.147C104.36 143.824 104.145 143.536 103.878 143.301C103.012 142.597 101.971 142.14 100.867 141.979C99.6981 141.789 98.5819 141.358 97.5895 140.712C97.2474 140.439 96.9759 140.088 96.798 139.689C96.6201 139.289 96.541 138.852 96.5675 138.416C96.5661 137.966 96.6695 137.522 96.8693 137.118C97.0692 136.715 97.36 136.364 97.7189 136.092C98.611 135.427 99.7076 135.094 100.819 135.152C102.009 135.085 103.183 135.44 104.137 136.154C104.525 136.466 104.832 136.868 105.031 137.325C105.23 137.782 105.317 138.28 105.282 138.777V138.852H104.703C104.702 138.434 104.607 138.022 104.424 137.647C104.241 137.272 103.975 136.943 103.647 136.685C102.835 136.056 101.824 135.741 100.799 135.799C99.8254 135.723 98.8575 136.002 98.0732 136.583C97.7931 136.796 97.5653 137.069 97.407 137.383C97.2488 137.698 97.1644 138.044 97.1602 138.395C97.1553 138.723 97.2216 139.049 97.3545 139.348C97.4875 139.648 97.6838 139.916 97.9302 140.133C98.8452 140.784 99.8998 141.214 101.01 141.386C102.168 141.608 103.267 142.072 104.233 142.749C104.594 143.038 104.883 143.408 105.073 143.83C105.264 144.251 105.352 144.712 105.33 145.175C105.342 145.647 105.242 146.116 105.038 146.542C104.835 146.968 104.533 147.34 104.158 147.628C103.213 148.296 102.071 148.63 100.914 148.575C99.672 148.644 98.4434 148.285 97.4328 147.559C97.0453 147.282 96.7341 146.911 96.5281 146.481C96.3221 146.051 96.2278 145.576 96.2541 145.1V145.025H96.7719C96.7728 145.476 96.893 145.919 97.1204 146.31C97.3477 146.7 97.6741 147.023 98.0664 147.246C98.9334 147.716 99.9082 147.951 100.894 147.927C101.894 147.983 102.883 147.686 103.688 147.089C104 146.874 104.259 146.589 104.442 146.257C104.625 145.925 104.729 145.554 104.744 145.175Z" fill="white"/>
<path d="M115.468 131.316H114.834V129.667H115.468V131.316ZM115.468 148.35H114.834V135.364H115.468V148.35Z" fill="white"/>
<path d="M120.176 135.363L120.258 137.973C120.61 137.125 121.196 136.394 121.948 135.868C122.76 135.35 123.71 135.092 124.673 135.125C125.264 135.086 125.856 135.189 126.399 135.426C126.943 135.663 127.421 136.027 127.794 136.488C128.489 137.373 128.836 138.784 128.836 140.719V148.35H128.202V140.691C128.202 138.9 127.882 137.632 127.255 136.896C126.938 136.531 126.542 136.243 126.097 136.053C125.652 135.863 125.17 135.776 124.687 135.799C124.122 135.762 123.557 135.849 123.029 136.054C122.502 136.259 122.026 136.577 121.634 136.985C120.893 137.849 120.42 138.909 120.272 140.037V148.35H119.638V141.714V141.25C119.638 141.093 119.638 140.937 119.638 140.78V135.363H120.176Z" fill="white"/>
<path d="M151.205 148.35H150.571L139.601 132.107H139.533V148.323H138.852V130.88H139.533L150.496 147.09H150.571V130.908H151.205V148.35Z" fill="white"/>
<path d="M164.941 139.772H156.533V148.35H155.899V130.907H166.119V131.555H156.512V139.104H164.92L164.941 139.772Z" fill="white"/>
<path d="M180.496 131.555H174.5V148.35H173.866V131.555H167.455V130.907H180.496V131.555Z" fill="white"/>
<path d="M189.606 145.175C189.6 144.82 189.52 144.469 189.371 144.147C189.222 143.824 189.007 143.536 188.74 143.301C187.874 142.597 186.833 142.141 185.729 141.979C184.558 141.789 183.44 141.358 182.445 140.712C182.104 140.439 181.834 140.088 181.657 139.688C181.48 139.288 181.402 138.852 181.429 138.416C181.428 137.966 181.531 137.522 181.731 137.119C181.931 136.715 182.222 136.364 182.581 136.093C183.473 135.427 184.57 135.094 185.681 135.152C186.869 135.084 188.042 135.439 188.992 136.154C189.381 136.464 189.689 136.865 189.89 137.32C190.091 137.776 190.178 138.274 190.144 138.77V138.845H189.606C189.605 138.428 189.51 138.016 189.327 137.64C189.144 137.265 188.878 136.936 188.549 136.679C187.738 136.05 186.726 135.736 185.701 135.793C184.728 135.717 183.76 135.995 182.976 136.576C182.695 136.789 182.466 137.062 182.307 137.376C182.147 137.69 182.062 138.037 182.056 138.389C182.053 138.717 182.12 139.043 182.254 139.343C182.388 139.642 182.586 139.91 182.833 140.126C183.748 140.778 184.803 141.207 185.913 141.38C187.071 141.603 188.169 142.067 189.135 142.743C189.497 143.031 189.785 143.402 189.976 143.823C190.167 144.245 190.255 144.706 190.232 145.168C190.241 145.647 190.135 146.121 189.923 146.55C189.711 146.979 189.399 147.351 189.013 147.635C188.068 148.304 186.926 148.637 185.77 148.582C184.527 148.651 183.299 148.292 182.288 147.567C181.9 147.289 181.589 146.918 181.383 146.488C181.177 146.058 181.083 145.583 181.109 145.107V145.032H181.627C181.628 145.483 181.748 145.927 181.975 146.317C182.203 146.707 182.529 147.03 182.922 147.253C183.789 147.723 184.763 147.958 185.749 147.934C186.75 147.99 187.738 147.693 188.543 147.096C188.857 146.88 189.116 146.594 189.3 146.261C189.485 145.927 189.589 145.556 189.606 145.175Z" fill="white"/>
<path d="M207.518 145.952C207.051 146.757 206.372 147.419 205.556 147.866C204.584 148.382 203.494 148.635 202.394 148.602C201.89 148.631 201.384 148.56 200.907 148.393C200.43 148.226 199.991 147.966 199.615 147.628C199.27 147.277 199.002 146.858 198.828 146.399C198.653 145.939 198.575 145.448 198.599 144.957C198.605 144.413 198.747 143.879 199.011 143.403C199.275 142.927 199.653 142.525 200.112 142.232C201.218 141.465 202.542 141.078 203.887 141.128H207.518V139.234C207.543 138.765 207.465 138.296 207.29 137.861C207.115 137.425 206.846 137.033 206.503 136.713C205.693 136.07 204.674 135.75 203.641 135.813C202.645 135.763 201.662 136.062 200.861 136.658C200.529 136.918 200.261 137.251 200.079 137.632C199.896 138.012 199.805 138.43 199.812 138.852H199.281V138.798C199.253 138.31 199.343 137.822 199.543 137.376C199.744 136.93 200.049 136.539 200.432 136.236C201.345 135.504 202.494 135.133 203.662 135.193C204.845 135.133 206.01 135.506 206.939 136.243C207.36 136.625 207.689 137.098 207.902 137.625C208.116 138.152 208.208 138.721 208.172 139.288V145.781C208.168 146.237 208.193 146.692 208.247 147.144C208.298 147.577 208.382 148.005 208.499 148.425H207.818C207.716 147.86 207.648 147.43 207.607 147.151C207.573 146.846 207.557 146.538 207.559 146.231L207.518 145.952ZM202.394 147.996C203.522 148.034 204.635 147.74 205.597 147.151C206.481 146.567 207.155 145.714 207.518 144.719V141.809H203.921C202.743 141.769 201.582 142.092 200.596 142.736C200.191 142.97 199.853 143.304 199.614 143.706C199.375 144.108 199.244 144.565 199.233 145.032C199.22 145.428 199.289 145.822 199.437 146.189C199.585 146.556 199.808 146.889 200.092 147.165C200.404 147.443 200.768 147.657 201.163 147.794C201.558 147.931 201.977 147.988 202.394 147.962V147.996Z" fill="white"/>
<path d="M212.778 135.363L212.86 137.973C213.2 137.095 213.809 136.347 214.599 135.836C215.39 135.324 216.321 135.076 217.261 135.125C217.853 135.086 218.445 135.189 218.988 135.426C219.531 135.663 220.009 136.027 220.382 136.488C221.063 137.373 221.418 138.784 221.418 140.719V148.35H220.784V140.691C220.784 138.902 220.471 137.637 219.844 136.896C219.526 136.531 219.13 136.243 218.685 136.053C218.24 135.863 217.758 135.776 217.275 135.799C216.711 135.762 216.145 135.849 215.618 136.054C215.09 136.259 214.614 136.577 214.223 136.985C213.479 137.847 213.005 138.908 212.86 140.037V148.35H212.226V141.714H212.185C212.185 141.564 212.185 141.407 212.185 141.25C212.185 141.093 212.185 140.937 212.219 140.78V135.363H212.778Z" fill="white"/>
<path d="M224.818 141.857C224.728 140.135 225.17 138.427 226.085 136.965C226.468 136.386 226.992 135.915 227.609 135.598C228.226 135.281 228.914 135.127 229.607 135.152C230.509 135.133 231.397 135.369 232.169 135.834C232.902 136.288 233.501 136.927 233.907 137.687V129.667H234.54V139.411V144.691C234.535 144.704 234.535 144.719 234.54 144.732V148.336H233.927V146.333C233.506 147.028 232.906 147.598 232.19 147.982C231.392 148.4 230.501 148.608 229.601 148.589C228.917 148.613 228.238 148.465 227.626 148.16C227.014 147.854 226.489 147.399 226.099 146.837C225.182 145.422 224.74 143.751 224.838 142.068L224.818 141.857ZM225.499 142.109C225.424 143.602 225.786 145.084 226.541 146.374C226.865 146.886 227.319 147.302 227.857 147.579C228.394 147.857 228.996 147.987 229.601 147.955C230.566 147.986 231.517 147.719 232.326 147.192C233.051 146.687 233.604 145.974 233.914 145.148V139.016C233.623 138.134 233.111 137.341 232.428 136.713C231.638 136.055 230.627 135.724 229.601 135.786C228.985 135.761 228.374 135.904 227.833 136.199C227.291 136.494 226.84 136.931 226.528 137.462C225.777 138.796 225.414 140.314 225.479 141.843L225.499 142.109Z" fill="white"/>
<path d="M246.6 144.602L247.282 147.26H247.357L248.188 144.589L251.015 135.363H251.663L254.504 144.575L255.328 147.246H255.397L256.078 144.589L258.687 135.363H259.43L255.73 148.309H255.097L251.874 138.613L251.343 136.569H251.274L250.722 138.613L247.581 148.35H246.948L243.262 135.404H243.991L246.6 144.602Z" fill="white"/>
<path d="M266.973 148.602C266.249 148.608 265.534 148.452 264.879 148.144C264.224 147.836 263.647 147.385 263.191 146.824C262.136 145.582 261.584 143.989 261.644 142.361V141.591C261.577 139.914 262.122 138.269 263.178 136.964C263.639 136.388 264.227 135.924 264.895 135.61C265.564 135.296 266.295 135.139 267.034 135.152C267.666 135.124 268.296 135.237 268.879 135.482C269.463 135.727 269.984 136.098 270.407 136.569C271.293 137.66 271.741 139.043 271.66 140.446V141.434H262.278V142.361C262.23 143.801 262.696 145.212 263.593 146.34C263.994 146.858 264.511 147.274 265.103 147.555C265.695 147.836 266.345 147.972 267 147.955C267.753 147.958 268.499 147.809 269.194 147.519C269.841 147.268 270.425 146.877 270.904 146.374L271.245 146.878C270.76 147.405 270.17 147.825 269.514 148.111C268.714 148.461 267.846 148.628 266.973 148.602ZM267.034 135.799C266.428 135.778 265.825 135.889 265.266 136.125C264.707 136.36 264.206 136.714 263.798 137.162C262.937 138.144 262.435 139.388 262.374 140.691V140.766H270.993V140.371C271.041 139.177 270.662 138.006 269.923 137.067C269.571 136.648 269.127 136.316 268.626 136.097C268.125 135.877 267.58 135.775 267.034 135.799Z" fill="white"/>
<path d="M284.436 142.109C284.532 143.793 284.088 145.464 283.168 146.878C282.778 147.439 282.254 147.893 281.643 148.199C281.033 148.505 280.355 148.653 279.673 148.629C278.767 148.651 277.871 148.44 277.07 148.016C276.355 147.636 275.757 147.068 275.34 146.374L275.258 148.377H274.726V144.841V144.78C274.726 144.78 274.726 144.78 274.726 144.732V139.438V139.356V129.667H275.36V137.667C275.759 136.91 276.351 136.272 277.077 135.82C277.851 135.352 278.742 135.116 279.646 135.139C280.338 135.114 281.025 135.268 281.641 135.585C282.256 135.903 282.78 136.373 283.161 136.951C284.082 138.411 284.527 140.12 284.436 141.843V142.109ZM283.754 141.857C283.82 140.326 283.454 138.808 282.698 137.476C282.386 136.946 281.936 136.51 281.396 136.215C280.857 135.92 280.247 135.776 279.632 135.8C278.608 135.74 277.598 136.069 276.805 136.719C276.126 137.338 275.618 138.122 275.333 138.995V145.195C275.635 146.013 276.185 146.716 276.907 147.205C277.719 147.725 278.669 147.986 279.632 147.955C280.235 147.986 280.836 147.855 281.372 147.578C281.909 147.3 282.362 146.885 282.685 146.374C283.445 145.086 283.81 143.603 283.734 142.109L283.754 141.857Z" fill="white"/>
<path d="M292.074 139.111C293.306 139.189 294.522 138.8 295.48 138.021C295.873 137.695 296.188 137.286 296.402 136.822C296.615 136.359 296.722 135.853 296.713 135.343C296.751 134.79 296.668 134.235 296.468 133.717C296.269 133.2 295.959 132.732 295.559 132.347C295.16 131.962 294.681 131.669 294.157 131.489C293.632 131.308 293.075 131.245 292.523 131.303C291.363 131.264 290.231 131.671 289.362 132.441C288.945 132.824 288.617 133.295 288.4 133.818C288.184 134.342 288.084 134.906 288.108 135.473H287.563V135.404C287.519 134.771 287.619 134.135 287.855 133.545C288.091 132.956 288.457 132.426 288.926 131.998C289.911 131.117 291.195 130.646 292.516 130.683C293.158 130.651 293.8 130.748 294.404 130.968C295.008 131.188 295.561 131.526 296.032 131.964C296.467 132.413 296.806 132.946 297.027 133.53C297.249 134.115 297.348 134.739 297.32 135.364C297.33 136.259 297.029 137.131 296.468 137.83C295.88 138.573 295.079 139.12 294.172 139.397C295.176 139.616 296.086 140.148 296.768 140.916C297.404 141.7 297.733 142.688 297.695 143.696C297.731 144.36 297.623 145.023 297.378 145.64C297.133 146.258 296.758 146.815 296.277 147.273C295.264 148.164 293.946 148.63 292.598 148.575C291.206 148.591 289.851 148.126 288.762 147.26C288.209 146.819 287.774 146.25 287.493 145.601C287.213 144.952 287.096 144.244 287.154 143.54V143.472H287.692C287.671 144.072 287.782 144.669 288.017 145.221C288.253 145.774 288.607 146.267 289.055 146.667C290.014 147.518 291.262 147.969 292.544 147.928C293.744 148.002 294.925 147.604 295.835 146.817C296.236 146.417 296.548 145.936 296.75 145.406C296.952 144.876 297.039 144.31 297.006 143.744C297.048 143.168 296.945 142.591 296.707 142.066C296.469 141.54 296.104 141.081 295.644 140.733C294.561 140.033 293.286 139.692 291.999 139.758H290.69V139.077L292.074 139.111Z" fill="white"/>
<path d="M302.076 148.35H301.067V146.79H302.076V148.35Z" fill="white"/>
<path d="M136.985 36.6294H139.084C140.132 36.6534 141.173 36.4415 142.129 36.0094C142.941 35.6498 143.632 35.0629 144.119 34.3196C144.581 33.5763 144.818 32.7147 144.8 31.8395C144.836 31.1606 144.734 30.4813 144.5 29.843C144.266 29.2047 143.904 28.6206 143.437 28.1262C142.921 27.6528 142.315 27.2882 141.655 27.054C140.994 26.8199 140.294 26.7211 139.595 26.7635C138.168 26.7064 136.775 27.2074 135.711 28.1602C135.207 28.6287 134.81 29.2006 134.548 29.8369C134.285 30.4732 134.164 31.1587 134.192 31.8463H132.147C132.136 30.6127 132.472 29.4008 133.116 28.3489C133.761 27.2971 134.688 26.4478 135.793 25.8982C136.97 25.3166 138.268 25.0224 139.581 25.0397C141.53 24.9292 143.444 25.5956 144.902 26.8929C145.559 27.5457 146.07 28.3299 146.403 29.1941C146.735 30.0584 146.881 30.9831 146.831 31.9077C146.836 33.1008 146.443 34.2615 145.713 35.2054C144.917 36.2323 143.844 37.0101 142.62 37.447C143.996 37.7748 145.223 38.5515 146.108 39.6546C146.907 40.7304 147.324 42.0419 147.294 43.3816C147.336 44.3276 147.175 45.2717 146.822 46.1506C146.47 47.0296 145.934 47.8231 145.25 48.478C143.733 49.8187 141.753 50.5132 139.731 50.4131C138.334 50.4303 136.952 50.1273 135.69 49.5273C134.512 49.0037 133.516 48.1406 132.83 47.0484C132.145 45.9561 131.8 44.6842 131.841 43.3952H133.885C133.86 44.1159 133.995 44.8332 134.278 45.4962C134.562 46.1591 134.988 46.7515 135.527 47.2312C136.692 48.2455 138.201 48.7767 139.744 48.7165C141.231 48.8029 142.695 48.3151 143.833 47.3538C144.341 46.8449 144.734 46.2334 144.987 45.5601C145.24 44.8867 145.345 44.1672 145.297 43.4497C145.341 42.7414 145.221 42.0326 144.947 41.3781C144.673 40.7235 144.252 40.1408 143.717 39.675C142.661 38.8029 141.1 38.3737 139.05 38.3737H137.005L136.985 36.6294Z" fill="white"/>
<path d="M151.593 54.6648L150.394 53.7858C151.364 52.5661 151.922 51.0705 151.988 49.5138V46.877H153.964V48.9891C154.006 50.0508 153.816 51.1089 153.407 52.0893C152.997 53.0696 152.378 53.9487 151.593 54.6648Z" fill="white"/>
<path d="M162.842 36.6293H164.941C165.99 36.6533 167.03 36.4414 167.986 36.0093C168.799 35.6496 169.49 35.0628 169.976 34.3195C170.438 33.5761 170.675 32.7146 170.657 31.8394C170.692 31.1606 170.589 30.4818 170.355 29.8437C170.121 29.2057 169.76 28.6214 169.295 28.1261C168.777 27.6525 168.169 27.2878 167.508 27.0537C166.847 26.8196 166.145 26.7209 165.445 26.7634C164.018 26.7063 162.625 27.2073 161.561 28.1601C161.058 28.6292 160.663 29.2014 160.402 29.8377C160.14 30.4739 160.02 31.1591 160.049 31.8462H158.005C158.013 30.6234 158.362 29.4272 159.013 28.3918C159.654 27.3357 160.583 26.4846 161.691 25.9389C162.868 25.3581 164.166 25.0639 165.479 25.0804C167.42 24.9606 169.33 25.612 170.794 26.8928C171.45 27.5456 171.962 28.3298 172.294 29.194C172.626 30.0583 172.772 30.983 172.722 31.9075C172.718 33.1047 172.312 34.2659 171.57 35.2053C170.774 36.2322 169.701 37.01 168.477 37.4469C169.853 37.7747 171.08 38.5514 171.965 39.6545C172.764 40.7303 173.181 42.0418 173.151 43.3814C173.193 44.3275 173.032 45.2716 172.68 46.1505C172.327 47.0294 171.791 47.823 171.107 48.4779C169.59 49.8186 167.61 50.5131 165.588 50.413C164.183 50.4291 162.794 50.1213 161.527 49.5136C160.351 48.987 159.357 48.1232 158.672 47.0317C157.987 45.9401 157.641 44.6698 157.678 43.3814H159.722C159.697 44.1022 159.831 44.8195 160.115 45.4824C160.399 46.1454 160.825 46.7378 161.364 47.2174C162.529 48.2317 164.037 48.763 165.581 48.7028C167.068 48.7906 168.532 48.3026 169.669 47.3401C170.177 46.8312 170.571 46.2196 170.824 45.5463C171.076 44.873 171.182 44.1535 171.134 43.436C171.178 42.7277 171.058 42.0189 170.784 41.3643C170.51 40.7098 170.089 40.1271 169.553 39.6613C168.497 38.7892 166.937 38.3599 164.886 38.3599H162.842V36.6293Z" fill="white"/>
<path d="M182.056 36.6292H184.162C185.21 36.6532 186.251 36.4414 187.207 36.0092C188.017 35.6485 188.705 35.0618 189.19 34.3195C189.652 33.5761 189.889 32.7146 189.871 31.8394C189.907 31.1604 189.805 30.4812 189.571 29.8429C189.337 29.2045 188.975 28.6205 188.509 28.126C187.992 27.6529 187.386 27.2885 186.726 27.0544C186.065 26.8203 185.365 26.7213 184.666 26.7633C183.239 26.7062 181.846 27.2072 180.782 28.1601C180.278 28.6285 179.881 29.2005 179.619 29.8367C179.356 30.473 179.235 31.1585 179.263 31.8462H177.219C177.207 30.6126 177.543 29.4006 178.187 28.3488C178.832 27.2969 179.759 26.4476 180.864 25.898C182.041 25.3164 183.339 25.0222 184.652 25.0395C186.586 24.9307 188.485 25.5865 189.939 26.8655C190.608 27.5172 191.13 28.304 191.471 29.1734C191.812 30.0428 191.963 30.9749 191.915 31.9075C191.919 33.1014 191.523 34.2623 190.791 35.2052C189.995 36.2321 188.922 37.0099 187.698 37.4468C189.074 37.7746 190.301 38.5513 191.186 39.6544C191.985 40.7303 192.402 42.0418 192.372 43.3814C192.414 44.3275 192.253 45.2715 191.9 46.1505C191.548 47.0294 191.012 47.8229 190.328 48.4779C188.811 49.8185 186.831 50.513 184.809 50.4129C183.412 50.4302 182.03 50.1271 180.768 49.5271C179.591 48.9994 178.596 48.1332 177.912 47.0389C177.228 45.9445 176.884 44.6714 176.926 43.3814H178.97C178.945 44.1021 179.079 44.8194 179.363 45.4824C179.647 46.1454 180.073 46.7377 180.612 47.2174C181.776 48.2329 183.285 48.7643 184.829 48.7027C186.316 48.7877 187.779 48.3001 188.917 47.34C189.426 46.8311 189.819 46.2196 190.072 45.5463C190.324 44.873 190.43 44.1534 190.382 43.4359C190.426 42.727 190.306 42.0175 190.03 41.3627C189.755 40.708 189.332 40.1257 188.795 39.6612C187.739 38.7891 186.185 38.3599 184.134 38.3599H182.09L182.056 36.6292Z" fill="white"/>
<path d="M201.277 36.6293H203.376C204.427 36.6539 205.47 36.442 206.428 36.0093C207.239 35.6477 207.929 35.0613 208.418 34.3195C208.88 33.5763 209.117 32.7147 209.099 31.8394C209.135 31.1605 209.033 30.4812 208.799 29.8429C208.564 29.2046 208.203 28.6205 207.736 28.1261C207.22 27.653 206.613 27.2886 205.953 27.0545C205.293 26.8204 204.593 26.7214 203.893 26.7634C202.466 26.7063 201.073 27.2073 200.01 28.1601C199.506 28.6286 199.109 29.2005 198.846 29.8368C198.584 30.4731 198.463 31.1586 198.49 31.8462H196.446C196.436 30.6137 196.771 29.4029 197.414 28.3514C198.057 27.2999 198.983 26.45 200.085 25.8981C201.264 25.3172 202.565 25.023 203.88 25.0396C205.812 24.9304 207.709 25.5864 209.16 26.8656C209.818 27.518 210.33 28.302 210.664 29.1662C210.997 30.0304 211.144 30.9553 211.095 31.8803C211.118 33.0799 210.733 34.2518 210.005 35.2053C209.206 36.2276 208.13 36.9987 206.905 37.4265C208.281 37.7542 209.508 38.531 210.393 39.634C211.201 40.7137 211.624 42.0333 211.593 43.3815C211.634 44.3275 211.474 45.2716 211.121 46.1505C210.769 47.0295 210.233 47.823 209.549 48.4779C208.029 49.8177 206.046 50.512 204.023 50.413C202.628 50.4301 201.248 50.1271 199.989 49.5272C198.811 49.0024 197.815 48.1393 197.129 47.0474C196.442 45.9556 196.096 44.6843 196.133 43.3951H198.177C198.154 44.1163 198.289 44.8338 198.574 45.4967C198.859 46.1596 199.286 46.7517 199.826 47.2311C200.988 48.2468 202.495 48.7783 204.036 48.7164C205.523 48.8007 206.986 48.3132 208.125 47.3537C208.633 46.8448 209.026 46.2333 209.279 45.56C209.532 44.8867 209.637 44.1671 209.589 43.4496C209.633 42.7407 209.513 42.0312 209.238 41.3764C208.962 40.7217 208.539 40.1394 208.002 39.6749C206.946 38.8028 205.392 38.3736 203.335 38.3736H201.291L201.277 36.6293Z" fill="white"/>
<path d="M241.279 27.1656H232.796V50.0589H230.752V27.1656H222.31V25.4009H241.279V27.1656Z" fill="white"/>
<path d="M241.988 40.656C241.96 39.009 242.31 37.3777 243.01 35.8865C243.638 34.5288 244.647 33.3833 245.915 32.5896C247.183 31.7959 248.655 31.3885 250.15 31.4169C251.267 31.3793 252.378 31.5902 253.403 32.0344C254.428 32.4787 255.342 33.1451 256.078 33.9856C257.59 35.6935 258.347 37.9646 258.347 40.799V41.2283C258.372 42.8757 258.02 44.5071 257.318 45.9977C256.696 47.3468 255.694 48.4855 254.436 49.275C253.155 50.0498 251.681 50.4488 250.184 50.4265C249.069 50.4621 247.959 50.2502 246.936 49.8061C245.912 49.362 244.999 48.6966 244.263 47.8578C242.746 46.1453 241.988 43.8742 241.988 41.0443V40.656ZM244.032 41.2147C243.95 43.1553 244.553 45.0628 245.735 46.6041C246.274 47.264 246.954 47.7958 247.724 48.1609C248.494 48.5261 249.335 48.7155 250.188 48.7155C251.04 48.7155 251.881 48.5261 252.652 48.1609C253.422 47.7958 254.101 47.264 254.64 46.6041C255.84 45.0065 256.442 43.0396 256.344 41.0443V40.656C256.36 39.3323 256.095 38.0203 255.567 36.8063C255.109 35.7101 254.351 34.7654 253.38 34.0809C252.432 33.4391 251.308 33.1059 250.164 33.1271C249.312 33.1111 248.468 33.2951 247.7 33.6643C246.932 34.0335 246.261 34.5776 245.742 35.2529C244.543 36.8512 243.938 38.817 244.032 40.8127V41.2147Z" fill="white"/>
<path d="M266.864 40.8265L264.547 43.0682V50.0588H262.503V24.0449H264.547V40.6971L266.462 38.653L273.473 31.7646H276.028L268.267 39.457L276.716 50.0588H274.297L266.864 40.8265Z" fill="white"/>
<path d="M286.268 50.3992C284.781 50.4161 283.318 50.0173 282.044 49.2477C280.789 48.4739 279.778 47.3615 279.128 46.0386C278.413 44.605 278.053 43.0207 278.079 41.4191V40.6968C278.051 39.0499 278.401 37.4185 279.101 35.9274C279.729 34.5782 280.717 33.4279 281.955 32.6024C283.123 31.8089 284.503 31.3862 285.914 31.3896C286.911 31.3461 287.905 31.5281 288.821 31.9222C289.738 32.3162 290.554 32.9121 291.208 33.6653C292.512 35.1824 293.164 37.2583 293.164 39.8928V41.0239H280.068V41.4122C280.001 43.3061 280.637 45.158 281.853 46.6109C282.396 47.2742 283.082 47.8057 283.86 48.1657C284.637 48.5256 285.487 48.7046 286.343 48.689C287.334 48.7095 288.317 48.5069 289.219 48.0963C290.11 47.6499 290.883 46.9984 291.474 46.1953L292.755 47.1628C292.042 48.2129 291.071 49.0621 289.935 49.6288C288.799 50.1956 287.536 50.4609 286.268 50.3992ZM285.894 33.1611C285.169 33.1488 284.451 33.2921 283.787 33.5813C283.123 33.8704 282.528 34.2987 282.044 34.8372C280.938 36.0931 280.269 37.6731 280.136 39.3409H291.126V39.1161C291.139 37.5515 290.607 36.0314 289.621 34.8168C289.165 34.2768 288.593 33.8471 287.948 33.5603C287.302 33.2735 286.6 33.137 285.894 33.1611Z" fill="white"/>
<path d="M299.016 31.737L299.085 34.8712C299.709 33.805 300.596 32.9161 301.66 32.2889C302.696 31.6925 303.872 31.3843 305.067 31.3963C307.029 31.3963 308.474 31.9482 309.448 33.0588C310.422 34.1694 310.892 35.8251 310.906 38.0327V50.0585H308.862V38.019C308.955 36.7159 308.588 35.4215 307.826 34.3602C307.145 33.5562 306.048 33.161 304.549 33.161C303.335 33.1462 302.155 33.5613 301.217 34.3329C300.222 35.1711 299.481 36.2709 299.078 37.508V50.0585H297.034V31.737H299.016Z" fill="white"/>
<path d="M327.115 45.4255C327.125 44.9542 327.019 44.4876 326.808 44.0662C326.597 43.6447 326.286 43.2811 325.902 43.0067C324.798 42.2798 323.554 41.7924 322.25 41.5759C320.946 41.3374 319.676 40.9392 318.469 40.3904C317.67 40.0321 316.981 39.4677 316.473 38.7551C316.013 38.0634 315.776 37.2482 315.791 36.4181C315.784 35.7203 315.946 35.031 316.261 34.4085C316.576 33.786 317.037 33.2484 317.604 32.841C318.943 31.8523 320.58 31.3521 322.244 31.4238C324.011 31.3335 325.754 31.8718 327.163 32.9432C327.759 33.4117 328.237 34.0131 328.558 34.6993C328.88 35.3855 329.037 36.1374 329.016 36.8951H326.972C326.974 36.3725 326.852 35.857 326.615 35.3912C326.378 34.9255 326.033 34.5231 325.609 34.2174C324.642 33.5561 323.505 33.1877 322.334 33.1563C321.163 33.1249 320.008 33.4318 319.007 34.0402C318.628 34.2931 318.318 34.637 318.106 35.0406C317.895 35.4441 317.787 35.8943 317.794 36.35C317.773 36.7601 317.854 37.169 318.03 37.5401C318.206 37.9111 318.472 38.2326 318.803 38.4758C319.931 39.1548 321.177 39.6169 322.475 39.8385C323.859 40.1286 325.202 40.5862 326.475 41.2012C327.266 41.5939 327.944 42.1826 328.444 42.9114C329.028 43.9056 329.227 45.0803 329 46.2114C328.774 47.3424 328.139 48.3505 327.217 49.0435C325.78 50.0165 324.065 50.4949 322.332 50.4062C320.494 50.4737 318.686 49.9192 317.202 48.8323C316.587 48.385 316.088 47.7973 315.747 47.1181C315.406 46.439 315.232 45.6882 315.239 44.9281H317.283C317.301 45.4741 317.445 46.0085 317.705 46.4887C317.966 46.969 318.334 47.3818 318.782 47.6944C319.862 48.4014 321.138 48.7496 322.428 48.6892C323.633 48.7427 324.825 48.4162 325.834 47.7557C326.225 47.5044 326.546 47.1597 326.77 46.7528C326.993 46.346 327.112 45.8898 327.115 45.4255Z" fill="white"/>
<path d="M224.974 256.391C224.715 256.098 224.409 255.839 223.864 255.315C223.094 258.803 222.385 261.965 221.602 265.487C218.876 259.519 214.659 255.083 210.618 250.498C207.491 246.955 204.268 243.487 201.297 239.821C196.505 233.803 193.838 226.368 193.715 218.675C193.592 210.983 196.018 203.466 200.616 197.298C200.848 196.985 201.052 196.651 201.386 196.153C196.841 197.516 187.159 203.907 180.898 214.025C169.077 233.103 170.834 251.949 182.663 270.577C175.624 268.247 170.882 263.579 167.802 257.039C160.001 265.385 154.121 282.882 159.749 299.378C161.861 305.465 165.253 311.029 169.697 315.696C175.338 321.753 183.405 326.223 185.592 326.291L184.822 325.385C182.744 322.959 180.584 320.615 178.615 318.108C174.342 312.855 171.594 306.529 170.671 299.82C169.867 293.572 170.93 287.488 172.81 281.526C172.879 281.368 172.956 281.213 173.042 281.063C173.362 281.56 173.573 281.853 173.723 282.173C176.918 287.687 182.023 291.837 188.072 293.838C188.638 294.093 189.272 294.154 189.876 294.011C190.48 293.868 191.02 293.529 191.411 293.048C197.339 287.304 199.124 277.595 195.567 270.127C195.411 269.793 195.268 269.446 195.118 269.126L195.431 268.989C204.384 276.205 208.193 285.655 207.375 297.272C208.845 296.319 210.248 295.265 211.572 294.118C212.901 292.973 214.175 291.76 215.504 290.547C215.551 290.833 215.647 291.229 215.688 291.631C216.641 301.374 213.316 309.584 206.721 316.622C203.216 320.238 199.302 323.433 195.056 326.141C194.722 326.366 194.409 326.618 194.089 326.856C194.242 326.953 194.414 327.017 194.593 327.047C194.772 327.076 194.955 327.069 195.131 327.027C198.579 326.257 202.067 325.63 205.461 324.676C215.742 321.78 223.578 315.621 228.149 305.98C233.368 294.99 235.474 283.427 232.353 271.333C230.929 265.842 228.831 260.684 224.974 256.391Z" fill="white"/>
<path d="M205.542 308.037C205.917 307.104 206.176 306.116 206.483 305.155L206.23 304.93C204.071 306.293 201.829 307.363 198.967 307.288C201.488 302.927 199.26 299.405 197.387 295.63C197.217 295.86 197.062 296.102 196.923 296.352C195.989 298.559 194.44 300.451 192.46 301.803C191.489 302.47 190.666 303.329 190.041 304.328C189.416 305.326 189.003 306.443 188.829 307.608C188.774 307.894 188.686 308.167 188.611 308.453C188.255 307.572 187.724 306.772 187.049 306.103C186.374 305.434 185.57 304.91 184.686 304.562C182.567 303.772 180.421 303.023 178.745 301.231C178.561 301.462 178.459 301.544 178.431 301.646C178.34 301.938 178.27 302.237 178.22 302.539C177.735 305.828 178.232 309.187 179.651 312.193C181.525 316.35 184.707 319.6 187.323 323.238C187.451 323.344 187.604 323.416 187.767 323.446C187.931 323.475 188.099 323.463 188.256 323.409C190.573 322.209 192.903 321.024 195.145 319.688C199.833 316.902 203.498 313.154 205.542 308.037Z" fill="white"/>
<path d="M194.825 182.097C150.149 182.533 114.589 217.193 112.879 261.195C112.388 272.265 114.151 283.319 118.063 293.686C121.975 304.053 127.954 313.517 135.635 321.503C143.317 329.489 152.542 335.83 162.75 340.141C172.957 344.452 183.935 346.643 195.015 346.581C239.494 346.581 275.415 312.071 277.281 267.198C279.128 221.69 242.335 182.329 194.825 182.097ZM194.573 340.061C154.598 340.102 120.176 306.968 119.999 264.384C119.829 224.089 152.07 190.117 193.496 189.108C234.793 188.134 269.466 220.668 270.441 262.285C271.449 305.701 237.654 339.918 194.573 340.061Z" fill="white"/>
</svg>
